<?xml version="1.0" encoding="utf-8"?>
<!-- Generator: Adobe Illustrator 21.1.0, SVG Export Plug-In . SVG Version: 6.00 Build 0)  -->
<svg version="1.1" id="Layer_1" xmlns="http://www.w3.org/2000/svg" xmlns:xlink="http://www.w3.org/1999/xlink" x="0px" y="0px"
	 viewBox="0 0 2403.6 902.3" style="enable-background:new 0 0 2403.6 902.3;" xml:space="preserve">
<style type="text/css">
	.st0{fill:none;}
	.st1{fill:#EC008C;}
	.st2{fill:#0099FF;}
</style>
<g>
	<rect y="47.8" class="st0" width="2403.6" height="915.5"/>
	<path class="st1" d="M804.4,54L713,595.5l-221.9,4.7l-47.7-280.5l-47.7,260.2l-221.9,7.8L81.7,54l193.8-17.2l39.1,324.2l52.3-324.2
		h152.3L580.1,365l31.3-328.1L804.4,54z"/>
	<path d="M1563.3,54l-91.4,541.4l-221.9,4.7l-47.7-280.5l-47.7,260.2l-221.9,7.8L840.7,54l193.7-17.2l39.1,324.2l52.3-324.2h152.3
		l60.9,328.1l31.3-328.1L1563.3,54z"/>
	<path class="st2" d="M2322.3,54l-91.4,541.4l-221.9,4.7l-47.7-280.5l-47.7,260.2l-221.9,7.8L1599.6,54l193.8-17.2l39.1,324.2
		l52.3-324.2h152.3l60.9,328.1l31.3-328.1L2322.3,54z"/>
</g>
<g>
	<g>
		<path class="st1" d="M164.1,664.7c5-1.1,12.4-1.6,22-1.6c9.6,0,14.8,0.4,15.5,1.1c-1.6,19.1-4.5,49.4-8.8,91
			c-4.2,41.6-7.2,73.4-9,95.6c-1.1,0.4-4.1,0.5-9.2,0.5h-13c-2.2-2.9-4.8-10.4-8-22.7c-3.2-12.2-5.8-20-8-23.2h-0.3
			c-2.3,2.3-5,9.7-7.8,22.1c-2.9,12.4-5.1,20-6.8,22.7c-5,0.9-9.2,1.4-12.4,1.4c-3.2,0-6.9-0.3-11.1-0.8h-0.3
			c-0.4-2.9-1.8-12.9-4.3-30l-4.6-32.9c-6.5-45.9-10.1-87-10.8-123.4v-0.3c5.9-0.9,10.6-1.4,14-1.4c3.4,0,11.6,0.3,24.6,0.8
			c0.5,6.1,0.9,23.4,0.9,51.8c0.1,28.4,1.7,48.7,4.7,60.8c8.5-31,12.7-47.3,12.7-49.1c0.9,0.7,3.3,9,7.3,24.7
			c4,15.8,6.5,25.1,7.6,27.9c1.1-10.4,1.9-29.6,2.6-57.4c0.6-27.8,1.4-46.9,2.3-57.4V664.7z"/>
		<path class="st1" d="M287.5,854.8l-28.6-0.8c-9.2-1.6-16.9-5.6-23.2-11.9c-4.5-4-7.8-9.3-10-16.1c-2.2-6.8-3.3-13.5-3.4-20.4
			c-0.1-6.8-0.1-14-0.1-21.6s0-14.6-0.1-21.1c-0.1-6.5,0.1-11.4,0.5-14.9c0.4-3.4,0.9-6.1,1.5-8.1c0.5-2,1.2-4.1,2-6.3
			c0.8-2.2,1.3-3.8,1.5-4.7c2.3-5.2,7.3-9.1,15-11.7c7.6-2.6,14.2-3.9,19.7-3.8c5.5,0.1,9.5,0.1,12,0.1l8.4-0.3
			c16.2,0,28.4,4,36.5,11.9c6.3,4.1,9.9,20.3,10.8,48.6c0.2,2.2,0.3,3.8,0.3,4.9c-1.3,32-3.2,51.7-5.9,58.9
			c-0.9,2.2-1.8,3.7-2.7,4.6c-2.9,4.1-7.2,7.2-12.8,9.2s-9.9,3.1-12.8,3.2C293,854.7,290.2,854.8,287.5,854.8z M275.1,816.4
			c11,0,17.5-4,19.4-11.9c1.1-9.5,1.6-16.9,1.6-22.1c0-5.2-0.3-9.2-0.8-11.9c-0.9-6.5-3.5-11.2-7.8-14c-2.7-1.6-5.6-2.4-8.6-2.4
			c-3.1,0-6.2,0.4-9.3,1.2c-3.2,0.8-5.9,2.7-8.2,5.5c-1.1,0.9-1.9,3.1-2.4,6.6c-0.5,3.5-0.9,9.2-1.1,17.1l-0.5,17.3
			c0,4.9,1.8,8.5,5.5,10.9C266.5,815.2,270.6,816.4,275.1,816.4z"/>
		<path class="st1" d="M376.1,717.6l12.7-1.4c1.6,0,2.8,0.4,3.5,1.1c0.4,2.3,0.5,5.1,0.5,8.4v5.9c3.6-2,5.8-3.3,6.8-4.1
			c8.5-6.3,17.8-9.4,28.1-9.4c10.3,0,19,2.9,26.2,8.6c1.1,1.1,2,2.6,2.7,4.6c4-2.3,6.1-3.6,6.5-3.8c8.5-6.3,17.8-9.4,28.1-9.4
			c10.3,0,19,2.9,26.2,8.6c3.4,3.1,5.4,11.9,5.9,26.5c0.2,6.7,0.3,14.1,0.3,22.4l-0.8,59.9c0,6.7,0.1,12,0.3,15.9
			c-4.9,0.7-16.1,1.1-33.8,1.1c-0.4-5.4-0.5-15.4-0.5-30.1c0-14.7-0.1-23.9-0.3-27.8c-0.2-3.9-0.4-6.8-0.5-8.6
			c-0.2-1.9-0.3-3.4-0.4-4.5c-0.1-1.1-0.3-2.5-0.5-4.3c-0.3-1.8-0.5-3.2-0.8-4.3s-0.6-2.2-0.9-3.5c-2-5.6-6.6-8.4-13.8-8.4
			c-4,0-7.7,1.4-11.3,4.1c0,2.2,0,4.8,0,7.8l-0.8,62.4c0,7,0.1,12.4,0.3,16.2c-4.9,0.7-16.1,1.1-33.8,1.1
			c-0.4-5.4-0.5-15.4-0.5-30.1c0-14.7-0.1-23.9-0.3-27.8c-0.2-3.9-0.4-6.8-0.5-8.6c-0.2-1.9-0.3-3.4-0.4-4.5
			c-0.1-1.1-0.3-2.5-0.5-4.3c-0.3-1.8-0.5-3.2-0.8-4.3s-0.7-2.2-1.2-3.5c-1.8-5.6-6.5-8.4-14-8.4c-3.4,0-6.9,1.3-10.4,3.9
			c-3.5,2.6-5.4,6.9-5.8,12.8c-0.2,2.3-0.3,5.2-0.3,8.6l1.1,44.8c0,8.6-0.4,14.9-1.1,18.9v1.1c-1.6,1.1-5.1,1.6-10.5,1.6l-14.9-0.3
			c-3.1,0-5.8,0.1-8.1,0.3l-0.8-105.3c0-16.7,0.2-26.7,0.5-30c3.2,0.4,6.4,0.5,9.4,0.5L376.1,717.6z"/>
		<path class="st1" d="M612.1,855.6l-24.6-0.8c-5-0.7-9.7-2.3-14-4.9c-9-6.3-15.4-15.8-19.2-28.5c-3.8-12.7-5.7-25.7-5.7-39
			c0-2.3,0.1-4.7,0.3-7c1.4-18.2,3.4-30.7,5.9-37.5c4.5-10.3,13.4-17.5,26.7-21.6c7.2-2.3,14.1-3.5,20.8-3.5c6.7,0,13,0.8,19.2,2.4
			c24.5,4.1,36.7,22.8,36.7,55.9c0,3.6-0.2,7.3-0.5,11.1c-4,1.1-12.6,1.9-26.1,2.4c-13.4,0.5-23.6,0.8-30.5,0.8
			c-6.9,0-12.2-0.4-15.8-1.1v8.4l0.3,5.9c0,1.3,0,2.1,0.1,2.6c0.1,0.5,0.2,1.2,0.4,2.3c0.2,1.1,0.4,1.9,0.5,2.4
			c3.1,9.4,8.2,15.2,15.4,17.5c1.6,0.4,3.7,0.5,6.3,0.5c2.6,0,5.7-1.6,9.3-4.9c3.6-3.2,5.4-8.9,5.4-17c0-0.5,0-1.2,0-1.9
			c0.5,0,1.5,0,3,0l21.1-0.5c5.2,0,8.5,0.4,10,1.1c-1.8,25.4-4.3,39.4-7.6,42.1c-4.9,6.7-12.1,10.5-21.6,11.6
			C622.1,855.2,616.7,855.6,612.1,855.6z M611.5,763.3l14.6,0.5c0.9,0,1.5-0.1,1.9-0.3c0.4-0.2,0.5-0.7,0.5-1.6V760
			c0-8.1-3.5-13.9-10.5-17.6c-2.9-1.8-7.1-2.7-12.7-2.7c-11.3,0-17.7,5.9-19.2,17.5c-0.2,1.1-0.3,2.2-0.3,3.4c0,1.2,0.4,1.9,1.2,2.2
			s4.9,0.4,12.4,0.4C607,763.3,611,763.3,611.5,763.3z"/>
		<path class="st1" d="M703,717.6l12.7-1.4c1.6,0,2.8,0.4,3.5,1.1c0.4,2.3,0.5,5.1,0.5,8.4v5.9c3.6-2,5.8-3.3,6.8-4.1
			c8.5-6.3,17.8-9.4,28.1-9.4c10.3,0,19,2.9,26.2,8.6c3.4,3.1,5.4,11.9,5.9,26.5c0.2,6.7,0.3,14.1,0.3,22.4l-0.8,59.9
			c0,6.7,0.1,12,0.3,15.9c-4.9,0.7-16.1,1.1-33.8,1.1c-0.4-5.4-0.5-15.4-0.5-30.1c0-14.7-0.1-23.9-0.3-27.8
			c-0.2-3.9-0.4-6.8-0.5-8.6c-0.2-1.9-0.3-3.4-0.4-4.5c-0.1-1.1-0.3-2.5-0.5-4.3c-0.3-1.8-0.5-3.2-0.8-4.3s-0.6-2.2-0.9-3.5
			c-2-5.6-6.8-8.4-14.3-8.4c-3.4,0-6.9,1.3-10.4,3.9c-3.5,2.6-5.4,6.9-5.8,12.8c-0.2,2.3-0.3,5.2-0.3,8.6l1.1,44.8
			c0,8.6-0.4,14.9-1.1,18.9v1.1c-1.6,1.1-5.1,1.6-10.5,1.6l-14.9-0.3c-3.2,0-5.9,0.1-8.1,0.3l-0.8-105.3c0-16.7,0.2-26.7,0.5-30
			c3.1,0.4,6.2,0.5,9.4,0.5L703,717.6z"/>
	</g>
</g>
<g>
	<path d="M988.9,717.6l15.7-0.3c4.7,0,8.2,0.2,10.5,0.5c1.1,5.8,2.6,15.4,4.6,28.9c5,32.6,9.4,53.7,13,63.4
		c4-11.7,6.6-20.6,7.8-26.7c3.4-16.9,6.8-32.8,10-47.5l3.5-18.9c1.8,0.2,3.7,0.3,5.7,0.3l16.7-0.8c3.2,0,5.8,0.3,7.6,0.8
		c0.4,2,2.6,15.8,6.6,41.4c4.1,25.7,7.6,42.8,10.7,51.4c3.1-7.6,7-23.5,11.9-47.9c4.9-24.4,8.3-39.1,10.3-44.1l27-1.1
		c2.9,0,5.6,0.1,8.1,0.3c-5.8,15.8-12.3,40.2-19.6,73.2s-12,53.6-14.2,61.8c-4.9,0.9-11.1,1.4-18.6,1.4l-28.9-0.8
		c-6.7-40-10.2-60.8-10.5-62.6c-1.3,5.8-2.9,15.8-4.9,30.1c-2,14.3-3.9,25-5.7,32c-4.9,0.9-11.5,1.4-20,1.4l-30.8-0.8
		c-8.8-54.2-18.2-99.4-28.1-135.8C980.2,717.4,984,717.6,988.9,717.6z"/>
	<path d="M1198.4,656.9l12.7-1.4c1.6,0,2.8,0.4,3.5,1.1c0.2,0.9,0.3,25.9,0.3,75.1c3.6-2,5.8-3.3,6.8-4.1c8.5-6.3,17.8-9.4,28.1-9.4
		c10.3,0,19,2.9,26.2,8.6c3.4,3.1,5.4,11.9,5.9,26.5c0.2,6.7,0.3,14.1,0.3,22.4l-0.8,59.9c0,6.7,0.1,12,0.3,15.9
		c-4.9,0.7-16.1,1.1-33.8,1.1c-0.4-5.4-0.5-15.4-0.5-30.1c0-14.7-0.1-23.9-0.3-27.8c-0.2-3.9-0.4-6.8-0.5-8.6
		c-0.2-1.9-0.3-3.4-0.4-4.5c-0.1-1.1-0.3-2.5-0.5-4.3c-0.3-1.8-0.5-3.2-0.8-4.3s-0.6-2.2-0.9-3.5c-2-5.6-6.8-8.4-14.3-8.4
		c-3.4,0-6.9,1.3-10.4,3.9c-3.5,2.6-5.4,6.9-5.8,12.8c-0.2,2.3-0.3,5.2-0.3,8.6l1.1,44.8c0,8.6-0.4,14.9-1.1,18.9v1.1
		c-1.6,1.1-5.1,1.6-10.5,1.6l-14.9-0.3c-3.2,0-5.9,0.1-8.1,0.3l-0.5-137.4c0-25,0.2-44.5,0.5-58.6c3.2,0.2,6.4,0.3,9.4,0.3
		L1198.4,656.9z"/>
	<path d="M1373.9,854.8l-28.6-0.8c-9.2-1.6-16.9-5.6-23.2-11.9c-4.5-4-7.8-9.3-10-16.1c-2.2-6.8-3.3-13.5-3.4-20.4
		c-0.1-6.8-0.1-14-0.1-21.6s0-14.6-0.1-21.1c-0.1-6.5,0.1-11.4,0.5-14.9c0.4-3.4,0.9-6.1,1.5-8.1c0.5-2,1.2-4.1,2-6.3
		c0.8-2.2,1.3-3.8,1.5-4.7c2.3-5.2,7.3-9.1,15-11.7c7.6-2.6,14.2-3.9,19.7-3.8c5.5,0.1,9.5,0.1,12,0.1l8.4-0.3
		c16.2,0,28.4,4,36.5,11.9c6.3,4.1,9.9,20.3,10.8,48.6c0.2,2.2,0.3,3.8,0.3,4.9c-1.3,32-3.2,51.7-5.9,58.9c-0.9,2.2-1.8,3.7-2.7,4.6
		c-2.9,4.1-7.2,7.2-12.8,9.2c-5.7,2-9.9,3.1-12.8,3.2C1379.4,854.7,1376.6,854.8,1373.9,854.8z M1361.5,816.4c11,0,17.5-4,19.4-11.9
		c1.1-9.5,1.6-16.9,1.6-22.1c0-5.2-0.3-9.2-0.8-11.9c-0.9-6.5-3.5-11.2-7.8-14c-2.7-1.6-5.6-2.4-8.6-2.4c-3.1,0-6.2,0.4-9.3,1.2
		c-3.2,0.8-5.9,2.7-8.2,5.5c-1.1,0.9-1.9,3.1-2.4,6.6c-0.5,3.5-0.9,9.2-1.1,17.1l-0.5,17.3c0,4.9,1.8,8.5,5.5,10.9
		C1352.9,815.2,1357,816.4,1361.5,816.4z"/>
</g>
<g>
	<g>
		<path class="st2" d="M1749.2,717.6l15.7-0.3c4.7,0,8.2,0.2,10.5,0.5c1.1,5.8,2.6,15.4,4.6,28.9c5,32.6,9.4,53.7,13,63.4
			c4-11.7,6.6-20.6,7.8-26.7c3.4-16.9,6.8-32.8,10-47.5l3.5-18.9c1.8,0.2,3.7,0.3,5.7,0.3l16.7-0.8c3.2,0,5.8,0.3,7.6,0.8
			c0.4,2,2.6,15.8,6.6,41.4c4,25.7,7.6,42.8,10.7,51.4c3.1-7.6,7-23.5,11.9-47.9c4.9-24.4,8.3-39.1,10.3-44.1l27-1.1
			c2.9,0,5.6,0.1,8.1,0.3c-5.8,15.8-12.3,40.2-19.6,73.2s-12,53.6-14.2,61.8c-4.9,0.9-11.1,1.4-18.6,1.4l-28.9-0.8
			c-6.7-40-10.2-60.8-10.5-62.6c-1.3,5.8-2.9,15.8-4.9,30.1c-2,14.3-3.9,25-5.7,32c-4.9,0.9-11.5,1.4-20,1.4l-30.8-0.8
			c-8.8-54.2-18.2-99.4-28.1-135.8C1740.5,717.4,1744.3,717.6,1749.2,717.6z"/>
		<path class="st2" d="M1995.4,855.6l-24.6-0.8c-5-0.7-9.7-2.3-14-4.9c-9-6.3-15.4-15.8-19.2-28.5c-3.8-12.7-5.7-25.7-5.7-39
			c0-2.3,0.1-4.7,0.3-7c1.4-18.2,3.4-30.7,5.9-37.5c4.5-10.3,13.4-17.5,26.7-21.6c7.2-2.3,14.1-3.5,20.8-3.5c6.7,0,13,0.8,19.2,2.4
			c24.5,4.1,36.7,22.8,36.7,55.9c0,3.6-0.2,7.3-0.5,11.1c-4,1.1-12.6,1.9-26.1,2.4c-13.4,0.5-23.6,0.8-30.5,0.8
			c-6.9,0-12.2-0.4-15.8-1.1v8.4l0.3,5.9c0,1.3,0,2.1,0.1,2.6c0.1,0.5,0.2,1.2,0.4,2.3c0.2,1.1,0.4,1.9,0.5,2.4
			c3.1,9.4,8.2,15.2,15.4,17.5c1.6,0.4,3.7,0.5,6.3,0.5c2.6,0,5.7-1.6,9.3-4.9c3.6-3.2,5.4-8.9,5.4-17c0-0.5,0-1.2,0-1.9
			c0.5,0,1.5,0,3,0l21.1-0.5c5.2,0,8.5,0.4,10,1.1c-1.8,25.4-4.3,39.4-7.6,42.1c-4.9,6.7-12.1,10.5-21.6,11.6
			C2005.4,855.2,2000.1,855.6,1995.4,855.6z M1994.9,763.3l14.6,0.5c0.9,0,1.5-0.1,1.9-0.3c0.4-0.2,0.5-0.7,0.5-1.6V760
			c0-8.1-3.5-13.9-10.5-17.6c-2.9-1.8-7.1-2.7-12.7-2.7c-11.3,0-17.7,5.9-19.2,17.5c-0.2,1.1-0.3,2.2-0.3,3.4c0,1.2,0.4,1.9,1.2,2.2
			s4.9,0.4,12.4,0.4C1990.4,763.3,1994.4,763.3,1994.9,763.3z"/>
		<path class="st2" d="M2068.6,662c3.6-0.7,10.2-1.1,19.7-1.1c9.5,0,14.3,0.5,14.3,1.4v3l1.4,22.9c0,2-0.1,5.3-0.3,10l-0.3,25.6
			c0.7-3.4,7.1-5.7,19.2-6.8c3.1-0.4,7.5-0.5,13.2-0.5c5.8,0,12.3,1.3,19.7,3.9c7.4,2.6,12.8,9,16.3,19c3.5,10.1,5.2,20.1,5.1,30.1
			c-0.1,10-0.3,17-0.5,21.1c-0.3,4-0.8,9-1.6,14.7c-0.8,5.8-1.8,10.5-3.1,14.2c-1.3,3.7-3,7.6-5.3,11.7c-2.3,4.1-4.9,7.5-8,10
			c-8.5,6.8-19.1,10.3-31.9,10.3c-9.4,0-16-4-20-11.9c-0.7-1.6-1.6-1.3-2.7,1.1l-0.3,8.9c0,1.1-0.1,1.7-0.3,1.9
			c-4.3,0.5-9.5,0.8-15.4,0.8l-21.1-0.5c-0.2-7.7-0.3-17.2-0.3-28.4l1.9-143.6V662z M2118.8,747.9c-7.6,0-12.2,1.7-13.9,5
			c-1.7,3.3-2.6,10.2-2.6,20.7c0,10.4,0.2,17.6,0.5,21.5c0.4,3.9,1.1,7.8,2.2,11.7c2.3,7.6,7.6,11.3,15.7,11.3
			c8.1,0,14.4-3.5,18.9-10.5c4.5-7,6.8-14.7,6.8-23c0-8.3-0.6-14.1-1.9-17.5C2142.5,754.3,2133.9,747.9,2118.8,747.9z"/>
	</g>
</g>
<g>
</g>
<g>
</g>
<g>
</g>
<g>
</g>
<g>
</g>
<g>
</g>
</svg>
