<?xml version="1.0" encoding="utf-8"?>
<!-- Generator: Adobe Illustrator 21.1.0, SVG Export Plug-In . SVG Version: 6.00 Build 0)  -->
<svg version="1.1" id="Layer_1" xmlns="http://www.w3.org/2000/svg" xmlns:xlink="http://www.w3.org/1999/xlink" x="0px" y="0px"
	 viewBox="0 0 2403.6 628.7" style="enable-background:new 0 0 2403.6 628.7;" xml:space="preserve">
<style type="text/css">
	.st0{fill:none;}
	.st1{fill:#EC008C;}
	.st2{fill:#0099FF;}
</style>
<g>
	<rect y="21.2" class="st0" width="2403.6" height="915.5"/>
	<path class="st1" d="M779.3,27.9l-98.1,581.3l-238.2,5l-51.2-301.2l-51.2,279.3l-238.2,8.4L3.4,27.9l208-18.5l41.9,348.1L309.6,9.4
		h163.6l65.4,352.3L572.1,9.4L779.3,27.9z"/>
	<path d="M1590,27.9l-98.1,581.3l-238.2,5l-51.2-301.2l-51.2,279.3L913,600.8L814,27.9l208-18.5l41.9,348.1l56.2-348.1h163.6
		l65.4,352.3l33.6-352.3L1590,27.9z"/>
	<path class="st2" d="M2400.6,27.9l-98.1,581.3l-238.2,5l-51.2-301.2l-51.2,279.3l-238.2,8.4l-99-572.9l208-18.5l41.9,348.1
		l56.2-348.1h163.6l65.4,352.3l33.6-352.3L2400.6,27.9z"/>
</g>
</svg>
