<svg id="mail" xmlns="http://www.w3.org/2000/svg" width="100" height="100" viewBox="0 0 100 100"><title>if_mail_227579</title><path d="M64.92,56.14c-3.37,0-6.1,3.78-6.1,8.44S61.55,73,64.92,73,71,69.25,71,64.59,68.28,56.14,64.92,56.14Zm21.24-22c.69-1.71.73-11.45-3-20.77,0,0-8.5.93-21.36,9.76A50.8,50.8,0,0,0,50,22a50.84,50.84,0,0,0-11.82,1.12C25.32,14.33,16.82,13.4,16.82,13.4c-3.7,9.32-3.67,19.06-3,20.77a25.43,25.43,0,0,0-7,18.16c0,33.72,28,34.26,35,34.26H58.13c7.06,0,35-.54,35-34.26A25.43,25.43,0,0,0,86.15,34.17Zm-36,48.27h-.26c-17.7,0-31.48-2.11-31.48-19.31A14.55,14.55,0,0,1,23.3,52c5.76-5.29,15.51-2.49,26.57-2.49h.26c11.06,0,20.81-2.8,26.57,2.49a14.55,14.55,0,0,1,4.91,11.12C81.61,80.33,67.83,82.44,50.13,82.44Zm-15-26.3c-3.37,0-6.1,3.78-6.1,8.44S31.72,73,35.08,73s6.1-3.78,6.1-8.44S38.45,56.14,35.08,56.14Z" style="fill:#fff"/></svg>