<svg id="mail" xmlns="http://www.w3.org/2000/svg" width="100" height="100" viewBox="0 0 100 100"><title>if_mail_227579</title><path d="M80.91,15.23H19.09A11.59,11.59,0,0,0,7.5,26.82V73.18A11.59,11.59,0,0,0,19.09,84.77H80.91A11.59,11.59,0,0,0,92.5,73.18V26.82A11.59,11.59,0,0,0,80.91,15.23Zm0,7.73a3.83,3.83,0,0,1,1.26.23L50,48.92,17.83,23.18A3.83,3.83,0,0,1,19.09,23Zm0,54.09H19.09a3.86,3.86,0,0,1-3.86-3.86V31L47.59,56.88a3.86,3.86,0,0,0,4.83,0L84.77,31V73.18A3.86,3.86,0,0,1,80.91,77Z" style="fill:#fff"/></svg>