<svg xmlns="http://www.w3.org/2000/svg" width="128" height="128" viewBox="0 0 128 128"><title>hermoso</title><g id="Layer_2" data-name="Layer 2"><path d="M92.57,58.7a97.5,97.5,0,0,0-20.11,1.43c-14.62,2.22-29.27,6.5-42.18,13.79a96.41,96.41,0,0,0-22,16.48c-.51.53.16,1.49.81,1,19.32-13.27,42.74-23,66.6-20.7a41.69,41.69,0,0,1,11.42,2.38c.36.15.69-.16.82-.47l5.27-13.13c.31-.8-1-1.14-1.28-.35L86.67,72.32l.82-.47a39.73,39.73,0,0,0-9.32-2.14A78.64,78.64,0,0,0,53,70.65C36.93,73.71,21.89,81.09,8.46,90.31l.81,1a93.32,93.32,0,0,1,17.6-13.82C39.65,69.47,54.2,64.76,69,62.06c7.67-1.4,15.76-2.48,23.58-2C93.44,60.08,93.44,58.75,92.57,58.7Z" style="fill:#2196f3;stroke:#2196f3;stroke-miterlimit:10;stroke-width:1.8694244623184204px"/><path d="M101.1,36.43c-8,.19-16.1,1.9-23.78,4a117,117,0,0,0-21.76,8.14A98.93,98.93,0,0,0,39.45,58.89,173.42,173.42,0,0,0,17.34,79.56c-2.17,2.38-4.28,4.82-6.31,7.31-.57.7-1.12,1.39-1.67,2.11-.31.39-.67.76-.53,1.31a.93.93,0,0,0,1.37.56,1.46,1.46,0,0,0,.37-.37c.86-1.07,1.72-2.16,2.62-3.2a89,89,0,0,1,6.7-7A98.5,98.5,0,0,1,34.54,69,124.8,124.8,0,0,1,63,55.76,120.44,120.44,0,0,1,80.6,51.39l1.29-.2c-.39.05-.14,0,0,0l1.66.11L95,52.12l.85.06a.93.93,0,0,0,.9-.68L102,37.59c.43-1.12-1.38-1.61-1.8-.49L94.94,51l.9-.68-9.65-.66a24.7,24.7,0,0,0-5.18-.2,110.61,110.61,0,0,0-15.07,3.47C44.63,59.2,24.19,70.62,10.1,88.08l-.91,1.15c-.1.12-.25.22.06,0l1.37.56h0c0,.24-.06.48-.09.72a23.73,23.73,0,0,1,3.14-3.93c2.76-3.3,5.65-6.49,8.63-9.61,8.47-8.84,17.77-17.1,28.24-23.51,10.24-6.27,21.91-10.26,33.6-12.81a90.79,90.79,0,0,1,17-2.37A.93.93,0,0,0,101.1,36.43Z" style="fill:#2196f3;stroke:#2196f3;stroke-miterlimit:10;stroke-width:1.8694244623184204px"/><path d="M100,38.44q1.73,6.86,3.46,13.72a1.22,1.22,0,0,0,1.16.88l14.12,1c-.2-.74-.4-1.49-.61-2.23l-12,7.53a1.23,1.23,0,0,0-.55,1.35q1.73,6.87,3.46,13.72l2-1.16-10.86-9.07a1.21,1.21,0,0,0-1.45-.18l-12,7.52,1.75,1.35,5.27-13.12a1.15,1.15,0,0,0-.31-1.16L82.56,49.46l-.84,2,14.11,1A1.23,1.23,0,0,0,97,51.58l5.27-13.13c.57-1.43-1.74-2-2.31-.63L94.69,50.95l1.16-.88-14.11-1a1.2,1.2,0,0,0-.85,2l10.86,9.07-.31-1.16L86.17,72.19c-.4,1,.93,1.87,1.75,1.35L99.9,66l-1.45-.19,10.86,9.07a1.21,1.21,0,0,0,2-1.16L107.86,60c-.18.45-.37.9-.55,1.35l12-7.53a1.21,1.21,0,0,0-.61-2.23l-14.12-1,1.15.88-3.45-13.72A1.2,1.2,0,0,0,100,38.44Z" style="fill:#2196f3;stroke:#2196f3;stroke-miterlimit:10;stroke-width:1.8694244623184204px"/></g></svg>