<svg xmlns="http://www.w3.org/2000/svg" width="128" height="128" viewBox="0 0 128 128"><title>rapido</title><g id="Layer_2" data-name="Layer 2"><path d="M94.72,41a1.28,1.28,0,0,0-1.7.27L57.3,86.4a6.37,6.37,0,0,0,5,10.33,6.51,6.51,0,0,0,.73,0,6.33,6.33,0,0,0,4.26-2.36A12.82,12.82,0,0,0,68,93.25l0-.06,27.12-50.5A1.28,1.28,0,0,0,94.72,41ZM65.79,92c-.15.24-.4.63-.53.79a3.81,3.81,0,1,1-6-4.75L86.08,54.17Z" style="fill:#2196f3;stroke:#2196f3;stroke-miterlimit:10;stroke-width:0.8556516170501709px"/><path d="M96.22,46.86a1.28,1.28,0,1,0-1.94,1.66,42.17,42.17,0,0,1,10.15,26.19H93.62A39.33,39.33,0,0,0,89,61.08a1.28,1.28,0,1,0-2.23,1.24,36.81,36.81,0,0,1,4.42,13.81,1.28,1.28,0,0,0,1.27,1.13h13.24A1.28,1.28,0,0,0,107,76,44.73,44.73,0,0,0,96.22,46.86Z" style="fill:#2196f3;stroke:#2196f3;stroke-miterlimit:10;stroke-width:0.8556516170501709px"/><path d="M88.69,39.88a44.8,44.8,0,0,0-42.34-5.7,1.28,1.28,0,1,0,.91,2.39,42.14,42.14,0,0,1,39.92,5.37,1.28,1.28,0,0,0,1.51-2.06Z" style="fill:#2196f3;stroke:#2196f3;stroke-miterlimit:10;stroke-width:0.8556516170501709px"/><path d="M81.69,51.59A39.75,39.75,0,0,0,29.9,49,42.31,42.31,0,0,1,43.33,38.3,1.28,1.28,0,1,0,42.18,36,44.86,44.86,0,0,0,21.09,58.53a1.28,1.28,0,0,0,2.24,1.21,37.16,37.16,0,0,1,56.6-6.3,1.28,1.28,0,0,0,1.76-1.85Z" style="fill:#2196f3;stroke:#2196f3;stroke-miterlimit:10;stroke-width:0.8556516170501709px"/><path d="M62.49,89.72A1.28,1.28,0,1,0,63,91.11,1.29,1.29,0,0,0,62.49,89.72Z" style="fill:#2196f3;stroke:#2196f3;stroke-miterlimit:10;stroke-width:0.8556516170501709px"/></g></svg>