<svg xmlns="http://www.w3.org/2000/svg" width="512" height="512" viewBox="0 0 512 512"><title>Artboard 1svg</title><g style="isolation:isolate"><g id="Layer_2" data-name="Layer 2"><circle cx="256" cy="256" r="247" style="fill:#2196f3;stroke:#222;stroke-miterlimit:10;stroke-width:6px"/><g style="opacity:0.75;mix-blend-mode:multiply"><path d="M166.93,325.48l.9,93.13a.9.9,0,0,0,1.67.46l54.06-88.3-51.66-12-4.8,6.2A.78.78,0,0,0,166.93,325.48Z" style="stroke:#000;stroke-miterlimit:10;stroke-width:4px"/><path d="M189.21,296.43l-21.8,28.16a.48.48,0,0,0,.29.77l87.87,16.47a1.45,1.45,0,0,0,.91-.13l39-19.49-74.7-54.55Z" style="stroke:#000;stroke-miterlimit:10;stroke-width:4px"/><path d="M247.38,311.29l8.43,29.81a.71.71,0,0,0,1,.44L317,311.47A.3.3,0,0,0,317,311l-28.49-29.41Z" style="stroke:#000;stroke-miterlimit:10;stroke-width:4px"/><path d="M202.86,281.44,189.4,296.22a.18.18,0,0,0,.09.29l56.35,14.78,26.92-28.78-63.13-13Z" style="stroke:#000;stroke-miterlimit:10;stroke-width:4px"/><path d="M286.25,218.77l-14.57-20.65A70.34,70.34,0,0,0,254,180.69l-55.14-37.83A6.84,6.84,0,0,0,188.3,150l11.56,52.34a6,6,0,0,0,2.32,3.56l54.11,39.74a6,6,0,0,0,7,.09l23.47-16.3a6,6,0,0,0,.48-9.54h0A6,6,0,0,1,286.25,218.77Z" style="stroke:#000;stroke-miterlimit:10;stroke-width:4px"/><path d="M317.47,310.82l18.42-57.09-52,27.85L317,311A.32.32,0,0,0,317.47,310.82Z" style="stroke:#000;stroke-miterlimit:10;stroke-width:4px"/><path d="M370.23,251.87H421.7a.79.79,0,0,0,.36-1.5L370.23,224" style="stroke:#000;stroke-miterlimit:10;stroke-width:4px"/><path d="M356,191l14.23,33v27.85h-48S340.52,197.1,341.45,198" style="stroke:#000;stroke-miterlimit:10;stroke-width:4px"/><path d="M318.2,194.23l37.19-3.54a.67.67,0,0,1,.72.8l-12.73,59.09a.48.48,0,0,1-.45.38l-20.52.89a.48.48,0,0,1-.5-.44l-4.53-56.21A.9.9,0,0,1,318.2,194.23Z" style="stroke:#000;stroke-miterlimit:10;stroke-width:4px"/><path d="M312.67,293.65l30.63-42.7-25.78-56.17a.44.44,0,0,0-.63-.19l-53.82,34.2-8,8.23,50.13,59.41Z" style="stroke:#000;stroke-miterlimit:10;stroke-width:4px"/><path d="M313.23,295.76h0a10.92,10.92,0,0,0-1.89-3.85l-65.6-85.79A55.41,55.41,0,0,0,232.8,193.9L125.42,121.16C116.17,114.9,104.3,124,108,134.58l35,99.85a23.67,23.67,0,0,0,8.83,11.6L243,309.33a10.92,10.92,0,0,0,6.23,2h52A12.37,12.37,0,0,0,313.23,295.76Z" style="stroke:#000;stroke-miterlimit:10;stroke-width:4px"/></g><path d="M161.93,320.48l.9,93.13a.9.9,0,0,0,1.67.46l54.06-88.3-51.66-12-4.8,6.2A.78.78,0,0,0,161.93,320.48Z" style="fill:#fff;stroke:#222;stroke-miterlimit:10;stroke-width:4px"/><path d="M184.21,291.43l-21.8,28.16a.48.48,0,0,0,.29.77l87.87,16.47a1.45,1.45,0,0,0,.91-.13l39-19.49-74.7-54.55Z" style="fill:#fff;stroke:#222;stroke-miterlimit:10;stroke-width:4px"/><path d="M242.38,306.29l8.43,29.81a.71.71,0,0,0,1,.44L312,306.47A.3.3,0,0,0,312,306l-28.49-29.41Z" style="fill:#fff;stroke:#222;stroke-miterlimit:10;stroke-width:4px"/><path d="M197.86,276.44,184.4,291.22a.18.18,0,0,0,.09.29l56.35,14.78,26.92-28.78-63.13-13Z" style="fill:#fff;stroke:#222;stroke-miterlimit:10;stroke-width:4px"/><path d="M281.25,213.77l-14.57-20.65A70.34,70.34,0,0,0,249,175.69l-55.14-37.83A6.84,6.84,0,0,0,183.3,145l11.56,52.34a6,6,0,0,0,2.32,3.56l54.11,39.74a6,6,0,0,0,7,.09l23.47-16.3a6,6,0,0,0,.48-9.54h0A6,6,0,0,1,281.25,213.77Z" style="fill:#fff;stroke:#222;stroke-miterlimit:10;stroke-width:4px"/><path d="M312.47,305.82l18.42-57.09-52,27.85L312,306A.32.32,0,0,0,312.47,305.82Z" style="fill:#fff;stroke:#222;stroke-miterlimit:10;stroke-width:4px"/><path d="M365.23,246.87H416.7a.79.79,0,0,0,.36-1.5L365.23,219" style="fill:#fff;stroke:#222;stroke-miterlimit:10;stroke-width:4px"/><path d="M351,186l14.23,33v27.85h-48S335.52,192.1,336.45,193" style="fill:#fff;stroke:#222;stroke-miterlimit:10;stroke-width:4px"/><path d="M313.2,189.23l37.19-3.54a.67.67,0,0,1,.72.8l-12.73,59.09a.48.48,0,0,1-.45.38l-20.52.89a.48.48,0,0,1-.5-.44l-4.53-56.21A.9.9,0,0,1,313.2,189.23Z" style="fill:#fff;stroke:#222;stroke-miterlimit:10;stroke-width:4px"/><path d="M307.67,288.65l30.63-42.7-25.78-56.17a.44.44,0,0,0-.63-.19l-53.82,34.2-8,8.23,50.13,59.41Z" style="fill:#fff;stroke:#222;stroke-miterlimit:10;stroke-width:4px"/><path d="M308.23,290.76h0a10.92,10.92,0,0,0-1.89-3.85l-65.6-85.79A55.41,55.41,0,0,0,227.8,188.9L120.42,116.16C111.17,109.9,99.3,119,103,129.58l35,99.85a23.67,23.67,0,0,0,8.83,11.6L238,304.33a10.92,10.92,0,0,0,6.23,2h52A12.37,12.37,0,0,0,308.23,290.76Z" style="fill:#fff;stroke:#222;stroke-miterlimit:10;stroke-width:4px"/></g></g></svg>