<?xml version="1.0" encoding="utf-8"?>
<!-- Generator: Adobe Illustrator 19.0.0, SVG Export Plug-In . SVG Version: 6.00 Build 0)  -->
<svg version="1.1" id="Layer_1" xmlns="http://www.w3.org/2000/svg" xmlns:xlink="http://www.w3.org/1999/xlink" x="0px" y="0px"
	 viewBox="0 0 128 32" style="enable-background:new 0 0 128 32;" xml:space="preserve">
<style type="text/css">
	.st0{fill:#AAAAAA;}
</style>
<path id="XMLID_19_" class="st0" d="M30,0H2C0.9,0,0,0.9,0,2v28c0,1.1,0.9,2,2,2h15V20h-4v-5h4v-3c0-4.1,2.3-7,6-7c1.8,0,3,0,4,0v5
	h-2c-2,0-3,1-3,3v2h5l-1,5h-4v12h8c1.1,0,2-0.9,2-2V2C32,0.9,31.1,0,30,0z"/>
<path id="XMLID_20_" class="st0" d="M62,0H34c-1.1,0-2,0.9-2,2v28c0,1.1,0.9,2,2,2h28c1.1,0,2-0.9,2-2V2C64,0.9,63.1,0,62,0z
	 M55.9,12c0,0.2,0,0.3,0,0.5C56,17.8,51.8,24,44.3,24c-2.3,0-4.5-0.7-6.3-1.8c0.3,0,0.6,0.1,1,0.1c1.9,0,3.7-0.6,5.1-1.7
	c-1.8,0-3.3-1.2-3.8-2.8c0.3,0,0.5,0.1,0.8,0.1c0.4,0,0.8-0.1,1.2-0.1c-1.9-0.4-3.2-2-3.2-4c0,0,0,0,0-0.1c0,0.3,1.1,0.5,1.8,0.5
	c-1.1-0.7-1.9-2-1.9-3.4c0-0.7,0.2-1.4,0.5-2c2,2.4,5,4,8.4,4.2c-0.1-0.3-0.1-0.6-0.1-0.9c0-2.2,1.8-4,4.1-4c1.2,0,2.2,0.5,3,1.3
	c0.9-0.2,1.8-0.5,2.6-1c-0.3,0.9-1,1.7-1.8,2.2c0.8-0.1,1.6-0.3,2.4-0.6C57.4,10.7,56.7,11.4,55.9,12z"/>
<g id="XMLID_5_">
	<path id="XMLID_7_" class="st0" d="M80,20c2.2,0,4-1.8,4-4c0-0.9-0.3-1.7-0.7-2.3c-0.7-1-1.9-1.7-3.2-1.7c-1.3,0-2.5,0.7-3.2,1.7
		C76.3,14.3,76,15.1,76,16C76,18.2,77.8,20,80,20z"/>
	<polygon id="XMLID_8_" class="st0" points="89,11.2 89,7.8 89,7.3 88.3,7 88.2,7 84.9,7.2 85,11.1 	"/>
	<path id="XMLID_22_" class="st0" d="M94.2,0H65.8c-1,0-1.8,0.8-1.8,1.8v28.3c0,1,0.8,1.8,1.8,1.8h28.3c1,0,1.8-0.8,1.8-1.8V1.8
		C96,0.8,95.2,0,94.2,0z M91,13.7v9.2c0,2.4-1.7,4.1-4.1,4.1H73.1c-2.4,0-4.1-1.7-4.1-4.1v-9.2V9.1C69,6.7,70.7,5,73.1,5h13.8
		C89.3,5,91,6.7,91,9.1V13.7z"/>
	<path id="XMLID_23_" class="st0" d="M86.2,16.2c0,3.4-2.8,6.1-6.2,6.1c-3.4,0-6.2-2.6-6.2-6c0-0.8,0.2-2.2,0.5-2.2H71v8.9
		c0,1.2,0.9,2.1,2.1,2.1h13.8c1.2,0,2.1-0.9,2.1-2.1l0,0V14h-3.3C86,14,86.2,15.3,86.2,16.2z"/>
</g>
<g id="XMLID_4_">
	<path id="XMLID_12_" class="st0" d="M120.3,9.6c-1.8,0-3.2,1.4-3.2,3.2c0,1.8,1.4,3.2,3.2,3.2s3.2-1.4,3.2-3.2
		C123.5,11,122.1,9.6,120.3,9.6z M120.3,15.1c-1.3,0-2.3-1-2.3-2.3s1-2.3,2.3-2.3c1.3,0,2.3,1,2.3,2.3S121.6,15.1,120.3,15.1z"/>
	<path id="XMLID_24_" class="st0" d="M102.8,13.3c-1.3,0-2.3,1-2.3,2.3s1,2.3,2.3,2.3c0.2,0,0.5,0,0.7-0.1l-1.1-0.4
		c-0.9-0.5-1.2-1.5-0.7-2.4c0.5-0.9,1.6-1.2,2.4-0.7l0.7,0.2C104.4,13.8,103.7,13.3,102.8,13.3z"/>
	<path id="XMLID_25_" class="st0" d="M114.7,17.6c-0.2,0-0.4,0-0.6,0.1l1.4,0.5c0.9,0.5,1.2,1.5,0.7,2.4c-0.5,0.9-1.6,1.2-2.4,0.7
		l-1.5-0.5c0.3,1,1.2,1.7,2.4,1.7c1.4,0,2.5-1.1,2.5-2.5C117.1,18.7,116,17.6,114.7,17.6z"/>
	<path id="XMLID_28_" class="st0" d="M128,1.9c0-1-0.8-1.9-1.9-1.9H97.9c-1,0-1.9,0.8-1.9,1.9v28.2c0,1,0.8,1.9,1.9,1.9h28.2
		c1,0,1.9-0.8,1.9-1.9V1.9z M121.7,16.7l-2.8,2.4c0,0.2,0.1,0.4,0.1,0.6c0,2-1.7,3.7-3.7,3.7c-1.8,0-3.2-1.2-3.6-2.9l-6.9-2.3
		c-0.5,0.4-1.2,0.7-2,0.7c-1.8,0-3.3-1.5-3.3-3.2c0-1.8,1.5-3.2,3.3-3.2c1.5,0,2.8,1.1,3.2,2.5l6.7,2.3c0.7-0.7,1.5-1.1,2.5-1.1l1-3
		c0-0.1,0-0.1,0-0.2c0-2.3,1.9-4.1,4.2-4.1s4.2,1.9,4.2,4.1C124.5,14.6,123.3,16.2,121.7,16.7z"/>
</g>
</svg>
