<?xml version="1.0" encoding="utf-8"?>
<!-- Generator: Adobe Illustrator 19.0.0, SVG Export Plug-In . SVG Version: 6.00 Build 0)  -->
<svg version="1.1" id="Layer_1" xmlns="http://www.w3.org/2000/svg" xmlns:xlink="http://www.w3.org/1999/xlink" x="0px" y="0px"
	 viewBox="0 0 64 64" style="enable-background:new 0 0 64 64;" xml:space="preserve">
<style type="text/css">
	.st0{fill:#A91B1B;}
	.st1{fill:#F6B84C;}
</style>
<g id="XMLID_9_">
	<path id="XMLID_14_" class="st0" d="M23.6,40.9l3.3,20l13.9-14.8l20,3.1L51,31.4l9.1-18.1l-19.9,3.8L25.8,2.9L23.3,23l-18,9.3
		L23.6,40.9z M26.7,24.2c0-0.5,0.5-0.4,0.9-0.4l15.2-0.1c0.5,0,0.9,0,0.9,0.4l0.1,15.2c0,0.5-0.5,0.4-0.9,0.4l-15.2,0.1
		c-0.5,0-0.9,0-0.9-0.4L26.7,24.2z"/>
	<path id="XMLID_17_" class="st0" d="M40.7,25.7l-11,0l0,12l11,0L40.7,25.7z M37.8,34.7l-5,0l0-6l5,0L37.8,34.7z"/>
</g>
<path id="XMLID_3_" class="st1" d="M25.5,1.8l14.9,14.8L61,12.7l-9.4,18.8l10.1,18.4l-20.8-3.2L26.6,61.9l-3.4-20.7l-19-8.9
	l18.7-9.6L25.5,1.8z M40,17.7L26.2,4l-2.4,19.3L6.4,32.2l17.6,8.3l3.2,19.2l13.3-14.2l19.3,2.9l-9.4-17.1L59.2,14L40,17.7z"/>
</svg>
