<?xml version="1.0" encoding="utf-8"?>
<!-- Generator: Adobe Illustrator 19.0.0, SVG Export Plug-In . SVG Version: 6.00 Build 0)  -->
<svg version="1.1" id="Layer_1" xmlns="http://www.w3.org/2000/svg" xmlns:xlink="http://www.w3.org/1999/xlink" x="0px" y="0px"
	 viewBox="0 0 64 64" style="enable-background:new 0 0 64 64;" xml:space="preserve">
<style type="text/css">
	.st0{fill:#A91B1B;}
	.st1{fill:#F6B84C;}
</style>
<g id="XMLID_14_">
	<path id="XMLID_17_" class="st0" d="M33.8,33.3c-2.6,0-4.6,1.7-4.6,3.8s2.1,3.8,4.6,3.8c0.6,0,1.2-0.1,1.8-0.3
		c0.1,0,1.1,0.6,1.1,0.6s0.4,0.3,0.3-0.2c-0.1-0.4-0.3-0.9-0.2-1c1-0.7,1.6-1.8,1.6-2.9C38.4,35,36.4,33.3,33.8,33.3z M32.4,36.5
		c-0.3,0-0.6-0.3-0.6-0.6c0-0.3,0.3-0.6,0.6-0.6s0.6,0.3,0.6,0.6C33,36.3,32.7,36.5,32.4,36.5z M35.4,36.5c-0.3,0-0.6-0.3-0.6-0.6
		c0-0.3,0.3-0.6,0.6-0.6c0.3,0,0.6,0.3,0.6,0.6C36,36.3,35.7,36.5,35.4,36.5z"/>
	<path id="XMLID_21_" class="st0" d="M33.9,33c0.1,0,0.2,0,0.2,0l0,0c-0.4-2.1-2.7-3.8-5.4-3.8c-3,0-5.4,2-5.4,4.5
		c0,1.4,0.8,2.7,2,3.5c0.3,0.2-0.1,1-0.3,1.5c-0.2,0.3,0.3,0.2,0.3,0.2s1.5-1,1.7-0.9c0.6,0.1,1.2,0.3,1.8,0.3c0.1,0,0.2,0,0.2,0
		l0,0c-0.1-0.4-0.2-0.7-0.2-1.1C28.8,34.8,31.1,33,33.9,33z M30.6,31.5c0.4,0,0.7,0.3,0.7,0.7c0,0.4-0.3,0.7-0.7,0.7
		s-0.7-0.3-0.7-0.7C29.8,31.8,30.2,31.5,30.6,31.5z M26.9,33c-0.4,0-0.7-0.3-0.7-0.7c0-0.4,0.3-0.7,0.7-0.7c0.4,0,0.7,0.3,0.7,0.7
		C27.7,32.6,27.3,33,26.9,33z"/>
	<path id="XMLID_25_" class="st0" d="M60.1,21.4l-20.5-0.7l-11-17.3l-7,19.3L1.7,27.8l16.2,12.6l-1.2,20.5l17-11.5L52.7,57
		l-5.7-19.7L60.1,21.4z M32.4,46c-6.1,0-11.1-5-11.1-11.1s5-11.1,11.1-11.1s11.1,5,11.1,11.1S38.6,46,32.4,46z"/>
</g>
<path id="XMLID_11_" class="st1" d="M16,61.9l1.3-21.2L0.6,27.6l20.6-5.3l7.3-20l11.4,17.9l21.3,0.8L47.6,37.4l5.9,20.5L33.7,50
	L16,61.9z M2.8,28l15.6,12.2L17.2,60l16.4-11.1L52,56.2l-5.4-19l12.6-15.3l-19.8-0.7L28.7,4.5l-6.8,18.6L2.8,28z"/>
</svg>
