<?xml version="1.0" encoding="utf-8"?>
<!-- Generator: Adobe Illustrator 19.0.0, SVG Export Plug-In . SVG Version: 6.00 Build 0)  -->
<svg version="1.1" id="Layer_1" xmlns="http://www.w3.org/2000/svg" xmlns:xlink="http://www.w3.org/1999/xlink" x="0px" y="0px"
	 viewBox="0 0 64 64" style="enable-background:new 0 0 64 64;" xml:space="preserve">
<style type="text/css">
	.st0{fill:#A91B1B;}
	.st1{fill:#F6B84C;}
</style>
<g id="XMLID_6_">
	<path id="XMLID_9_" class="st0" d="M61,34.6L43.9,23.2L43.5,2.6L27.4,15.4L7.8,9.3l7.1,19.3L3.1,45.4l20.5-0.8L36,61l5.5-19.8
		L61,34.6z M34.8,22.1c1.7,0,3,1.3,3,3c0,1.6-1.3,3-3,3v0c-1.7,0-3-1.3-3-3S33.1,22.1,34.8,22.1z M29.3,23.2c1.2,0,2.2,1,2.2,2.2
		c0,1.2-1,2.2-2.2,2.2c-1.2,0-2.2-1-2.2-2.2C27.1,24.2,28.1,23.2,29.3,23.2z M25,23.7c1,0,1.8,0.8,1.8,1.8c0,1-0.8,1.8-1.8,1.8
		c-1,0-1.8-0.8-1.8-1.8C23.2,24.5,24,23.7,25,23.7z M38.8,33l0,7H31v-4h-5v-1h-3.5l0-5l0,0c0,0,0,0,0,0c0-1.4,1.1-2.4,2.5-2.4
		c0.9,0,1.7,0.6,2.2,1.3c0.5-0.6,1.3-0.9,2.2-0.9c1.2,0,2.2,0.7,2.7,1.7c0.7-0.7,1.7-1,2.7-1c2.3,0,4.1,1.8,4.1,4.1
		C38.9,32.8,38.8,33,38.8,33L38.8,33z"/>
	<path id="XMLID_15_" class="st1" d="M44.8,22.6l-0.3-22L27.2,14.3L6.2,7.8l7.7,20.7l-12.7,18l22-0.9l13.2,17.6l6-21.2l20.9-7.1
		L44.8,22.6z M23.6,44.6L3.1,45.4l11.8-16.8L7.8,9.3l19.6,6.1L43.5,2.6l0.3,20.5L61,34.6l-19.4,6.6L36,61L23.6,44.6z"/>
</g>
</svg>
