<?xml version="1.0" encoding="utf-8"?>
<!-- Generator: Adobe Illustrator 19.0.0, SVG Export Plug-In . SVG Version: 6.00 Build 0)  -->
<svg version="1.1" id="Layer_1" xmlns="http://www.w3.org/2000/svg" xmlns:xlink="http://www.w3.org/1999/xlink" x="0px" y="0px"
	 viewBox="0 0 612 792" style="enable-background:new 0 0 612 792;" xml:space="preserve">
<style type="text/css">
	.st0{fill:none;stroke:#BF4D5E;stroke-width:3;stroke-linecap:round;stroke-linejoin:round;}
</style>
<g id="XMLID_441_">
	<g id="XMLID_464_">
		<path id="XMLID_466_" class="st0" d="M224.9,350.2c0,0,0.7-0.5,0.8-0.4c0.1,0.2-5.4,8.4-5.3,8.6c0.2,0.3,11.2-6.9,11.4-6.6
			c0.2,0.3-8.7,10.6-8.5,10.9c0.3,0.5,18.7-11.4,18.9-10.9c0.3,0.5-16.8,14.8-16.4,15.4c0.5,0.8,31.7-19.2,32.1-18.5
			c0.6,1-35.6,25.1-35,26c0.6,1,37.2-22.8,37.8-21.8c0.7,1.2-41,27.7-40.4,28.7c0.8,1.4,51.9-31.5,52.6-30.3
			c0.8,1.3-52.1,34.2-51.2,35.7c0.7,1.2,60.5-37.1,61.4-35.5c0.7,1.2-57,35.9-56,37.7c0.9,1.6,61.8-38.3,62.9-36.3
			c0.9,1.5-60.8,38.3-59.8,40c1.2,2.1,75.8-45.9,76.7-44.3c1.2,2-69.3,42.9-68.3,44.6c0.9,1.5,72.3-44.4,73.4-42.4
			c1,1.7-57.4,36.3-56.4,38c1,1.8,61.7-37.6,62.6-36.1c0.7,1.2-55.9,35.7-55,37.2c0.9,1.5,66.3-40.8,67.4-38.9
			c0.9,1.5-61.6,39.9-60.8,41.3c1,1.7,67.2-41,68.2-39.4c0.9,1.6-54.8,35.7-54,37.1c1.2,2,69.1-41.8,69.9-40.4
			c0.9,1.5-62.4,40-61.7,41.3c1.1,1.9,66-40.9,67.2-38.8c0.9,1.6-58.7,37.8-57.9,39.2c0.9,1.5,71.7-43.8,72.8-42
			c0.8,1.4-64.8,40.3-63.7,42.3c0.8,1.4,70.9-43.1,71.8-41.5c0.8,1.4-60.2,38.3-59.4,39.8c1.2,2,65.3-39.8,66.2-38.2
			c1.1,1.9-63.2,39.8-62.2,41.6c1,1.8,70.8-42.8,71.6-41.4c0.8,1.3-58,37.2-57.2,38.5c1,1.7,59.7-36.4,60.5-34.9
			c0.6,1-49,32.6-48.1,34.1c0.7,1.2,46.8-28.7,47.5-27.4c0.7,1.1-37.9,26.4-37.2,27.5c0.6,1,39.5-24,40-23.1
			c0.6,1-34.3,24.7-33.8,25.7c0.4,0.7,38.8-23.7,39.3-22.7c0.4,0.8-30.6,22.4-30.2,23.1c0.3,0.5,24.8-15,25.1-14.5
			c0.2,0.3-7.7,10.4-7.6,10.7c0.2,0.3,5.9-3.8,6-3.5c0.1,0.2-1.6,6.4-1.5,6.5c0,0.1,4.2-2.5,4.2-2.4"/>
	</g>
</g>
<g id="XMLID_1_">
</g>
<g id="XMLID_2_">
</g>
<g id="XMLID_3_">
</g>
<g id="XMLID_4_">
</g>
<g id="XMLID_5_">
</g>
<g id="XMLID_6_">
</g>
</svg>
