<?xml version="1.0" encoding="utf-8"?>
<!-- Generator: Adobe Illustrator 19.0.0, SVG Export Plug-In . SVG Version: 6.00 Build 0)  -->
<svg version="1.1" xmlns="http://www.w3.org/2000/svg" xmlns:xlink="http://www.w3.org/1999/xlink" x="0px" y="0px"
	 viewBox="0 0 256 256" style="enable-background:new 0 0 256 256;" xml:space="preserve">
<style type="text/css">
	.st0{fill:#FFFFFF;stroke:#000000;stroke-width:10;stroke-miterlimit:10;}
</style>
<g id="Base">
	<rect id="XMLID_1_" class="st0" width="256" height="256"/>
</g>
<g id="Logo">
	<path id="XMLID_7_" d="M102.4,109.7c-5.3-1.7-13.6-3.2-21.2-3.2c-32.8,0-49.4,25.7-49.4,49.7c0,14.2,8.1,23.8,20.6,23.8
		c9,0,18.2-4.5,25.1-17.5H78c-0.6,6.1-1.2,11.9-1.3,16.1h15.6c-0.3-8.4,0.9-21.7,2.9-32.2L102.4,109.7z M79.9,138.8
		c-3.3,17.9-12.9,27.7-20.6,27.7c-7.4,0-10.1-6.1-10.1-13.4c0-16,12-33.5,27.6-33.5c3,0,5.2,0.3,6.9,0.7L79.9,138.8z M135.2,119.1
		c5.8,0,10.5,1.7,13.1,3.2l4.3-12.1c-3.2-1.9-9.2-3.6-16.6-3.6c-16.6,0-28.4,9.5-28.4,23.1c0,8.1,5.8,14,13.9,18.3
		c6.9,3.6,9.2,6.4,9.2,10.8c0,4.6-4,8.5-10.8,8.7c-6.4,0-13.3-2.7-16.9-4.8l-4.3,12.1c3.8,2.7,11.4,5.1,19.6,5.2
		c16.9,0,29.9-8.7,29.9-24.1c0-9-6.9-14.7-14.6-18.9c-5.9-3-9.1-5.8-9.1-9.7C124.5,122.6,128.9,119.1,135.2,119.1z M224.2,108.1
		h-20.8l-21.1,23c-1.9,2.2-4.2,4.9-6.4,7.5h-0.3l11.8-62.7h-16.6l-19.5,102.7h16.7l4.6-24.6l8.2-7.8l14.4,32.4h18.6l-20.2-41.5
		L224.2,108.1z"/>
</g>
</svg>
