<?xml version="1.0" encoding="utf-8"?>
<!-- Generator: Adobe Illustrator 19.0.0, SVG Export Plug-In . SVG Version: 6.00 Build 0)  -->
<svg version="1.1" xmlns="http://www.w3.org/2000/svg" xmlns:xlink="http://www.w3.org/1999/xlink" x="0px" y="0px"
	 viewBox="0 0 256 256" style="enable-background:new 0 0 256 256;" xml:space="preserve">
<style type="text/css">
	.st0{fill:#FFFFFF;stroke:#000000;stroke-width:10;stroke-miterlimit:10;}
	.st1{fill:#FFFFFF;}
</style>
<g id="Base">
	<rect id="XMLID_1_" class="st0" width="256" height="256"/>
</g>
<g id="Logo">
	<g id="XMLID_6_">
		<g id="XMLID_68_">
			<path id="XMLID_76_" d="M141,188.7c6.6,12.2,13.8,24,23.2,34.5c-0.7-0.2-1.2-0.4-1.7-0.6c-2.3-1-4-2.6-5.7-4.4
				c-5.3-5.4-9.7-11.4-14-17.7c-1.8-2.7-3.6-5.4-5.3-8.2c-0.1-0.2-0.3-0.4-0.4-0.7c-0.3,0.2-0.6,0.4-0.9,0.6c-4.4,2.8-9.1,5-14,6.6
				c-3.2,1-6.5,1.6-9.8,1.4c-2.5-0.1-4.9-0.8-6.7-2.7c-2.1-2.2-2.6-4.8-2-7.7c0.6-3.1,1.6-6.1,3.2-8.9c-0.2,0.1-0.4,0.2-0.6,0.3
				c-5.3,2.8-10.9,5.1-16.8,6.6c-3.6,0.9-7.3,1.4-11.1,1c-3.4-0.3-6.7-1.3-9.3-3.7c-2.3-2.2-3.6-4.9-4-8c-0.5-3.9,0-7.7,0.9-11.5
				c1.4-6.4,3.9-12.5,6.7-18.4c3.1-6.6,6.8-12.9,10.8-19c0.3-0.4,0.2-0.7,0-1.1c-3-7.2-5.6-14.5-7.5-22.1c-0.9-3.6-1.6-7.3-1.9-11.1
				c0-0.3-0.1-0.5-0.1-0.9c-13.9-0.9-27.7,0-41.3,2.9c0-0.1-0.1-0.1-0.1-0.2c0.5-0.4,0.9-0.9,1.4-1.3c2-1.8,4.5-2.2,7-2.8
				c6.2-1.4,12.5-2.4,18.8-3c4.3-0.4,8.5-0.5,12.8-0.7c0.3,0,0.6,0,1,0c0-0.7,0-1.4,0-2c0.1-4.9,0.4-9.8,1.5-14.6
				c0.7-3.4,1.8-6.7,3.8-9.6c2-2.8,4.6-4.4,8.2-4.1c2,0.2,3.7,1.2,5.2,2.5c2.1,1.8,3.8,4,5.2,6.4c0.2,0.3,0.4,0.7,0.7,1
				c0-0.3,0-0.6,0-0.8c0.2-5.8,0.9-11.6,2.4-17.3c1-3.6,2.2-7.1,4.2-10.3c1.6-2.6,3.6-4.7,6.4-6c3-1.4,6.2-1.6,9.4-0.6
				c4,1.2,7.3,3.5,10.4,6.3c4.8,4.3,8.7,9.3,12.4,14.5c4.5,6.4,8.3,13.1,11.8,20.1c0.2,0.4,0.4,0.5,0.9,0.6
				c10.7,1.3,21.2,3.4,31.3,7.4c0.9,0.3,1.8,0.7,2.6,1.1c0.6,0.3,0.9,0.1,1.2-0.4c0.8-1.3,1.6-2.5,2.3-3.8
				c4.4-7.6,8.4-15.3,11.9-23.4c1.2-2.9,2.4-5.8,3-8.9c0-0.1,0.1-0.2,0.2-0.3c0.1,0.7,0.3,1.3,0.4,2c0.1,2-0.1,4-0.7,5.9
				c-2.7,8.4-5.7,16.6-9.8,24.4c-1.1,2.2-2.2,4.5-3.3,6.7c0.2,0.1,0.4,0.3,0.7,0.4c4.8,2.8,9.4,5.9,13.4,9.8
				c2.4,2.4,4.6,4.9,5.9,8.1c0.5,1.3,0.9,2.7,1,4.1c0.3,3.1-1.2,5.4-3.9,6.8c-2.5,1.3-5.2,1.9-7.9,2.1c-1.2,0.1-2.4,0.1-3.6,0.2
				c0.2,0.1,0.3,0.3,0.5,0.4c5.5,3.5,10.6,7.4,14.9,12.2c2.8,3,5.2,6.2,6.6,10.1c1.1,3,1.6,6.1,0.6,9.2c-0.9,2.9-2.8,5-5.2,6.7
				c-3.3,2.4-7.1,3.8-11,5c-4.9,1.4-10,2.2-15.1,2.7c-8.2,0.9-16.5,0.6-24.8,0.5c-0.7,0-1.1,0.2-1.6,0.8c-4.4,6-9.2,11.6-14.5,16.7
				c-2.9,2.8-6,5.5-9.5,7.7C141.4,188.4,141.2,188.6,141,188.7z M100.6,97.3c-5,6.5-7.1,13.9-7.5,21.9c-0.1-0.2-0.2-0.2-0.2-0.3
				c-0.1-0.2-0.2-0.4-0.2-0.7c-0.5-3.5-0.7-7.1,0.1-10.6c0.9-4.1,2.6-8,4.5-11.8c0.2-0.3,0.3-0.6,0.5-0.9c-4.9-0.5-9.7-0.9-14.5-1.4
				c0,0.2,0,0.3,0,0.5c0.4,3.2,0.7,6.5,1.3,9.7c1.4,8.5,3.6,16.7,6.8,24.7c2.7,6.8,6.1,13.3,10.7,19.1c3.8,4.8,8.2,8.9,13.6,12
				c0.4,0.2,0.6,0.2,1,0c1.3-0.8,2.7-1.6,4-2.5c7.4-4.7,14.2-10.2,20.7-16c8-7.1,15.6-14.6,22.7-22.6c0.6-0.7,1.2-1.3,1.8-2.1
				c2.1,1.5,4.2,3.1,6.3,4.6c-11.9,16.1-26,29.8-40.9,42.9c7.9,0.7,15.2-1.1,22.2-4c-6.5,5.9-14.5,7.1-22.9,7.2
				c1.9,4.5,4,8.9,6.4,13.1c0.6-0.4,1.1-0.7,1.7-1.1c7.2-5,13.7-10.7,19.6-17.2c6-6.6,11.2-13.8,14.8-22c2.9-6.4,4.5-13,4.7-20.1
				c0-0.4-0.1-0.6-0.5-0.8c-5-2.8-10.1-5.2-15.3-7.4c-14.8-6.1-30-10.6-45.7-13.8c-0.5-0.1-0.8-0.3-0.7-0.9c0.1-0.6,0-1.2,0.1-1.8
				c0.1-1.7,0.3-3.4,0.5-5.2c19.8,2.9,39.1,7.3,57.8,14.3c-3.2-7.4-8.6-12.7-14.7-17.4c2,0.4,3.8,1.3,5.5,2.4
				c3.9,2.5,6.9,5.8,9.6,9.5c0.9,1.3,1.8,2.6,2.7,3.9c2.8-3.9,5.6-7.8,8.4-11.7c-0.5-0.2-0.8-0.4-1.2-0.6c-9-4.2-18.4-7.2-28.1-9.1
				c-4.7-0.9-9.4-1.5-14.2-1.7c-4-0.2-8-0.2-12,0.4c-6.2,1-12,2.9-17.6,5.8c-0.5,0.2-0.6,0.5-0.6,1c0.2,3.6,0.2,7.2,0.5,10.8
				c0.5,6.9,1.8,13.8,3.2,20.6c2.2,10.3,5,20.5,8.2,30.5c0.3,0.8,0.5,1.6,0.8,2.4c-2.3,1-4.6,2-6.9,3c-0.1-0.2-0.2-0.3-0.2-0.4
				c-2.2-4.5-4.1-9.1-5.7-13.8c-4.4-12.6-7.5-25.5-10-38.5C101.1,100,100.9,98.7,100.6,97.3z M111.6,81c5.4-3.1,11-5.1,16.9-6.3
				c5.9-1.2,11.9-1.6,18-1.3c-0.2-0.3-0.3-0.5-0.4-0.6c-2.3-3.2-4.4-6.4-6.8-9.5c-2.4-3.1-5.1-5.9-8.3-8.1c-4.2-3-8.2-2.7-11.8,1
				c-2.2,2.2-3.5,4.9-4.6,7.8c-1.5,4.1-2.3,8.3-2.7,12.6C111.8,78,111.7,79.4,111.6,81z M111.4,162.1c-11-6.1-18.2-15.4-24-26.1
				c-0.1,0.1-0.1,0.2-0.2,0.3c-2.3,4.2-4.2,8.6-5.7,13.1c-1.2,3.6-2.1,7.3-1.8,11.2c0.3,3.9,2.7,6.7,6.5,7.5
				c2.9,0.6,5.8,0.4,8.8,0.1c5-0.6,9.6-2.3,14-4.7C109.7,163,110.5,162.5,111.4,162.1z M182,121.5c-0.1,12.6-4.1,23.8-11,34.1
				c0.3,0,0.4,0,0.6,0c5.3-0.1,10.5-0.6,15.7-1.8c3.2-0.8,6.3-1.8,9-3.6c3.2-2.2,4.3-5.2,3.5-8.9c-0.7-2.9-2.2-5.4-4.1-7.7
				c-3.2-4-7.1-7.3-11.3-10.3C183.7,122.7,182.9,122.1,182,121.5z M83.3,87.9c5.3,0.2,10.5,0.4,15.7,0.6c0-0.3,0-0.6,0-0.8
				c-0.3-3.7-0.6-7.3-0.9-11c0-0.4,0-0.8-0.2-1.2c-0.7-1.8-1.8-3.4-3.3-4.6c-2-1.7-3.8-1.7-5.9-0.1c-0.4,0.3-0.9,0.7-1.2,1.2
				c-1.6,1.9-2.5,4.1-3.1,6.4C83.6,81.4,83.3,84.6,83.3,87.9z M131.8,183.2c-2.5-4.7-5-9.3-7.5-13.9c-0.1,0-0.2,0-0.2,0.1
				c-3.4,2.4-6.9,4.8-10.3,7.2c-0.2,0.2-0.5,0.4-0.6,0.6c-0.6,1.2-1.2,2.3-1.6,3.5c-0.3,0.9-0.4,1.9-0.3,2.7
				c0.3,2.2,2.3,3.8,4.8,4.1c2,0.3,4,0.1,5.9-0.4C125.5,186.3,128.6,184.9,131.8,183.2z M181.8,107.1c0.2,0.1,0.4,0.2,0.5,0.3
				c3.3,1.6,6.6,3.1,9.8,4.7c0.9,0.5,1.8,0.7,2.8,0.5c0.8-0.1,1.6-0.1,2.4-0.2c4.3-0.3,5.5-3.7,4.7-6.7c-0.5-1.8-1.5-3.2-2.6-4.6
				c-2.6-3-5.7-5.3-9-7.4c-0.1,0-0.2-0.1-0.2-0.1C187.4,98.2,184.6,102.6,181.8,107.1z"/>
			<path id="XMLID_75_" class="st1" d="M100.6,97.3c0.3,1.4,0.5,2.7,0.8,4c2.5,13,5.6,25.9,10,38.5c1.6,4.7,3.5,9.3,5.7,13.8
				c0.1,0.1,0.1,0.2,0.2,0.4c2.3-1,4.6-2,6.9-3c-0.3-0.8-0.5-1.6-0.8-2.4c-3.2-10-6-20.2-8.2-30.5c-1.4-6.8-2.7-13.7-3.2-20.6
				c-0.3-3.6-0.3-7.2-0.5-10.8c0-0.5,0.2-0.8,0.6-1c5.6-2.9,11.4-4.8,17.6-5.8c4-0.6,8-0.6,12-0.4c4.8,0.2,9.5,0.8,14.2,1.7
				c9.8,1.9,19.2,4.8,28.1,9.1c0.4,0.2,0.8,0.4,1.2,0.6c-2.8,3.9-5.6,7.8-8.4,11.7c-0.9-1.3-1.7-2.7-2.7-3.9c-2.7-3.7-5.7-7-9.6-9.5
				c-1.7-1.1-3.5-2-5.5-2.4c6.1,4.7,11.6,10,14.7,17.4c-18.7-7-38-11.4-57.8-14.3c-0.2,1.8-0.3,3.5-0.5,5.2c-0.1,0.6,0,1.2-0.1,1.8
				c-0.1,0.6,0.2,0.8,0.7,0.9c15.6,3.2,30.9,7.7,45.7,13.8c5.3,2.2,10.4,4.7,15.3,7.4c0.4,0.2,0.5,0.4,0.5,0.8
				c-0.2,7-1.8,13.7-4.7,20.1c-3.7,8.2-8.8,15.4-14.8,22c-5.9,6.4-12.4,12.2-19.6,17.2c-0.5,0.4-1.1,0.7-1.7,1.1
				c-2.4-4.2-4.5-8.6-6.4-13.1c8.4-0.1,16.4-1.3,22.9-7.2c-7,3-14.3,4.7-22.2,4c14.9-13.1,29-26.9,40.9-42.9c-2.1-1.5-4.2-3-6.3-4.6
				c-0.7,0.8-1.2,1.4-1.8,2.1c-7.1,8-14.7,15.5-22.7,22.6c-6.6,5.8-13.4,11.2-20.7,16c-1.3,0.9-2.7,1.6-4,2.5c-0.4,0.2-0.6,0.2-1,0
				c-5.4-3.1-9.8-7.1-13.6-12c-4.6-5.8-8-12.3-10.7-19.1c-3.2-8-5.4-16.2-6.8-24.7c-0.5-3.2-0.9-6.4-1.3-9.7c0-0.1,0-0.3,0-0.5
				c4.8,0.5,9.6,0.9,14.5,1.4c-0.2,0.3-0.3,0.6-0.5,0.9c-1.9,3.8-3.5,7.6-4.5,11.8c-0.8,3.5-0.6,7.1-0.1,10.6c0,0.2,0.1,0.4,0.2,0.7
				c0,0.1,0.1,0.1,0.2,0.3C93.5,111.2,95.6,103.9,100.6,97.3z"/>
			<path id="XMLID_74_" class="st1" d="M111.6,81c0.1-1.6,0.2-3,0.3-4.4c0.4-4.3,1.2-8.6,2.7-12.6c1.1-2.9,2.4-5.6,4.6-7.8
				c3.6-3.6,7.7-3.9,11.8-1c3.2,2.3,5.9,5.1,8.3,8.1c2.4,3.1,4.6,6.3,6.8,9.5c0.1,0.2,0.2,0.3,0.4,0.6c-6.1-0.3-12.1,0.1-18,1.3
				C122.6,76,117,77.9,111.6,81z"/>
			<path id="XMLID_73_" class="st1" d="M111.4,162.1c-0.9,0.5-1.7,0.9-2.5,1.4c-4.4,2.4-9,4.1-14,4.7c-2.9,0.3-5.8,0.5-8.8-0.1
				c-3.9-0.8-6.3-3.6-6.5-7.5c-0.2-3.9,0.6-7.6,1.8-11.2c1.5-4.5,3.4-8.9,5.7-13.1c0-0.1,0.1-0.2,0.2-0.3
				C93.2,146.6,100.4,156,111.4,162.1z"/>
			<path id="XMLID_72_" class="st1" d="M182,121.5c0.9,0.6,1.7,1.1,2.4,1.7c4.2,3,8.1,6.2,11.3,10.3c1.8,2.3,3.4,4.8,4.1,7.7
				c0.9,3.8-0.3,6.7-3.5,8.9c-2.7,1.9-5.8,2.9-9,3.6c-5.2,1.3-10.4,1.7-15.7,1.8c-0.2,0-0.3,0-0.6,0
				C178,145.3,181.9,134.1,182,121.5z"/>
			<path id="XMLID_71_" class="st1" d="M83.3,87.9c0-3.3,0.2-6.4,1.1-9.5c0.6-2.4,1.5-4.6,3.1-6.4c0.4-0.4,0.8-0.8,1.2-1.2
				c2-1.6,3.9-1.5,5.9,0.1c1.5,1.2,2.6,2.8,3.3,4.6c0.1,0.4,0.2,0.8,0.2,1.2c0.3,3.7,0.6,7.3,0.9,11c0,0.2,0,0.5,0,0.8
				C93.8,88.3,88.6,88.1,83.3,87.9z"/>
			<path id="XMLID_70_" class="st1" d="M131.8,183.2c-3.1,1.8-6.3,3.1-9.7,4c-2,0.5-3.9,0.7-5.9,0.4c-2.6-0.4-4.5-1.9-4.8-4.1
				c-0.1-0.9,0-1.9,0.3-2.7c0.4-1.2,1-2.4,1.6-3.5c0.1-0.3,0.4-0.5,0.6-0.6c3.4-2.4,6.8-4.8,10.3-7.2c0.1,0,0.1,0,0.2-0.1
				C126.8,173.9,129.2,178.5,131.8,183.2z"/>
			<path id="XMLID_69_" class="st1" d="M181.8,107.1c2.8-4.5,5.6-8.9,8.4-13.4c0.1,0,0.1,0,0.2,0.1c3.3,2.1,6.4,4.4,9,7.4
				c1.2,1.3,2.2,2.8,2.6,4.6c0.8,3-0.4,6.4-4.7,6.7c-0.8,0.1-1.6,0.1-2.4,0.2c-1,0.2-1.9-0.1-2.8-0.5c-3.3-1.6-6.5-3.2-9.8-4.7
				C182.1,107.3,181.9,107.2,181.8,107.1z"/>
		</g>
	</g>
</g>
</svg>
