<?xml version="1.0" encoding="utf-8"?>
<!-- Generator: Adobe Illustrator 19.0.0, SVG Export Plug-In . SVG Version: 6.00 Build 0)  -->
<svg version="1.1" xmlns="http://www.w3.org/2000/svg" xmlns:xlink="http://www.w3.org/1999/xlink" x="0px" y="0px"
	 viewBox="0 0 256 256" style="enable-background:new 0 0 256 256;" xml:space="preserve">
<style type="text/css">
	.st0{fill:#FFFFFF;stroke:#000000;stroke-width:10;stroke-miterlimit:10;}
</style>
<g id="Base">
	<rect id="XMLID_1_" class="st0" width="256" height="256"/>
</g>
<g id="Logo">
	<g id="XMLID_122_">
		<g id="XMLID_9_">
			<path id="XMLID_6_" d="M203.4,112.5c0.7-4.5,1.2-9.4,1.3-15c0-23.7-11.4-32.1-13.6-36.1c3.2-18-0.5-26.2-2.3-29
				c-6.4-2.3-22.4,5.9-31.1,11.7c-14.2-4.2-44.2-3.8-55.5,1.1C81.4,30.4,70.4,32.7,70.4,32.7s-7.1,12.7-1.9,31.4
				c-6.8,8.7-11.9,14.9-11.9,31.2c0,3.9,0.2,7.6,0.7,11.2c5.9,31,30.4,44.3,54.5,46.6c-3.6,2.8-8,8-8.6,14
				c-4.6,2.9-13.7,3.9-20.9,1.7c-10-3.2-13.8-22.9-28.8-20.1c-3.2,0.6-2.6,2.7,0.2,4.6c4.6,3,8.8,6.6,12.2,14.5
				c2.5,6,7.9,16.8,24.8,16.8c6.7,0,11.4-0.8,11.4-0.8s0.1,15.4,0.1,21.4c0,6.9-9.3,8.8-9.3,12.2c0,1.3,3.1,1.4,5.6,1.4
				c4.9,0,15.1-4.1,15.1-11.3c0-5.7,0.1-24.9,0.1-28.2c0-7.3,3.9-9.7,3.9-9.7s0.5,39.1-0.9,44.4c-1.7,6.2-4.7,5.3-4.7,8
				c0,4.1,12.2,1,16.3-8c3.1-7,1.7-45.4,1.7-45.4l3.3-0.1c0,0,0,17.6-0.1,25.6c-0.1,8.3-1,18.8,4,23.8c3.2,3.3,13.2,9,13.2,3.8
				c0-3-7-5.5-7-13.8v-37.9c4.2,0,5.1,12.4,5.1,12.4l1.5,23.1c0,0-1,8.4,9.1,12c3.6,1.3,11.2,1.6,11.6-0.5c0.4-2.1-9.2-5.2-9.3-11.8
				c0-4,0.2-6.3,0.2-23.6c0-17.3-2.3-23.7-10.4-28.8C174.6,150.6,199,140.1,203.4,112.5z"/>
		</g>
	</g>
</g>
</svg>
