<?xml version="1.0" encoding="utf-8"?>
<!-- Generator: Adobe Illustrator 19.0.0, SVG Export Plug-In . SVG Version: 6.00 Build 0)  -->
<svg version="1.1" xmlns="http://www.w3.org/2000/svg" xmlns:xlink="http://www.w3.org/1999/xlink" x="0px" y="0px"
	 viewBox="0 0 256 256" style="enable-background:new 0 0 256 256;" xml:space="preserve">
<style type="text/css">
	.st0{fill:#FFFFFF;stroke:#000000;stroke-width:10;stroke-miterlimit:10;}
</style>
<g id="Base">
	<rect id="XMLID_1_" class="st0" width="256" height="256"/>
</g>
<g id="Logo">
	<g id="XMLID_246_">
		<g id="XMLID_30_">
			<path id="XMLID_31_" d="M93,116v24.1c0,0,23.4,0,32.9,0c-5.2,15.6-13.2,24.1-32.9,24.1c-20,0-35.6-16.2-35.6-36.2
				S73,91.8,93,91.8c10.6,0,17.4,3.7,23.7,8.9c5-5,4.6-5.7,17.4-17.8c-10.8-9.8-25.2-15.9-41-15.9c-33.6,0-60.9,27.3-60.9,60.9
				s27.3,60.9,60.9,60.9c50.3,0,62.6-43.8,58.5-73C139.6,116,93,116,93,116z M202.8,117.1V96h-15.1v21.1H166v15.1h21.7v21.7h15.1
				v-21.7h21.1v-15.1H202.8z"/>
		</g>
	</g>
</g>
</svg>
