<?xml version="1.0" encoding="utf-8"?>
<!-- Generator: Adobe Illustrator 19.0.0, SVG Export Plug-In . SVG Version: 6.00 Build 0)  -->
<svg version="1.1" xmlns="http://www.w3.org/2000/svg" xmlns:xlink="http://www.w3.org/1999/xlink" x="0px" y="0px"
	 viewBox="0 0 256 256" style="enable-background:new 0 0 256 256;" xml:space="preserve">
<style type="text/css">
	.st0{fill:#FFFFFF;stroke:#000000;stroke-width:10;stroke-miterlimit:10;}
</style>
<g id="Base">
	<rect id="XMLID_1_" class="st0" width="256" height="256"/>
</g>
<g id="Logo">
	<g>
		<path d="M128,78.2c-27,0-49.4,22-49.4,49.4s22,49.4,49.4,49.4s49.4-22.4,49.4-49.4S155,78.2,128,78.2z M128,159.3
			c-17.4,0-31.7-14.3-31.7-31.7S110.6,96,128,96s31.7,14.3,31.7,31.7S145.4,159.3,128,159.3z"/>
		<circle id="XMLID_8_" cx="179.3" cy="77" r="11.2"/>
		<path d="M208.3,48.1c-10-10.4-24.3-15.8-40.5-15.8H88.2c-33.6,0-56,22.4-56,56v79.1c0,16.6,5.4,30.9,16.2,41.3
			c10.4,10,24.3,15.1,40.2,15.1h78.8c16.6,0,30.5-5.4,40.5-15.1c10.4-10,15.8-24.3,15.8-40.9V88.2C223.8,72,218.3,58.1,208.3,48.1z
			 M206,167.8c0,12-3.5,21.6-10.4,28.2c-6.9,6.6-16.6,10-28.2,10H88.6c-11.6,0-21.2-3.5-28.2-10C53.5,189,50,179.3,50,167.4V88.2
			C50,76.7,53.5,67,60.4,60C67,53.5,77,50,88.6,50h79.5c11.6,0,21.2,3.5,28.2,10.4c6.6,6.9,10.4,16.6,10.4,27.8v79.5H206z"/>
	</g>
</g>
</svg>
