<?xml version="1.0" encoding="utf-8"?>
<!-- Generator: Adobe Illustrator 19.0.0, SVG Export Plug-In . SVG Version: 6.00 Build 0)  -->
<svg version="1.1" xmlns="http://www.w3.org/2000/svg" xmlns:xlink="http://www.w3.org/1999/xlink" x="0px" y="0px"
	 viewBox="0 0 256 256" style="enable-background:new 0 0 256 256;" xml:space="preserve">
<style type="text/css">
	.st0{fill:#FFFFFF;stroke:#000000;stroke-width:10;stroke-miterlimit:10;}
</style>
<g id="Base">
	<rect id="XMLID_1_" class="st0" width="256" height="256"/>
</g>
<g id="Logo">
	<path id="XMLID_6_" d="M224,150.8c0,19.6-16.8,34.3-39.1,34.3c-18.7-0.1-30.7-8.6-38.8-27.5L144,153l-18-41.1
		c-5.8-14.1-20.4-23.5-36.3-23.5c-21.8,0-39.6,17.8-39.6,39.6c0,21.9,17.8,39.6,39.6,39.6c14.8,0,28.3-8.2,35.2-21.3
		c0.2-0.4,0.7-0.7,1.2-0.7c0.5,0,1,0.3,1.2,0.8l7.3,16.8c0.2,0.5,0.1,1-0.2,1.4c-11,13.4-27.3,21.1-44.7,21.1
		C57.9,185.8,32,159.8,32,128c0-31.9,25.9-57.8,57.7-57.8c24.1,0,43.6,13,53.4,35.6c0.1,0.2,9.9,23.1,18.5,42.7
		c5.1,11.6,9.1,18.6,22.4,19.1c12.7,0.4,22-7,22-17.3c0-9.2-5.7-11.5-18.6-15.8c-22.3-7.3-34.4-14.8-34.4-33.3
		c0-18.1,12.5-29.8,31.8-29.8c12.7,0,22,5.6,28.5,17.1c0.2,0.3,0.2,0.7,0.1,1c-0.1,0.4-0.3,0.6-0.7,0.8l-12.1,6.2
		c-0.6,0.3-1.3,0.1-1.7-0.4c-4.1-5.8-8.7-8.3-14.8-8.3c-8,0-13.8,5.5-13.8,13c0,9.3,7.2,11.6,19.2,15.3c1.6,0.5,3.2,1,4.9,1.6
		C213.1,123.8,224,131.1,224,150.8z"/>
</g>
</svg>
