<?xml version="1.0" encoding="utf-8"?>
<!-- Generator: Adobe Illustrator 19.0.0, SVG Export Plug-In . SVG Version: 6.00 Build 0)  -->
<svg version="1.1" xmlns="http://www.w3.org/2000/svg" xmlns:xlink="http://www.w3.org/1999/xlink" x="0px" y="0px"
	 viewBox="0 0 256 256" style="enable-background:new 0 0 256 256;" xml:space="preserve">
<style type="text/css">
	.st0{fill:#FFFFFF;stroke:#000000;stroke-width:10;stroke-miterlimit:10;}
</style>
<g id="Base">
	<rect id="XMLID_1_" class="st0" width="256" height="256"/>
</g>
<g id="Logo">
	<g id="XMLID_184_">
		<path id="XMLID_195_" d="M35.6,96h39.6v127.4H35.6V96z M55.5,32.6c12.7,0,23,10.3,23,23s-10.3,23-23,23c-12.7,0-23-10.3-23-23
			S42.7,32.6,55.5,32.6"/>
		<path id="XMLID_192_" d="M100.1,96H138v17.5h0.5c5.3-10,18.2-20.5,37.5-20.5c40.1,0,47.5,26.4,47.5,60.7v69.8H184v-61.9
			c0-14.8-0.2-33.8-20.5-33.8c-20.6,0-23.7,16.1-23.7,32.7v63h-39.5L100.1,96L100.1,96z"/>
	</g>
</g>
</svg>
