<?xml version="1.0" encoding="utf-8"?>
<!-- Generator: Adobe Illustrator 19.0.0, SVG Export Plug-In . SVG Version: 6.00 Build 0)  -->
<svg version="1.1" xmlns="http://www.w3.org/2000/svg" xmlns:xlink="http://www.w3.org/1999/xlink" x="0px" y="0px"
	 viewBox="0 0 256 256" style="enable-background:new 0 0 256 256;" xml:space="preserve">
<style type="text/css">
	.st0{fill:#FFFFFF;stroke:#000000;stroke-width:10;stroke-miterlimit:10;}
</style>
<g id="Base">
	<rect id="XMLID_1_" class="st0" width="256" height="256"/>
</g>
<g id="Logo">
	<path id="XMLID_7_" d="M132.5,32.3c-52.2,0-78.5,37.4-78.5,68.7c0,18.9,7.2,35.7,22.5,42c2.5,1,4.8,0,5.5-2.7
		c0.5-1.9,1.7-6.8,2.2-8.8c0.7-2.8,0.4-3.7-1.6-6.1c-4.4-5.2-7.3-12-7.3-21.5c0-27.8,20.8-52.6,54.1-52.6c29.5,0,45.7,18,45.7,42.1
		c0,31.7-14,58.4-34.8,58.4c-11.5,0-20.1-9.5-17.3-21.2c3.3-13.9,9.7-28.9,9.7-39c0-9-4.8-16.5-14.8-16.5
		c-11.8,0-21.2,12.2-21.2,28.4c0,10.4,3.5,17.4,3.5,17.4s-12,51-14.1,59.9c-4.2,17.8-0.6,39.6-0.3,41.8c0.2,1.3,1.9,1.6,2.6,0.6
		c1.1-1.4,15.1-18.7,19.8-36c1.3-4.9,7.7-30.2,7.7-30.2c3.8,7.3,15,13.7,26.8,13.7c35.3,0,59.3-32.2,59.3-75.3
		C202.1,62.7,174.5,32.3,132.5,32.3z"/>
</g>
</svg>
