<?xml version="1.0" encoding="utf-8"?>
<!-- Generator: Adobe Illustrator 19.0.0, SVG Export Plug-In . SVG Version: 6.00 Build 0)  -->
<svg version="1.1" xmlns="http://www.w3.org/2000/svg" xmlns:xlink="http://www.w3.org/1999/xlink" x="0px" y="0px"
	 viewBox="0 0 256 256" style="enable-background:new 0 0 256 256;" xml:space="preserve">
<style type="text/css">
	.st0{fill:#FFFFFF;stroke:#000000;stroke-width:10;stroke-miterlimit:10;}
</style>
<g id="Base">
	<rect id="XMLID_1_" class="st0" width="256" height="256"/>
</g>
<g id="Logo">
	<path d="M223.8,125.9c0-11.8-9.5-21.4-21.1-21.4c-5.5,0-10.5,2.1-14.3,5.7c-13.8-9.7-32.5-16.1-53.3-17.3l9.3-31.2l28.6,5.8
		c1,9.7,9,17.2,18.9,17.2c0,0,0,0,0.1,0c0,0,0,0,0.1,0c10.5,0,19-8.6,19-19.2c0-10.6-8.5-19.2-19-19.2c0,0,0,0-0.1,0h0
		c-7.3,0-13.6,4.2-16.8,10.4l-38.3-7.7l-13.1,43.9l-1.1,0c-21.5,0.9-40.7,7.4-54.9,17.4c-3.8-3.5-8.8-5.7-14.3-5.7
		c-11.6,0-21.1,9.6-21.1,21.4c0,8.4,4.7,15.6,11.6,19.1c-0.3,2.1-0.5,4.2-0.5,6.3c0,32.3,38,58.6,84.7,58.6s84.7-26.3,84.7-58.6
		c0-2.1-0.2-4.2-0.5-6.3C219.1,141.4,223.8,134.2,223.8,125.9z M46.9,134.4c-2.8-1.9-4.6-5.2-4.6-8.9c0-5.9,4.7-10.7,10.5-10.7
		c2.4,0,4.6,0.8,6.4,2.2C53.4,122.1,49.1,128,46.9,134.4z M184.9,65.3c0-3.9,3.2-7.2,7-7.2s7,3.2,7,7.2c0,3.9-3.2,7.2-7,7.2
		S184.9,69.3,184.9,65.3z M86.4,141.8c0-7.5,6.1-13.6,13.6-13.6s13.6,6.1,13.6,13.6s-6.1,13.6-13.6,13.6S86.4,149.3,86.4,141.8z
		 M128,189.4c-20.3-0.1-32.4-12.2-32.9-12.7l5.4-5.3c0.1,0.1,10.1,10.3,27.6,10.4c17.2-0.1,27.4-10.3,27.5-10.4l5.4,5.3
		C160.4,177.3,148.3,189.3,128,189.4z M156.3,155.4c-7.5,0-13.6-6.1-13.6-13.6s6.1-13.6,13.6-13.6c7.5,0,13.6,6.1,13.6,13.6
		C169.8,149.3,163.7,155.4,156.3,155.4z M209.2,134.6c-2.3-6.5-6.7-12.5-12.5-17.7c1.8-1.4,4.1-2.2,6.5-2.2
		c5.9,0,10.7,4.9,10.7,10.9C213.9,129.4,212.1,132.6,209.2,134.6z"/>
</g>
</svg>
