<?xml version="1.0" encoding="utf-8"?>
<!-- Generator: Adobe Illustrator 19.0.0, SVG Export Plug-In . SVG Version: 6.00 Build 0)  -->
<svg version="1.1" xmlns="http://www.w3.org/2000/svg" xmlns:xlink="http://www.w3.org/1999/xlink" x="0px" y="0px"
	 viewBox="0 0 256 256" style="enable-background:new 0 0 256 256;" xml:space="preserve">
<style type="text/css">
	.st0{fill:#FFFFFF;stroke:#000000;stroke-width:10;stroke-miterlimit:10;}
</style>
<g id="Base">
	<rect id="XMLID_1_" class="st0" width="256" height="256"/>
</g>
<g id="Logo">
	<g id="XMLID_8_">
		<path id="XMLID_6_" d="M76.8,96c-0.3-7.5-0.6-15,1.3-22.2C81.5,61,89,51.1,100.7,45.2c19.5-10,39.3-9.9,58,1.8
			c14.5,9.1,21.4,23.1,20.9,40.4c-0.2,7.4-0.6,14.9-0.9,22.3c-0.2,3.4,0.5,4.4,3.9,4.7c3.5,0.4,6.7-0.7,9.9-2.2
			c2.7-1.2,5.2-1,7.8,0.1c4.6,2.1,5.2,6.2,1,9c-2.5,1.7-5.5,2.8-8.4,4.1c-2.8,1.2-5.8,2.1-8.4,3.6c-4.2,2.4-5.8,6.3-3.8,10.7
			c7.9,18,20,31.5,40.1,36.1c1,0.2,2.7,1,2.8,1.7c0.1,1.1-0.5,2.8-1.3,3.5c-1.9,1.5-4,2.8-6.2,3.5c-5.1,1.5-10.3,2.7-15.5,3.8
			c-1.8,0.4-2.8,1.2-3.2,2.8c-0.6,2.3-1.1,4.7-1.7,7c-0.7,2.6-1.4,3.1-4.1,2.8c-4.2-0.5-8.3-1.2-12.5-1.5c-7.9-0.6-15,1.5-21.4,6.3
			c-3.2,2.4-6.4,4.7-9.9,6.6c-13,7.4-26.1,7.4-39.1,0c-2.6-1.5-5.3-3.1-7.6-5.1c-9.7-8.1-20.8-9.3-32.7-6.9
			c-6.7,1.4-6.9,1.3-8.3-5.5c-1.3-6-1.3-5.8-7.2-7.2c-4.9-1.1-9.7-2.5-14.5-4.1c-1.8-0.6-3.5-2-4.8-3.3c-1.8-1.8-1-4,1.5-4.5
			c20.1-4.3,32.3-17.8,40.5-35.6c2.2-4.8,0.7-8.8-3.9-11.4c-2.6-1.4-5.5-2.2-8.2-3.5c-2.8-1.3-5.8-2.4-8.3-4.1
			c-4.1-2.8-3.5-6.8,0.9-8.9c2.3-1.1,4.6-1.3,7-0.2c3.3,1.6,6.8,2.5,10.5,2.1c3.7-0.4,4.5-1.3,4.2-4.9C77.3,105,77.1,100.5,76.8,96z
			"/>
	</g>
</g>
</svg>
