<?xml version="1.0" encoding="utf-8"?>
<!-- Generator: Adobe Illustrator 19.0.0, SVG Export Plug-In . SVG Version: 6.00 Build 0)  -->
<svg version="1.1" xmlns="http://www.w3.org/2000/svg" xmlns:xlink="http://www.w3.org/1999/xlink" x="0px" y="0px"
	 viewBox="0 0 256 256" style="enable-background:new 0 0 256 256;" xml:space="preserve">
<style type="text/css">
	.st0{fill:#FFFFFF;stroke:#000000;stroke-width:10;stroke-miterlimit:10;}
</style>
<g id="Base">
	<rect id="XMLID_1_" class="st0" width="256" height="256"/>
</g>
<g id="Logo">
	<g id="Style_2_copy_3">
		<g id="XMLID_13_">
			<path id="XMLID_14_" d="M104.7,62.7c-11.6-0.3-24.4,0.6-37.2,2.6c-9,1.3-18,3-26.6,6c-6.6,2.2-9.9,9.4-7.7,15.6
				c2.3,6.6,9.1,10,15.8,8c16.5-4.9,33.6-6.7,50.7-7.3c11.2-0.4,22.4,0.3,33.5,1.5c13.6,1.4,26.9,4,40,7.8
				c11.1,3.3,21.7,7.8,31.8,13.5c5.8,3.3,12.3,2,16.3-3c4-5.1,3.8-11.4-0.7-16.3c-1.6-1.8-3.9-2.9-6-4.1
				c-12.7-7-26.2-12.1-40.2-15.8C152,65.3,129.2,62.4,104.7,62.7z M103.7,108.8c-4.7,0.1-8.9,0.2-13.1,0.5
				c-14,0.7-27.7,3.1-41.1,7.1c-6.1,1.8-9,7.3-7.2,13.3c1.6,5.3,7.3,8.2,13,6.7c2-0.5,3.9-1.2,5.9-1.7c22.3-5.5,44.9-6.2,67.6-3.1
				c21.5,2.9,41.8,9.2,60.4,20.5c5.5,3.4,11.7,0.9,14.2-3.2c3.3-5.1,1.7-11.7-3.5-14.9c-6.6-4.1-13.5-7.6-20.6-10.5
				C154.9,113.6,129.5,108.9,103.7,108.8z M98.3,152.9c-4.2,0.2-8.4,0.4-12.6,0.8c-10.7,0.9-21.2,2.8-31.7,5.2
				c-4.8,1.1-7.5,5.5-6.5,9.9c1.1,4.7,5.2,7.3,10.2,6.3c2.8-0.5,5.5-1.1,8.2-1.6c11.2-2.4,22.7-3.5,34.1-3.9
				c7.5-0.3,14.9,0.2,22.3,1c12.9,1.3,25.3,4.4,37.2,9.4c5.8,2.4,11.2,5.5,16.7,8.5c4,2.1,8.9,0.6,10.9-3.2c2.3-4.3,1.1-8.9-3-11.4
				c-6.5-4-13.3-7.3-20.5-10.2C142.7,154.8,120.7,152.3,98.3,152.9z"/>
		</g>
	</g>
</g>
</svg>
