<?xml version="1.0" encoding="utf-8"?>
<!-- Generator: Adobe Illustrator 19.0.0, SVG Export Plug-In . SVG Version: 6.00 Build 0)  -->
<svg version="1.1" xmlns="http://www.w3.org/2000/svg" xmlns:xlink="http://www.w3.org/1999/xlink" x="0px" y="0px"
	 viewBox="0 0 256 256" style="enable-background:new 0 0 256 256;" xml:space="preserve">
<style type="text/css">
	.st0{fill:#FFFFFF;stroke:#000000;stroke-width:10;stroke-miterlimit:10;}
</style>
<g id="Base">
	<rect id="XMLID_1_" class="st0" width="256" height="256"/>
</g>
<g id="Logo">
	<g id="black">
		<g id="slice" transform="translate(0.000000, -600.000000)">
		</g>
		<g id="steam" transform="translate(11.000000, 18.000000)">
			<path id="XMLID_12_" d="M180.8,100.9c-8.8,0-15.9-7.5-15.9-16.8s7.1-16.8,15.9-16.8c8.8,0,15.9,7.5,15.9,16.8
				S189.5,100.9,180.8,100.9z M191.3,115.8l-21.5,19.4c0.2,1.6,0.4,3.1,0.4,4.7c0,16.5-12.7,29.9-28.3,29.9
				c-13.5,0-24.8-10-27.6-23.3l-53.1-19c-4.2,3.4-9.4,5.4-15.1,5.4c-13.8,0-25-11.8-25-26.4c0-14.6,11.2-26.4,25-26.4
				c11.9,0,21.8,8.7,24.3,20.5l51.3,18.4c5-5.4,11.9-8.7,19.5-8.9l7.7-24.7c0-0.5-0.1-1-0.1-1.5c0-18.7,14.3-33.8,32-33.8
				c17.7,0,32,15.1,32,33.8C212.8,98.7,203.8,111.2,191.3,115.8L191.3,115.8z M61.9,97.4c-3-5.7-8.7-9.5-15.3-9.5
				c-9.7,0-17.5,8.3-17.5,18.5s7.8,18.5,17.5,18.5c1.8,0,3.5-0.3,5.1-0.8l-8.3-3c-6.7-3.8-9.2-12.6-5.6-19.7
				c3.6-7.1,11.9-9.7,18.6-5.9L61.9,97.4L61.9,97.4z M180.8,107.7c12.4,0,22.5-10.6,22.5-23.7c0-9.2-4.9-17.2-12.2-21.1
				c-3.1-1.7-6.6-2.6-10.3-2.6c-12.4,0-22.4,10.6-22.4,23.7C158.3,97.1,168.4,107.7,180.8,107.7z M160.7,142.5c0-11-8.5-20-18.9-20
				c-1.5,0-2.9,0.2-4.2,0.5l10.6,3.8c6.7,3.8,9.2,12.6,5.6,19.7c-3.6,7.1-11.9,9.7-18.6,6l-11.4-4.1c2.4,8.2,9.6,14.1,18.1,14.1
				C152.2,162.5,160.7,153.6,160.7,142.5L160.7,142.5z"/>
		</g>
	</g>
</g>
</svg>
