<?xml version="1.0" encoding="utf-8"?>
<!-- Generator: Adobe Illustrator 19.0.0, SVG Export Plug-In . SVG Version: 6.00 Build 0)  -->
<svg version="1.1" xmlns="http://www.w3.org/2000/svg" xmlns:xlink="http://www.w3.org/1999/xlink" x="0px" y="0px"
	 viewBox="0 0 256 256" style="enable-background:new 0 0 256 256;" xml:space="preserve">
<style type="text/css">
	.st0{fill:#FFFFFF;stroke:#000000;stroke-width:10;stroke-miterlimit:10;}
</style>
<g id="Base">
	<rect id="XMLID_1_" class="st0" width="256" height="256"/>
</g>
<g id="Logo">
	<g id="XMLID_12_">
		<path id="XMLID_10_" d="M111.2,185.8c-4.7-10.8-7.4-22.4-7.6-34c-7.6,11.9-13.4,24-17.4,32.7c-0.3,0.5-0.3,0.8-0.5,1.3
			c-1.3,3.4-2.6,6.1-3.4,8.4c-1.1,2.6,0.3,5.8,3.2,6.9c2.1,0.8,5,1.8,8.4,3.2c0.5,0.3,0.8,0.3,1.3,0.5c9.2,3.2,21.9,6.6,35.6,9
			C122.5,205.8,115.9,196.3,111.2,185.8"/>
		<path id="XMLID_9_" d="M129.6,99c-26.9-55.1-87-53.2-96.5-28.5c-7.4,19,24.5,64.1,97.8,31.4l0,0C130.7,101.7,129.9,99.6,129.6,99"
			/>
		<path id="XMLID_8_" d="M142.3,95.4c-15-37.2,11.3-58.5,25.6-53c10.8,4.2,16.6,36.1-24.8,54.6l0,0
			C143.1,96.7,142.5,95.6,142.3,95.4"/>
		<path id="XMLID_7_" d="M219.2,137.3c-6.3-14-17.7-24.3-31.1-29c-1.3-0.5-2.6-0.8-4.2-0.8c-6.9,0-13.7,5.8-14.2,12.9
			c-1.1,12.1,1.3,24.3,6.6,36.1c5.3,11.6,12.7,21.4,21.9,28.7c2.4,1.8,5.5,2.6,8.4,2.6c5.5,0,10.8-2.9,12.9-7.9
			C225.3,167.1,225.6,151.5,219.2,137.3"/>
		<path id="XMLID_6_" d="M187.9,199.2c-11.6-9-20.8-20.8-27.2-35.3c-6.6-14.8-9.2-29.8-7.9-44.5c0.3-4.2,1.6-8.2,3.4-11.6
			c-0.3,0-0.8,0.3-1.1,0.3l0,0c-0.5,0.3-1.3,0.3-1.8,0.5c-4,1.1-7.9,2.9-11.3,4.7c-1.8,1.1-3.4,2.1-5.3,3.2
			c-9,6.1-16.3,16.6-17.4,27.7c-1.1,11.9,1.1,24,6.1,35.6c5,11.3,12.4,20.6,21.4,27.7c5.5,4.5,15.3,7.1,23.5,7.1
			c9,0,18.5-3.4,26.1-8.2c0,0,0.3,0,0.3-0.3c0.5-0.3,1.1-0.8,1.6-1.1c0.3-0.3,0.5-0.5,0.8-0.5C194.7,203.4,191,201.6,187.9,199.2"/>
	</g>
</g>
</svg>
