<?xml version="1.0" encoding="utf-8"?>
<!-- Generator: Adobe Illustrator 19.0.0, SVG Export Plug-In . SVG Version: 6.00 Build 0)  -->
<svg version="1.1" xmlns="http://www.w3.org/2000/svg" xmlns:xlink="http://www.w3.org/1999/xlink" x="0px" y="0px"
	 viewBox="0 0 256 256" style="enable-background:new 0 0 256 256;" xml:space="preserve">
<style type="text/css">
	.st0{fill:#FFFFFF;stroke:#000000;stroke-width:10;stroke-miterlimit:10;}
</style>
<g id="Base">
	<rect id="XMLID_1_" class="st0" width="256" height="256"/>
</g>
<g id="Logo">
	<path id="path9" d="M211,48.5L41,114.1c-11.6,4.7-11.5,11.1-2.1,14l42.4,13.2l16.2,49.8c2,5.4,1,7.6,6.7,7.6c4.4,0,6.4-2,8.8-4.4
		c1.6-1.5,10.8-10.6,21.2-20.6l44.1,32.6c8.1,4.5,14,2.2,16-7.5l29-136.5C226.3,50.4,218.8,45,211,48.5z M87.9,138.4L183.5,78
		c4.8-2.9,9.1-1.3,5.6,1.9l-81.9,73.9l-3.2,34L87.9,138.4z"/>
</g>
</svg>
