<?xml version="1.0" encoding="utf-8"?>
<!-- Generator: Adobe Illustrator 19.0.0, SVG Export Plug-In . SVG Version: 6.00 Build 0)  -->
<svg version="1.1" xmlns="http://www.w3.org/2000/svg" xmlns:xlink="http://www.w3.org/1999/xlink" x="0px" y="0px"
	 viewBox="0 0 256 256" style="enable-background:new 0 0 256 256;" xml:space="preserve">
<style type="text/css">
	.st0{fill:#FFFFFF;stroke:#000000;stroke-width:10;stroke-miterlimit:10;}
</style>
<g id="Base">
	<rect id="XMLID_1_" class="st0" width="256" height="256"/>
</g>
<g id="Logo">
	<g id="XMLID_8_">
		<path id="XMLID_6_" d="M133.9,32c0,15.9,0,31.8,0,48c16,0,32,0,47.9,0c0,10.1,0,19.9,0,30c-15.9,0-31.8,0-47.9,0
			c0,0.9,0,1.5,0,2.2c0,15.6-0.1,31.2,0.1,46.9c0.1,6.4,0.8,12.8,1.5,19.2c0.5,4.7,3.2,8.1,7.2,10.6c6.3,3.8,13.2,4.4,20.3,3.5
			c8.9-1.1,16.9-4.4,24.1-9.6c0.2-0.1,0.4-0.2,0.8-0.5c0,0.6,0.1,1.1,0.1,1.6c0,8.9,0,17.7,0,26.6c0,1.2-0.4,1.9-1.4,2.5
			c-11,6.3-22.8,9.8-35.4,10.8c-10,0.8-20,0.4-29.8-2.3c-6.2-1.7-11.7-4.5-16.7-8.6c-6.8-5.6-10.6-12.7-11.7-21.3
			c-0.7-5.5-1.1-11.1-1.1-16.6c-0.1-20.8-0.1-41.6-0.1-62.4c0-0.7,0-1.5,0-2.3c-8,0-15.9,0-23.9,0c0-10,0-19.9,0-29.9
			c2.5-0.5,5.1-0.8,7.7-1.5C84,76.6,89.9,71,95.1,64.5c6-7.5,8.7-16.2,8.7-25.7c0-2.2,0-4.5,0.1-6.7C113.9,32,123.9,32,133.9,32z"/>
	</g>
</g>
</svg>
