<?xml version="1.0" encoding="utf-8"?>
<!-- Generator: Adobe Illustrator 19.0.0, SVG Export Plug-In . SVG Version: 6.00 Build 0)  -->
<svg version="1.1" xmlns="http://www.w3.org/2000/svg" xmlns:xlink="http://www.w3.org/1999/xlink" x="0px" y="0px"
	 viewBox="0 0 256 256" style="enable-background:new 0 0 256 256;" xml:space="preserve">
<style type="text/css">
	.st0{fill:#FFFFFF;stroke:#000000;stroke-width:10;stroke-miterlimit:10;}
</style>
<g id="Base">
	<rect id="XMLID_1_" class="st0" width="256" height="256"/>
</g>
<g id="Logo">
	<path id="XMLID_6_" d="M224,68.4c-7.1,3.1-14.6,5.3-22.6,6.2c8.1-4.9,14.4-12.6,17.3-21.8c-7.6,4.5-16,7.8-25,9.6
		c-7.2-7.7-17.4-12.4-28.8-12.4c-21.8,0-39.4,17.6-39.4,39.4c0,3.1,0.3,6.1,1,9C93.8,96.7,64.8,81,45.4,57.2C42,63,40,69.8,40,77
		c0,13.7,7,25.7,17.5,32.8c-6.5-0.2-12.5-2-17.8-4.9c0,0.2,0,0.3,0,0.5c0,19.1,13.6,35,31.6,38.6c-3.3,0.9-6.8,1.4-10.4,1.4
		c-2.5,0-5-0.2-7.4-0.7c5,15.6,19.6,27,36.8,27.4c-13.5,10.6-30.5,16.9-48.9,16.9c-3.2,0-6.3-0.2-9.4-0.6
		C49.4,199.5,70.1,206,92.4,206c72.4,0,112.1-60,112.1-112.1c0-1.7,0-3.4-0.1-5.1C212,83.3,218.7,76.4,224,68.4z"/>
</g>
</svg>
