<?xml version="1.0" encoding="utf-8"?>
<!-- Generator: Adobe Illustrator 19.0.0, SVG Export Plug-In . SVG Version: 6.00 Build 0)  -->
<svg version="1.1" xmlns="http://www.w3.org/2000/svg" xmlns:xlink="http://www.w3.org/1999/xlink" x="0px" y="0px"
	 viewBox="0 0 256 256" style="enable-background:new 0 0 256 256;" xml:space="preserve">
<style type="text/css">
	.st0{fill:#FFFFFF;stroke:#000000;stroke-width:10;stroke-miterlimit:10;}
</style>
<g id="Base">
	<rect id="XMLID_1_" class="st0" width="256" height="256"/>
</g>
<g id="Logo">
	<g id="XMLID_6_">
		<path id="XMLID_279_" d="M190.5,105c5.6,0,11.2-0.3,16.7,0.1c10.7,0.6,16.7,6.9,16.9,17.5c0.2,10.9,0.2,21.8-0.1,32.6
			c-0.2,6.4-3.2,11.6-9.4,14.2c-1.9,0.8-4,1.3-6,1.3c-7.9,0.1-15.7,0.2-23.6-0.2c-8.3-0.5-14.8-7.5-14.9-15.8
			c-0.1-5.4-0.2-10.8,0.5-16c1-7,7-12.3,14.1-12.6c9.6-0.4,19.2-0.3,28.8-0.3c4.4,0,4.4,0,4-4.5c-0.6-6.3-3.9-9.4-10.2-9.5
			c-11.2-0.2-22.3-0.1-33.5-0.1c-3,0-3.8-0.7-3.8-3.6c0-2.5,0.8-3.4,3.3-3.4 M201.4,132.7c-4.5,0-9,0-13.5,0c-0.2,0-0.4,0-0.6,0
			c-6.7,0.3-10,3.4-10.6,10c-0.3,3.8-0.1,7.6,0,11.3c0.2,6.9,5.2,9.6,9.9,9.8c7.6,0.3,15.2,0.3,22.7,0c4.7-0.1,7.8-3.2,8-7.9
			c0.3-7.2,0.2-14.4,0.4-21.6c0-1.4-0.7-1.6-1.9-1.6C211,132.7,206.2,132.7,201.4,132.7z"/>
		<path id="XMLID_276_" d="M146.5,104.7c0-5.6,0-10.8,0-16.1c0-2.9,1-3.8,3.9-3.6c1.8,0.1,2.8,1,2.7,2.9c0,0.4,0,0.9,0,1.3
			c0,20.8,0,41.5,0,62.3c0,2.1-0.2,4.2-0.6,6.2c-1.7,7.6-7.4,12.6-15.4,12.9c-8.1,0.3-16.3,0.3-24.4,0c-7.6-0.3-14.1-7.1-14.3-15.1
			c-0.3-9.9-0.1-19.8-0.1-29.6c0-2.1,0-4.2,0.3-6.2c1.5-8.4,7.6-14.1,16.2-14.5c9.4-0.4,18.7-0.3,28.1-0.4
			C144,104.7,145,104.7,146.5,104.7z M146.5,111.8c-10.8,0-21.1-0.2-31.5,0.1c-5.2,0.1-9.7,4.3-9.8,9.5c-0.4,11.4-0.3,22.7,0,34.1
			c0.2,5,2.8,7.6,7.7,8c7.4,0.6,14.9,0.9,22.3,0.3c8.1-0.7,11.3-5.1,11.3-13.4c0-11.9,0-23.8,0-35.6
			C146.5,113.8,146.5,112.8,146.5,111.8z"/>
		<path id="XMLID_275_" d="M59.7,132.2c3.9-5.2,7.5-9.9,11.1-14.7c2.8-3.8,5.7-7.6,8.5-11.3c1-1.3,5-2.1,6.5-1.3
			c1.2,0.7,1.4,2.4,0.4,3.7c-6.2,8.1-12.4,16.1-18.5,24.2c-0.7,0.9-1.3,2-2.1,2.7c-1.8,1.7-1.3,3,0.1,4.7c7.1,8.9,14,17.9,21,26.9
			c0.5,0.6,0.7,1.8,0.4,2.4c-0.4,0.7-1.4,1.2-2.3,1.4c-2.7,0.6-4.5-0.6-6.2-2.9c-5.6-7.6-11.5-15-17.3-22.5c-0.5-0.6-1-1.2-1.7-2
			c-1.6,2.1-3.2,4-4.7,5.9c-5.2,6.7-10.4,13.3-15.6,20c-1.1,1.4-4.9,2.2-6.4,1.4c-1.2-0.7-1.5-2.3-0.5-3.6c7-8.9,13.9-17.8,21-26.6
			c1.5-1.9,1.7-3.1,0.1-5.1c-7-8.9-13.8-17.9-20.6-26.9c-0.5-0.6-0.8-1.9-0.5-2.6c0.3-0.7,1.5-1.1,2.3-1.3c2.6-0.5,4.3,0.6,5.9,2.7
			c5.7,7.6,11.5,15.1,17.3,22.7C58.5,130.7,59,131.3,59.7,132.2z"/>
	</g>
</g>
</svg>
