<?xml version="1.0" encoding="utf-8"?>
<!-- Generator: Adobe Illustrator 19.0.0, SVG Export Plug-In . SVG Version: 6.00 Build 0)  -->
<svg version="1.1" xmlns="http://www.w3.org/2000/svg" xmlns:xlink="http://www.w3.org/1999/xlink" x="0px" y="0px"
	 viewBox="0 0 256 256" style="enable-background:new 0 0 256 256;" xml:space="preserve">
<style type="text/css">
	.st0{fill:#FFFFFF;stroke:#000000;stroke-width:10;stroke-miterlimit:10;}
</style>
<g id="Base">
	<rect id="XMLID_1_" class="st0" width="256" height="256"/>
</g>
<g id="Logo">
	<path id="Yelp_1_" d="M129,110.5c-0.5-13-4.4-70.8-4.8-73.5c-0.7-2.4-2.5-4.2-5.2-4.8c-8.2-2.1-39.7,6.9-45.5,13
		c-1.9,2-2.6,4.4-2,6.6c0.9,1.9,39.9,64.2,39.9,64.2c5.8,9.5,10.5,8,12,7.5C124.9,123.1,129.6,121.6,129,110.5z M161.4,137.6
		c32.2-7.9,33.5-8.4,34.8-9.2c1.9-1.3,2.9-3.6,2.8-6.3c0-0.1,0-0.2,0-0.3c-0.8-8-14.7-29-21.5-32.4c-2.4-1.2-4.8-1.1-6.8,0.3
		c-1.2,0.8-2.2,2.1-19.4,26.1c0,0-7.8,10.8-7.9,10.9c-2.1,2.5-2.1,6.2-0.1,9.3c2.1,3.2,5.6,4.8,8.8,3.9c0,0-0.1,0.2-0.2,0.3
		C153.4,139.6,156.2,138.8,161.4,137.6z M176.1,209.2c7.2-2.9,22.8-23.1,23.9-30.9c0.4-2.7-0.5-5-2.3-6.5
		c-1.2-0.9-2.1-1.3-30.5-10.7c0,0-12.4-4.2-12.6-4.3c-3-1.2-6.5-0.1-8.8,2.8c-2.4,3-2.8,6.9-0.9,9.9l5,8.3
		c16.9,27.8,18.1,29.8,19.3,30.7C171.2,209.9,173.6,210.2,176.1,209.2z M127.9,219.7c0.5-1.4,0.5-2.5,0.6-32.8
		c0,0,0.1-13.4,0.1-13.5c0.2-3.3-1.9-6.3-5.3-7.6c-3.5-1.4-7.3-0.5-9.4,2.2c0,0-6.2,7.5-6.2,7.5c-21.4,25.5-22.3,26.7-22.8,28.2
		c-0.3,0.9-0.4,1.8-0.3,2.8c0.1,1.3,0.7,2.7,1.7,3.9c5,6,28.7,14.9,36.3,13.6C125.1,223.5,127,222,127.9,219.7z M59.6,124.4
		c-3.1,5-4.4,20.8-3.3,31.2c0.4,3.5,1,6.3,1.9,8c1.2,2.4,3.3,3.8,5.7,3.9c1.5,0.1,2.4-0.2,30.8-9.5c0,0,12.6-4.1,12.7-4.1
		c3.1-0.8,5.3-3.7,5.5-7.5c0.2-3.8-1.8-7.2-5-8.5c0,0-8.9-3.7-8.9-3.7C68.4,121.5,67,121,65.5,121C63.1,120.9,61,122.1,59.6,124.4z"
		/>
</g>
</svg>
