<?xml version="1.0" encoding="utf-8"?>
<!-- Generator: Adobe Illustrator 19.0.0, SVG Export Plug-In . SVG Version: 6.00 Build 0)  -->
<svg version="1.1" id="Layer_1" xmlns="http://www.w3.org/2000/svg" xmlns:xlink="http://www.w3.org/1999/xlink" x="0px" y="0px"
	 viewBox="0 0 876 96" style="enable-background:new 0 0 876 96;" xml:space="preserve">
<style type="text/css">
	.st0{fill:#AAAAAA;}
</style>
<g id="Layer_7">
	<g id="XMLID_9_">
		<g id="XMLID_33_">
			<path id="XMLID_34_" class="st0" d="M101,40.9c0,0.4,0,0.9,0,1.3c0.1,0.4,0.2,0.7,0.1,1.1c0,0.3-0.1,0.6-0.1,0.8
				c-0.1,0.8,0,1.7,0,2.5c0,3-0.1,5.9,0,8.9c0,1,0.1,2.1,0.1,3.1s-0.1,2.1-0.1,3.1c0,0.1-0.1,0.2-0.2,0.1c-0.2-0.1-0.4-0.1-0.5-0.2
				c-0.5-0.3-1.1-0.4-1.7-0.5c-0.3-0.1-0.6-0.2-0.9-0.2c-0.3-0.1-0.6-0.1-1-0.1c-0.5,0-1,0.1-1.5,0.1c-0.1,0-0.2,0.1-0.2,0.2
				c0,0.1,0,0.1,0,0.2c0,0.2,0.1,0.3,0.3,0.3c0.3,0,0.3,0,0.4,0.3c0,0.1,0,0.1-0.1,0.1c-0.3,0-0.6,0.1-0.9,0.3
				c-0.1,0.1-0.2,0.1-0.3,0c-0.5,0-1.1,0-1.6-0.1c-1-0.1-2-0.1-3-0.2c-0.2,0-0.3,0-0.5,0c-0.6,0-1.2-0.2-1.8-0.5
				c-0.1-0.1-0.2-0.1-0.3,0c-0.6,0.4-1.2,0.6-1.9,0.6c-0.4,0-0.8,0-1.3,0.1c-0.7,0.1-1.4,0.1-2.1,0c-1.2-0.1-2.5,0-3.7,0
				c-0.5,0-0.9,0-1.4,0.2c-0.6,0.1-1.1,0.5-1.7,0.8c-0.3,0.1-0.6,0.3-0.9,0.2s-0.5-0.3-0.6-0.6c-0.1-0.2-0.2-0.2-0.4-0.1
				c-0.5,0.2-0.9,0.1-1.4-0.1c-0.3-0.1-0.6-0.2-0.9-0.3c-0.5-0.1-1,0.1-1.3,0.5c-0.1,0.2-0.3,0.4-0.5,0.6c0.2,0.2,0.1,0.2-0.1,0.2
				c-0.4-0.2-0.7-0.6-0.9-1c-0.3-0.3-0.5-0.7-0.6-1.1c0-0.1-0.1-0.1-0.2-0.1c-0.2,0-0.4,0-0.6,0.2l-0.1,0.1
				c-0.1,0.1-0.2,0.2-0.4,0.1c-0.4-0.2-0.8-0.2-1.3-0.2c-0.3,0-0.6,0-0.9,0c-0.1,0-0.2,0-0.2-0.1c-0.2-0.2-0.5-0.2-0.8-0.2
				c-0.4,0-0.9,0-1.3,0.1c-0.7,0.1-1.4,0.1-2.1,0.2c-0.4,0-0.7,0.1-1.1,0c-0.4-0.1-0.9-0.2-1.3-0.2c-0.2,0-0.5,0.1-0.7,0.1
				s-0.5,0-0.7-0.1c-0.3-0.1-0.6-0.2-1-0.1c-0.5,0.1-1,0.1-1.5,0.1c-1.3-0.1-2.6,0-3.8,0.1c-1.3,0.1-2.6,0-3.9-0.6
				c-0.1-0.1-0.2-0.1-0.2-0.3c0-0.5,0.1-1.1,0.2-1.6c0.1-0.9,0.2-1.8,0-2.7c-0.1-0.7-0.1-1.5-0.2-2.2c0-0.9,0-1.8,0-2.7
				c0-0.5,0.3-0.8,0.5-1.2C46,50.1,46,50,46.1,50c0.3-0.3,0.4-0.6,0.5-1c0.1-0.8,0.2-1.7,0.3-2.5c0.1-0.6,0.1-1.3,0-1.9
				c-0.1-0.3-0.2-0.6-0.5-0.7c-0.2-0.1-0.4-0.3-0.6-0.5c-0.2-0.3-0.2-0.7-0.3-1.1c-0.1-1.5-0.1-3.1-0.2-4.6c0-0.1,0-0.3-0.1-0.4
				c0-0.1,0-0.2,0.1-0.2c0.3,0,0.7-0.1,0.9-0.4c0.3-0.2,0.4-0.5,0.5-0.9c0.1-0.5,0-0.9,0.1-1.4c0-0.2-0.1-0.3-0.3-0.5
				c-0.3-0.3-0.5-0.6-0.6-1c-0.2-0.5-0.2-1-0.1-1.5c0-0.4,0.2-0.8,0.2-1.2c0.1-0.6,0-1.2-0.1-1.8c-0.1-0.7-0.2-1.4-0.4-2
				c-0.2-0.5-0.3-1-0.4-1.5c-0.1-0.7-0.2-1.3-0.2-2c0-0.4-0.1-0.7,0-1.1c0-0.5,0.2-1,0.3-1.4s0.2-0.9,0.2-1.3c0-0.3,0.1-0.6,0.2-0.9
				c0.1-0.5,0.1-1,0.1-1.5c0-0.9,0.1-1.8,0.1-2.7c0-0.7-0.1-1.5-0.3-2.2c-0.2-0.9-0.2-1.8,0.2-2.7C45.7,9,45.8,9,45.9,9
				c0.4,0,0.7,0,1.1,0.1c0.4,0.1,0.8,0,1.2-0.1c0.3,0,0.5-0.1,0.8-0.1c1.7,0,3.4,0.1,5,0.1c1.2,0,2.4,0.1,3.6,0.1
				c0.3,0,0.5-0.1,0.8-0.1c0.3,0.1,0.6,0.1,0.9,0.1c0.2,0,0.3,0.1,0.4,0.3c0.1,0.1,0.2,0.2,0.4,0.2c0.4,0.1,0.8,0.1,1.2,0.1
				c0.7,0,1.4,0,2.1,0.1c0.5,0,1,0.1,1.6,0c0.3-0.1,0.6-0.2,0.9-0.4c0.5-0.2,0.9-0.5,1.4-0.7c0.2-0.1,0.4-0.3,0.6-0.5S68.3,8,68.5,8
				c0.4,0.1,0.8,0,1.2,0c0.3-0.1,0.6,0,0.9,0c0.7,0.1,1.4,0.2,2.2,0.1c0.4-0.4,1-0.5,1.6-0.5c0.7,0,1.4,0,2.1,0.1
				c0.1,0,0.2,0.1,0.1,0.2c-0.1,0.1-0.2,0.3-0.2,0.4c-0.1,0.2-0.1,0.3,0.2,0.4c0.3,0.1,0.6,0.1,0.9,0.1s0.6,0.1,1,0.1
				c0.1,0,0.2,0,0.2,0.2c0.1,0.5,0.3,0.8,0.8,0.9c0.3,0.1,0.5,0,0.8,0c0.5-0.1,0.9-0.1,1.4-0.2c0.1,0,0.2-0.1,0.2-0.2
				c0-0.3,0.1-0.7,0.2-1c0.1-0.4,0.4-0.6,0.8-0.7c0.6-0.1,1.2-0.1,1.8-0.1C86.1,7.9,87.4,8,88.8,8c0.8,0,1.5,0.1,2.3,0.2
				c0.6,0.1,1.1,0.1,1.7,0.2c0.1,0,0.2,0.1,0.2,0.2c0.1,0.3,0.2,0.5,0.2,0.8c0,0.2,0.1,0.2,0.2,0.1c0.4-0.1,0.5-0.4,0.7-0.7
				s0.4-0.4,0.7-0.4c0.1,0,0.1,0,0.1,0c0.2,0.3,0.6,0.3,0.9,0.3c0.6,0,1.3,0,1.9,0c0.5,0,0.9,0,1.4,0.2c0.1,0,0.3,0.1,0.4,0.2
				c0.3,0.4,0.7,0.6,1.2,0.7c0.2,0,0.2,0.1,0.2,0.3s0,0.5,0.1,0.7c0.1,0.6,0,1.1-0.2,1.7c-0.1,0.4-0.1,0.7,0,1
				c0.1,0.5,0.2,0.9,0.2,1.4c0.2,2.5,0.2,4.9,0.2,7.4c0,1.1,0,2.2-0.1,3.3c0,0.5-0.2,0.8-0.7,1c-0.2,0.1-0.4,0.2-0.6,0.3
				c-0.3,0.1-0.3,0.3-0.2,0.6c0.1,0.2,0.1,0.4,0.2,0.6c0,0.1,0,0.2,0,0.2c-0.2,0.3-0.4,0.6-0.7,0.9c-0.3,0.4-0.3,0.5-0.1,0.9
				c0.2,0.4,0.5,0.9,0.8,1.2c0.3,0.4,0.4,0.8,0.5,1.2c0.3,1.1,0.2,2.2,0.2,3.3c-0.1,0.8-0.1,1.7-0.1,2.5c0,0.1,0,0.2-0.2,0.2
				c-0.1,0-0.3,0.1-0.4,0.2c-0.2,0.1-0.3,0.3-0.4,0.5c0,0.2,0.1,0.1,0.2,0.1c0.5,0,0.9,0,1.4,0c0.2,0,0.3,0,0.2,0.2
				C101,40.1,101,40.5,101,40.9z M90.1,53.8c0.1,0,0.1,0,0.2,0c0.6,0,1-0.2,1.3-0.8c0.2-0.4,0.4-0.8,0.6-1.2
				c0.4-0.9,0.8-1.8,1.1-2.7c0.3-1,0.5-2,0.8-3c0.3-0.9,0.5-1.9,0.6-2.8c0-0.2,0-0.3-0.2-0.4c-0.2-0.1-0.4-0.2-0.6-0.4
				c-0.7-0.5-1.4-1-2-1.5c-0.4-0.3-0.8-0.5-1.2-0.8c-0.3-0.3-0.6-0.6-1.1-0.6s-0.9-0.3-1.2-0.7c-0.5-0.4-0.9-0.8-1.4-1.2
				c-0.3-0.2-0.6-0.3-0.9-0.4c-1-0.7-2-1.3-3-2c-0.1-0.1-0.3-0.2-0.4-0.3c-0.3-0.3-0.7-0.6-1.1-0.8c-0.3-0.2-0.5-0.4-0.8-0.5
				c-0.9-0.5-1.6-1.2-2.5-1.7c-0.7-0.4-1.4-0.7-2-1.3c-0.5-0.4-1-0.7-1.5-1.1c-1.4-1-2.8-1.9-4.3-2.9c-0.8-0.6-1.6-1.1-2.4-1.7
				c-0.9-0.6-1.7-1.1-2.6-1.7c-0.1,0-0.1-0.1-0.2-0.1c-0.3-0.1-0.6-0.2-0.9-0.3c-0.3-0.1-0.5-0.2-0.7-0.5c-0.1-0.1-0.2-0.2-0.3-0.3
				c-0.3-0.2-0.7-0.3-1.1-0.5c-0.6-0.3-1-0.6-1.1-1.3c0-0.2-0.1-0.2-0.2-0.3c-0.6-0.3-1.1-0.7-1.7-1c-0.7-0.4-1.3-0.8-1.9-1.2
				c-0.3-0.1-0.5-0.3-0.7-0.5c-0.7-0.7-1.6-0.9-2.5-0.5c-0.4,0.2-0.9,0.4-1.3,0.6c-0.5,0.3-1.1,0.4-1.7,0.5c-0.1,0-0.2,0-0.1,0.1
				c0.1,0.3,0.2,0.7,0.5,0.9c0.4,0.4,0.8,0.8,1.2,1.2c1.5,1.6,3,3.2,4.6,4.7c0.5,0.5,1.1,1,1.5,1.6c0.5,0.7,1,1.2,1.6,1.8
				c1.9,1.9,3.9,3.8,5.7,5.8c0.9,1,1.8,1.9,2.7,2.9c0.4,0.5,0.9,0.9,1.4,1.3c0.2,0.1,0.3,0.3,0.5,0.5c0.9,0.9,1.7,1.9,2.6,2.8
				c0.7,0.8,1.4,1.6,2.3,2.1c0.4,0.2,0.6,0.5,0.8,0.9c0,0.1,0.1,0.2,0.2,0.3c0.4,0.5,0.9,0.9,1.3,1.4c1,1.1,1.9,2.2,3,3.2
				c0.2,0.2,0.3,0.3,0.5,0.5c0.7,0.8,1.3,1.6,2.1,2.3c0.3,0.3,0.6,0.5,1,0.6s0.7,0.1,1.1,0.2c0.6,0.1,1.3,0.1,2,0.2
				C88.5,53.7,89.3,53.7,90.1,53.8z M58,54.2L58,54.2c0.2,0,0.4,0,0.6,0c1,0,2-0.1,2.9-0.6c0.6-0.3,1.2-0.4,1.8-0.5
				c0.4-0.1,0.9-0.1,1.2-0.4c0.4-0.3,0.9-0.4,1.3-0.5c0.3-0.1,0.6-0.2,0.8-0.3c0.1,0,0.2-0.1,0.1-0.2c-0.1-0.2-0.2-0.3-0.4-0.5
				c-0.4-0.4-0.8-0.8-1.2-1.1c-1.2-1.1-2.4-2.2-3.6-3.3c-0.8-0.8-1.6-1.6-2.4-2.4c-0.6-0.7-1.3-1.3-2-1.9c-0.5-0.5-1-1-1.6-1.4
				c-0.1-0.1-0.2-0.1-0.3,0.1c-0.5,1.2-1,2.4-1.5,3.6c-0.5,1.1-0.9,2.3-1.4,3.4c-0.3,0.7-0.5,1.3-0.5,2c0,0.3,0.1,0.6,0.4,0.7
				c0.5,0.2,0.9,0.5,1.3,0.9c0.1,0.2,0.4,0.2,0.6,0.3c0.3,0.2,0.6,0.5,0.9,0.7c0.4,0.4,0.8,0.8,1.3,1.1c0.2,0.1,0.3,0.2,0.5,0.2
				C57.2,54.2,57.6,54.2,58,54.2z M90.6,20.2c0-0.2,0-0.4,0-0.7c0-0.1,0-0.2-0.1-0.2c-0.4-0.1-0.7-0.3-0.9-0.5
				c-0.8-0.6-1.7-1.1-2.6-1.5c-0.1-0.1-0.3-0.1-0.4,0c-0.2,0.1-0.4,0.2-0.6,0.2c-0.4,0.2-0.9,0.2-1.4,0.3c-1,0.3-2,0.5-3.1,0.8
				c-1,0.3-2,0.5-3.1,0.8c-0.1,0-0.2,0.1-0.1,0.2c0.1,0.2,0.2,0.4,0.4,0.5c0.3,0.2,0.5,0.4,0.7,0.6s0.4,0.4,0.6,0.5s0.4,0.2,0.5,0.4
				c0.6,0.5,1.2,1.1,1.8,1.5c0.6,0.5,1.3,0.9,1.9,1.4c0.1,0.1,0.3,0.3,0.5,0.4c0.5,0.3,1,0.7,1.5,1c0.6,0.4,1.2,0.7,1.7,1.3
				c0.2,0.3,0.6,0.3,0.9,0.3s0.5-0.1,0.6-0.5c0.1-0.5,0.1-1,0.1-1.5c0-0.7,0.1-1.3,0.3-1.9C90.4,22.5,90.7,21.4,90.6,20.2z"/>
		</g>
	</g>
</g>
<g id="Layer_1_1_">
	<g id="Page-1">
		<g id="icon-30-book">
			<path id="book" class="st0" d="M203.1,62.9c-3.6,0-6.6-2.9-6.6-6.6V13.5c0-3,2.4-5.5,5.5-5.5h38.5v2.2h-1.1
				c-1.8,0-3.3,1.5-3.3,3.3s1.5,3.3,3.3,3.3h1.1v46.1h-33V16.8H235c0,0-1.1-1.8-1.1-3.3c0-1.7,1.1-3.2,1.1-3.2h-33
				c-1.9,0-3.3,1.5-3.3,3.3s1.5,3.3,3.3,3.3h3.3v46H203.1z"/>
		</g>
	</g>
</g>
<g id="XMLID_10_">
	<g id="XMLID_25_">
		<path id="XMLID_38_" class="st0" d="M364.9,63.9"/>
		<path id="XMLID_26_" class="st0" d="M354.7,11.7c1.4,0.3,1.7-0.4,2-1.1c0.4-0.8,0.7-1.6,1.1-2.4c0.2-0.4,0.3-0.8,0.3-1.2
			c-0.1-0.6,0.2-1.1,0.9-1.5s1.3-0.9,1.9-1.3c0.1-0.2,0.3-0.3,0.5-0.3c0.3,0,0.2,0.3,0.2,0.4c0.2,0.8,0.3,1.6,0.5,2.5
			c0,0.2,0,0.4-0.3,0.6c-1.6,1.3-1.9,3.1-2.8,4.7c-0.3,0.6,0.2,0.9,1,1.2c-0.9,0.1-1.5,0.2-1.6,0.8c0,0.3,0,0.4,0.4,0.3
			c0.4-0.1,0.8-0.1,1.2-0.1c0.2,0,0.5,0,0.6,0.1c1.4,1,3.4,1,5,1.7c0.5,0.2,1.1,0.3,1.2,1c0.1,0.4,0.8,0.9,1.3,1.2
			c1.5,1.1,2.5,2.6,3.9,3.8c0.3,0.2,0.3,0.7,0.4,1c0.2,0.5,0.2,1,0.8,1.3l0.1,0.1c0,1.5,1.7,2.6,1.5,4.1c-0.1,0.3,0.2,0.6,0.5,0.7
			c1.3,0.8,1.8,2,2.2,3.2c0.4,1.3,1.4,2.5,1.2,3.9c0,0.2,0.1,0.3,0.3,0.3c1,0.4,1,1.2,1.6,2c-1-0.3-1-0.1-0.8,0.4
			c0.3,0.6,0.6,1.2,1.4,1.6c0.7,0.3,0.7,1,1.1,1.4c1.6,2.2,3.4,4.4,4.7,6.7c0.1,0.3,0.2,0.4,0.1,0.7c-0.2,0.4-0.5,0.8-0.7,1.2
			c-0.4,0.6-0.8,1.2-0.7,2c0,0.7-0.5,1.3-1.1,1.7c-1.4,1-2.2,2.2-2.5,3.7c-0.2,1.1,0.1,2,0.4,2.9c0,0.1,0.1,0.2,0.1,0.3
			c0.1,0.4,0.1,0.9-0.5,1.1c-0.6,0.2-0.8-0.3-1-0.6c-2.3-2.1-4.1-4.4-6.3-6.5c-0.6-0.6,0-0.9,0.5-0.9c1.1-0.1,1.2-0.7,1.4-1.3
			s0.4-1.1,0.6-1.7c-0.7,0.7-1.7,1.1-2.2,2c-0.3,0.6-0.9,1.2-1.7,1.6c-1.2,0.6-2.1,1.5-3.2,2.2c-0.7,0.5-1,1-1,1.7
			c-0.1,1.2-0.2,2.5-0.5,3.7c-0.4,1.2-1.7,1.4-3,0.7c-1.6-0.9-2.5-2.1-2.8-3.6c-0.2-1-0.5-2.1-0.8-3.1c-0.3-1.1,0.3-1.9,1.7-2.2
			c0.8-0.2,1.1-0.4,1.3-1.1c0.3-1.4,1.4-2.6,2.6-3.7c0.3-0.3,0.8-0.1,1.1-0.4c0.2-0.2,0.4-0.4,0-0.5c-0.4-0.2-0.5-0.4-0.7-0.7
			c-0.3-0.4-0.2-0.7,0.4-1c0.3-0.1,0.4-0.3,0.3-0.5c-0.1-0.5-0.1-1-0.4-1.4c-0.5-0.8-0.6-1.6-0.5-2.4c0.1-0.7-0.2-1.4-0.4-2
			c-0.2-0.6-0.9-0.8-1.6-0.5c-0.2,0.1-0.3,0.3-0.5,0.2c-0.2-0.1-0.3-0.3-0.2-0.5c0.1-0.5,0.3-0.9,0.7-1.2c0.4-0.2,0.4-0.4,0-0.6
			c-1.3-0.8-2.9-0.8-4.4-1.2c-0.1,0-0.3-0.1-0.4,0.1c-0.2,0.4-0.7,0.4-1.1,0.5c-1.2,0.2-2.1,0.7-2.7,1.5c-0.2-0.1-0.5-0.1-0.7,0
			c-1.6,0.4-3,1.1-4.7,1.2c-1.6,0.1-3.4,0.2-4.9-0.6c-0.5-0.3-0.6-0.6-0.9-0.9c-0.6,0.9-1,1.9-1.4,2.8c-0.1,0.1-0.2,0.2-0.1,0.3
			c0.6,1-0.4,1.8-0.8,2.7c-0.2,0.4-0.1,0.6,0.3,0.9c1.5,1,3.1,1.2,4.9,0.5c0.2-0.1,0.3-0.2,0.5-0.1c-1.1,1.9-2.9,3.1-5.7,3.3
			c-0.5,0-1.1-0.1-1.6-0.2c-0.7-0.2-1.2,0.2-1.8,0.1c-0.4,0-0.2,0.2-0.1,0.4c0.6,0.8,0.2,1.4-0.6,2c-0.7,0.6-1.3,1.2-2.1,1.9
			c-0.2-1,0.2-1.8,0.1-2.6c0-0.4,0.1-0.7,0.2-1.1c0-0.3,0.2-0.6,0.7-0.7c0.4-0.1,0.5-0.3,0.3-0.6c-0.7-1-2.1-1.4-3.4-1.8
			c-0.4-0.1-0.9,0.2-1.1,0.6c-1,1.7-1,3.5-0.6,5.3c0,0.1,0.1,0.2,0.1,0.3c0,0.2,0,0.3,0,0.7c-0.9-0.8-1.8-1.4-2.4-2.2
			c-1.3-1.8-2.3-3.7-2.6-5.7c-0.1-0.5,0.1-1,0.1-1.4c0.1-2.1,0.6-4.1,1.8-5.9c0.4-0.6,1-1.1,1.3-1.7c0.1-0.3,0.7-0.5,1-0.8
			c0.3-0.2,0.5-0.2,0.7,0c1.4,0.8,3,1,4.8,0.7c0.8-0.1,1.3-0.6,2-0.8c0.8-0.3,0.8-0.8,0.7-1.4c-0.2-0.7,1.7-3.1,2.5-3.4
			c0.5-0.2,1.5,0.1,1.8,0.6c0.1,0.2,0.4,0.2,0.6,0.3c0.3,0.1,0.3-0.2,0.4-0.3c0.8-1.7,1.7-3.3,2.4-5c0.3-0.6,0.4-1.2-0.6-1.6
			c0.1-0.2,0.4-0.2,0.5-0.1c0.7,0.1,1-0.1,1.2-0.6c0.7-1.4,1.3-2.7,2-4.1c0.2-0.5,0-0.7-0.7-0.6c-0.4,0.1-0.5,0-0.6-0.2
			c-0.9-1.2-0.8-1.2,0.3-2.3c0.6-0.6,0.8-1.3,1.3-2c0.4-0.5,0.8-0.7,1.6-0.7c0.4,0,1,0.1,1.1-0.4C355,13,355.9,12.4,354.7,11.7z
			 M354.1,26.2c-1.8,0.1-1.8,0.1-2.3,1.2c-0.3,0.7-0.7,1.4-1,2.1c-0.6,1.2-1.1,2.3-1.7,3.5c-0.1,0.2-0.3,0.6,0.2,0.5
			c0.9-0.1,1.4,0.3,1.9,0.7c0.3,0.3,0.5,0.2,0.8,0.1c1.9-0.6,3.1-1.7,4.5-2.8c0.4-0.3,0.5-0.5,0.3-0.9c-0.5-1-0.5-2.1-0.8-3.2
			c-0.1-0.6-0.1-1.3,0.6-1.5c1.6-0.5,3.4-0.5,5.1-0.5c1,0,1.3,0.7,2,1.2c0.3-0.2,0.5-0.5,0.7-0.7c0.5-0.3,0.5-0.6,0.2-1
			c-0.6-0.7-1-1.4-1.5-2.2c-0.1-0.2-0.1-0.6-0.3-0.7c-1-0.3-1.2-1.3-2.1-1.7c-0.4-0.2-0.6-0.3-1.1-0.2c-1.4,0.2-2.8,0.4-4.3,0.6
			c-0.4,0-0.4,0.2-0.5,0.4c-0.5,1-1,1.9-1.5,2.9C353,24.8,352.7,25.6,354.1,26.2z M337.9,41c-0.1,1.1,0.7,1.6,1.9,2.1
			c0.3,0.1,0.5,0.1,0.6-0.1c0.3-0.8,1-1.3,1.5-2c0.9-1.1,1.3-2.4,1.8-3.6c0.1-0.3,0-0.7-0.5-0.9c-0.7-0.2-0.5,0.3-0.7,0.6
			c-0.1,0.2-0.2,0.4-0.3,0.6c-0.8,0.8-1.5,1.8-3,2.1C338.3,39.9,337.8,40.4,337.9,41z"/>
	</g>
</g>
<path id="XMLID_11_" class="st0" d="M503.5,12.2c2,1.8,2.5,4.3,3.8,6.5c0.5,0.9,0,1.3-1,1.2c-1-0.1-2-0.4-2.6,0.7
	c-0.5,1.2-0.1,2.3,0.6,3.2c1.1,1.5,2.4,2.8,3.2,4.4c5.3,9.8,14,16.3,22,23.5c2.5,2.2,4.6,4.8,8.1,5.5c1.6,0.3,1.5,2.1,1.5,3.4
	s-0.8,2.1-2.1,2.4c-2.3,0.5-3.4-0.1-4.1-2.3c-0.8-2.3-2.7-3.5-4.3-5.1c-5.8-5.5-11.7-10.8-17.6-16.2c-0.2-0.2-0.4-0.5-0.6-0.5
	c-4-1.1-6.4-4.7-9.8-6.7c-1.6-0.9-3.3-1.1-4.8-2.2c-0.3-0.2-0.7-0.4-0.9,0.1c-0.8,1.8-2.2,0.9-3.1,0.5c-4.2-2-6.7-5.7-8.9-9.5
	c-0.5-0.8-0.1-1.2,0.8-1c0.5,0.1,0.9,0.2,1.4,0.3c1,0.2,1.6,0,0.9-1.2c-0.5-0.8-0.8-1.7-1.2-2.6c-0.2-0.5-0.2-1,0.2-1.3
	c0.4-0.4,0.9-0.4,1.4-0.1c2.1,1.4,4.8,1.7,5.7,4.7c0.6,2,2.5,3.4,4.2,4.5c1.3,0.8,2.3,0.6,2.8-1c0.7-2,0.4-4-1.4-5.4
	c-1.3-1-1.4-1.8-0.4-2.7c1.3-1.3,0.9-2.7,0.6-4.2c0.2-0.7-0.1-1.4,0.4-1.8c0.5-0.4,1.1,0,1.5,0.3C501.1,10.6,502.3,11.4,503.5,12.2z
	"/>
<g id="XMLID_12_">
	<path id="XMLID_18_" class="st0" d="M656.4,13.6c2.7,0,5.1-1.8,6-4.3c-1.7,0.5-3.7,0.7-6,0.7c-2.3,0-4.3-0.3-6-0.7
		C651.3,11.9,653.7,13.6,656.4,13.6z"/>
	<path id="XMLID_13_" class="st0" d="M687.9,16.8c-0.1-0.4-0.4-0.7-0.8-0.8l-12.1-5.6c-2.6-0.9-5.2-1.6-7.8-2.1c-0.1,0-0.2,0-0.3,0
		c-0.7,0-1.3,0.5-1.4,1.1c-1,4.2-4.7,7.4-9.2,7.4s-8.2-3.1-9.2-7.4c-0.1-0.6-0.7-1.1-1.3-1.1c-0.1,0-0.2,0-0.3,0
		c-2.6,0.5-5.2,1.2-7.8,2.1L625.6,16c-0.4,0.2-0.6,0.5-0.8,0.8c-0.1,0.4-0.1,0.8,0.1,1.1l5.2,10.3c0.2,0.5,0.8,0.8,1.3,0.8
		c0.1,0,0.3,0,0.4-0.1l5.8-1.8v34.6c0,0.8,0.7,1.5,1.5,1.5h34.5c0.8,0,1.5-0.7,1.5-1.5V27.3l5.9,1.7c0.1,0,0.3,0.1,0.4,0.1
		c0.5,0,1-0.3,1.3-0.8l5.2-10.3C688,17.6,688,17.2,687.9,16.8z"/>
</g>
<path id="XMLID_22_" class="st0" d="M812.6,50.7h6.8l-7.4,7.8v-7.3C812,51,812.3,50.7,812.6,50.7z M809.4,63.3h-26.2
	c-0.8,0-1.4-0.6-1.4-1.4V9.7c0-0.8,0.6-1.4,1.4-1.4h39c0.8,0,1.4,0.6,1.4,1.4V48h-10.8c-1.8,0-3.2,1.5-3.2,3.2L809.4,63.3
	L809.4,63.3z M788.1,16.2c0,0.8,0.6,1.4,1.4,1.4H813c0.8,0,1.4-0.6,1.4-1.4c0-0.8-0.6-1.4-1.4-1.4h-23.5
	C788.7,14.8,788.1,15.4,788.1,16.2z M788.1,24.4c0,0.8,0.6,1.4,1.4,1.4H813c0.8,0,1.4-0.6,1.4-1.4s-0.6-1.4-1.4-1.4h-23.5
	C788.7,23.1,788.1,23.7,788.1,24.4z M788.1,32.6c0,0.8,0.6,1.4,1.4,1.4h19.4c0.8,0,1.4-0.6,1.4-1.4s-0.6-1.4-1.4-1.4h-19.4
	C788.7,31.2,788.1,31.8,788.1,32.6z M789.5,42.1h26.8c0.8,0,1.4-0.6,1.4-1.4s-0.6-1.4-1.4-1.4h-26.8c-0.8,0-1.4,0.6-1.4,1.4
	S788.7,42.1,789.5,42.1z"/>
</svg>
