<?xml version="1.0" encoding="utf-8"?>
<!-- Generator: Adobe Illustrator 19.0.0, SVG Export Plug-In . SVG Version: 6.00 Build 0)  -->
<svg version="1.1" id="Layer_1" xmlns="http://www.w3.org/2000/svg" xmlns:xlink="http://www.w3.org/1999/xlink" x="0px" y="0px"
	 viewBox="0 0 32 192" style="enable-background:new 0 0 32 192;" xml:space="preserve">
<style type="text/css">
	.st0{fill:#AAAAAA;}
</style>
<g id="Layer_7">
	<g id="XMLID_9_">
		<g id="XMLID_33_">
			<path id="XMLID_34_" class="st0" d="M31.4,18.8c0,0.2,0,0.5,0,0.7c0.1,0.2,0.1,0.4,0.1,0.6c0,0.2-0.1,0.3-0.1,0.4
				c-0.1,0.4,0,0.9,0,1.4c0,1.6-0.1,3.2,0,4.9c0,0.5,0.1,1.2,0.1,1.7s-0.1,1.2-0.1,1.7c0,0.1-0.1,0.1-0.1,0.1
				c-0.1-0.1-0.2-0.1-0.3-0.1C30.7,30,30.4,30,30,29.9c-0.2-0.1-0.3-0.1-0.5-0.1c-0.2-0.1-0.3-0.1-0.5-0.1c-0.3,0-0.5,0.1-0.8,0.1
				c-0.1,0-0.1,0.1-0.1,0.1c0,0.1,0,0.1,0,0.1c0,0.1,0.1,0.2,0.2,0.2c0.2,0,0.2,0,0.2,0.2c0,0.1,0,0.1-0.1,0.1
				c-0.2,0-0.3,0.1-0.5,0.2c-0.1,0.1-0.1,0.1-0.2,0c-0.3,0-0.6,0-0.9-0.1c-0.5-0.1-1.1-0.1-1.6-0.1c-0.1,0-0.2,0-0.3,0
				c-0.3,0-0.7-0.1-1-0.3c-0.1-0.1-0.1-0.1-0.2,0c-0.3,0.2-0.7,0.3-1,0.3c-0.2,0-0.4,0-0.7,0.1c-0.4,0.1-0.8,0.1-1.2,0
				c-0.7-0.1-1.4,0-2,0c-0.3,0-0.5,0-0.8,0.1c-0.3,0.1-0.6,0.3-0.9,0.4c-0.2,0.1-0.3,0.2-0.5,0.1c-0.2-0.1-0.3-0.2-0.3-0.3
				c-0.1-0.1-0.1-0.1-0.2-0.1c-0.3,0.1-0.5,0.1-0.8-0.1c-0.2-0.1-0.3-0.1-0.5-0.2c-0.3-0.1-0.5,0.1-0.7,0.3
				c-0.1,0.1-0.2,0.2-0.3,0.3c0.1,0.1,0.1,0.1-0.1,0.1c-0.2-0.1-0.4-0.3-0.5-0.5c-0.2-0.2-0.3-0.4-0.3-0.6c0-0.1-0.1-0.1-0.1-0.1
				c-0.1,0-0.2,0-0.3,0.1l-0.1,0.1c-0.1,0.1-0.1,0.1-0.2,0.1c-0.2-0.1-0.4-0.1-0.7-0.1c-0.2,0-0.3,0-0.5,0c-0.1,0-0.1,0-0.1-0.1
				C10.8,30,10.6,30,10.5,30c-0.2,0-0.5,0-0.7,0.1c-0.4,0.1-0.8,0.1-1.2,0.1c-0.2,0-0.4,0.1-0.6,0c-0.2-0.1-0.5-0.1-0.7-0.1
				c-0.1,0-0.3,0.1-0.4,0.1c-0.1,0-0.3,0-0.4-0.1C6.4,30,6.2,30,6,30c-0.3,0.1-0.5,0.1-0.8,0.1c-0.7-0.1-1.4,0-2.1,0.1
				c-0.7,0.1-1.4,0-2.1-0.3c-0.1-0.1-0.1-0.1-0.1-0.2c0-0.3,0.1-0.6,0.1-0.9c0.1-0.5,0.1-1,0-1.5c-0.1-0.4-0.1-0.8-0.1-1.2
				c0-0.5,0-1,0-1.5c0-0.3,0.2-0.4,0.3-0.7c0.1-0.1,0.1-0.1,0.1-0.1c0.2-0.2,0.2-0.3,0.3-0.5c0.1-0.4,0.1-0.9,0.2-1.4
				c0.1-0.3,0.1-0.7,0-1c-0.1-0.2-0.1-0.3-0.3-0.4c-0.1-0.1-0.2-0.2-0.3-0.3c-0.1-0.2-0.1-0.4-0.2-0.6c-0.1-0.8-0.1-1.7-0.1-2.5
				c0-0.1,0-0.2-0.1-0.2c0-0.1,0-0.1,0.1-0.1c0.2,0,0.4-0.1,0.5-0.2c0.2-0.1,0.2-0.3,0.3-0.5c0.1-0.3,0-0.5,0.1-0.8
				c0-0.1-0.1-0.2-0.2-0.3c-0.2-0.2-0.3-0.3-0.3-0.5C1,14.1,1,13.9,1,13.6c0-0.2,0.1-0.4,0.1-0.7c0.1-0.3,0-0.7-0.1-1
				C1,11.5,1,11.2,0.9,10.8c-0.1-0.3-0.2-0.5-0.2-0.8C0.6,9.6,0.5,9.3,0.5,8.9c0-0.2-0.1-0.4,0-0.6c0-0.3,0.1-0.5,0.2-0.8
				S0.8,7,0.8,6.8c0-0.2,0.1-0.3,0.1-0.5C1,6,1,5.8,1,5.5C1,5,1,4.5,1,4C1,3.6,1,3.2,0.9,2.8C0.7,2.3,0.7,1.8,1,1.3
				C1,1.3,1,1.3,1.1,1.3c0.2,0,0.4,0,0.6,0.1c0.2,0.1,0.4,0,0.7-0.1c0.2,0,0.3-0.1,0.4-0.1c0.9,0,1.9,0.1,2.7,0.1
				c0.7,0,1.3,0.1,2,0.1c0.2,0,0.3-0.1,0.4-0.1c0.2,0.1,0.3,0.1,0.5,0.1c0.1,0,0.2,0.1,0.2,0.2c0.1,0.1,0.1,0.1,0.2,0.1
				c0.2,0.1,0.4,0.1,0.7,0.1c0.4,0,0.8,0,1.2,0.1c0.3,0,0.5,0.1,0.9,0c0.2-0.1,0.3-0.1,0.5-0.2c0.3-0.1,0.5-0.3,0.8-0.4
				C13,1,13.1,0.9,13.2,0.8s0.2-0.1,0.3-0.1c0.2,0.1,0.4,0,0.7,0c0.2-0.1,0.3,0,0.5,0c0.4,0.1,0.8,0.1,1.2,0.1
				c0.2-0.2,0.5-0.3,0.9-0.3c0.4,0,0.8,0,1.2,0.1C18,0.6,18,0.6,18,0.7c-0.1,0.1-0.1,0.2-0.1,0.2C17.8,1,17.8,1,18,1.1
				c0.2,0.1,0.3,0.1,0.5,0.1c0.2,0,0.3,0.1,0.5,0.1c0.1,0,0.1,0,0.1,0.1c0.1,0.3,0.2,0.4,0.4,0.5c0.2,0.1,0.3,0,0.4,0
				c0.3-0.1,0.5-0.1,0.8-0.1c0.1,0,0.1-0.1,0.1-0.1c0-0.2,0.1-0.4,0.1-0.5c0.1-0.2,0.2-0.3,0.4-0.4c0.3-0.1,0.7-0.1,1-0.1
				c0.8,0.1,1.5,0.1,2.3,0.1c0.4,0,0.8,0.1,1.3,0.1c0.3,0.1,0.6,0.1,0.9,0.1C26.9,0.9,27,1,27,1c0.1,0.2,0.1,0.3,0.1,0.4
				c0,0.1,0.1,0.1,0.1,0.1c0.2-0.1,0.3-0.2,0.4-0.4s0.2-0.2,0.4-0.2c0.1,0,0.1,0,0.1,0c0.1,0.2,0.3,0.2,0.5,0.2c0.3,0,0.7,0,1,0
				c0.3,0,0.5,0,0.8,0.1c0.1,0,0.2,0.1,0.2,0.1c0.2,0.2,0.4,0.3,0.7,0.4c0.1,0,0.1,0.1,0.1,0.2s0,0.3,0.1,0.4c0.1,0.3,0,0.6-0.1,0.9
				c-0.1,0.2-0.1,0.4,0,0.5c0.1,0.3,0.1,0.5,0.1,0.8c0.1,1.4,0.1,2.7,0.1,4.1c0,0.6,0,1.2-0.1,1.8c0,0.3-0.1,0.4-0.4,0.5
				c-0.1,0.1-0.2,0.1-0.3,0.2c-0.2,0.1-0.2,0.2-0.1,0.3c0.1,0.1,0.1,0.2,0.1,0.3c0,0.1,0,0.1,0,0.1c-0.1,0.2-0.2,0.3-0.4,0.5
				c-0.2,0.2-0.2,0.3-0.1,0.5c0.1,0.2,0.3,0.5,0.4,0.7c0.2,0.2,0.2,0.4,0.3,0.7c0.2,0.6,0.1,1.2,0.1,1.8C31,16.4,31,16.9,31,17.4
				c0,0.1,0,0.1-0.1,0.1c-0.1,0-0.2,0.1-0.2,0.1c-0.1,0.1-0.2,0.2-0.2,0.3c0,0.1,0.1,0.1,0.1,0.1c0.3,0,0.5,0,0.8,0
				c0.1,0,0.2,0,0.1,0.1C31.4,18.4,31.4,18.6,31.4,18.8z M25.4,25.9c0.1,0,0.1,0,0.1,0c0.3,0,0.5-0.1,0.7-0.4
				c0.1-0.2,0.2-0.4,0.3-0.7c0.2-0.5,0.4-1,0.6-1.5c0.2-0.5,0.3-1.1,0.4-1.6c0.2-0.5,0.3-1,0.3-1.5c0-0.1,0-0.2-0.1-0.2
				c-0.1-0.1-0.2-0.1-0.3-0.2c-0.4-0.3-0.8-0.5-1.1-0.8c-0.2-0.2-0.4-0.3-0.7-0.4c-0.2-0.2-0.3-0.3-0.6-0.3s-0.5-0.2-0.7-0.4
				c-0.3-0.2-0.5-0.4-0.8-0.7c-0.2-0.1-0.3-0.2-0.5-0.2c-0.5-0.4-1.1-0.7-1.6-1.1c-0.1-0.1-0.2-0.1-0.2-0.2
				c-0.2-0.2-0.4-0.3-0.6-0.4c-0.2-0.1-0.3-0.2-0.4-0.3c-0.5-0.3-0.9-0.7-1.4-0.9c-0.4-0.2-0.8-0.4-1.1-0.7
				c-0.3-0.2-0.5-0.4-0.8-0.6c-0.8-0.5-1.5-1-2.4-1.6c-0.4-0.3-0.9-0.6-1.3-0.9c-0.5-0.3-0.9-0.6-1.4-0.9c-0.1,0-0.1-0.1-0.1-0.1
				C11.6,9,11.4,9,11.2,8.9c-0.2-0.1-0.3-0.1-0.4-0.3c-0.1-0.1-0.1-0.1-0.2-0.2c-0.2-0.1-0.4-0.2-0.6-0.3C9.8,8,9.5,7.9,9.5,7.5
				c0-0.1-0.1-0.1-0.1-0.2C9,7.1,8.8,6.9,8.4,6.8c-0.4-0.2-0.7-0.4-1-0.7C7.2,6,7.1,5.9,7,5.8C6.6,5.4,6.1,5.3,5.6,5.6
				C5.4,5.7,5.1,5.8,4.9,5.9C4.6,6,4.3,6.1,4,6.2c-0.1,0-0.1,0-0.1,0.1C4,6.4,4,6.6,4.2,6.7c0.2,0.2,0.4,0.4,0.7,0.7
				C5.7,8.2,6.5,9.1,7.4,10c0.3,0.3,0.6,0.5,0.8,0.9c0.3,0.4,0.5,0.7,0.9,1c1,1,2.1,2.1,3.1,3.2c0.5,0.5,1,1,1.5,1.6
				c0.2,0.3,0.5,0.5,0.8,0.7c0.1,0.1,0.2,0.2,0.3,0.3c0.5,0.5,0.9,1,1.4,1.5c0.4,0.4,0.8,0.9,1.3,1.2c0.2,0.1,0.3,0.3,0.4,0.5
				c0,0.1,0.1,0.1,0.1,0.2c0.2,0.3,0.5,0.5,0.7,0.8c0.5,0.6,1,1.2,1.6,1.8c0.1,0.1,0.2,0.2,0.3,0.3c0.4,0.4,0.7,0.9,1.2,1.3
				c0.2,0.2,0.3,0.3,0.5,0.3c0.2,0.1,0.4,0.1,0.6,0.1c0.3,0.1,0.7,0.1,1.1,0.1C24.5,25.8,24.9,25.8,25.4,25.9z M7.7,26.1L7.7,26.1
				c0.1,0,0.2,0,0.3,0c0.5,0,1.1-0.1,1.6-0.3c0.3-0.2,0.7-0.2,1-0.3c0.2-0.1,0.5-0.1,0.7-0.2c0.2-0.2,0.5-0.2,0.7-0.3
				c0.2-0.1,0.3-0.1,0.4-0.2c0.1,0,0.1-0.1,0.1-0.1c-0.1-0.1-0.1-0.2-0.2-0.3c-0.2-0.2-0.4-0.4-0.7-0.6c-0.7-0.6-1.3-1.2-2-1.8
				c-0.4-0.4-0.9-0.9-1.3-1.3c-0.3-0.4-0.7-0.7-1.1-1c-0.3-0.3-0.5-0.5-0.9-0.8c-0.1-0.1-0.1-0.1-0.2,0.1c-0.3,0.7-0.5,1.3-0.8,2
				c-0.3,0.6-0.5,1.3-0.8,1.9c-0.2,0.4-0.3,0.7-0.3,1.1c0,0.2,0.1,0.3,0.2,0.4c0.3,0.1,0.5,0.3,0.7,0.5c0.1,0.1,0.2,0.1,0.3,0.2
				c0.2,0.1,0.3,0.3,0.5,0.4c0.2,0.2,0.4,0.4,0.7,0.6C6.9,26,7,26.1,7.1,26.1C7.3,26.1,7.5,26.1,7.7,26.1z M25.7,7.4
				c0-0.1,0-0.2,0-0.4c0-0.1,0-0.1-0.1-0.1c-0.2-0.1-0.4-0.2-0.5-0.3c-0.4-0.3-0.9-0.6-1.4-0.8c-0.1-0.1-0.2-0.1-0.2,0
				c-0.1,0.1-0.2,0.1-0.3,0.1C22.9,6,22.6,6,22.4,6.1c-0.5,0.2-1.1,0.3-1.7,0.4c-0.5,0.2-1.1,0.3-1.7,0.4c-0.1,0-0.1,0.1-0.1,0.1
				c0.1,0.1,0.1,0.2,0.2,0.3c0.2,0.1,0.3,0.2,0.4,0.3c0.1,0.1,0.2,0.2,0.3,0.3C19.9,8,20,8.1,20.1,8.2c0.3,0.3,0.7,0.6,1,0.8
				c0.3,0.3,0.7,0.5,1,0.8c0.1,0.1,0.2,0.2,0.3,0.2c0.3,0.2,0.5,0.4,0.8,0.5c0.3,0.2,0.7,0.4,0.9,0.7c0.1,0.2,0.3,0.2,0.5,0.2
				c0.2,0,0.3-0.1,0.3-0.3c0.1-0.3,0.1-0.5,0.1-0.8c0-0.4,0.1-0.7,0.2-1C25.5,8.7,25.7,8.1,25.7,7.4z"/>
		</g>
	</g>
</g>
<g id="Layer_1_1_">
	<g id="Page-1">
		<g id="icon-30-book">
			<path id="book" class="st0" d="M7.6,63c-2,0-3.6-1.6-3.6-3.6V36c0-1.6,1.3-3,3-3h21v1.2h-0.6c-1,0-1.8,0.8-1.8,1.8
				c0,1,0.8,1.8,1.8,1.8H28V63H10V37.8h15c0,0-0.6-1-0.6-1.8c0-0.9,0.6-1.7,0.6-1.7H7c-1,0-1.8,0.8-1.8,1.8c0,1,0.8,1.8,1.8,1.8h1.8
				V63H7.6z"/>
		</g>
	</g>
</g>
<g id="XMLID_11_">
	<g id="XMLID_25_">
		<path id="XMLID_38_" class="st0" d="M19.8,95.1"/>
		<path id="XMLID_26_" class="st0" d="M14.2,68.6c0.8,0.2,0.9-0.2,1.1-0.6c0.2-0.4,0.4-0.8,0.6-1.2c0.1-0.2,0.2-0.4,0.2-0.6
			c-0.1-0.3,0.1-0.6,0.5-0.8c0.4-0.2,0.7-0.5,1-0.7c0.1-0.1,0.2-0.2,0.3-0.2c0.2,0,0.1,0.2,0.1,0.2c0.1,0.4,0.2,0.8,0.3,1.3
			c0,0.1,0,0.2-0.2,0.3c-0.9,0.7-1,1.6-1.5,2.4c-0.2,0.3,0.1,0.5,0.5,0.6c-0.5,0.1-0.8,0.1-0.9,0.4c0,0.2,0,0.2,0.2,0.2
			s0.4-0.1,0.7-0.1c0.1,0,0.3,0,0.3,0.1c0.8,0.5,1.9,0.5,2.7,0.9c0.3,0.1,0.6,0.2,0.7,0.5c0.1,0.2,0.4,0.5,0.7,0.6
			c0.8,0.6,1.4,1.3,2.1,1.9c0.2,0.1,0.2,0.4,0.2,0.5c0.1,0.3,0.1,0.5,0.4,0.7l0.1,0.1c0,0.8,0.9,1.3,0.8,2.1
			c-0.1,0.2,0.1,0.3,0.3,0.4c0.7,0.4,1,1,1.2,1.6c0.2,0.7,0.8,1.3,0.7,2c0,0.1,0.1,0.2,0.2,0.2c0.5,0.2,0.5,0.6,0.9,1
			c-0.5-0.2-0.5-0.1-0.4,0.2c0.2,0.3,0.3,0.6,0.8,0.8c0.4,0.2,0.4,0.5,0.6,0.7c0.9,1.1,1.9,2.2,2.6,3.4c0.1,0.2,0.1,0.2,0.1,0.4
			c-0.1,0.2-0.3,0.4-0.4,0.6c-0.2,0.3-0.4,0.6-0.4,1c0,0.4-0.3,0.7-0.6,0.9c-0.8,0.5-1.2,1.1-1.4,1.9c-0.1,0.6,0.1,1,0.2,1.5
			c0,0.1,0.1,0.1,0.1,0.2c0.1,0.2,0.1,0.5-0.3,0.6c-0.3,0.1-0.4-0.2-0.5-0.3c-1.3-1.1-2.3-2.2-3.5-3.3c-0.3-0.3,0-0.5,0.3-0.5
			c0.6-0.1,0.7-0.4,0.8-0.7c0.1-0.3,0.2-0.6,0.3-0.9c-0.4,0.4-0.9,0.6-1.2,1c-0.2,0.3-0.5,0.6-0.9,0.8c-0.7,0.3-1.2,0.8-1.8,1.1
			c-0.4,0.3-0.5,0.5-0.5,0.9c-0.1,0.6-0.1,1.3-0.3,1.9c-0.2,0.6-0.9,0.7-1.6,0.4c-0.9-0.5-1.4-1.1-1.5-1.8c-0.1-0.5-0.3-1.1-0.4-1.6
			c-0.2-0.6,0.2-1,0.9-1.1c0.4-0.1,0.6-0.2,0.7-0.6c0.2-0.7,0.8-1.3,1.4-1.9c0.2-0.2,0.4-0.1,0.6-0.2c0.1-0.1,0.2-0.2,0-0.3
			c-0.2-0.1-0.3-0.2-0.4-0.4c-0.2-0.2-0.1-0.4,0.2-0.5c0.2-0.1,0.2-0.2,0.2-0.3c-0.1-0.3-0.1-0.5-0.2-0.7c-0.3-0.4-0.3-0.8-0.3-1.2
			c0.1-0.4-0.1-0.7-0.2-1c-0.1-0.3-0.5-0.4-0.9-0.3c-0.1,0.1-0.2,0.2-0.3,0.1C20,83.1,19.9,83,20,82.9c0.1-0.3,0.2-0.5,0.4-0.6
			c0.2-0.1,0.2-0.2,0-0.3c-0.7-0.4-1.6-0.4-2.4-0.6c-0.1,0-0.2-0.1-0.2,0.1c-0.1,0.2-0.4,0.2-0.6,0.3c-0.7,0.1-1.2,0.4-1.5,0.8
			c-0.1-0.1-0.3-0.1-0.4,0c-0.9,0.2-1.6,0.6-2.6,0.6c-0.9,0.1-1.9,0.1-2.7-0.3c-0.3-0.2-0.3-0.3-0.5-0.5c-0.3,0.5-0.5,1-0.8,1.4
			c-0.1,0.1-0.1,0.1-0.1,0.2c0.3,0.5-0.2,0.9-0.4,1.4c-0.1,0.2-0.1,0.3,0.2,0.5c0.8,0.5,1.7,0.6,2.7,0.3c0.1-0.1,0.2-0.1,0.3-0.1
			c-0.6,1-1.6,1.6-3.1,1.7c-0.3,0-0.6-0.1-0.9-0.1c-0.4-0.1-0.7,0.1-1,0.1c-0.2,0-0.1,0.1-0.1,0.2c0.3,0.4,0.1,0.7-0.3,1
			c-0.4,0.3-0.7,0.6-1.2,1c-0.1-0.5,0.1-0.9,0.1-1.3c0-0.2,0.1-0.4,0.1-0.6c0-0.2,0.1-0.3,0.4-0.4c0.2-0.1,0.3-0.2,0.2-0.3
			c-0.4-0.5-1.2-0.7-1.9-0.9c-0.2-0.1-0.5,0.1-0.6,0.3c-0.5,0.9-0.5,1.8-0.3,2.7c0,0.1,0.1,0.1,0.1,0.2c0,0.1,0,0.2,0,0.4
			c-0.5-0.4-1-0.7-1.3-1.1c-0.7-0.9-1.3-1.9-1.4-2.9C0,85.5,0.1,85.3,0.1,85c0.1-1.1,0.3-2.1,1-3c0.2-0.3,0.5-0.6,0.7-0.9
			c0.1-0.2,0.4-0.3,0.5-0.4c0.2-0.1,0.3-0.1,0.4,0c0.8,0.4,1.6,0.5,2.6,0.4c0.4-0.1,0.7-0.3,1.1-0.4c0.4-0.2,0.4-0.4,0.4-0.7
			c-0.1-0.4,0.9-1.6,1.4-1.7c0.3-0.1,0.8,0.1,1,0.3c0.1,0.1,0.2,0.1,0.3,0.2c0.2,0.1,0.2-0.1,0.2-0.2c0.4-0.9,0.9-1.7,1.3-2.5
			c0.2-0.3,0.2-0.6-0.3-0.8c0.1-0.1,0.2-0.1,0.3-0.1c0.4,0.1,0.5-0.1,0.7-0.3c0.4-0.7,0.7-1.4,1.1-2.1c0.1-0.3,0-0.4-0.4-0.3
			c-0.2,0.1-0.3,0-0.3-0.1c-0.5-0.6-0.4-0.6,0.2-1.2c0.3-0.3,0.4-0.7,0.7-1c0.2-0.3,0.4-0.4,0.9-0.4c0.2,0,0.5,0.1,0.6-0.2
			C14.3,69.3,14.8,68.9,14.2,68.6z M13.9,76c-1,0.1-1,0.1-1.3,0.6c-0.2,0.4-0.4,0.7-0.5,1.1c-0.3,0.6-0.6,1.2-0.9,1.8
			c-0.1,0.1-0.2,0.3,0.1,0.3c0.5-0.1,0.8,0.2,1,0.4c0.2,0.2,0.3,0.1,0.4,0.1c1-0.3,1.7-0.9,2.5-1.4c0.2-0.2,0.3-0.3,0.2-0.5
			c-0.3-0.5-0.3-1.1-0.4-1.6c-0.1-0.3-0.1-0.7,0.3-0.8c0.9-0.3,1.9-0.3,2.8-0.3c0.5,0,0.7,0.4,1.1,0.6c0.2-0.1,0.3-0.3,0.4-0.4
			c0.3-0.2,0.3-0.3,0.1-0.5c-0.3-0.4-0.5-0.7-0.8-1.1c-0.1-0.1-0.1-0.3-0.2-0.4c-0.5-0.2-0.7-0.7-1.2-0.9c-0.2-0.1-0.3-0.2-0.6-0.1
			c-0.8,0.1-1.5,0.2-2.4,0.3c-0.2,0-0.2,0.1-0.3,0.2c-0.3,0.5-0.5,1-0.8,1.5C13.3,75.2,13.1,75.7,13.9,76z M5,83.5
			c-0.1,0.6,0.4,0.8,1,1.1c0.2,0.1,0.3,0.1,0.3-0.1c0.2-0.4,0.5-0.7,0.8-1c0.5-0.6,0.7-1.2,1-1.8c0.1-0.2,0-0.4-0.3-0.5
			c-0.4-0.1-0.3,0.2-0.4,0.3c-0.1,0.1-0.1,0.2-0.2,0.3c-0.4,0.4-0.8,0.9-1.6,1.1C5.2,82.9,4.9,83.2,5,83.5z"/>
	</g>
</g>
<path id="XMLID_15_" class="st0" d="M11.9,99c1.1,1,1.4,2.3,2.1,3.5c0.3,0.5,0,0.7-0.6,0.6c-0.6-0.1-1.1-0.2-1.5,0.4
	c-0.3,0.6-0.1,1.2,0.3,1.7c0.6,0.8,1.3,1.5,1.8,2.4c3,5.3,7.9,8.8,12.3,12.7c1.4,1.2,2.6,2.6,4.5,3c0.9,0.2,0.8,1.1,0.8,1.8
	c0,0.7-0.4,1.1-1.2,1.3c-1.3,0.3-1.9-0.1-2.3-1.2c-0.4-1.2-1.5-1.9-2.4-2.8c-3.3-3-6.6-5.8-9.9-8.8c-0.1-0.1-0.2-0.3-0.3-0.3
	c-2.2-0.6-3.6-2.5-5.5-3.6c-0.9-0.5-1.9-0.6-2.7-1.2c-0.2-0.1-0.4-0.2-0.5,0.1c-0.4,1-1.2,0.5-1.7,0.3c-2.4-1.1-3.8-3.1-5-5.1
	c-0.3-0.4-0.1-0.6,0.4-0.5c0.3,0.1,0.5,0.1,0.8,0.2c0.6,0.1,0.9,0,0.5-0.6c-0.3-0.4-0.4-0.9-0.7-1.4c-0.1-0.3-0.1-0.5,0.1-0.7
	c0.2-0.2,0.5-0.2,0.8-0.1c1.2,0.8,2.7,0.9,3.2,2.5c0.3,1.1,1.4,1.8,2.4,2.4c0.7,0.4,1.3,0.3,1.6-0.5c0.4-1.1,0.2-2.2-0.8-2.9
	c-0.7-0.5-0.8-1-0.2-1.5c0.7-0.7,0.5-1.5,0.3-2.3c0.1-0.4-0.1-0.8,0.2-1c0.3-0.2,0.6,0,0.8,0.2C10.5,98.1,11.2,98.5,11.9,99z"/>
<g id="XMLID_16_">
	<path id="XMLID_18_" class="st0" d="M16,132.8c1.4,0,2.6-0.9,3-2.2c-0.9,0.3-1.9,0.4-3,0.4c-1.2,0-2.2-0.2-3-0.4
		C13.5,132,14.7,132.8,16,132.8z"/>
	<path id="XMLID_17_" class="st0" d="M32,134.4c-0.1-0.2-0.2-0.4-0.4-0.4l-6.1-2.8c-1.3-0.5-2.6-0.8-3.9-1.1c-0.1,0-0.1,0-0.2,0
		c-0.4,0-0.7,0.3-0.7,0.6c-0.5,2.1-2.4,3.7-4.7,3.7s-4.1-1.6-4.7-3.7c-0.1-0.3-0.4-0.6-0.7-0.6c-0.1,0-0.1,0-0.2,0
		c-1.3,0.3-2.6,0.6-3.9,1.1L0.5,134c-0.2,0.1-0.3,0.3-0.4,0.4C0,134.6,0,134.8,0.1,135l2.6,5.2c0.1,0.3,0.4,0.4,0.7,0.4
		c0.1,0,0.2,0,0.2-0.1l2.9-0.9v17.5c0,0.4,0.4,0.8,0.8,0.8h17.5c0.4,0,0.8-0.4,0.8-0.8v-17.4l3,0.9c0.1,0,0.2,0.1,0.2,0.1
		c0.3,0,0.5-0.2,0.7-0.4L32,135C32,134.8,32,134.6,32,134.4z"/>
</g>
<path id="XMLID_22_" class="st0" d="M21.4,183.9h3.7l-4,4.2v-4C21,184.1,21.2,183.9,21.4,183.9z M19.6,190.8H5.4
	c-0.4,0-0.8-0.3-0.8-0.8v-28.3c0-0.4,0.3-0.8,0.8-0.8h21.1c0.4,0,0.8,0.3,0.8,0.8v20.8h-5.9c-1,0-1.7,0.8-1.7,1.7L19.6,190.8
	L19.6,190.8z M8.1,165.2c0,0.4,0.3,0.8,0.8,0.8h12.7c0.4,0,0.8-0.3,0.8-0.8c0-0.4-0.3-0.8-0.8-0.8H8.8
	C8.4,164.5,8.1,164.8,8.1,165.2z M8.1,169.7c0,0.4,0.3,0.8,0.8,0.8h12.7c0.4,0,0.8-0.3,0.8-0.8c0-0.4-0.3-0.8-0.8-0.8H8.8
	C8.4,169,8.1,169.3,8.1,169.7z M8.1,174.1c0,0.4,0.3,0.8,0.8,0.8h10.5c0.4,0,0.8-0.3,0.8-0.8c0-0.4-0.3-0.8-0.8-0.8H8.8
	C8.4,173.4,8.1,173.7,8.1,174.1z M8.8,179.3h14.5c0.4,0,0.8-0.3,0.8-0.8s-0.3-0.8-0.8-0.8H8.8c-0.4,0-0.8,0.3-0.8,0.8
	S8.4,179.3,8.8,179.3z"/>
</svg>
