<?xml version="1.0" encoding="utf-8"?>
<!-- Generator: Adobe Illustrator 19.0.0, SVG Export Plug-In . SVG Version: 6.00 Build 0)  -->
<svg version="1.1" xmlns="http://www.w3.org/2000/svg" xmlns:xlink="http://www.w3.org/1999/xlink" x="0px" y="0px"
	 viewBox="0 0 320 256" style="enable-background:new 0 0 320 256;" xml:space="preserve">
<style type="text/css">
	.st0{fill:#375888;}
	.st1{fill:#FFFFFF;}
</style>
<g id="Guides">
</g>
<g id="Layer_2">
	<rect id="XMLID_1_" class="st0" width="320" height="256"/>
	<g id="XMLID_25_">
		<path id="XMLID_30_" class="st1" d="M160.2,79.2c-27.1,0-49.5,22.1-49.5,49.5s22.1,49.5,49.5,49.5s49.5-22.5,49.5-49.5
			S187.2,79.2,160.2,79.2z M160.2,160.5c-17.4,0-31.7-14.3-31.7-31.7S142.7,97,160.2,97s31.7,14.3,31.7,31.7
			S177.6,160.5,160.2,160.5z"/>
		<circle id="XMLID_21_" class="st1" cx="211.6" cy="78.1" r="11.2"/>
		<path id="XMLID_26_" class="st1" d="M240.7,49c-10.1-10.5-24.4-15.9-40.6-15.9h-79.7c-33.7,0-56.1,22.5-56.1,56.1v79.4
			c0,16.6,5.4,31,16.3,41.4c10.5,10.1,24.4,15.1,40.3,15.1h79c16.6,0,30.6-5.4,40.6-15.1c10.5-10.1,15.9-24.4,15.9-41V89.3
			C256.2,73,250.7,59.1,240.7,49z M238.3,169c0,12-3.5,21.7-10.5,28.3s-16.6,10.1-28.3,10.1h-79c-11.6,0-21.3-3.5-28.3-10.1
			c-7-7-10.5-16.6-10.5-28.6V89.3C82,77.7,85.4,68,92.4,61C99,54.4,109.1,51,120.7,51h79.7c11.6,0,21.3,3.5,28.3,10.5
			c6.6,7,10.5,16.6,10.5,27.9V169H238.3z"/>
	</g>
</g>
</svg>
