<?xml version="1.0" encoding="utf-8"?>
<!-- Generator: Adobe Illustrator 19.0.0, SVG Export Plug-In . SVG Version: 6.00 Build 0)  -->
<svg version="1.1" xmlns="http://www.w3.org/2000/svg" xmlns:xlink="http://www.w3.org/1999/xlink" x="0px" y="0px"
	 viewBox="0 0 320 256" style="enable-background:new 0 0 320 256;" xml:space="preserve">
<style type="text/css">
	.st0{fill:#007BB6;}
	.st1{fill:#FFFFFF;}
</style>
<g id="Guides">
</g>
<g id="Layer_2">
	<rect id="XMLID_1_" class="st0" width="320" height="256"/>
	<g id="XMLID_184_">
		<path id="XMLID_195_" class="st1" d="M67.1,95.8h39.8v128H67.1V95.8z M87.1,32.1c12.7,0,23.1,10.4,23.1,23.1S99.8,78.3,87.1,78.3
			C74.3,78.3,64,68,64,55.2S74.3,32.1,87.1,32.1"/>
		<path id="XMLID_192_" class="st1" d="M131.9,95.8h38.1v17.5h0.5c5.3-10.1,18.3-20.7,37.7-20.7c40.3,0,47.7,26.5,47.7,61v70.2
			h-39.7v-62.2c0-14.9-0.2-34-20.7-34c-20.7,0-23.8,16.2-23.8,32.9v63.4H132L131.9,95.8L131.9,95.8z"/>
	</g>
</g>
</svg>
