<?xml version="1.0" encoding="utf-8"?>
<!-- Generator: Adobe Illustrator 22.0.0, SVG Export Plug-In . SVG Version: 6.00 Build 0)  -->
<svg version="1.2" baseProfile="tiny" xmlns="http://www.w3.org/2000/svg" xmlns:xlink="http://www.w3.org/1999/xlink" x="0px"
	 y="0px" viewBox="0 0 320 256" xml:space="preserve">
<g id="Guides">
</g>
<g id="Layer_2">
	<rect id="XMLID_1_" fill="#FF6648" width="320" height="256"/>
	<circle display="none" fill="#FF00E1" cx="160.5" cy="128.5" r="95.5"/>
	<g>
		<g>
			<path fill="#FFFFFF" d="M100.1,107.4c0.3-0.8,0.4-1,0.4-1.2c0.5-4.6,2-6.1,6-6.3c4.7-0.2,6.6,1.2,7.5,5.7
				c0.2,0.8,0.2,1.7,0.2,2.5c0,10.9,0,21.8,0,32.8c0,5.9-3.9,8.7-9.6,7.2c-2.5-0.7-3.6-2.4-4-4.8c-0.1-0.6,0.2-1.3-0.4-1.9
				c-0.5-0.1-0.8,0.3-1,0.6c-7.3,7.8-19,8-26.4,0.5c-9.4-9.3-9.2-27,0.4-36.2c5.9-5.6,13-6.6,20.5-4.2
				C96.3,102.8,98.3,104.7,100.1,107.4z M97,124.7c0-0.9,0.1-1.9,0-2.8c-0.4-4.5-3-7.3-7.3-7.7c-4.2-0.5-7.8,1.7-9,5.7
				c-1.1,3.5-1.1,7.2,0.5,10.6c1.6,3.3,4.3,4.9,8,4.8c3.5-0.1,5.8-2.1,7.2-5.2C96.9,128.4,97.1,126.5,97,124.7z"/>
			<path fill="#FFFFFF" d="M139.1,99.4c4-0.1,8.6,0.9,12.8,3.7c1.8,1.3,3.2,2.9,4.2,4.8c1.3,2.6,0.7,4.4-1.9,5.8
				c-2.9,1.6-5.5,1.5-8.1-0.6c-2.9-2.3-6.1-3.6-9.9-2.6c-1.5,0.4-2.9,1-3.1,2.8c-0.2,2,1.2,2.9,2.8,3.3c3.1,1.2,6.4,2.2,9.6,3.2
				c3.3,1.1,6.5,2.6,9,4.9c6,5.6,5.6,14-1,18.9c-8.1,6-23.2,6.2-31.4,0.4c-1.8-1.3-3.2-2.9-4.2-4.8c-1.3-2.7-0.7-5.5,1.3-7
				c2.4-1.7,5.7-1.6,7.8,0.5c2.3,2.3,4.7,4.1,8,4.7c2.3,0.4,4.4,0.5,6.6-0.2c1.5-0.4,2.6-1.1,2.8-2.8c0.2-1.8-0.8-2.9-2.3-3.4
				c-2.9-1.1-5.9-2.1-8.8-3.1c-3.3-1.2-6.6-2.6-9.5-4.6c-6.1-4.1-6.8-14.4-0.4-19.3C127.2,101.1,132.5,99.2,139.1,99.4z"/>
			<path fill="#FFFFFF" d="M175.8,128.9c0,3.4,0,6.6,0,9.7c0,1.3-0.1,2.7-0.3,3.9c-0.7,4.3-2.9,6.1-7.1,5.9
				c-3.8-0.2-6.1-2.6-6.2-6.7c-0.1-11.9-0.1-23.9,0-35.8c0.1-5.9,5.9-8.8,10.9-5.7c2.2,1.4,2.6,3.5,2.6,5.8c0.1,2.5,0,4.9,0,7.3
				c0.2,0.1,0.4,0.1,0.6,0.2c2.7-2.9,5.2-5.9,7.9-8.7c1-1.1,2.1-2.2,3.1-3.1c2.9-2.3,6.1-1.9,8.6,0.9c2.3,2.5,2.3,5.2-0.2,8
				c-2.6,2.9-5.2,5.8-8,8.6c-1.6,1.6-1.8,2.8-0.4,4.6c3.5,4.7,6.8,9.5,10.1,14.4c2.5,3.5,2.1,7.1-0.9,9.2c-2.9,2.2-6.8,1.4-9.2-2.2
				c-3.2-4.6-6.3-9.3-9.5-14C177.4,130.4,177.1,129.5,175.8,128.9z"/>
			<path fill="#FFFFFF" d="M254.3,126.7c-0.8,5.7-1.7,12.6-2.8,19.4c-0.3,2.2-4.6,3.3-6.3,1.9c-0.7-0.6-0.5-1.3-0.4-2.1
				c0.9-6.1,1.7-12.3,2.5-18.4c0.4-2.9-1.5-4.4-4.2-3.3c-2.1,0.8-3.4,2.2-3.7,4.5c-0.6,5.4-1.4,10.8-2.1,16.2
				c-0.4,3.2-3.2,4.7-6.1,3.3c-1.3-0.6-0.9-1.8-0.8-2.9c0.8-5.6,1.6-11.3,2.3-16.9c0.2-1.9,0.8-4.2-2.3-4.6
				c-2.5-0.3-5.2,1.8-5.6,4.2c-0.9,5.7-1.7,11.4-2.5,17.2c-0.4,2.7-3.9,4.3-6.2,2.9c-0.9-0.6-0.7-1.6-0.6-2.6
				c0.8-5.6,1.5-11.3,2.3-16.9c0.1-0.6,0.2-1.2,0.3-1.7c0.5-3.9,0.2-3.1-3.1-3.3c-2-0.1-2.4,1.1-2.6,2.6c-0.9,6.1-1.7,12.3-2.6,18.4
				c-0.4,2.8-1.1,5.3-2.6,7.8c-2,3.2-4.9,4.8-8.7,4.6c-1.4-0.1-2.4-0.7-2.8-2.1c-0.3-1.4,0.2-2.7,1.4-3.1c4.4-1.7,5.7-5.4,6.2-9.6
				c0.7-5.4,1.5-10.8,2.3-16.2c0.2-1.4,0.2-2.4-1.6-2.4c-1.3,0-1.7-0.8-1.6-2c0.1-1.3,0.2-2.8,1.8-2.8c2.2,0,2.5-1.2,2.9-2.9
				c1.4-5.9,8.2-9.5,14.1-7.8c1.4,0.4,1.6,1.3,1.4,2.5c-0.2,1.3-0.2,2.8-2.1,2.9c-1,0-2,0-2.9,0c-1.5,0-2.5,0.8-3.2,2.1
				c-1.3,2.2-0.8,3.1,1.8,3.2c2.2,0,4.3,0,6.5,0c0.7,0,1.8-0.2,2.1,0.6c0.9,2.2,1.9,1.1,3,0.4c3.7-2.4,7.9-1.9,10.9,1.2
				c0.9,0.9,1.4,0.5,2.1-0.1c2.2-1.8,4.6-2.8,7.6-2.6C252.6,118.6,254.4,120.6,254.3,126.7z"/>
		</g>
	</g>
</g>
</svg>
