<?xml version="1.0" encoding="utf-8"?>
<!-- Generator: Adobe Illustrator 22.0.0, SVG Export Plug-In . SVG Version: 6.00 Build 0)  -->
<svg version="1.2" baseProfile="tiny" xmlns="http://www.w3.org/2000/svg" xmlns:xlink="http://www.w3.org/1999/xlink" x="0px"
	 y="0px" viewBox="0 0 320 256" xml:space="preserve">
<g id="Guides">
</g>
<g id="Layer_2">
	<rect id="XMLID_1_" fill="#2A3145" width="320" height="256"/>
	<circle display="none" fill="#FF00E1" cx="160.5" cy="128.5" r="95.5"/>
	<path id="XMLID_76_" fill="#FFFFFF" d="M166,188.8c6,11,12.5,21.7,21,31.2c-0.6-0.2-1.1-0.4-1.5-0.5c-2.1-0.9-3.6-2.4-5.2-4
		c-4.8-4.9-8.8-10.3-12.7-16c-1.6-2.4-3.3-4.9-4.8-7.4c-0.1-0.2-0.3-0.4-0.4-0.6c-0.3,0.2-0.5,0.4-0.8,0.5c-4,2.5-8.2,4.5-12.7,6
		c-2.9,0.9-5.9,1.4-8.9,1.3c-2.3-0.1-4.4-0.7-6.1-2.4c-1.9-2-2.4-4.3-1.8-7c0.5-2.8,1.4-5.5,2.9-8c-0.2,0.1-0.4,0.2-0.5,0.3
		c-4.8,2.5-9.9,4.6-15.2,6c-3.3,0.8-6.6,1.3-10,0.9c-3.1-0.3-6.1-1.2-8.4-3.3c-2.1-2-3.3-4.4-3.6-7.2c-0.5-3.5,0-7,0.8-10.4
		c1.3-5.8,3.5-11.3,6.1-16.6c2.8-6,6.1-11.7,9.8-17.2c0.3-0.4,0.2-0.6,0-1c-2.7-6.5-5.1-13.1-6.8-20c-0.8-3.3-1.4-6.6-1.7-10
		c0-0.3-0.1-0.5-0.1-0.8c-12.6-0.8-25,0-37.3,2.6c0-0.1-0.1-0.1-0.1-0.2c0.5-0.4,0.8-0.8,1.3-1.2c1.8-1.6,4.1-2,6.3-2.5
		c5.6-1.3,11.3-2.2,17-2.7c3.9-0.4,7.7-0.5,11.6-0.6c0.3,0,0.5,0,0.9,0c0-0.6,0-1.3,0-1.8c0.1-4.4,0.4-8.9,1.4-13.2
		c0.6-3.1,1.6-6.1,3.4-8.7c1.8-2.5,4.2-4,7.4-3.7c1.8,0.2,3.3,1.1,4.7,2.3c1.9,1.6,3.4,3.6,4.7,5.8c0.2,0.3,0.4,0.6,0.6,0.9
		c0-0.3,0-0.5,0-0.7c0.2-5.2,0.8-10.5,2.2-15.6c0.9-3.3,2-6.4,3.8-9.3c1.4-2.4,3.3-4.2,5.8-5.4c2.7-1.3,5.6-1.4,8.5-0.5
		c3.6,1.1,6.6,3.2,9.4,5.7c4.3,3.9,7.9,8.4,11.2,13.1c4.1,5.8,7.5,11.8,10.7,18.2c0.2,0.4,0.4,0.5,0.8,0.5
		c9.7,1.2,19.2,3.1,28.3,6.7c0.8,0.3,1.6,0.6,2.4,1c0.5,0.3,0.8,0.1,1.1-0.4c0.7-1.2,1.4-2.3,2.1-3.4c4-6.9,7.6-13.8,10.8-21.2
		c1.1-2.6,2.2-5.2,2.7-8c0-0.1,0.1-0.2,0.2-0.3c0.1,0.6,0.3,1.2,0.4,1.8c0.1,1.8-0.1,3.6-0.6,5.3c-2.4,7.6-5.2,15-8.9,22.1
		c-1,2-2,4.1-3,6.1c0.2,0.1,0.4,0.3,0.6,0.4c4.3,2.5,8.5,5.3,12.1,8.9c2.2,2.2,4.2,4.4,5.3,7.3c0.5,1.2,0.8,2.4,0.9,3.7
		c0.3,2.8-1.1,4.9-3.5,6.1c-2.3,1.2-4.7,1.7-7.1,1.9c-1.1,0.1-2.2,0.1-3.3,0.2c0.2,0.1,0.3,0.3,0.5,0.4c5,3.2,9.6,6.7,13.5,11
		c2.5,2.7,4.7,5.6,6,9.1c1,2.7,1.4,5.5,0.5,8.3c-0.8,2.6-2.5,4.5-4.7,6.1c-3,2.2-6.4,3.4-9.9,4.5c-4.4,1.3-9,2-13.7,2.4
		c-7.4,0.8-14.9,0.5-22.4,0.5c-0.6,0-1,0.2-1.4,0.7c-4,5.4-8.3,10.5-13.1,15.1c-2.6,2.5-5.4,5-8.6,7
		C166.4,188.5,166.2,188.7,166,188.8z M129.5,106.2c-4.5,5.9-6.4,12.6-6.8,19.8c-0.1-0.2-0.2-0.2-0.2-0.3c-0.1-0.2-0.2-0.4-0.2-0.6
		c-0.5-3.2-0.6-6.4,0.1-9.6c0.8-3.7,2.4-7.2,4.1-10.7c0.2-0.3,0.3-0.5,0.5-0.8c-4.4-0.5-8.8-0.8-13.1-1.3c0,0.2,0,0.3,0,0.5
		c0.4,2.9,0.6,5.9,1.2,8.8c1.3,7.7,3.3,15.1,6.1,22.3c2.4,6.1,5.5,12,9.7,17.3c3.4,4.3,7.4,8,12.3,10.9c0.4,0.2,0.5,0.2,0.9,0
		c1.2-0.7,2.4-1.4,3.6-2.3c6.7-4.2,12.8-9.2,18.7-14.5c7.2-6.4,14.1-13.2,20.5-20.4c0.5-0.6,1.1-1.2,1.6-1.9
		c1.9,1.4,3.8,2.8,5.7,4.2c-10.8,14.6-23.5,26.9-37,38.8c7.1,0.6,13.7-1,20.1-3.6c-5.9,5.3-13.1,6.4-20.7,6.5
		c1.7,4.1,3.6,8,5.8,11.8c0.5-0.4,1-0.6,1.5-1c6.5-4.5,12.4-9.7,17.7-15.6c5.4-6,10.1-12.5,13.4-19.9c2.6-5.8,4.1-11.8,4.2-18.2
		c0-0.4-0.1-0.5-0.5-0.7c-4.5-2.5-9.1-4.7-13.8-6.7c-13.4-5.5-27.1-9.6-41.3-12.5c-0.5-0.1-0.7-0.3-0.6-0.8s0-1.1,0.1-1.6
		c0.1-1.5,0.3-3.1,0.5-4.7c17.9,2.6,35.4,6.6,52.3,12.9c-2.9-6.7-7.8-11.5-13.3-15.7c1.8,0.4,3.4,1.2,5,2.2c3.5,2.3,6.2,5.2,8.7,8.6
		c0.8,1.2,1.6,2.4,2.4,3.5c2.5-3.5,5.1-7.1,7.6-10.6c-0.5-0.2-0.7-0.4-1.1-0.5c-8.1-3.8-16.6-6.5-25.4-8.2
		c-4.2-0.8-8.5-1.4-12.8-1.5c-3.6-0.2-7.2-0.2-10.9,0.4c-5.6,0.9-10.9,2.6-15.9,5.2c-0.5,0.2-0.5,0.5-0.5,0.9
		c0.2,3.3,0.2,6.5,0.5,9.8c0.5,6.2,1.6,12.5,2.9,18.6c2,9.3,4.5,18.5,7.4,27.6c0.3,0.7,0.5,1.4,0.7,2.2c-2.1,0.9-4.2,1.8-6.2,2.7
		c-0.1-0.2-0.2-0.3-0.2-0.4c-2-4.1-3.7-8.2-5.2-12.5c-4-11.4-6.8-23.1-9-34.8C129.9,108.6,129.7,107.4,129.5,106.2z M139.4,91.4
		c4.9-2.8,9.9-4.6,15.3-5.7c5.3-1.1,10.8-1.4,16.3-1.2c-0.2-0.3-0.3-0.5-0.4-0.5c-2.1-2.9-4-5.8-6.1-8.6c-2.2-2.8-4.6-5.3-7.5-7.3
		c-3.8-2.7-7.4-2.4-10.7,0.9c-2,2-3.2,4.4-4.2,7.1c-1.4,3.7-2.1,7.5-2.4,11.4C139.6,88.7,139.5,90,139.4,91.4z M139.2,164.8
		c-9.9-5.5-16.5-13.9-21.7-23.6c-0.1,0.1-0.1,0.2-0.2,0.3c-2.1,3.8-3.8,7.8-5.2,11.8c-1.1,3.3-1.9,6.6-1.6,10.1
		c0.3,3.5,2.4,6.1,5.9,6.8c2.6,0.5,5.2,0.4,8,0.1c4.5-0.5,8.7-2.1,12.7-4.2C137.7,165.6,138.4,165.1,139.2,164.8z M203.1,128
		c-0.1,11.4-3.7,21.5-9.9,30.8c0.3,0,0.4,0,0.5,0c4.8-0.1,9.5-0.5,14.2-1.6c2.9-0.7,5.7-1.6,8.1-3.3c2.9-2,3.9-4.7,3.2-8
		c-0.6-2.6-2-4.9-3.7-7c-2.9-3.6-6.4-6.6-10.2-9.3C204.6,129.1,203.9,128.6,203.1,128z M113.8,97.7c4.8,0.2,9.5,0.4,14.2,0.5
		c0-0.3,0-0.5,0-0.7c-0.3-3.3-0.5-6.6-0.8-9.9c0-0.4,0-0.7-0.2-1.1c-0.6-1.6-1.6-3.1-3-4.2c-1.8-1.5-3.4-1.5-5.3-0.1
		c-0.4,0.3-0.8,0.6-1.1,1.1c-1.4,1.7-2.3,3.7-2.8,5.8C114.1,91.8,113.8,94.7,113.8,97.7z M157.7,183.8c-2.3-4.2-4.5-8.4-6.8-12.6
		c-0.1,0-0.2,0-0.2,0.1c-3.1,2.2-6.2,4.3-9.3,6.5c-0.2,0.2-0.5,0.4-0.5,0.5c-0.5,1.1-1.1,2.1-1.4,3.2c-0.3,0.8-0.4,1.7-0.3,2.4
		c0.3,2,2.1,3.4,4.3,3.7c1.8,0.3,3.6,0.1,5.3-0.4C152,186.6,154.8,185.4,157.7,183.8z M202.9,115c0.2,0.1,0.4,0.2,0.5,0.3
		c3,1.4,6,2.8,8.9,4.2c0.8,0.5,1.6,0.6,2.5,0.5c0.7-0.1,1.4-0.1,2.2-0.2c3.9-0.3,5-3.3,4.2-6.1c-0.5-1.6-1.4-2.9-2.4-4.2
		c-2.4-2.7-5.2-4.8-8.1-6.7c-0.1,0-0.2-0.1-0.2-0.1C208,107,205.4,111,202.9,115z"/>
</g>
</svg>
