<?xml version="1.0" encoding="utf-8"?>
<!-- Generator: Adobe Illustrator 22.0.0, SVG Export Plug-In . SVG Version: 6.00 Build 0)  -->
<svg version="1.1" xmlns="http://www.w3.org/2000/svg" xmlns:xlink="http://www.w3.org/1999/xlink" x="0px" y="0px"
	 viewBox="0 0 320 256" style="enable-background:new 0 0 320 256;" xml:space="preserve">
<style type="text/css">
	.st0{fill:#D77A29;}
	.st1{fill:#FFFFFF;}
	.st2{fill:none;}
</style>
<g id="Guides">
</g>
<g id="Layer_2">
	<rect id="XMLID_1_" class="st0" width="320" height="256"/>
	<path class="st1" d="M128.1,215.5c-1.2-0.7-0.8-2.1-0.5-5.2c0.4-4.2,0.6-8.5,0.5-12.7c-0.4-20-6.5-39.8-17.6-56.5
		c-4.5-6.9-9.9-13.2-14.2-20.2c-3.7-6-7.3-14.6-7.8-21.6c-0.2-3.1,0.7-6.4,3.1-8.5c2.5-2.1,6.1-2.4,9.4-1.9c6,0.9,11.4,3.7,16.8,6.4
		c5.4,2.8,10.8,5.5,16.8,6.3c5.7,0.7,10.7-0.8,15.1-4.3c3.4-2.6,7.8-4.6,9.2-8.7c1.6-4.6,2.1-9.7,2.3-14.5c0.5-8.7,0-17.1,3.3-25.4
		c1.6-3.9,4.9-9,9.8-8.8c5,0.1,8.8,5.8,11.2,9.5c19.8,30.7,37.6,63.9,43.4,100.3c1.2,7.8,2,15.8,2.2,23.7c0.1,4.8,1,9.6,0.4,14.5
		c-0.8,5.8-5.6,7.8-10.6,10c-28.1,12.1-58.4,17.9-89,18C129.9,216,128.7,215.9,128.1,215.5z"/>
	<circle class="st2" cx="160.5" cy="128.5" r="95.5"/>
</g>
</svg>
