<?xml version="1.0" encoding="utf-8"?>
<!-- Generator: Adobe Illustrator 22.0.0, SVG Export Plug-In . SVG Version: 6.00 Build 0)  -->
<svg version="1.1" xmlns="http://www.w3.org/2000/svg" xmlns:xlink="http://www.w3.org/1999/xlink" x="0px" y="0px"
	 viewBox="0 0 320 256" style="enable-background:new 0 0 320 256;" xml:space="preserve">
<style type="text/css">
	.st0{fill:#7289DA;}
	.st1{display:none;fill:#FF00E1;}
	.st2{fill:#FFFFFF;}
</style>
<g id="Guides">
</g>
<g id="Layer_2">
	<rect id="XMLID_1_" class="st0" width="320" height="256"/>
	<circle class="st1" cx="160.5" cy="128.5" r="95.5"/>
	<path class="st2" d="M190.8,176.7c4.4,5.5,9.6,11.7,9.6,11.7c32.2-1,44.6-21.9,44.6-21.9c-0.5-29.2-7.7-57.9-21-83.9
		c-11.8-9.1-26.1-14.3-40.9-15l-2,2.3c24.7,7.5,36.3,18.3,36.3,18.3c-13.6-7.4-28.4-12.1-43.8-13.8c-9.8-1.1-19.6-1-29.4,0.3
		c-0.8,0-1.7,0.1-2.5,0.3c-11.4,1.3-22.5,4.3-33,9c-5.5,2.5-8.7,4.2-8.7,4.2s12-11.4,38.3-18.8l-1.5-1.7c-14.8,0.7-29.1,5.9-40.9,15
		c-13.3,26-20.5,54.7-21,83.9c0,0,12.2,21,44.4,21.9c0,0,5.4-6.5,9.8-12c-18.5-5.5-25.5-17-25.5-17s1.5,1,4.1,2.5
		c0.2,0.2,0.4,0.3,0.6,0.4c0.4,0.3,0.9,0.4,1.3,0.7c3.4,1.9,7,3.5,10.6,4.9c6.9,2.7,14.1,4.8,21.4,6.2c12.5,2.3,25.2,2.3,37.7,0
		c7.2-1.3,14.2-3.3,21-6.2c5.9-2.2,11.5-5,16.7-8.5C217.1,159.4,209.9,171.4,190.8,176.7z M136.9,156.7c-8.1,0-14.7-7.4-14.7-16.4
		c-1-8.1,4.8-15.5,13-16.5c8.1-1,15.5,4.8,16.5,13c0.1,1.2,0.1,2.4,0,3.5C152.1,148.9,145.5,156.2,136.9,156.7
		C136.9,156.7,136.9,156.7,136.9,156.7L136.9,156.7z M189.6,156.7c-8.1,0-14.7-7.3-14.7-16.4c0.9-8.1,8.2-14,16.4-13.1
		c8.1,0.9,14,8.2,13.1,16.4C203.6,151,197.3,156.7,189.6,156.7L189.6,156.7z"/>
</g>
</svg>
