<?xml version="1.0" encoding="utf-8"?>
<!-- Generator: Adobe Illustrator 22.1.0, SVG Export Plug-In . SVG Version: 6.00 Build 0)  -->
<svg version="1.2" baseProfile="tiny" xmlns="http://www.w3.org/2000/svg" xmlns:xlink="http://www.w3.org/1999/xlink" x="0px"
	 y="0px" width="320px" height="256px" viewBox="0 0 320 256" xml:space="preserve">
<g id="Guides">
</g>
<g id="Layer_2">
	<rect id="XMLID_1_" width="320" height="256"/>
	<circle display="none" fill="#FF00E1" cx="160.5" cy="128.5" r="95.5"/>
	<path fill="#FFFFFF" d="M107.9,55.6C96.4,55.6,87,64.9,87,76.4v112.1l73,21.9l73-21.9V76.4c0-11.5-9.4-20.9-20.9-20.9H107.9z
		 M111.3,73h13.9v10.4h-13.9v24.3h10.4v10.4h-10.4v24.3h13.9v10.4h-13.9c-5.8,0-10.4-4.7-10.4-10.4V83.4
		C100.9,77.6,105.6,73,111.3,73z M132.2,73H153c5.8,0,10.4,4.7,10.4,10.4v24.3c0,5.8-4.7,10.4-10.4,10.4h-10.4v34.8h-10.4V73z
		 M170.4,73h10.4v80h-10.4V73z M198.2,73h10.4c5.8,0,10.4,4.7,10.4,10.4v13.9h-10.4V83.4h-10.4v59.1h10.4v-13.9h10.4v13.9
		c0,5.8-4.7,10.4-10.4,10.4h-10.4c-5.8,0-10.4-4.7-10.4-10.4V83.4C187.8,77.6,192.5,73,198.2,73z M142.6,83.4v24.3H153V83.4H142.6z
		 M104.4,163.3h13.9c1.9,0,3.5,1.6,3.5,3.5v3.5h-3.5v-2.6c0-0.5-0.4-0.9-0.9-0.9h-12.2c-0.5,0-0.9,0.4-0.9,0.9v12.2
		c0,0.5,0.4,0.9,0.9,0.9h12.2c0.5,0,0.9-0.4,0.9-0.9v-2.6h-3.5v-3.5h7v7c0,1.9-1.6,3.5-3.5,3.5h-13.9c-1.9,0-3.5-1.6-3.5-3.5v-13.9
		C100.9,164.9,102.5,163.3,104.4,163.3z M135.7,163.3h3.5l10.4,20.9h-3.5l-1.7-3.5h-13.9l-1.7,3.5h-3.5L135.7,163.3z M153,163.3h3.5
		l7,13.9l7-13.9h3.5v20.9h-3.5v-13.9l-5.2,10.4h-3.5l-5.2-10.4v13.9H153V163.3z M177.4,163.3h17.4v3.5h-13.9v5.2h7v3.5h-7v5.2h13.9
		v3.5h-17.4V163.3z M201.7,163.3h13.9c1.9,0,3.5,1.6,3.5,3.5v1.7h-3.5v-0.9c0-0.5-0.4-0.9-0.9-0.9h-12.2c-0.5,0-0.9,0.4-0.9,0.9v3.5
		c0,0.5,0.4,0.9,0.9,0.9h13c1.9,0,3.5,1.6,3.5,3.5v5.2c0,1.9-1.6,3.5-3.5,3.5h-13.9c-1.9,0-3.5-1.6-3.5-3.5V179h3.5v0.9
		c0,0.5,0.4,0.9,0.9,0.9h12.2c0.5,0,0.9-0.4,0.9-0.9v-3.5c0-0.5-0.4-0.9-0.9-0.9h-13c-1.9,0-3.5-1.6-3.5-3.5v-5.2
		C198.2,164.9,199.8,163.3,201.7,163.3z M137.4,166.8l-5.2,10.4h10.4L137.4,166.8z"/>
	<g>
	</g>
	<g>
	</g>
	<g>
	</g>
	<g>
	</g>
	<g>
	</g>
	<g>
	</g>
	<g>
	</g>
	<g>
	</g>
	<g>
	</g>
	<g>
	</g>
	<g>
	</g>
	<g>
	</g>
	<g>
	</g>
	<g>
	</g>
	<g>
	</g>
</g>
</svg>
