<?xml version="1.0" encoding="utf-8"?>
<!-- Generator: Adobe Illustrator 22.0.0, SVG Export Plug-In . SVG Version: 6.00 Build 0)  -->
<svg version="1.2" baseProfile="tiny" xmlns="http://www.w3.org/2000/svg" xmlns:xlink="http://www.w3.org/1999/xlink" x="0px"
	 y="0px" viewBox="0 0 320 256" xml:space="preserve">
<g id="Guides" display="none">
</g>
<g id="Layer_2">
	<rect id="XMLID_1_" fill="#323131" width="320" height="256"/>
	<circle display="none" fill="#FF00E1" cx="160.5" cy="128.5" r="95.5"/>
	<path id="Cat_2_" fill="#FFFFFF" d="M183.1,219.8h-22.8h-22.8c0,0,0-13.7,0-22.8c-31.4,6.9-39.9-17.1-39.9-17.1
		c-5.7-11.4-11.4-17.1-11.4-17.1c-11.4-6.9,0-5.7,0-5.7c11.4,0,17.1,11.4,17.1,11.4c10.3,17.1,28,14.3,34.2,11.4
		c0-5.7,2.3-14.3,5.7-17.1c-25.1-2.9-45.6-17.1-45.6-45.6s5.7-34.2,11.4-39.9c-1.2-2.9-5.7-13.1,0-28.5c0,0,11.4,0,22.8,17.1
		c5.7-5.7,22.8-5.7,28.5-5.7c5.7,0,22.8,0,28.5,5.7c11.4-17.1,22.8-17.1,22.8-17.1c6.2,15.4,1.2,25.7,0,28.5
		c5.7,5.7,11.4,11.4,11.4,39.9s-20.5,42.8-45.6,45.6c3.4,2.9,5.7,12.6,5.7,17.1V219.8L183.1,219.8z"/>
</g>
</svg>
