<?xml version="1.0" encoding="utf-8"?>
<!-- Generator: Adobe Illustrator 22.1.0, SVG Export Plug-In . SVG Version: 6.00 Build 0)  -->
<svg version="1.2" baseProfile="tiny" xmlns="http://www.w3.org/2000/svg" xmlns:xlink="http://www.w3.org/1999/xlink" x="0px"
	 y="0px" viewBox="0 0 320 256" xml:space="preserve">
<g id="Guides">
</g>
<g id="Layer_2">
	<rect id="XMLID_1_" fill="#2B0751" width="320" height="256"/>
	<circle display="none" fill="#FF00E1" cx="160.5" cy="128.5" r="95.5"/>
	<g>
		<g>
			<path fill="#FFFFFF" d="M127.7,122.8c0,5.1-3.7,8.9-8.8,8.9c-11.9,0-23.8,0-35.7,0c-0.4,0-1.1-0.7-1.1-1.1
				c-0.1-2.8-0.1-5.6,0-8.4c0-0.5,0.9-1.3,1.3-1.3c7.1-0.1,14.2-0.1,21.2-0.1c3,0,6,0.3,9-0.2c1.1-0.2,2-0.4,2.6-1.4
				c0.5-1,0.6-2.2,0.6-3.3c0-11.6,0-23.2,0-34.8c0-3-1.3-4.3-4.3-4.3c-5.2,0-10.4,0-15.6,0c-2.3,0-3.8,1.2-3.8,3.5
				c-0.1,5.7-0.1,11.5,0.1,17.2c0.1,2.6,2.4,3,4.5,3c3.7,0,7.4,0,11,0.1c0.4,0,1.1,0.7,1.2,1.2c0.1,2.8,0.1,5.7,0,8.6
				c0,0.4-0.7,1.1-1.1,1.1c-6,0.1-12.1,0.1-18.1,0c-5-0.1-8.6-3.7-8.6-8.7c0-9.3,0-18.7,0-28c0-5.1,3.8-8.8,8.9-8.8
				c9.3,0,18.6,0,28,0c5.1,0,8.8,3.7,8.8,8.8"/>
			<path fill="#FFFFFF" d="M237.3,123.1c0,5-3.7,8.6-8.7,8.6c-11.9,0-23.8,0-35.7,0c-0.4,0-1.1-0.7-1.1-1.1c-0.1-2.8-0.1-5.6,0-8.4
				c0-0.5,0.9-1.3,1.3-1.3c7-0.1,14,0,21-0.1c1.7,0,3.3,0,5,0c1.5,0,3.2,0.2,4.7-0.2c2.2-0.5,2.5-2.5,2.5-4.5c0-0.1,0-0.1,0-0.2
				c0-11.7,0-23.5,0-35.2c0-2.5-1.4-3.9-3.9-3.9c-5.3,0-10.7,0-16,0c-2.4,0-3.9,1.4-3.9,3.9c0,5.4,0,10.7,0,16.1
				c0,2.5,1.4,3.8,3.9,3.8c3.9,0,7.8,0,11.7,0.1c0.4,0,1.1,0.7,1.2,1.2c0.1,2.9,0.1,5.7,0,8.6c0,0.4-0.7,1.1-1.1,1.1
				c-6.2,0.1-12.4,0.1-18.6,0c-4.3-0.1-7.9-3.9-7.9-8.1c0-9.7,0-19.4,0-29.1c0-4.4,3.8-8.2,8.2-8.2c9.7,0,19.3,0,29,0
				c4.4,0,8.2,3.6,8.2,8"/>
			<path fill="#FFFFFF" d="M213,143c7.6,0,15.2,0,22.8,0c1.1,0,1.5,0.4,1.5,1.5c0,14,0,28-0.1,42c0,0.5-0.9,1.3-1.3,1.3
				c-2.6,0.1-5.3,0.1-7.9,0c-0.5,0-1.3-0.8-1.3-1.3c-0.1-10.5-0.1-21,0-31.5c0-1-0.3-1.4-1.3-1.3c-2.1,0.1-4.1,0-6.2,0
				c-2.5,0-3.8,1.3-3.8,3.8c0,9.6,0,19.2,0,28.8c0,1.1-0.4,1.5-1.5,1.4c-2.6-0.1-5.2,0-7.9-0.1c-0.5,0-1.3-0.8-1.3-1.3
				c-0.1-10.4-0.1-20.9,0-31.3c0-1.1-0.3-1.5-1.5-1.5c-2.1,0.1-4.2,0-6.3,0c-2.2,0-3.6,1.4-3.6,3.6c0,9.7,0,19.4-0.1,29.1
				c0,0.5-0.8,1.3-1.3,1.3c-2.7,0.1-5.5,0.1-8.2,0c-0.4,0-1.1-0.7-1.1-1.1c-0.1-12-0.1-23.9,0-35.9c0-3.9,3.6-7.5,7.5-7.8
				c0.4,0,0.8-0.1,1.1-0.1C198.4,143,205.7,143,213,143z"/>
			<path fill="#FFFFFF" d="M159.7,111.5c-4.9,0-9.8,0.1-14.8,0c-4.4-0.1-8-3.8-8-8.2c0-9.7,0-19.3,0-29c0-4.4,3.9-8.2,8.3-8.2
				c9.6,0,19.1,0,28.7,0c4.8,0,8.6,3.8,8.6,8.6c0,5.3,0,10.6,0,16c0,2.6,0,5.3,0,7.9c0,2.2,0.3,4.6-0.3,6.8
				c-0.9,3.5-3.9,5.9-7.5,6.2c-0.2,0-0.4,0-0.6,0C169.3,111.6,164.5,111.5,159.7,111.5z M171.5,88.8c0-2.7,0-5.5,0-8.2
				c0-2.3-1.4-3.7-3.7-3.7c-5.4,0-10.8,0-16.2,0c-2.3,0-3.8,1.4-3.8,3.7c0,5.5,0,11,0,16.5c0,2.3,1.5,3.6,3.7,3.6
				c5.5,0,11.1,0,16.6,0c2,0,3.4-1.4,3.4-3.3C171.5,94.4,171.5,91.6,171.5,88.8z"/>
			<path fill="#FFFFFF" d="M128.5,165.4c0-4.9-0.1-9.8,0-14.8c0.1-3.9,3.6-7.5,7.5-7.5c9.9-0.1,19.7-0.1,29.6,0
				c4.1,0,7.6,3.8,7.6,7.8c0,1,0,2,0,3c0,1,0,2,0,3c0,1,0,2,0,3c0,1,0,2,0,3c0,1,0,2,0,3s0,2,0,3c0,1,0,2,0,3c0,1,0,2,0,3
				c0,1,0,2,0,3c0,0.5,0,1,0,1.5c0,0.4,0,0.9,0,1.3c-0.1,0.7-0.3,1.4-0.5,2c-0.3,0.7-0.6,1.3-1.1,1.8c-0.4,0.6-0.9,1.1-1.5,1.5
				c-0.6,0.4-1.2,0.8-1.8,1.1c-0.6,0.3-1.3,0.5-2,0.6c-0.3,0-0.5,0.1-0.8,0.1c-9.7,0-19.4,0-29.1,0c-4,0-7.7-3.6-7.8-7.5
				C128.4,175.3,128.5,170.3,128.5,165.4z M150.9,153.8c-2.7,0-5.5,0-8.2,0c-2.1,0-3.5,1.4-3.5,3.5c0,5.5,0,10.9,0,16.4
				c0,2,1.4,3.5,3.5,3.5c5.5,0,10.9,0,16.4,0c2,0,3.5-1.5,3.5-3.5c0-5.5,0-11,0-16.5c0-2-1.5-3.4-3.4-3.4
				C156.4,153.7,153.7,153.8,150.9,153.8z"/>
			<path fill="#FFFFFF" d="M82.2,165.4c0-4.9-0.1-9.8,0-14.8c0.1-3.9,3.6-7.5,7.5-7.5c9.5-0.1,19-0.1,28.5,0c0.4,0,1,0.7,1,1.1
				c0.1,2.8,0.1,5.5,0,8.3c0,0.5-0.8,1.3-1.3,1.3c-7.1,0.1-14.3,0.1-21.4,0.1c-2.3,0-3.7,1.3-3.7,3.7c0,5.3,0,10.6,0,15.9
				c0,2.5,1.3,3.8,3.8,3.8c7,0,14,0,21.1,0c1.2,0,1.6,0.4,1.5,1.6c-0.1,2.7,0,5.4-0.1,8.1c0,0.4-0.6,1-1,1c-9.5,0-18.9,0.1-28.4,0
				c-4,0-7.6-3.6-7.7-7.6C82.1,175.3,82.2,170.3,82.2,165.4z"/>
		</g>
	</g>
	<g>
	</g>
	<g>
	</g>
	<g>
	</g>
	<g>
	</g>
	<g>
	</g>
	<g>
	</g>
	<g>
	</g>
	<g>
	</g>
	<g>
	</g>
	<g>
	</g>
	<g>
	</g>
	<g>
	</g>
	<g>
	</g>
	<g>
	</g>
	<g>
	</g>
</g>
</svg>
