<?xml version="1.0" encoding="utf-8"?>
<!-- Generator: Adobe Illustrator 22.0.0, SVG Export Plug-In . SVG Version: 6.00 Build 0)  -->
<svg version="1.2" baseProfile="tiny" xmlns="http://www.w3.org/2000/svg" xmlns:xlink="http://www.w3.org/1999/xlink" x="0px"
	 y="0px" viewBox="0 0 320 256" xml:space="preserve">
<g id="Guides" display="none">
</g>
<g id="Layer_2">
	<rect id="XMLID_1_" fill="#DA4B42" width="320" height="256"/>
	<circle display="none" fill="#FF00E1" cx="160.5" cy="128.5" r="95.5"/>
	<g id="XMLID_246_">
		<g id="XMLID_30_">
			<path id="XMLID_31_" fill="#FFFFFF" d="M125.5,116.1v23.8c0,0,23,0,32.5,0c-5.1,15.3-13,23.8-32.5,23.8c-19.7,0-35-15.9-35-35.6
				s15.3-35.6,35-35.6c10.4,0,17.1,3.6,23.3,8.8c4.9-4.9,4.5-5.6,17.1-17.5C155.3,73.9,141.1,68,125.6,68c-33.1,0-60,26.9-60,60
				s26.9,60,60,60c49.5,0,61.6-43.1,57.5-71.8C171.4,116.1,125.5,116.1,125.5,116.1z M233.7,117.3V96.5h-14.9v20.8h-21.3v14.9h21.3
				v21.3h14.9v-21.3h20.8v-14.9H233.7z"/>
		</g>
	</g>
</g>
</svg>
