<?xml version="1.0" encoding="utf-8"?>
<!-- Generator: Adobe Illustrator 22.0.0, SVG Export Plug-In . SVG Version: 6.00 Build 0)  -->
<svg version="1.2" baseProfile="tiny" xmlns="http://www.w3.org/2000/svg" xmlns:xlink="http://www.w3.org/1999/xlink" x="0px"
	 y="0px" viewBox="0 0 320 256" xml:space="preserve">
<g id="Guides" display="none">
</g>
<g id="Layer_2">
	<rect id="XMLID_1_" fill="#B90000" width="320" height="256"/>
	<circle display="none" fill="#FF00E1" cx="160.5" cy="128.5" r="95.5"/>
	<path id="path2988" fill="#FFFFFF" d="M223.2,118c-1.7-0.6-3.2-1.1-4.8-1.6c-11.7-3.7-18.7-5.8-18.7-14.9c0-7.3,5.6-12.7,13.4-12.7
		c5.9,0,10.4,2.4,14.4,8.1c0.4,0.5,1.1,0.7,1.7,0.4l11.8-6c0.3-0.2,0.6-0.5,0.7-0.8c0.1-0.4,0.1-0.7-0.1-1
		c-6.3-11.2-15.4-16.7-27.8-16.7c-18.8,0-31,11.4-31,29c0,18,11.8,25.3,33.5,32.4c12.6,4.2,18.1,6.4,18.1,15.4
		c0,10-9.1,17.3-21.4,16.8c-13-0.4-16.9-7.3-21.8-18.6c-8.4-19.1-17.9-41.4-18-41.6c-9.5-22-28.5-34.7-52-34.7
		C90.2,71.8,65,97.1,65,128.1s25.2,56.2,56.2,56.2c16.9,0,32.7-7.5,43.5-20.6c0.3-0.4,0.4-0.9,0.2-1.4l-7.1-16.4
		c-0.2-0.5-0.7-0.8-1.2-0.8c-0.5,0-1,0.3-1.2,0.7c-6.7,12.8-19.8,20.7-34.3,20.7c-21.3,0-38.6-17.3-38.6-38.6
		c0-21.3,17.3-38.6,38.6-38.6c15.5,0,29.7,9.2,35.4,22.9l17.5,40l2,4.5c7.9,18.5,19.6,26.8,37.8,26.8c21.7,0,38.1-14.4,38.1-33.4
		C252,131.1,241.4,124,223.2,118L223.2,118z"/>
</g>
</svg>
