<?xml version="1.0" encoding="utf-8"?>
<!-- Generator: Adobe Illustrator 22.0.0, SVG Export Plug-In . SVG Version: 6.00 Build 0)  -->
<svg version="1.2" baseProfile="tiny" xmlns="http://www.w3.org/2000/svg" xmlns:xlink="http://www.w3.org/1999/xlink" x="0px"
	 y="0px" viewBox="0 0 320 256" xml:space="preserve">
<g id="Guides" display="none">
</g>
<g id="Layer_2">
	<rect id="XMLID_1_" fill="#007BB6" width="320" height="256"/>
	<circle display="none" fill="#FF00E1" cx="160.5" cy="128.5" r="95.5"/>
	<g id="XMLID_184_">
		<path id="XMLID_195_" fill="#FFFFFF" d="M92.3,100.5h29v93.4h-29V100.5z M106.9,54c9.3,0,16.9,7.6,16.9,16.9s-7.6,16.9-16.9,16.9
			c-9.3,0-16.9-7.5-16.9-16.9S97.5,54,106.9,54"/>
		<path id="XMLID_192_" fill="#FFFFFF" d="M139.5,100.5h27.8v12.8h0.4c3.9-7.4,13.4-15.1,27.5-15.1c29.4,0,34.8,19.3,34.8,44.5v51.2
			h-29v-45.4c0-10.9-0.1-24.8-15.1-24.8c-15.1,0-17.4,11.8-17.4,24V194h-29L139.5,100.5L139.5,100.5z"/>
	</g>
</g>
</svg>
