<?xml version="1.0" encoding="utf-8"?>
<!-- Generator: Adobe Illustrator 22.0.0, SVG Export Plug-In . SVG Version: 6.00 Build 0)  -->
<svg version="1.1" xmlns="http://www.w3.org/2000/svg" xmlns:xlink="http://www.w3.org/1999/xlink" x="0px" y="0px"
	 viewBox="0 0 320 256" style="enable-background:new 0 0 320 256;" xml:space="preserve">
<style type="text/css">
	.st0{fill:#292929;}
	.st1{display:none;fill:#FF00E1;}
	.st2{fill:#FFFFFF;}
</style>
<g id="Guides">
</g>
<g id="Layer_2">
	<rect id="XMLID_1_" class="st0" width="320" height="256"/>
	<circle class="st1" cx="160.5" cy="128.5" r="95.5"/>
	<g>
		<g>
			<path class="st2" d="M177.3,187.5c3.7-3.4,6.8-6.6,10.2-9.6c2.2-1.9,3-4,3-7c-0.1-24.9,0-49.9,0-74.8c0-0.3-0.1-0.6-0.6-1.1
				c-12.6,31.3-25.3,62.6-38.1,94.5c-14.1-30.9-27.9-61.3-41.7-91.7c-0.2,0-0.3,0-0.5,0c-0.1,0.7-0.2,1.5-0.2,2.2
				c0,19.1-0.1,38.1-0.1,57.2c0,4.1,1.2,7.9,3.8,11.2c4.8,6.1,9.5,12.4,14.5,19.1c-14.5,0-28.4,0-42.7,0c0.4-0.7,0.7-1.4,1.1-2
				c4.3-5.8,8.6-11.6,13.1-17.2c2.7-3.4,3.7-7.3,3.7-11.5c0-22-0.2-43.9-0.1-65.9c0-3.9-1-7.2-3.4-10.3c-3.5-4.4-6.9-8.9-10.7-13.8
				c1.3-0.1,2.1-0.3,3-0.3c11.8,0,23.5,0,35.3-0.1c2.2,0,3.2,0.8,4.1,2.7c10.4,23,21,45.9,31.5,68.8c0.5,1,1,2,1.7,3.5
				c0.6-1.4,1.1-2.4,1.5-3.4c9.3-22.9,18.5-45.8,27.7-68.7c0.9-2.2,1.9-3,4.2-2.9c11.2,0.1,22.5,0.1,33.7,0.1c0.9,0,1.8,0,3.7,0
				c-2.7,3.1-4.7,5.8-7.2,8c-4.9,4.3-6.2,9.4-6.1,15.8c0.3,27.4,0.1,54.8,0.2,82.3c0,1.4,0.9,3.2,2,4.2c3.4,3.6,7.1,6.9,11.1,10.7
				C215.5,187.5,196.7,187.5,177.3,187.5z"/>
		</g>
	</g>
</g>
</svg>
