<?xml version="1.0" encoding="utf-8"?>
<!-- Generator: Adobe Illustrator 24.2.1, SVG Export Plug-In . SVG Version: 6.00 Build 0)  -->
<svg version="1.2" baseProfile="tiny" xmlns="http://www.w3.org/2000/svg" xmlns:xlink="http://www.w3.org/1999/xlink" x="0px"
	 y="0px" viewBox="0 0 320 256" overflow="visible" xml:space="preserve">
<g id="Guides">
</g>
<g id="Layer_2">
	<rect id="XMLID_1_" fill="#FBCE00" width="320" height="256"/>
	<circle display="none" fill="#FF00E1" cx="160.5" cy="128.5" r="95.5"/>
	<g>
		<path fill="#FFFFFF" d="M148.7,169.2c0-2-1.6-3.6-3.6-3.6h-0.6c-2,0-3.6,1.6-3.6,3.6v15.2c0,2,1.6,3.6,3.6,3.6h0.6
			c2,0,3.6-1.6,3.6-3.6V169.2z"/>
		<path fill="#FFFFFF" d="M179.5,169.2c0-2-1.6-3.6-3.6-3.6h-0.6c-2,0-3.6,1.6-3.6,3.6v15.2c0,2,1.6,3.6,3.6,3.6h0.6
			c2,0,3.6-1.6,3.6-3.6L179.5,169.2L179.5,169.2z"/>
		<path fill="#FFFFFF" d="M230,107.8c-3.8-8.4-9.4-16.4-16.2-23.3c-7.1-7.2-15.2-12.9-24-17c-9.5-4.4-19.5-6.6-29.6-6.6
			c-10.1,0-20,2.2-29.6,6.6c-8.8,4.1-16.9,9.8-24,17c-6.8,6.9-12.4,14.9-16.2,23.3c-3.9,8.5-6,17.4-6,25.6c0,10.2,3.1,19.2,9.2,26.6
			c5.2,6.3,12.4,11.5,21.6,15.3c-0.1,5,1.1,11.5,5.7,17.4c7.1,9,20.2,13.6,38.8,13.6c19,0,32.3-4.6,39.4-13.7
			c4.6-5.8,5.7-12.1,5.7-17.1c9.3-3.9,16.7-9.1,22-15.5c6.1-7.5,9.2-16.4,9.2-26.6C236,125.2,233.9,116.4,230,107.8z M230.8,133.5
			c0,2.4-0.2,4.7-0.6,6.9c-11.5-5.2-19.4-16.8-19.4-30.2c0-6,1.6-11.5,4.3-16.4C225,106,230.8,120.3,230.8,133.5z M160.2,77.1
			c18.3,0,33.1,14.8,33.1,33.1s-14.8,33.1-33.1,33.1s-33.1-14.8-33.1-33.1S141.9,77.1,160.2,77.1z M105.6,93.5
			c2.9,4.9,4.5,10.6,4.5,16.7c0,13.6-8.1,25.2-19.8,30.3c-0.4-2.3-0.6-4.6-0.6-7.1C89.7,120.2,95.6,105.7,105.6,93.5z M195.1,189.5
			c-2.8,3.5-6.8,6.2-11.9,8.2c-6.2,2.3-14.1,3.5-23.4,3.5c-9.2,0-16.9-1.2-23-3.5c-5.1-1.9-9-4.7-11.7-8.1c-6-7.5-4.7-16.5-3.9-20
			c1-4.3,5.5-7.4,13.4-9.3c6.3-1.5,14.4-2.2,25.5-2.2c11.1,0,19.1,0.7,25.5,2.2c7.9,1.9,12.4,5.1,13.4,9.3
			C199.8,173.1,201,182,195.1,189.5z"/>
	</g>
</g>
</svg>
