<?xml version="1.0" encoding="utf-8"?>
<!-- Generator: Adobe Illustrator 22.1.0, SVG Export Plug-In . SVG Version: 6.00 Build 0)  -->
<svg version="1.2" baseProfile="tiny" xmlns="http://www.w3.org/2000/svg" xmlns:xlink="http://www.w3.org/1999/xlink" x="0px"
	 y="0px" viewBox="0 0 320 256" xml:space="preserve">
<g id="Guides">
</g>
<g id="Layer_2">
	<rect id="XMLID_1_" fill="#E70012" width="320" height="256"/>
	<circle display="none" fill="#FF00E1" cx="160.5" cy="128.5" r="95.5"/>
	<g>
		<path fill="#FFFFFF" d="M247.2,98.9H72.8C54.4,98.9,42,112.2,42,128c0,15.9,12.4,29,30.9,29v0h174.3c18.5,0,30.9-13.1,30.9-29
			C278,112.2,265.6,98.9,247.2,98.9z M247.1,149.9H72.9c-14.7,0.1-23.6-9.8-23.6-21.9c0-12.1,9-21.9,23.6-21.9h174.1
			c14.7,0,23.6,9.8,23.6,21.9C270.7,140.1,261.8,150,247.1,149.9z"/>
		<path id="path456" fill="#FFFFFF" d="M65.4,114.3h8.5l11.8,19.1l0-19.1h8.5v27.4h-8.4l-11.9-19.1v19.1h-8.5L65.4,114.3L65.4,114.3
			z"/>
		<path id="path458" fill="#FFFFFF" d="M140.2,117.1h8.2v3.7h4.5v2.7h-4.5l0,18.2h-8.2l0-18.2h-4.5v-2.7l4.5,0L140.2,117.1
			L140.2,117.1z"/>
		<path id="path460" fill="#FFFFFF" d="M98.9,123.4h8.2v18.2h-8.2C98.9,141.6,98.9,123.4,98.9,123.4z"/>
		<path id="path462" fill="#FFFFFF" d="M98.9,114.3h8.3v5.6h-8.3V114.3z"/>
		<path id="path464" fill="#FFFFFF" d="M243.1,122.2c-6.6,0-12,4.6-12,10.2c0,5.6,5.4,10.2,12,10.2c6.6,0,12-4.6,12-10.2
			C255.2,126.8,249.8,122.2,243.1,122.2 M246.4,132.4c0,0,0,2.7,0,3.9c0,2.9-1.7,4.1-3.4,4.1c-1.7,0-3.4-1.2-3.4-4.1
			c0-1.1,0-3.9,0-3.9s0-2.7,0-3.8c0-2.9,1.7-4.1,3.4-4.1c1.6,0,3.4,1.2,3.4,4.1C246.4,129.6,246.4,131.7,246.4,132.4L246.4,132.4
			L246.4,132.4z"/>
		<path id="path466" fill="#FFFFFF" d="M220.4,132.4v-3.3c0-2.8-1.9-3.5-3.2-3.5c-1.3,0-3.2,0.7-3.2,3.5v3.2v3.2
			c0,2.8,1.9,3.5,3.2,3.5c1.3,0,3.2-0.7,3.2-3.5L220.4,132.4L220.4,132.4z M220.3,114.3h8.1v27.4h-8.1c0,0,0-0.9,0-1
			c-3.1,2-6.7,2-9.5,0.7c-0.7-0.4-5.6-2.7-5.6-9c0-4.8,4.5-10.1,10.5-9.5c2,0.2,3.3,0.9,4.7,1.6L220.3,114.3L220.3,114.3z"/>
		<path id="path468" fill="#FFFFFF" d="M126.4,122.6c3.1-0.1,9.3,1.9,9.3,9.1c0,1.3,0,9.9,0,9.9h-8.2v-12c0-1.6-1.5-3.3-3.8-3.3
			c-2.2,0-3.9,1.8-3.9,3.3c0,0.8,0,12,0,12h-8.2l0-18.2l8.2,0c0,0,0,1.5,0,1.9C121.4,123.8,123.7,122.7,126.4,122.6"/>
		<path id="path470" fill="#FFFFFF" d="M193.3,122.6c3.1-0.1,9.3,1.9,9.3,9.1c0,1.3,0,9.9,0,9.9h-8.2v-12c0-1.6-1.5-3.3-3.8-3.3
			c-2.2,0-3.9,1.8-3.9,3.3c0,0.8,0,12,0,12h-8.2v-18.2l8.2,0c0,0,0,1.5,0,1.9C188.3,123.8,190.6,122.7,193.3,122.6"/>
		<path id="path472" fill="#FFFFFF" d="M167.4,135.3c0,0,0,0.1,0,1.1c0,3.3-2.2,4.1-3.4,4.1c-1.2,0-3.4-0.7-3.4-4.1c0-1,0-3.8,0-3.8
			s15.5,0,15.5,0c0-5.6-5.4-10.3-12.1-10.3c-6.7,0-12.1,4.6-12.1,10.2c0,5.6,5.4,10.2,12.1,10.2c5.6,0,10.2-3.2,11.7-7.5
			L167.4,135.3L167.4,135.3z M160.6,129.8c0-1.6,0-2.7,0.5-3.6c0.6-1.1,1.8-1.7,2.9-1.7c1.1,0,2.3,0.5,2.9,1.7
			c0.5,0.9,0.6,2,0.5,3.6H160.6z"/>
		<path id="path474" fill="#FFFFFF" d="M256.9,117.3c0.8,0,1.5-0.1,1.5-1c0-0.8-0.7-0.9-1.4-0.9h-1.3v1.9H256.9z M255.7,120.8h-0.9
			v-6.2h2.4c1.5,0,2.2,0.5,2.2,1.8c0,1.1-0.7,1.6-1.6,1.7l1.8,2.7h-1.1l-1.6-2.7h-1.1L255.7,120.8L255.7,120.8z"/>
		<path id="path476" fill="#FFFFFF" d="M256.9,122.2c2.4,0,4.4-1.9,4.4-4.5c0-2.6-1.9-4.5-4.4-4.5c-2.5,0-4.4,1.9-4.4,4.5
			C252.5,120.2,254.4,122.2,256.9,122.2 M251.4,117.6c0-3.1,2.5-5.4,5.5-5.4c2.9,0,5.5,2.3,5.5,5.4c0,3.1-2.5,5.4-5.5,5.4
			C253.9,123.1,251.4,120.8,251.4,117.6"/>
	</g>
</g>
</svg>
