<?xml version="1.0" encoding="utf-8"?>
<!-- Generator: Adobe Illustrator 22.1.0, SVG Export Plug-In . SVG Version: 6.00 Build 0)  -->
<svg version="1.2" baseProfile="tiny" xmlns="http://www.w3.org/2000/svg" xmlns:xlink="http://www.w3.org/1999/xlink" x="0px"
	 y="0px" viewBox="0 0 320 256" xml:space="preserve">
<g id="Guides">
</g>
<g id="Layer_2">
	<rect id="XMLID_1_" fill="#F15A23" width="320" height="256"/>
	<circle display="none" fill="#FF00E1" cx="160.5" cy="128.5" r="95.5"/>
	<g>
		<g>
			<path fill="#FFFFFF" d="M90,127.1c-0.1-13.1,4.2-25.6,11.1-37.5c13.4-23.2,31.6-41.6,54.9-54.9c1.1-0.6,2.2-1.2,3.3-0.1
				c1.1,1.1,0.4,2.2-0.3,3.3c-4.3,6.1-6.1,12.9-8.3,20c-0.1,0.2,11.7,0.3,12.8,0.4c5.1,0.2,10.2,1,15.1,2.3
				c26.7,7.2,47,30.2,50.8,57.5c2.3,16.1-0.9,31.2-8.7,45.4c-13.4,24.6-32.2,44-56.6,58c-1.1,0.6-2.3,1.3-3.3,0.2
				c-1.1-1.1-0.4-2.3,0.4-3.4c3.7-5.4,6.1-11.3,7.4-17.7c0.5-2.7,0.2-2.9-2.5-2.7c-24.8,1.6-45.3-7.1-61-26.4
				C94.8,158.8,90,143.9,90,127.1z M132.6,127.9c-0.1,15.1,12.2,27.5,27.3,27.5c14.9,0.1,27.5-12.3,27.5-27.1
				c0.1-15.3-12.1-27.8-27.3-27.9C145,100.4,132.7,112.7,132.6,127.9z"/>
		</g>
	</g>
	<g>
	</g>
	<g>
	</g>
	<g>
	</g>
	<g>
	</g>
	<g>
	</g>
	<g>
	</g>
	<g>
	</g>
	<g>
	</g>
	<g>
	</g>
	<g>
	</g>
	<g>
	</g>
	<g>
	</g>
	<g>
	</g>
	<g>
	</g>
	<g>
	</g>
</g>
</svg>
