<?xml version="1.0" encoding="utf-8"?>
<!-- Generator: Adobe Illustrator 19.0.0, SVG Export Plug-In . SVG Version: 6.00 Build 0)  -->
<svg version="1.1" xmlns="http://www.w3.org/2000/svg" xmlns:xlink="http://www.w3.org/1999/xlink" x="0px" y="0px"
	 viewBox="0 0 320 256" style="enable-background:new 0 0 320 256;" xml:space="preserve">
<style type="text/css">
	.st0{fill:#BD081C;}
	.st1{fill:#FFFFFF;}
</style>
<g id="Guides">
</g>
<g id="Layer_2">
	<rect id="XMLID_1_" class="st0" width="320" height="256"/>
	<path id="XMLID_6_" class="st1" d="M160,32c-53,0-96,43-96,96c0,39.3,23.6,73.1,57.5,87.9c-0.3-6.7,0-14.8,1.7-22
		c1.8-7.8,12.4-52.3,12.4-52.3s-3.1-6.1-3.1-15.2c0-14.2,8.3-24.8,18.5-24.8c8.7,0,12.9,6.5,12.9,14.4c0,8.8-5.6,21.9-8.5,34.1
		c-2.4,10.2,5.1,18.5,15.1,18.5c18.2,0,30.4-23.4,30.4-51c0-21-14.2-36.8-39.9-36.8c-29.1,0-47.3,21.7-47.3,46
		c0,8.4,2.5,14.3,6.3,18.8c1.8,2.1,2,2.9,1.4,5.3c-0.4,1.8-1.5,6-1.9,7.7c-0.6,2.4-2.6,3.3-4.8,2.4c-13.4-5.5-19.7-20.2-19.7-36.7
		c0-27.3,23-60,68.6-60c36.6,0,60.8,26.5,60.8,55c0,37.7-21,65.8-51.8,65.8c-10.4,0-20.1-5.6-23.4-12c0,0-5.6,22.1-6.8,26.4
		c-2,7.4-6,14.8-9.7,20.6c8.6,2.6,17.7,3.9,27.2,3.9c53,0,96-43,96-96S213,32,160,32z"/>
</g>
</svg>
