<?xml version="1.0" encoding="utf-8"?>
<!-- Generator: Adobe Illustrator 22.0.0, SVG Export Plug-In . SVG Version: 6.00 Build 0)  -->
<svg version="1.2" baseProfile="tiny" xmlns="http://www.w3.org/2000/svg" xmlns:xlink="http://www.w3.org/1999/xlink" x="0px"
	 y="0px" viewBox="0 0 320 256" xml:space="preserve">
<g id="Guides" display="none">
</g>
<g id="Layer_2">
	<rect id="XMLID_1_" fill="#BD081C" width="320" height="256"/>
	<circle display="none" fill="#FF00E1" cx="160.5" cy="128.5" r="95.5"/>
	<path id="Pinterest_1_" fill="#FFFFFF" d="M174.5,172.9c34.8,0,58.5-32.4,58.5-75.8c0-32.8-27.2-63.4-68.6-63.4
		C113,33.7,87,71.4,87,102.8c0,19,7,35.9,22.2,42.3c2.5,1,4.7,0,5.4-2.8c0.5-1.9,1.7-6.8,2.2-8.9c0.7-2.8,0.4-3.7-1.6-6.2
		c-4.4-5.3-7.1-12.1-7.1-21.7c0-27.9,20.5-53,53.3-53c29.1,0,45.1,18.1,45.1,42.4c0,31.9-13.8,58.8-34.3,58.8
		c-11.3,0-19.8-9.6-17.1-21.3c3.2-14,9.6-29.1,9.6-39.2c0-9-4.8-16.6-14.6-16.6c-11.6,0-20.9,12.2-20.9,28.6
		c0,10.4,3.5,17.5,3.5,17.5s-11.9,51.3-13.9,60.3c-1.9,8.2-2.2,17.2-1.9,24.8c0.8,6.8,7.4,12.4,13.1,4.9c4-6.6,8.4-14.9,10.6-23.2
		c1.3-4.9,7.6-30.4,7.6-30.4C151.9,166.4,162.9,172.9,174.5,172.9z"/>
</g>
</svg>
