<?xml version="1.0" encoding="utf-8"?>
<!-- Generator: Adobe Illustrator 22.1.0, SVG Export Plug-In . SVG Version: 6.00 Build 0)  -->
<svg version="1.1" baseProfile="tiny" xmlns="http://www.w3.org/2000/svg" xmlns:xlink="http://www.w3.org/1999/xlink" x="0px"
	 y="0px" width="320px" height="256px" viewBox="0 0 320 256" xml:space="preserve">
<g id="Guides">
</g>
<g id="Layer_2">
	<rect id="XMLID_1_" fill="#003791" width="320" height="256"/>
	<circle display="none" fill="#FF00E1" cx="160.5" cy="128.5" r="95.5"/>
	<path id="path-1" fill="#FFFFFF" d="M247.4,164c-3.4,4.3-11.9,7.4-11.9,7.4L172.9,194v-16.6L219,161c5.2-1.9,6-4.5,1.8-5.9
		c-4.2-1.4-11.9-1-17.2,0.9l-30.7,10.8v-17.2l1.8-0.6c0,0,8.9-3.1,21.4-4.5c12.5-1.4,27.8,0.2,39.8,4.7
		C249.3,153.4,250.9,159.7,247.4,164z M178.9,135.8V93.3c0-5-0.9-9.6-5.6-10.9c-3.6-1.1-5.8,2.2-5.8,7.2v106.3l-28.7-9.1V60.1
		c12.2,2.3,29.9,7.6,39.5,10.8c24.3,8.3,32.5,18.7,32.5,42.1C210.8,135.8,196.7,144.4,178.9,135.8z M86.2,175.7
		c-13.9-3.9-16.2-12.1-9.9-16.8c5.8-4.3,15.8-7.6,15.8-7.6l41.1-14.6v16.7l-29.6,10.6c-5.2,1.9-6,4.5-1.8,5.9
		c4.2,1.4,11.9,1,17.2-0.9l14.2-5.1v14.9c-0.9,0.2-1.9,0.3-2.8,0.5C116.2,181.5,101.1,180.6,86.2,175.7L86.2,175.7z"/>
</g>
</svg>
