<?xml version="1.0" encoding="utf-8"?>
<!-- Generator: Adobe Illustrator 22.0.0, SVG Export Plug-In . SVG Version: 6.00 Build 0)  -->
<svg version="1.2" baseProfile="tiny" xmlns="http://www.w3.org/2000/svg" xmlns:xlink="http://www.w3.org/1999/xlink" x="0px"
	 y="0px" viewBox="0 0 320 256" xml:space="preserve">
<g id="Guides">
</g>
<g id="Layer_2">
	<rect id="XMLID_1_" fill="#FF4500" width="320" height="256"/>
	<circle display="none" fill="#FF00E1" cx="160.5" cy="128.5" r="95.5"/>
	<g>
		<g>
			<path fill="#FFFFFF" d="M246,131.6c0-10.9-8.9-19.8-19.8-19.8c-4.8,0-9.4,1.8-13.1,4.9c-13.1-8.4-30.6-13.7-49.9-14.3L175,62.1
				l29,5.4c0,0.3-0.1,0.4,0,0.7c0.4,6.9,6.3,12.2,13.2,11.8c6.9-0.4,12.2-6.3,11.8-13.2s-6.3-12.2-13.2-11.8
				c-4.5,0.3-8.2,2.8-10.2,6.5l0,0l-35-6.5l-13.9,47.5c-19.4,0.5-36.9,5.7-50,14.2c-3.6-3.1-8.2-4.8-12.9-4.8
				c-10.9,0-19.8,8.9-19.8,19.8c0,6.7,3.5,13,9.1,16.7c-0.4,2-0.5,3.9-0.5,6c0,28.6,34.7,51.9,77.4,51.9s77.4-23.3,77.4-51.9
				c0-2-0.2-3.9-0.5-5.8C242.4,144.8,246,138.4,246,131.6z M123,145.1c0-6.7,5.5-12.2,12.2-12.2c6.7,0,12.2,5.5,12.2,12.2
				s-5.5,12.2-12.2,12.2C128.5,157.2,123,151.8,123,145.1z M188.5,178c-0.4,0.4-9.1,9.2-28.9,9.2c-19.9,0-27.8-9.1-28.1-9.4
				c-1.1-1.3-1-3.3,0.4-4.4c1.3-1.1,3.2-1,4.4,0.4c0.2,0.2,6.8,7.3,23.4,7.3c16.9,0,24.3-7.3,24.4-7.3c1.2-1.3,3.1-1.3,4.4-0.1
				C189.6,174.8,189.7,176.8,188.5,178z M186.1,157.2c-6.7,0-12.2-5.5-12.2-12.2s5.5-12.2,12.2-12.2c6.7,0,12.2,5.5,12.2,12.2
				S192.8,157.2,186.1,157.2z"/>
		</g>
	</g>
</g>
</svg>
