<?xml version="1.0" encoding="utf-8"?>
<!-- Generator: Adobe Illustrator 22.0.0, SVG Export Plug-In . SVG Version: 6.00 Build 0)  -->
<svg version="1.2" baseProfile="tiny" xmlns="http://www.w3.org/2000/svg" xmlns:xlink="http://www.w3.org/1999/xlink" x="0px"
	 y="0px" viewBox="0 0 320 256" xml:space="preserve">
<g id="Guides">
</g>
<g id="Layer_2">
	<rect id="XMLID_1_" fill="#ECE000" width="320" height="256"/>
	<circle display="none" fill="#FF00E1" cx="160.5" cy="128.5" r="95.5"/>
	<path id="XMLID_6_" fill="#FFFFFF" d="M161,206c-0.4,0-0.9,0-1.3,0l0,0c-0.3,0-0.5,0-0.9,0c-9.9,0-16.2-4.5-22.2-8.8
		c-4.2-2.9-8.2-5.8-12.9-6.6c-2.2-0.3-4.6-0.6-6.7-0.6c-4,0-7.1,0.6-9.3,1c-1.4,0.3-2.6,0.5-3.5,0.5c-1,0-2-0.2-2.4-1.7
		c-0.3-1.3-0.7-2.6-1-3.9c-0.7-3.2-1.2-5.2-2.5-5.4c-15.6-2.4-20.1-5.7-21.1-8c-0.2-0.3-0.3-0.7-0.3-1c-0.1-0.9,0.6-1.7,1.5-1.8
		c23.9-4,34.8-28.4,35.2-29.5v-0.1c1.5-2.9,1.7-5.5,0.9-7.7c-1.6-3.9-7-5.6-10.5-6.7c-0.9-0.3-1.7-0.5-2.3-0.8
		c-7.1-2.8-7.7-5.7-7.4-7.2c0.4-2.5,3.8-4.2,6.5-4.2c0.8,0,1.4,0.2,1.9,0.3c3.2,1.5,6.1,2.2,8.6,2.2c3.5,0,4.9-1.5,5.1-1.6
		c-0.1-1.6-0.2-3.3-0.3-5.1c-0.7-11.3-1.6-25.4,2-33.5C128.6,51.8,151.4,50,158.2,50c0.2,0,2.9,0,2.9,0h0.4c6.7,0,29.6,1.9,40.4,26
		c3.5,8,2.7,22.1,2,33.5v0.5c-0.1,1.6-0.2,3.1-0.3,4.6c0.2,0.2,1.6,1.5,4.7,1.6l0,0c2.3-0.1,5.1-0.9,8-2.2c0.9-0.4,1.8-0.5,2.5-0.5
		c1,0,2,0.2,2.9,0.5h0.1c2.4,0.9,4,2.5,4,4.3c0,1.6-1.2,4.1-7.4,6.7c-0.6,0.3-1.5,0.5-2.3,0.8c-3.5,1.1-8.9,2.9-10.5,6.7
		c-0.9,2.1-0.6,4.7,0.9,7.7v0.1c0.4,1,11.2,25.5,35.2,29.5c0.9,0.2,1.6,1,1.5,1.8c0,0.3-0.1,0.7-0.3,1c-1,2.3-5.4,5.6-21.1,8
		c-1.3,0.2-1.7,1.8-2.5,5.4c-0.3,1.3-0.5,2.5-1,3.8c-0.3,1.1-1,1.6-2.2,1.6h-0.2c-0.9,0-2-0.2-3.5-0.4c-2.7-0.5-5.6-1-9.3-1
		c-2.2,0-4.5,0.2-6.7,0.6c-4.7,0.8-8.6,3.5-12.9,6.6C177.2,201.5,170.9,206,161,206z"/>
</g>
</svg>
