<?xml version="1.0" encoding="utf-8"?>
<!-- Generator: Adobe Illustrator 19.0.0, SVG Export Plug-In . SVG Version: 6.00 Build 0)  -->
<svg version="1.1" xmlns="http://www.w3.org/2000/svg" xmlns:xlink="http://www.w3.org/1999/xlink" x="0px" y="0px"
	 viewBox="0 0 320 256" style="enable-background:new 0 0 320 256;" xml:space="preserve">
<style type="text/css">
	.st0{fill:#ECE000;}
	.st1{fill:#FFFFFF;}
</style>
<g id="Guides">
</g>
<g id="Layer_2">
	<rect id="XMLID_1_" class="st0" width="320" height="256"/>
	<path id="XMLID_6_" class="st1" d="M161.2,218.1c-0.5,0-1,0-1.5,0h0c-0.3,0-0.6,0-1,0c-11.4,0-18.7-5.2-25.7-10.2
		c-4.9-3.4-9.5-6.7-14.9-7.6c-2.6-0.4-5.3-0.7-7.8-0.7c-4.6,0-8.2,0.7-10.8,1.2c-1.6,0.3-3,0.6-4,0.6c-1.1,0-2.3-0.2-2.8-2
		c-0.4-1.5-0.8-3-1.1-4.5c-0.8-3.7-1.4-6-2.9-6.2c-18-2.8-23.2-6.6-24.4-9.3c-0.2-0.4-0.3-0.8-0.3-1.2c-0.1-1,0.7-2,1.7-2.1
		c27.7-4.6,40.2-32.9,40.7-34.1c0,0,0-0.1,0-0.1c1.7-3.4,2-6.4,1-8.9c-1.9-4.5-8.1-6.5-12.2-7.8c-1-0.3-2-0.6-2.7-0.9
		c-8.2-3.2-8.9-6.6-8.6-8.3c0.5-2.9,4.4-4.9,7.5-4.9c0.9,0,1.6,0.2,2.2,0.4c3.7,1.7,7,2.6,9.9,2.6c4,0,5.7-1.7,5.9-1.9
		c-0.1-1.9-0.2-3.8-0.4-5.9c-0.8-13.1-1.8-29.4,2.3-38.7c12.4-27.9,38.8-30,46.6-30c0.2,0,3.4,0,3.4,0l0.5,0
		c7.8,0,34.2,2.2,46.7,30.1c4.1,9.3,3.1,25.6,2.3,38.7l0,0.6c-0.1,1.8-0.2,3.6-0.3,5.3c0.2,0.2,1.8,1.7,5.4,1.9h0
		c2.7-0.1,5.9-1,9.3-2.6c1-0.5,2.1-0.6,2.9-0.6c1.2,0,2.3,0.2,3.3,0.6l0.1,0c2.8,1,4.6,2.9,4.6,5c0,1.9-1.4,4.8-8.6,7.7
		c-0.7,0.3-1.7,0.6-2.7,0.9c-4.1,1.3-10.3,3.3-12.2,7.8c-1,2.4-0.7,5.4,1,8.9c0,0,0,0.1,0,0.1c0.5,1.2,12.9,29.5,40.7,34.1
		c1,0.2,1.8,1.1,1.7,2.1c0,0.4-0.1,0.8-0.3,1.2c-1.1,2.7-6.3,6.5-24.4,9.3c-1.5,0.2-2,2.1-2.9,6.2c-0.3,1.5-0.6,2.9-1.1,4.4
		c-0.4,1.3-1.2,1.9-2.6,1.9h-0.2c-1,0-2.3-0.2-4-0.5c-3.1-0.6-6.5-1.1-10.8-1.1c-2.5,0-5.2,0.2-7.8,0.7c-5.4,0.9-10,4.1-14.9,7.6
		C179.9,212.9,172.6,218.1,161.2,218.1z"/>
</g>
</svg>
