<?xml version="1.0" encoding="utf-8"?>
<!-- Generator: Adobe Illustrator 22.0.0, SVG Export Plug-In . SVG Version: 6.00 Build 0)  -->
<svg version="1.2" baseProfile="tiny" xmlns="http://www.w3.org/2000/svg" xmlns:xlink="http://www.w3.org/1999/xlink" x="0px"
	 y="0px" viewBox="0 0 320 256" xml:space="preserve">
<g id="Guides">
</g>
<g id="Layer_2">
	<rect id="XMLID_1_" fill="#1ED760" width="320" height="256"/>
	<circle display="none" fill="#FF00E1" cx="160.5" cy="128.5" r="95.5"/>
	<path id="WTF" fill="#FFFFFF" d="M160,35c-51.4,0-93,41.6-93,93s41.6,93,93,93s93-41.6,93-93S211.4,35,160,35z M197.8,172
		c-1.3,0-2.5-0.6-3.7-1.3c-13.7-8-30.4-12.4-48.3-12.4c-9.9,0-19.9,1.3-29.2,3.1c-1.3,0.6-3.7,0.6-4.4,0.6c-3.7,0-5.6-3.1-5.6-5.6
		c0-3.7,2.5-5.6,4.9-6.2c11.8-2.5,23-4.4,34.7-4.4c20.4,0,38.5,4.9,54,14.2c2.5,1.3,3.7,2.5,3.7,6.2
		C203.4,169.6,200.9,172,197.8,172z M207.8,147.2c-1.8,0-3.1-0.6-4.9-1.8c-14.9-8.7-35.9-14.9-58.9-14.9c-11.8,0-21.7,1.8-30.4,3.7
		c-1.8,0.6-3.1,1.3-4.4,1.3c-3.7,0-7.5-3.1-7.5-7.5c0-3.7,1.8-6.8,5.6-8c10.6-3.1,21.1-4.9,36.6-4.9c24.2,0,47.8,6.2,66.4,17.3
		c3.1,1.8,4.4,3.7,4.4,7.5C215.2,144.1,212.1,147.2,207.8,147.2z M219.5,118.7c-1.8,0-3.1-0.6-4.9-1.3
		c-16.8-9.9-42.8-15.5-68.2-15.5c-12.4,0-25.4,1.3-37.2,4.4c-1.3,0.6-3.1,1.3-4.9,1.3c-4.9,0-8.7-3.7-8.7-8.7c0-5,3.1-8,6.2-8.7
		c13-3.7,27.9-5.6,44-5.6c27.3,0,55.8,5.6,76.9,18c3.1,1.8,4.9,3.7,4.9,8.7C228.2,115,223.8,118.7,219.5,118.7z"/>
</g>
</svg>
