<?xml version="1.0" encoding="utf-8"?>
<!-- Generator: Adobe Illustrator 19.0.0, SVG Export Plug-In . SVG Version: 6.00 Build 0)  -->
<svg version="1.1" xmlns="http://www.w3.org/2000/svg" xmlns:xlink="http://www.w3.org/1999/xlink" x="0px" y="0px"
	 viewBox="0 0 320 256" style="enable-background:new 0 0 320 256;" xml:space="preserve">
<style type="text/css">
	.st0{fill:#1ED760;}
	.st1{fill:#FFFFFF;}
</style>
<g id="Guides">
</g>
<g id="Layer_2">
	<rect id="XMLID_1_" class="st0" width="320" height="256"/>
	<path id="WTF" class="st1" d="M160,32c-53.1,0-96,42.9-96,96s42.9,96,96,96s96-42.9,96-96S213.1,32,160,32z M199,173.4
		c-1.3,0-2.6-0.6-3.8-1.3c-14.1-8.3-31.4-12.8-49.9-12.8c-10.2,0-20.5,1.3-30.1,3.2c-1.3,0.6-3.8,0.6-4.5,0.6
		c-3.8,0-5.8-3.2-5.8-5.8c0-3.8,2.6-5.8,5.1-6.4c12.2-2.6,23.7-4.5,35.8-4.5c21.1,0,39.7,5.1,55.7,14.7c2.6,1.3,3.8,2.6,3.8,6.4
		C204.8,170.9,202.2,173.4,199,173.4z M209.3,147.8c-1.9,0-3.2-0.6-5.1-1.9c-15.4-9-37.1-15.4-60.8-15.4c-12.2,0-22.4,1.9-31.4,3.8
		c-1.9,0.6-3.2,1.3-4.5,1.3c-3.8,0-7.7-3.2-7.7-7.7c0-3.8,1.9-7,5.8-8.3c10.9-3.2,21.8-5.1,37.8-5.1c25,0,49.3,6.4,68.5,17.9
		c3.2,1.9,4.5,3.8,4.5,7.7C217,144.6,213.8,147.8,209.3,147.8z M221.4,118.4c-1.9,0-3.2-0.6-5.1-1.3c-17.3-10.2-44.2-16-70.4-16
		c-12.8,0-26.2,1.3-38.4,4.5c-1.3,0.6-3.2,1.3-5.1,1.3c-5.1,0-9-3.8-9-9s3.2-8.3,6.4-9c13.4-3.8,28.8-5.8,45.4-5.8
		c28.2,0,57.6,5.8,79.4,18.6c3.2,1.9,5.1,3.8,5.1,9C230.4,114.6,225.9,118.4,221.4,118.4z"/>
</g>
</svg>
