<?xml version="1.0" encoding="utf-8"?>
<!-- Generator: Adobe Illustrator 22.0.0, SVG Export Plug-In . SVG Version: 6.00 Build 0)  -->
<svg version="1.1" xmlns="http://www.w3.org/2000/svg" xmlns:xlink="http://www.w3.org/1999/xlink" x="0px" y="0px"
	 viewBox="0 0 320 256" style="enable-background:new 0 0 320 256;" xml:space="preserve">
<style type="text/css">
	.st0{fill:#1F5296;}
	.st1{display:none;fill:#FF00E1;}
	.st2{fill:#FFFFFF;}
</style>
<g id="Guides">
</g>
<g id="Layer_2">
	<rect id="XMLID_1_" class="st0" width="320" height="256"/>
	<circle class="st1" cx="160.5" cy="128.5" r="95.5"/>
	<path class="st2" d="M225,152v6.9c0,6-2,11-6,15.2s-8.9,6.2-14.5,6.2h-6l-27.3,28.2v-28.2h-55.5c-5.7,0-10.5-2.1-14.5-6.2
		c-4-4.2-6-9.2-6-15.2V152H225z M225,117.8v26.8H95v-26.8H225z M225,83.4v26.8H95V83.4H225z M225,68.7v7H95v-7c0-5.9,2-10.9,6-15.1
		c4-4.2,8.9-6.2,14.5-6.2h88.8c5.7,0,10.5,2.1,14.5,6.2S225,62.8,225,68.7z"/>
</g>
</svg>
