<?xml version="1.0" encoding="utf-8"?>
<!-- Generator: Adobe Illustrator 22.0.0, SVG Export Plug-In . SVG Version: 6.00 Build 0)  -->
<svg version="1.2" baseProfile="tiny" xmlns="http://www.w3.org/2000/svg" xmlns:xlink="http://www.w3.org/1999/xlink" x="0px"
	 y="0px" viewBox="0 0 320 256" xml:space="preserve">
<g id="Guides">
</g>
<g id="Layer_2">
	<rect id="XMLID_1_" fill="#262626" width="320" height="256"/>
	<circle display="none" fill="#FF00E1" cx="160.5" cy="128.5" r="95.5"/>
	<path id="XMLID_25_" fill="#FFFFFF" d="M219.7,119.2c-8.5,0-15.5-7.4-15.5-16.3s6.9-16.3,15.5-16.3c8.5,0,15.4,7.4,15.4,16.3
		S228.2,119.2,219.7,119.2z M229.9,133.6l-20.8,18.9c0.2,1.5,0.4,3,0.4,4.6c0,16.1-12.3,29-27.5,29c-13.1,0-24-9.7-26.8-22.6
		l-51.5-18.5c-4.1,3.3-9.1,5.2-14.6,5.2c-13.3,0-24.2-11.5-24.2-25.6C65,110.5,75.8,99,89.2,99c11.5,0,21.1,8.5,23.6,19.8l49.7,17.8
		c4.8-5.2,11.5-8.4,19-8.6l7.4-23.9c0-0.5-0.1-1-0.1-1.5c0-18.1,13.8-32.7,31-32.7s31,14.7,31,32.7C250.7,117,242,129.2,229.9,133.6
		L229.9,133.6z M104.5,115.9c-2.9-5.5-8.4-9.2-14.8-9.2c-9.4,0-16.9,8-16.9,17.9s7.5,17.9,16.9,17.9c1.7,0,3.4-0.3,4.9-0.8l-8-2.9
		c-6.5-3.7-8.9-12.2-5.4-19.1s11.6-9.5,18.1-5.8L104.5,115.9L104.5,115.9z M219.7,125.8c12,0,21.8-10.3,21.8-23
		c0-8.9-4.8-16.6-11.8-20.4c-3-1.6-6.4-2.5-10-2.5c-12,0-21.8,10.3-21.8,23C197.9,115.6,207.7,125.8,219.7,125.8z M200.2,159.6
		c0-10.7-8.2-19.3-18.3-19.3c-1.5,0-2.8,0.2-4.2,0.5l10.3,3.7c6.5,3.7,8.9,12.2,5.4,19.1c-3.5,6.9-11.5,9.5-18.1,5.8l-11-4
		c2.3,7.9,9.3,13.6,17.5,13.6C192,178.9,200.2,170.2,200.2,159.6L200.2,159.6z"/>
</g>
</svg>
