<?xml version="1.0" encoding="utf-8"?>
<!-- Generator: Adobe Illustrator 22.0.0, SVG Export Plug-In . SVG Version: 6.00 Build 0)  -->
<svg version="1.2" baseProfile="tiny" xmlns="http://www.w3.org/2000/svg" xmlns:xlink="http://www.w3.org/1999/xlink" x="0px"
	 y="0px" viewBox="0 0 320 256" xml:space="preserve">
<g id="Guides">
</g>
<g id="Layer_2">
	<rect id="XMLID_1_" fill="#F3923C" width="320" height="256"/>
	<circle display="none" fill="#FF00E1" cx="160.5" cy="128.5" r="95.5"/>
	<g id="XMLID_7_">
		<g id="XMLID_8_">
			<path id="XMLID_13_" fill="#FFFFFF" d="M145.6,177.5c-4-9.2-6.3-19.2-6.6-29.1c-6.6,10.2-11.5,20.5-14.9,28
				c-0.3,0.4-0.3,0.7-0.4,1.1c-1.1,2.9-2.2,5.2-2.9,7.2c-0.9,2.2,0.3,5,2.7,5.9c1.8,0.7,4.3,1.5,7.2,2.7c0.4,0.3,0.7,0.3,1.1,0.4
				c7.9,2.7,18.7,5.6,30.4,7.7C155.3,194.6,149.7,186.5,145.6,177.5"/>
			<path id="XMLID_12_" fill="#FFFFFF" d="M161.4,103.2c-23-47.1-74.5-45.6-82.6-24.4c-6.3,16.2,20.9,54.8,83.7,26.8l0,0
				C162.3,105.5,161.6,103.7,161.4,103.2"/>
			<path id="XMLID_11_" fill="#FFFFFF" d="M172.3,100.1c-12.8-31.8,9.7-50.1,21.9-45.3c9.2,3.6,14.2,30.9-21.2,46.7l0,0
				C172.9,101.2,172.4,100.3,172.3,100.1"/>
			<path id="XMLID_10_" fill="#FFFFFF" d="M238.1,136c-5.4-12-15.1-20.8-26.6-24.8c-1.1-0.4-2.2-0.7-3.6-0.7c-5.9,0-11.7,5-12.1,11
				c-0.9,10.3,1.1,20.8,5.6,30.9c4.5,9.9,10.9,18.3,18.7,24.6c2.1,1.5,4.7,2.2,7.2,2.2c4.7,0,9.2-2.5,11-6.8
				C243.3,161.5,243.5,148.1,238.1,136"/>
			<path id="XMLID_9_" fill="#FFFFFF" d="M211.2,189c-9.9-7.7-17.8-17.8-23.3-30.3c-5.6-12.7-7.9-25.5-6.8-38.1
				c0.3-3.6,1.4-7,2.9-9.9c-0.3,0-0.7,0.3-0.9,0.3l0,0c-0.4,0.3-1.1,0.3-1.5,0.4c-3.4,0.9-6.8,2.5-9.7,4c-1.5,0.9-2.9,1.8-4.5,2.7
				c-7.7,5.2-14,14.2-14.9,23.7c-0.9,10.2,0.9,20.5,5.2,30.4c4.3,9.7,10.6,17.6,18.3,23.7c4.7,3.8,13.1,6.1,20.1,6.1
				c7.7,0,15.8-2.9,22.3-7c0,0,0.3,0,0.3-0.3c0.4-0.3,0.9-0.7,1.4-0.9c0.3-0.3,0.4-0.4,0.7-0.4C217.1,192.6,214,191.1,211.2,189"/>
		</g>
	</g>
</g>
</svg>
