<?xml version="1.0" encoding="utf-8"?>
<!-- Generator: Adobe Illustrator 24.2.1, SVG Export Plug-In . SVG Version: 6.00 Build 0)  -->
<svg version="1.2" baseProfile="tiny" xmlns="http://www.w3.org/2000/svg" xmlns:xlink="http://www.w3.org/1999/xlink" x="0px"
	 y="0px" viewBox="0 0 320 256" overflow="visible" xml:space="preserve">
<g id="Guides">
</g>
<g id="Layer_2">
	<rect id="XMLID_1_" width="320" height="256"/>
	<circle display="none" fill="#FF00E1" cx="160.5" cy="128.5" r="95.5"/>
	<g>
		<path fill="#FFFFFF" d="M242.5,84.8c-10.2,0-19.7-3.4-27.3-9.1c-8.7-6.6-14.9-16.2-17.1-27.3c-0.5-2.7-0.8-5.6-0.9-8.5H168v79.9
			l0,43.7c0,11.7-7.6,21.6-18.2,25.1c-3.1,1-6.4,1.5-9.8,1.3c-4.4-0.2-8.5-1.6-12.1-3.7c-7.6-4.6-12.8-12.8-12.9-22.3
			c-0.2-14.8,11.7-26.8,26.5-26.8c2.9,0,5.7,0.5,8.3,1.3v-21.8v-7.8c-2.8-0.4-5.6-0.6-8.4-0.6c-16.2,0-31.3,6.7-42.1,18.8
			c-8.2,9.2-13.1,20.8-13.8,33.1c-1,16.1,4.9,31.4,16.3,42.7c1.7,1.7,3.4,3.2,5.3,4.6c9.8,7.5,21.8,11.6,34.4,11.6
			c2.8,0,5.7-0.2,8.4-0.6c11.8-1.7,22.6-7.1,31.2-15.6c10.5-10.4,16.4-24.2,16.4-38.9l-0.2-65.3c5,3.9,10.5,7.1,16.4,9.6
			c9.2,3.9,18.9,5.8,28.9,5.8V92.7L242.5,84.8C242.6,84.8,242.5,84.8,242.5,84.8L242.5,84.8z"/>
	</g>
</g>
</svg>
