<?xml version="1.0" encoding="utf-8"?>
<!-- Generator: Adobe Illustrator 22.0.0, SVG Export Plug-In . SVG Version: 6.00 Build 0)  -->
<svg version="1.2" baseProfile="tiny" xmlns="http://www.w3.org/2000/svg" xmlns:xlink="http://www.w3.org/1999/xlink" x="0px"
	 y="0px" viewBox="0 0 320 256" xml:space="preserve">
<g id="Guides">
</g>
<g id="Layer_2">
	<rect id="XMLID_1_" fill="#314358" width="320" height="256"/>
	<circle display="none" fill="#FF00E1" cx="160.5" cy="128.5" r="95.5"/>
	<path fill="#FFFFFF" d="M126.3,109.1c-6.1,0-12.2,0-18.2,0c0-0.6-0.1-0.9-0.1-1.3c0-7,0-14,0-20.9c0-1.2,0-1.2,1.2-1.7
		c4.7-1.9,9.2-4.2,13.3-7.4c7.1-5.4,12.2-12.3,15.8-20.4c2.7-6.1,4.3-12.5,5.2-19.2c0.1-0.5,0.1-0.9,0.2-1.4
		c0.2-0.9,0.7-1.3,1.5-1.4c0.3,0,0.6,0,0.8,0c8,0,16.1,0,24.2,0c0.4,0,0.8,0,1.4,0c0,3.2,0,6.2,0,9.2s0,6.1,0,9.2s0,6.1,0,9.2
		c0,3,0,6.1,0,9.2c0,3,0,6.1,0,9.3c0.6,0,1,0,1.5,0c11,0,22.1,0,33.1,0c0.5,0,0.9,0,1.5,0c0,9.2,0,18.3,0,27.5
		c-12.1,0-24.2,0-36.2,0c0,0.5-0.1,0.8-0.1,1.2c0,18.3,0,36.5,0,54.8c0,3,0.4,5.9,1.5,8.8c2,5.2,5.8,8.1,11.1,9
		c3.6,0.6,7.1,0.3,10.7-0.3c2.9-0.6,5.8-1.2,8.7-2.5c0.2,0.4,0.3,0.8,0.5,1.1c2.6,7.9,5.3,15.8,8,23.8c0.3,0.8,0.1,1.4-0.5,2.1
		c-1.9,1.8-4.1,3-6.4,4.2c-5.9,2.7-12.3,4.4-18.9,5.1c-8.8,0.9-17.5,0.4-25.8-2.4c-16.3-5.2-26.9-16.1-32-32.4
		c-1.4-4.5-2.1-9.2-2.1-14.1c0-18.9,0-37.8,0-56.7C126.3,110.3,126.3,109.8,126.3,109.1z"/>
</g>
</svg>
