<?xml version="1.0" encoding="utf-8"?>
<!-- Generator: Adobe Illustrator 22.0.0, SVG Export Plug-In . SVG Version: 6.00 Build 0)  -->
<svg version="1.2" baseProfile="tiny" xmlns="http://www.w3.org/2000/svg" xmlns:xlink="http://www.w3.org/1999/xlink" x="0px"
	 y="0px" viewBox="0 0 320 256" xml:space="preserve">
<g id="Guides">
</g>
<g id="Layer_2">
	<rect id="XMLID_1_" fill="#55ACEE" width="320" height="256"/>
	<circle display="none" fill="#FF00E1" cx="160.5" cy="128.5" r="95.5"/>
	<path id="XMLID_6_" fill="#F9F9F9" d="M238,79.5c-5.8,2.5-11.9,4.3-18.4,5c6.6-4,11.7-10.2,14.1-17.7c-6.2,3.7-13,6.3-20.3,7.8
		c-5.9-6.3-14.1-10.1-23.4-10.1c-17.7,0-32,14.3-32,32c0,2.5,0.2,5,0.8,7.3c-26.6-1.4-50.1-14.1-65.9-33.5
		c-2.8,4.7-4.4,10.2-4.4,16.1c0,11.1,5.7,20.9,14.2,26.7c-5.3-0.2-10.2-1.6-14.5-4c0,0.2,0,0.2,0,0.4c0,15.5,11.1,28.4,25.7,31.4
		c-2.7,0.7-5.5,1.1-8.5,1.1c-2,0-4.1-0.2-6-0.6c4.1,12.7,15.9,21.9,29.9,22.3c-11,8.6-24.8,13.7-39.7,13.7c-2.6,0-5.1-0.2-7.6-0.5
		c14.1,9.1,31,14.4,49.1,14.4c58.9,0,91.1-48.7,91.1-91.1c0-1.4,0-2.8-0.1-4.1C228.3,91.6,233.7,86,238,79.5z"/>
</g>
</svg>
