<?xml version="1.0" encoding="utf-8"?>
<!-- Generator: Adobe Illustrator 22.0.0, SVG Export Plug-In . SVG Version: 6.00 Build 0)  -->
<svg version="1.2" baseProfile="tiny" xmlns="http://www.w3.org/2000/svg" xmlns:xlink="http://www.w3.org/1999/xlink" x="0px"
	 y="0px" viewBox="0 0 320 256" xml:space="preserve">
<g id="Guides">
</g>
<g id="Layer_2">
	<rect id="XMLID_1_" fill="#483D2B" width="320" height="256"/>
	<circle display="none" fill="#FF00E1" cx="160" cy="128" r="95.5"/>
	<g id="Logo">
		<g id="XMLID_6_">
			<path id="XMLID_279_" fill="#FFFFFF" d="M220.5,105.5c5.2,0,10.4-0.3,15.6,0.1c10,0.6,15.6,6.4,15.8,16.3
				c0.2,10.2,0.2,20.3-0.1,30.3c-0.2,6-3,10.8-8.8,13.2c-1.8,0.7-3.7,1.2-5.6,1.2c-7.4,0.1-14.6,0.2-21.9-0.2
				c-7.7-0.5-13.8-7-13.9-14.7c-0.1-5-0.2-10.1,0.5-14.9c0.9-6.5,6.5-11.5,13.1-11.8c9-0.4,17.9-0.3,26.8-0.3c4.1,0,4.1,0,3.7-4.2
				c-0.6-5.9-3.6-8.8-9.5-8.9c-10.4-0.2-20.7-0.1-31.1-0.1c-2.8,0-3.5-0.7-3.5-3.4c0-2.3,0.7-3.2,3.1-3.2 M230.7,131.3
				c-4.2,0-8.4,0-12.6,0c-0.2,0-0.4,0-0.6,0c-6.2,0.3-9.3,3.2-9.9,9.3c-0.3,3.5-0.1,7.1,0,10.5c0.2,6.4,4.8,9,9.2,9.1
				c7.1,0.3,14.2,0.3,21.1,0c4.4-0.1,7.3-3,7.5-7.4c0.3-6.7,0.2-13.4,0.4-20.1c0-1.3-0.7-1.5-1.8-1.5
				C239.7,131.3,235.2,131.3,230.7,131.3z"/>
			<path id="XMLID_276_" fill="#FFFFFF" d="M179.6,105.2c0-5.2,0-10.1,0-15c0-2.7,0.9-3.5,3.6-3.4c1.7,0.1,2.6,0.9,2.5,2.7
				c0,0.4,0,0.8,0,1.2c0,19.4,0,38.6,0,58c0,2-0.2,3.9-0.6,5.8c-1.6,7.1-6.9,11.8-14.4,12c-7.6,0.3-15.2,0.3-22.7,0
				c-7.1-0.3-13.1-6.6-13.3-14.1c-0.3-9.2-0.1-18.5-0.1-27.5c0-2,0-3.9,0.3-5.8c1.4-7.8,7.1-13.1,15.1-13.5
				c8.8-0.4,17.4-0.3,26.1-0.4C177.3,105.2,178.2,105.2,179.6,105.2z M179.6,111.9c-10.1,0-19.7-0.2-29.3,0.1c-4.8,0.1-9,4-9.1,8.9
				c-0.4,10.6-0.3,21.1,0,31.7c0.2,4.7,2.6,7.1,7.2,7.5c6.9,0.6,13.9,0.8,20.7,0.3c7.6-0.7,10.5-4.8,10.5-12.5c0-11.1,0-22.1,0-33.1
				C179.6,113.7,179.6,112.8,179.6,111.9z"/>
			<path id="XMLID_275_" fill="#FFFFFF" d="M98.8,130.8c3.6-4.8,7-9.2,10.4-13.7c2.6-3.5,5.3-7.1,7.9-10.5c0.9-1.2,4.7-2,6.1-1.2
				c1.1,0.7,1.3,2.2,0.4,3.5c-5.8,7.6-11.6,15-17.3,22.5c-0.7,0.8-1.2,1.9-2,2.5c-1.7,1.6-1.2,2.8,0.1,4.4
				c6.6,8.3,13.1,16.7,19.6,25c0.5,0.6,0.7,1.7,0.4,2.2c-0.4,0.7-1.3,1.1-2.1,1.3c-2.5,0.6-4.2-0.6-5.8-2.7
				c-5.2-7.1-10.7-14-16.1-20.9c-0.5-0.6-0.9-1.1-1.6-1.9c-1.5,2-3,3.7-4.4,5.5c-4.8,6.2-9.7,12.4-14.5,18.7c-1,1.3-4.6,2.1-6,1.3
				c-1.1-0.7-1.4-2.1-0.5-3.4c6.5-8.3,13-16.6,19.6-24.7c1.4-1.8,1.6-2.9,0.1-4.8c-6.5-8.3-12.9-16.7-19.2-25
				c-0.5-0.6-0.7-1.8-0.5-2.4c0.3-0.7,1.4-1,2.1-1.2c2.4-0.5,4,0.6,5.5,2.5c5.4,7.1,10.8,14.1,16.1,21.1
				C97.7,129.4,98.2,130,98.8,130.8z"/>
		</g>
	</g>
</g>
</svg>
