<?xml version="1.0" encoding="utf-8"?>
<!-- Generator: Adobe Illustrator 22.0.0, SVG Export Plug-In . SVG Version: 6.00 Build 0)  -->
<svg version="1.2" baseProfile="tiny" xmlns="http://www.w3.org/2000/svg" xmlns:xlink="http://www.w3.org/1999/xlink" x="0px"
	 y="0px" viewBox="0 0 320 256" xml:space="preserve">
<g id="Guides">
</g>
<g id="Layer_2">
	<rect id="XMLID_1_" fill="#B4282E" width="320" height="256"/>
	<circle display="none" fill="#FF00E1" cx="160" cy="128" r="95.5"/>
	<g id="Social">
		<g id="Yelp_2_">
			<path id="XMLID_12_" fill="#FFFFFF" d="M156.7,37.8c4.6,4.6,2.3,63.3,2.3,69.5s-3.8,10-9.2,9.2c-5.4-0.8-47.3-58-46.5-63.3
				c0-4.6,13-10.7,23.6-14.4C132.2,37.8,152.1,34,156.7,37.8z M195.5,131.6c9.2-1.5,39.7-7.7,40.5-15.2c0.8-7.7-17.5-34.4-25.2-34.4
				c-4.6,0-37.4,39.7-32.1,47.3C181.8,133.9,185.6,133.2,195.5,131.6z M142.1,140.1c0-5.4-16-12.2-16-12.2s-29-13-34.4-12.2
				c-5.4,0.8-7.7,14.4-7.7,24.4c-1.5,28.2,12.2,21.3,12.2,21.3s29-9.2,34.4-11.5C136,147.7,142.1,144.6,142.1,140.1z M152.1,160.6
				c-6.9-0.8-14.4,11.5-18.3,16c-3.8,4.5-19.8,21.3-20.6,25.2c0,4.6,8.4,9.2,20.6,13.8c12.2,4.6,25.2,7.7,25.9-2.3
				c0.8-9.2,0-35.9,0-38.9C159.7,171.3,159.7,161.4,152.1,160.6z M226.8,164.5c-6.1-2.3-40.5-17.5-45.7-10.7
				c-3.8,3.8-1.5,10.7,2.3,17.5c3.8,6.1,18.3,28.2,18.3,28.2s2.3,6.1,6.9,6.1c4.6,0,13.7-8.3,17.5-14.4c4.6-6.1,9.2-13.8,9.2-18.3
				C236,167.5,232.9,166.8,226.8,164.5z"/>
		</g>
	</g>
</g>
</svg>
