<?xml version="1.0" encoding="utf-8"?>
<!-- Generator: Adobe Illustrator 19.0.0, SVG Export Plug-In . SVG Version: 6.00 Build 0)  -->
<svg version="1.1" xmlns="http://www.w3.org/2000/svg" xmlns:xlink="http://www.w3.org/1999/xlink" x="0px" y="0px"
	 viewBox="0 0 320 256" style="enable-background:new 0 0 320 256;" xml:space="preserve">
<style type="text/css">
	.st0{fill:#B4282E;}
	.st1{fill:#FFFFFF;}
</style>
<g id="Guides">
</g>
<g id="Layer_2">
	<rect id="XMLID_1_" class="st0" width="320" height="256"/>
	<g id="Social">
		<g id="Yelp_2_">
			<path id="XMLID_12_" class="st1" d="M156.5,33.7c4.8,4.8,2.4,66.2,2.4,72.6c0,6.4-4,10.4-9.6,9.6c-5.6-0.8-49.4-60.6-48.6-66.2
				c0-4.8,13.6-11.2,24.7-15.1C130.9,33.7,151.7,29.8,156.5,33.7z M197.1,131.8c9.6-1.6,41.5-8,42.3-15.9c0.8-8-18.3-35.9-26.3-35.9
				c-4.8,0-39.1,41.5-33.5,49.4C182.8,134.2,186.8,133.4,197.1,131.8z M141.3,140.6c0-5.6-16.7-12.8-16.7-12.8s-30.3-13.6-35.9-12.8
				c-5.6,0.8-8,15.1-8,25.5c-1.6,29.5,12.8,22.3,12.8,22.3s30.3-9.6,35.9-12C134.9,148.6,141.3,145.4,141.3,140.6z M151.7,162.1
				c-7.2-0.8-15.1,12-19.1,16.7s-20.7,22.3-21.5,26.3c0,4.8,8.8,9.6,21.5,14.4c12.8,4.8,26.3,8,27.1-2.4c0.8-9.6,0-37.5,0-40.7
				C159.7,173.3,159.7,162.9,151.7,162.1z M229.8,166.1c-6.4-2.4-42.3-18.3-47.8-11.2c-4,4-1.6,11.2,2.4,18.3
				c4,6.4,19.1,29.5,19.1,29.5s2.4,6.4,7.2,6.4S225,200.4,229,194c4.8-6.4,9.6-14.4,9.6-19.1C239.4,169.3,236.2,168.5,229.8,166.1z"
				/>
		</g>
	</g>
</g>
</svg>
