<?xml version="1.0" encoding="utf-8"?>
<!-- Generator: Adobe Illustrator 22.0.0, SVG Export Plug-In . SVG Version: 6.00 Build 0)  -->
<svg version="1.2" baseProfile="tiny" xmlns="http://www.w3.org/2000/svg" xmlns:xlink="http://www.w3.org/1999/xlink" x="0px"
	 y="0px" viewBox="0 0 320 256" xml:space="preserve">
<g id="Guides">
</g>
<g id="Layer_2">
	<rect id="XMLID_1_" fill="#E02F2F" width="320" height="256"/>
	<circle display="none" fill="#FF00E1" cx="160" cy="128" r="95.5"/>
	<g id="XMLID_9_">
		<path id="XMLID_7_" fill="#FFFFFF" d="M244.4,91.3c0,0-1.7-12.6-6.8-18.2c-6.5-7.3-13.9-7.3-17.2-7.8c-24.2-1.9-60.3-1.9-60.3-1.9
			l0,0c0,0-36.1,0-60.2,1.9c-3.4,0.4-10.7,0.4-17.2,7.8c-5.1,5.6-6.8,18.2-6.8,18.2S74,106.1,74,121v13.9c0,14.9,1.7,29.7,1.7,29.7
			s1.7,12.6,6.8,18.2c6.5,7.3,15.1,7.1,19,7.9c13.8,1.4,58.5,1.9,58.5,1.9s36.1-0.1,60.2-1.9c3.4-0.4,10.7-0.4,17.2-7.8
			c5.1-5.6,6.8-18.2,6.8-18.2s1.7-14.9,1.7-29.7v-13.9C246.1,106.1,244.4,91.3,244.4,91.3z"/>
		<polygon id="XMLID_6_" fill="#E02F2F" points="138.5,95.7 138.5,160.3 192.3,128 		"/>
	</g>
</g>
</svg>
