<?xml version="1.0" encoding="utf-8"?>
<!-- Generator: Adobe Illustrator 19.0.0, SVG Export Plug-In . SVG Version: 6.00 Build 0)  -->
<svg version="1.1" xmlns="http://www.w3.org/2000/svg" xmlns:xlink="http://www.w3.org/1999/xlink" x="0px" y="0px"
	 viewBox="0 0 320 256" style="enable-background:new 0 0 320 256;" xml:space="preserve">
<style type="text/css">
	.st0{fill:#2A3145;}
	.st1{fill:#FFFFFF;}
</style>
<g id="Guides">
</g>
<g id="Layer_2">
	<rect id="XMLID_1_" class="st0" width="320" height="256"/>
	<path id="XMLID_76_" class="st1" d="M172.7,189.2c6.6,12.2,13.8,24,23.2,34.5c-0.7-0.2-1.2-0.4-1.7-0.6c-2.3-1-4-2.6-5.7-4.4
		c-5.3-5.4-9.7-11.4-14-17.7c-1.8-2.7-3.6-5.4-5.3-8.2c-0.1-0.2-0.3-0.4-0.4-0.7c-0.3,0.2-0.6,0.4-0.9,0.6c-4.4,2.8-9.1,5-14,6.6
		c-3.2,1-6.5,1.6-9.8,1.4c-2.5-0.1-4.9-0.8-6.7-2.7c-2.1-2.2-2.6-4.8-2-7.7c0.6-3.1,1.6-6.1,3.2-8.9c-0.2,0.1-0.4,0.2-0.6,0.3
		c-5.3,2.8-10.9,5.1-16.8,6.6c-3.6,0.9-7.3,1.4-11.1,1c-3.4-0.3-6.7-1.3-9.3-3.7c-2.3-2.2-3.6-4.9-4-8c-0.5-3.9,0-7.7,0.9-11.5
		c1.4-6.4,3.9-12.5,6.7-18.4c3.1-6.6,6.8-12.9,10.8-19c0.3-0.4,0.2-0.7,0-1.1c-3-7.2-5.6-14.5-7.5-22.1c-0.9-3.6-1.6-7.3-1.9-11.1
		c0-0.3-0.1-0.5-0.1-0.9c-13.9-0.9-27.7,0-41.3,2.9c0-0.1-0.1-0.1-0.1-0.2c0.5-0.4,0.9-0.9,1.4-1.3c2-1.8,4.5-2.2,7-2.8
		c6.2-1.4,12.5-2.4,18.8-3c4.3-0.4,8.5-0.5,12.8-0.7c0.3,0,0.6,0,1,0c0-0.7,0-1.4,0-2c0.1-4.9,0.4-9.8,1.5-14.6
		c0.7-3.4,1.8-6.7,3.8-9.6c2-2.8,4.6-4.4,8.2-4.1c2,0.2,3.7,1.2,5.2,2.5c2.1,1.8,3.8,4,5.2,6.4c0.2,0.3,0.4,0.7,0.7,1
		c0-0.3,0-0.6,0-0.8c0.2-5.8,0.9-11.6,2.4-17.3c1-3.6,2.2-7.1,4.2-10.3c1.6-2.6,3.6-4.7,6.4-6c3-1.4,6.2-1.6,9.4-0.6
		c4,1.2,7.3,3.5,10.4,6.3c4.8,4.3,8.7,9.3,12.4,14.5c4.5,6.4,8.3,13.1,11.8,20.1c0.2,0.4,0.4,0.5,0.9,0.6
		c10.7,1.3,21.2,3.4,31.3,7.4c0.9,0.3,1.8,0.7,2.6,1.1c0.6,0.3,0.9,0.1,1.2-0.4c0.8-1.3,1.6-2.5,2.3-3.8c4.4-7.6,8.4-15.3,11.9-23.4
		c1.2-2.9,2.4-5.8,3-8.9c0-0.1,0.1-0.2,0.2-0.3c0.1,0.7,0.3,1.3,0.4,2c0.1,2-0.1,4-0.7,5.9c-2.7,8.4-5.7,16.6-9.8,24.4
		c-1.1,2.2-2.2,4.5-3.3,6.7c0.2,0.1,0.4,0.3,0.7,0.4c4.8,2.8,9.4,5.9,13.4,9.8c2.4,2.4,4.6,4.9,5.9,8.1c0.5,1.3,0.9,2.7,1,4.1
		c0.3,3.1-1.2,5.4-3.9,6.8c-2.5,1.3-5.2,1.9-7.9,2.1c-1.2,0.1-2.4,0.1-3.6,0.2c0.2,0.1,0.3,0.3,0.5,0.4c5.5,3.5,10.6,7.4,14.9,12.2
		c2.8,3,5.2,6.2,6.6,10.1c1.1,3,1.6,6.1,0.6,9.2c-0.9,2.9-2.8,5-5.2,6.7c-3.3,2.4-7.1,3.8-11,5c-4.9,1.4-10,2.2-15.1,2.7
		c-8.2,0.9-16.5,0.6-24.8,0.5c-0.7,0-1.1,0.2-1.6,0.8c-4.4,6-9.2,11.6-14.5,16.7c-2.9,2.8-6,5.5-9.5,7.7
		C173.1,188.9,172.9,189.1,172.7,189.2z M132.3,97.8c-5,6.5-7.1,13.9-7.5,21.9c-0.1-0.2-0.2-0.2-0.2-0.3c-0.1-0.2-0.2-0.4-0.2-0.7
		c-0.5-3.5-0.7-7.1,0.1-10.6c0.9-4.1,2.6-8,4.5-11.8c0.2-0.3,0.3-0.6,0.5-0.9c-4.9-0.5-9.7-0.9-14.5-1.4c0,0.2,0,0.3,0,0.5
		c0.4,3.2,0.7,6.5,1.3,9.7c1.4,8.5,3.6,16.7,6.8,24.7c2.7,6.8,6.1,13.3,10.7,19.1c3.8,4.8,8.2,8.9,13.6,12c0.4,0.2,0.6,0.2,1,0
		c1.3-0.8,2.7-1.6,4-2.5c7.4-4.7,14.2-10.2,20.7-16c8-7.1,15.6-14.6,22.7-22.6c0.6-0.7,1.2-1.3,1.8-2.1c2.1,1.5,4.2,3.1,6.3,4.6
		c-11.9,16.1-26,29.8-40.9,42.9c7.9,0.7,15.2-1.1,22.2-4c-6.5,5.9-14.5,7.1-22.9,7.2c1.9,4.5,4,8.9,6.4,13.1
		c0.6-0.4,1.1-0.7,1.7-1.1c7.2-5,13.7-10.7,19.6-17.2c6-6.6,11.2-13.8,14.8-22c2.9-6.4,4.5-13,4.7-20.1c0-0.4-0.1-0.6-0.5-0.8
		c-5-2.8-10.1-5.2-15.3-7.4c-14.8-6.1-30-10.6-45.7-13.8c-0.5-0.1-0.8-0.3-0.7-0.9s0-1.2,0.1-1.8c0.1-1.7,0.3-3.4,0.5-5.2
		c19.8,2.9,39.1,7.3,57.8,14.3c-3.2-7.4-8.6-12.7-14.7-17.4c2,0.4,3.8,1.3,5.5,2.4c3.9,2.5,6.9,5.8,9.6,9.5c0.9,1.3,1.8,2.6,2.7,3.9
		c2.8-3.9,5.6-7.8,8.4-11.7c-0.5-0.2-0.8-0.4-1.2-0.6c-9-4.2-18.4-7.2-28.1-9.1c-4.7-0.9-9.4-1.5-14.2-1.7c-4-0.2-8-0.2-12,0.4
		c-6.2,1-12,2.9-17.6,5.8c-0.5,0.2-0.6,0.5-0.6,1c0.2,3.6,0.2,7.2,0.5,10.8c0.5,6.9,1.8,13.8,3.2,20.6c2.2,10.3,5,20.5,8.2,30.5
		c0.3,0.8,0.5,1.6,0.8,2.4c-2.3,1-4.6,2-6.9,3c-0.1-0.2-0.2-0.3-0.2-0.4c-2.2-4.5-4.1-9.1-5.7-13.8c-4.4-12.6-7.5-25.5-10-38.5
		C132.8,100.5,132.6,99.2,132.3,97.8z M143.3,81.5c5.4-3.1,11-5.1,16.9-6.3c5.9-1.2,11.9-1.6,18-1.3c-0.2-0.3-0.3-0.5-0.4-0.6
		c-2.3-3.2-4.4-6.4-6.8-9.5c-2.4-3.1-5.1-5.9-8.3-8.1c-4.2-3-8.2-2.7-11.8,1c-2.2,2.2-3.5,4.9-4.6,7.8c-1.5,4.1-2.3,8.3-2.7,12.6
		C143.5,78.5,143.4,79.9,143.3,81.5z M143.1,162.6c-11-6.1-18.2-15.4-24-26.1c-0.1,0.1-0.1,0.2-0.2,0.3c-2.3,4.2-4.2,8.6-5.7,13.1
		c-1.2,3.6-2.1,7.3-1.8,11.2c0.3,3.9,2.7,6.7,6.5,7.5c2.9,0.6,5.8,0.4,8.8,0.1c5-0.6,9.6-2.3,14-4.7
		C141.4,163.5,142.2,163,143.1,162.6z M213.7,122c-0.1,12.6-4.1,23.8-11,34.1c0.3,0,0.4,0,0.6,0c5.3-0.1,10.5-0.6,15.7-1.8
		c3.2-0.8,6.3-1.8,9-3.6c3.2-2.2,4.3-5.2,3.5-8.9c-0.7-2.9-2.2-5.4-4.1-7.7c-3.2-4-7.1-7.3-11.3-10.3
		C215.4,123.2,214.6,122.6,213.7,122z M115,88.4c5.3,0.2,10.5,0.4,15.7,0.6c0-0.3,0-0.6,0-0.8c-0.3-3.7-0.6-7.3-0.9-11
		c0-0.4,0-0.8-0.2-1.2c-0.7-1.8-1.8-3.4-3.3-4.6c-2-1.7-3.8-1.7-5.9-0.1c-0.4,0.3-0.9,0.7-1.2,1.2c-1.6,1.9-2.5,4.1-3.1,6.4
		C115.3,81.9,115,85.1,115,88.4z M163.5,183.7c-2.5-4.7-5-9.3-7.5-13.9c-0.1,0-0.2,0-0.2,0.1c-3.4,2.4-6.9,4.8-10.3,7.2
		c-0.2,0.2-0.5,0.4-0.6,0.6c-0.6,1.2-1.2,2.3-1.6,3.5c-0.3,0.9-0.4,1.9-0.3,2.7c0.3,2.2,2.3,3.8,4.8,4.1c2,0.3,4,0.1,5.9-0.4
		C157.2,186.8,160.3,185.4,163.5,183.7z M213.5,107.6c0.2,0.1,0.4,0.2,0.5,0.3c3.3,1.6,6.6,3.1,9.8,4.7c0.9,0.5,1.8,0.7,2.8,0.5
		c0.8-0.1,1.6-0.1,2.4-0.2c4.3-0.3,5.5-3.7,4.7-6.7c-0.5-1.8-1.5-3.2-2.6-4.6c-2.6-3-5.7-5.3-9-7.4c-0.1,0-0.2-0.1-0.2-0.1
		C219.1,98.7,216.3,103.1,213.5,107.6z"/>
</g>
</svg>
