<?xml version="1.0" encoding="utf-8"?>
<!-- Generator: Adobe Illustrator 19.0.0, SVG Export Plug-In . SVG Version: 6.00 Build 0)  -->
<svg version="1.1" xmlns="http://www.w3.org/2000/svg" xmlns:xlink="http://www.w3.org/1999/xlink" x="0px" y="0px"
	 viewBox="0 0 320 256" style="enable-background:new 0 0 320 256;" xml:space="preserve">
<style type="text/css">
	.st0{fill:#FF4500;}
	.st1{fill:#FFFFFF;}
</style>
<g id="Guides">
</g>
<g id="Layer_2">
	<rect id="XMLID_1_" class="st0" width="320" height="256"/>
	<g>
		<g>
			<path class="st1" d="M256,129.2c0-12.2-9.9-22.1-22.1-22.1c-5.4,0-10.5,2-14.6,5.5c-14.6-9.4-34.1-15.3-55.7-15.9l13.2-45.1
				l32.3,6c0,0.3-0.1,0.5,0,0.8c0.4,7.7,7,13.6,14.7,13.2c7.7-0.4,13.6-7,13.2-14.7c-0.4-7.7-7-13.6-14.7-13.2
				c-5,0.3-9.2,3.1-11.4,7.2c0,0,0,0,0,0l-39-7.2l-15.5,53c-21.6,0.6-41.2,6.4-55.8,15.8c-4-3.5-9.1-5.4-14.4-5.4
				c-12.2,0-22.1,9.9-22.1,22.1c0,7.5,3.9,14.5,10.2,18.6c-0.4,2.2-0.6,4.4-0.6,6.7c0,31.9,38.7,57.9,86.3,57.9s86.3-26,86.3-57.9
				c0-2.2-0.2-4.4-0.6-6.5C252,143.9,256,136.8,256,129.2z M118.8,144.2c0-7.5,6.1-13.6,13.6-13.6c7.5,0,13.6,6.1,13.6,13.6
				c0,7.5-6.1,13.6-13.6,13.6C124.9,157.8,118.8,151.7,118.8,144.2z M191.9,181c-0.4,0.4-10.2,10.3-32.2,10.3
				c-22.2,0-31-10.1-31.4-10.5c-1.2-1.5-1.1-3.7,0.4-4.9c1.5-1.2,3.6-1.1,4.9,0.4c0.2,0.2,7.6,8.1,26.1,8.1
				c18.8,0,27.1-8.1,27.2-8.2c1.3-1.4,3.5-1.4,4.9-0.1C193.1,177.4,193.2,179.6,191.9,181z M189.2,157.8c-7.5,0-13.6-6.1-13.6-13.6
				c0-7.5,6.1-13.6,13.6-13.6c7.5,0,13.6,6.1,13.6,13.6C202.8,151.7,196.7,157.8,189.2,157.8z"/>
		</g>
	</g>
</g>
</svg>
