<?xml version="1.0" encoding="utf-8"?>
<!-- Generator: Adobe Illustrator 19.0.0, SVG Export Plug-In . SVG Version: 6.00 Build 0)  -->
<svg version="1.1" xmlns="http://www.w3.org/2000/svg" xmlns:xlink="http://www.w3.org/1999/xlink" x="0px" y="0px"
	 viewBox="0 0 320 256" style="enable-background:new 0 0 320 256;" xml:space="preserve">
<style type="text/css">
	.st0{fill:#262626;}
	.st1{fill:#FFFFFF;}
</style>
<g id="Guides">
</g>
<g id="Layer_2">
	<rect id="XMLID_1_" class="st0" width="320" height="256"/>
	<path id="XMLID_25_" class="st1" d="M223.9,118.9c-8.8,0-16-7.6-16-16.9s7.1-16.9,16-16.9c8.8,0,15.9,7.6,15.9,16.9
		S232.7,118.9,223.9,118.9z M234.5,133.8L213,153.3c0.2,1.6,0.4,3.1,0.4,4.8c0,16.6-12.7,30-28.4,30c-13.5,0-24.8-10-27.7-23.4
		l-53.2-19.1c-4.2,3.4-9.4,5.4-15.1,5.4c-13.8,0-25-11.9-25-26.5C64,109.9,75.2,98,89,98c11.9,0,21.8,8.8,24.4,20.5l51.4,18.4
		c5-5.4,11.9-8.7,19.6-8.9l7.7-24.7c0-0.5-0.1-1-0.1-1.5c0-18.7,14.3-33.8,32-33.8c17.7,0,32,15.2,32,33.8
		C256,116.6,247,129.2,234.5,133.8L234.5,133.8z M104.8,115.4c-3-5.7-8.7-9.5-15.3-9.5c-9.7,0-17.5,8.3-17.5,18.5
		s7.8,18.5,17.5,18.5c1.8,0,3.5-0.3,5.1-0.8l-8.3-3c-6.7-3.8-9.2-12.6-5.6-19.7c3.6-7.1,12-9.8,18.7-6L104.8,115.4L104.8,115.4z
		 M223.9,125.7c12.4,0,22.5-10.6,22.5-23.8c0-9.2-5-17.2-12.2-21.1c-3.1-1.7-6.6-2.6-10.3-2.6c-12.4,0-22.5,10.6-22.5,23.8
		C201.4,115.1,211.5,125.7,223.9,125.7z M203.8,160.6c0-11.1-8.5-20-18.9-20c-1.5,0-2.9,0.2-4.3,0.5l10.6,3.8
		c6.7,3.8,9.2,12.6,5.6,19.7c-3.6,7.1-11.9,9.8-18.7,6l-11.4-4.1c2.4,8.2,9.6,14.1,18.1,14.1C195.3,180.6,203.8,171.6,203.8,160.6
		L203.8,160.6z"/>
</g>
</svg>
