<?xml version="1.0" encoding="utf-8"?>
<!-- Generator: Adobe Illustrator 19.0.0, SVG Export Plug-In . SVG Version: 6.00 Build 0)  -->
<svg version="1.1" xmlns="http://www.w3.org/2000/svg" xmlns:xlink="http://www.w3.org/1999/xlink" x="0px" y="0px"
	 viewBox="0 0 320 256" style="enable-background:new 0 0 320 256;" xml:space="preserve">
<style type="text/css">
	.st0{fill:#E02F2F;}
	.st1{fill:#FFFFFF;}
</style>
<g id="Guides">
</g>
<g id="Layer_2">
	<rect id="XMLID_1_" class="st0" width="320" height="256"/>
	<g id="XMLID_9_">
		<path id="XMLID_7_" class="st1" d="M254.1,87.1c0,0-1.9-14.1-7.6-20.3c-7.3-8.2-15.5-8.2-19.2-8.7C200.3,56,160,56,160,56H160
			c0,0-40.3,0-67.2,2.1c-3.8,0.5-11.9,0.5-19.2,8.7c-5.7,6.2-7.6,20.3-7.6,20.3S64,103.6,64,120.2v15.5c0,16.6,1.9,33.1,1.9,33.1
			s1.9,14.1,7.6,20.3c7.3,8.2,16.9,7.9,21.2,8.8c15.4,1.6,65.3,2.1,65.3,2.1s40.3-0.1,67.2-2.1c3.8-0.5,11.9-0.5,19.2-8.7
			c5.7-6.2,7.6-20.3,7.6-20.3s1.9-16.6,1.9-33.1v-15.5C256,103.6,254.1,87.1,254.1,87.1z"/>
		<polygon id="XMLID_6_" class="st0" points="136,92 136,164 196,128 		"/>
	</g>
</g>
</svg>
