<?xml version="1.0" encoding="utf-8"?>
<!-- Generator: Adobe Illustrator 19.0.0, SVG Export Plug-In . SVG Version: 6.00 Build 0)  -->
<svg version="1.1" id="Layer_1" xmlns="http://www.w3.org/2000/svg" xmlns:xlink="http://www.w3.org/1999/xlink" x="0px" y="0px"
	 viewBox="0 0 970.5 970.9" style="enable-background:new 0 0 970.5 970.9;" xml:space="preserve">
<style type="text/css">
	.st0{fill:#44848A;}
	.st1{fill:#448489;}
	.st2{fill:#D0BAD2;}
	.st3{fill:#324787;}
	.st4{fill:#1C151D;}
	.st5{fill:#34180C;}
	.st6{fill:#950056;}
	.st7{fill:#16151D;}
	.st8{fill:#4AB299;}
	.st9{fill:#900255;}
	.st10{fill:#1A151D;}
	.st11{fill:#D1E283;}
	.st12{fill:#141613;}
	.st13{fill:#950112;}
	.st14{fill:#1A2A34;}
	.st15{fill:#501423;}
	.st16{fill:#878592;}
	.st17{fill:#18160B;}
	.st18{fill:#D4C00E;}
	.st19{fill:#D8C006;}
	.st20{fill:#458388;}
	.st21{fill:#CAB71F;}
	.st22{fill:#C1B13A;}
	.st23{fill:#B75E7D;}
	.st24{fill:#45B498;}
	.st25{fill:#868593;}
	.st26{fill:#BB0628;}
</style>
<g>
	<g>
		<path class="st0" d="M-1.1,752.1c0-143.9,0-287.9,0-431.8c22.1-0.2,44.1-0.1,66.2-0.6c5.4-0.1,9.8,1.1,13.9,4.4l-0.2-0.1
			c1.5,3.6,2.8,7.5,7.7,7.7l-0.1-0.1c1.2,5.6,4.1,9.6,9.6,11.5l-0.1-0.1c0.1,2,1.2,2.6,3,2c0.4,0.1,0.7,0.4,0.8,0.8
			c-1.8,4.6,2.5,6.6,4.2,9.7c3.3,6,10.5,9.6,10.9,17.3c0.3,5.8,3,10.6,6.5,14.4c17.9,19.2,36.6,37.6,56.1,55.1
			c0.7,0.7,1.4,1.4,2,2.2c0.2,0.5,0.5,0.7,1.1,0.8c0.6,0.5,1.1,1.1,1.7,1.6c9.2,9.1,18.2,18.4,27.7,27.2c10.4,9.6,22.5,8.8,34.6,4.1
			c4.4-1.7,8.5-4.3,12.2-7.3c4.2-3.4,6.8-2.7,10.1,1.3c14.1,16.8,30.8,30.1,52.1,36.4c5.4,1.6,5.1,3.7,2.5,7.9
			c-15.9,26-27,54.2-36.8,83c-9.7,28.5-10.3,58.4-13.8,87.8c-1.1,9.6-0.5,19.5,4,28.6c0.9,2.7,1.8,5.4,2.7,8.1
			c2.9,8.3,6.1,16.4,11,23.7c1.1,1.6,0.4,2.9-0.7,4.2c-4.4,0-8.7,0-13.1,0c-3.9-1.4-7.8-1.4-11.7,0c-3.1,0.1-6.2,0.1-9.4,0.2
			c-0.6-0.1-1.2,0-1.8,0.3c-2,0.1-3.9,0.2-5.9,0.3c-24.1-0.4-48.1-1.6-72.2-0.3c-2.6,0-5.1,0-7.7,0c-10.1,0-20.2,0-30.3,0
			C90.3,752.2,44.6,752.2-1.1,752.1z"/>
		<path class="st0" d="M468.8,972.8c-154.1,0-308.2-0.1-462.3,0.2c-6.5,0-7.8-1.3-7.8-7.8C-1,898-1.1,830.8-1.1,763.5
			c38.1,0,76.1,0,114.2,0c1.2,0.9,2.5,0.9,3.7,0c21.6,0,43.2,0,64.7,0c1.9,1,3.8,1,5.7,0c7.6,0,15.2,0.1,22.8,0.1
			c8.9,1.7,17.7,1.4,26.6-0.1c8.3,0,16.5,0,24.8,0c3.9,1.8,8.1,1.5,12.1,1c15.9-1.7,30,0.1,37.6,16.8c0.6,1.3,2.2,2.2,3.4,3.2
			c3.3,7.5,9.5,12.5,15.3,17.8c0.2,0.4,0.5,0.6,0.9,0.6c1.5,2.6,3.6,4.4,6.7,4.8l0.6,0.1l0.3-0.5c1,0.6,2,1.3,2.9,1.9
			c1.3,0.5,2.7,0.9,4,1.4c7.3,2.9,15.1,2,22.7,2.1c2.2,1,5-0.6,7.3,2c-6.5,9-16.2,14.5-23.5,22.5c-5.6,2.2-11.5,3.8-16.7,6.6
			c-9.4,5.1-13.6,14-11.2,22.8c2.5,9.3,11.8,14.8,13.8,24.5c0.1,0.6,2.2,0.9,3.4,1.3c11.5,7.7,21.9,6.8,29.3-2.6
			c3.4-3.6,6.1-0.2,9.2,0.8c5.1,1.7,10.8,4.5,14.1-3.1c2.9-3.5,5.3-7.3,5.3-12.1c4.9-8.8-3.2-16.3-2.5-24.8l-0.3-0.1
			c3.3-1.5,3.6-4.8,4.9-7.6c3.4-7.4,5.6-15.9,14.8-18.9c15.7,3.2,30.8,9.1,47,9.9c0.5,2.4,1.3,4.9,1.4,7.3
			c1.1,22.4,2.5,44.7,3.1,67.1C467.6,930,470.6,951.3,468.8,972.8z"/>
		<path class="st0" d="M972.9,324.1c0,143.3,0,286.6,0,429.9c-4.5-2.2-9.3-1.3-14-1.3c-60.7-0.1-121.4-0.2-182.1-0.3
			c-0.2-0.7-0.3-1.5-0.5-2.2c0.1-1.3,0.2-2.6,0.3-3.9c0.1-5.2,1.5-10.5-1.8-15.3c-2.5-4-1.3-7,1.2-10.9c9.3-14.1,8.5-20.1-2.4-26.7
			c0.6-1.4,1.3-2.8,1.9-4.1l0.2-0.1c4.7-4.4,4-10.5,4.5-16c1.1-11.2,0.7-11.6-10.4-9.2c-4.6,1-7.4,1.4-6.6-4.9
			c3.4-26.8,3-53.7,1.2-80.6c-0.4-6.7,2-8.8,8.3-5.9c11.2,8.3,24,14,36.4,20.1c-0.2,12.3,3.1,14.6,15.5,10.7
			c7.6,0.2,15.2,0.4,22.7,0.6c0.6-0.1,1.2-0.2,1.8-0.3c0.4-0.3,0.8-0.4,1.3-0.3c9.2,2.3,11.4-5.3,14.1-10.8
			c3.3-6.7,2.6-14.2,0.5-21.2c-0.9-2.8-4.2-1.8-6.4,0.1c-8,1.5-15.1-0.4-22.3-5.3c3.1-1.3,5.5-2.1,7.7-3.3c5-2.6,4.2-5.5,0.1-8.3
			c-0.1-0.1-0.7,0.5-0.9,0.9c-0.1,0.1,0.3,0.5,0.4,0.8c-2.8,0.3-5.6,0.2-8.3,0.8c-12.5,2.7-24.5,1.7-35.7-4.8
			c-0.6-1-1.3-2.1-1.9-3.1c-0.8-1.6-2.2-2.2-3.9-2.3l0.2,0.1c-1.3-0.7-2.6-1.4-3.8-2.1l0.1,0c-1.3-0.7-2.5-1.3-3.8-2l0,0
			c-1.1-0.7-2.3-1.4-3.4-2c-0.8-0.5-1.6-1.1-2.3-1.6c-1.2-6.7-6.1-7.5-11.6-7.5l-0.2,0.1c-3.8-9-8.2-17.8-9-27.9
			c-0.5-6.2,0.4-13.3-5.3-18.2c-0.2-1.3-0.4-2.5-0.5-3.8c2.4-2.9,3-5.5-0.9-7.6c-0.2-1.3-0.4-2.7-0.5-4c3.4-7.5-2.5-20.6,12.8-20.8
			c0,0,0.1-0.2,0.1-0.2c0,0,0.9,0.4,0.9,0.4c1.6-0.1,3.2-0.2,4.8-0.3c0.8,0.9,1.5,0.6,2.1-0.3c15.3-5.3,17.6-8.6,15.7-24.8
			c-0.5-4.1,1.2-10.1-6-10.8c-5.4-3.6-12.7-3.6-17.1-9c0.3-1.1-0.2-1.2-1.1-1c-0.8-0.7-1.6-1.4-2.4-2.1c0.3-3.5-1.5-5.6-4.5-7
			c0,0,0.1,0.1,0.1,0.1c-2.2-9-7-16.8-11.2-24.8c-2.3-4.4-3.5-8.7-1.1-13.4c0-0.6,0.3-1,0.7-1.3c10.8-9.6,11.1-21.6,8.2-34.5
			c17.4,1.3,35-1.9,52.4,1c3.3,3.6,7.6,2.5,11.6,2.5C870.1,324.1,921.5,324.1,972.9,324.1z"/>
		<path class="st1" d="M972.9,765.4c0,66.6-0.1,133.2,0.2,199.7c0,6.5-1.3,7.8-7.8,7.8c-162.3-0.2-324.7-0.2-487-0.2
			c-2-45.2-4-90.4-6-135.6c16.4,0.6,32.8,1.6,49.2,1.7c38.6,0.3,76.6-4.6,112.1-20.3c17.9-7.9,34.7-14.2,53.4-3.4
			c2.6,1.5,6.2,1.3,9.2,2.2c11,3.2,20.6,0.5,29.4-6.3c4.8-2.8,9.6-5.6,14.4-8.4c0.5,0.5,1,1,1.5,1.5c-0.9,2.6-0.5,4.7,2.5,5.6
			c-0.8,1.6-1.5,3.3-2.3,4.9l0.3,0l-0.1,0.2c-1,9.4-3,18.7-9,26.3c-3.8,4.9-5.8,10.4-8.1,15.9c-2.4,5.5-1.5,10.9,3.5,14.4
			c8.3,5.8,17.9,10.1,27.1,13.1c9.9,3.2,18.1-4.5,23.3-13.6c0.2-8.3,0.2-8.3,8.2-10.2c14.1-3.3,16.2-11.8,5.8-23.3
			c-13.7-9.1-19.4-22.6-21.7-38.2c-1.5-10.6-3.7-21.2-5.7-31.8c0.2-0.5,0.4-1.1,0.4-1.7c2.4-0.3,4.9-0.6,7.3-0.8
			C839.7,765.1,906.3,765.2,972.9,765.4z"/>
		<path class="st0" d="M-1.1,307c0-40.6,0-81.2,0-121.8c3,0.5,4.9-0.7,6-3.5l-0.2-0.1c1.7,0.2,3-0.6,3.8-2.1l0,0
			c2.1-0.4,3.5-1.5,4-3.6l-0.2,0c1.8,0.2,3.2-0.7,4.4-2c1-0.6,2-1.3,3-1.9c9.8-3.6,19.1,2,28.7,1.4c3.4-0.2,7.9-0.3,8.8-4.1
			c1.1-4.6-2.9-6.2-6.8-7.1l-0.1-0.1c-1.8-2.1-2.8-4.4-1.5-7.1l-0.2,0c2.6-0.3,4.4-1.8,5.7-4l-0.1,0c1.3-0.7,2.6-1.3,3.9-2
			c0,0-0.1,0.1-0.1,0.1c0.7-0.6,1.4-1.3,2.1-1.9c0,0-0.1,0.2-0.1,0.2c1.6,0,3-0.6,3.8-2.1l0,0c1-0.6,1.9-1.3,2.9-1.9l0.7,0.2
			c1.7,0,3.1-0.7,4.1-2.1l0,0c2.9-0.5,5.4-1.6,7.4-3.9l0.3-0.2c0.9-0.5,1.8-1.1,2.6-1.6l0.6,0.1l0.5-0.3c7.6-2.6,14.3-8,22.8-7.6
			c3.8,1.9,7.7,3.9,11.5,5.8l-0.1,0c1.5,1.8,3.4,2.4,5.7,2.1l-0.2-0.1c2.3,3.5,6,4.3,9.6,5.4l0.3,0.1c1.5,1.6,3.3,2.3,5.5,2.1
			l-0.2-0.1c3.7,3.9,8.4,6,13.5,7.7L151,151c1.3,2.2,3.5,3.2,5.8,4.2c2.9,2.6,5,5,0.1,7.9c-2.9,1.6-7.6,3.2-5.9,7.3
			c1.6,4.1,6.5,4.6,10.7,4.2c3.1-0.3,6.3-0.8,9.3-1.7c9.6-3.1,18-0.8,25.8,5.2c5.8,4.4,11.8,8.4,18.6,11.3c3.3,1.4,6.8,2.8,9.9,0.2
			c3.5-3,1.1-6.3-0.3-9.4c-0.5-1.1-0.7-2.2-1-3.2c2.2-1.6,4-0.7,5.8-0.2c8.6,2.1,17.2,4.4,25.8,6.2c3,0.6,6.7,1.1,8.2-2.7
			c1.4-3.5-0.9-6-3.2-8.3c-4.1-4.2-9.4-6.3-14.9-8c-4.1-1.2-7.3-2.8-7.8-8.1c-1.1-13-4.7-25.4-9.3-37.6c4.5,0,9.1,0,13.6,0.1
			c3.4,3.4,7.7,2.3,11.7,2.3c54.2,0.1,108.4,0,162.6,0c4.4,0,9-0.7,12,3.8c0.1,5.7,0.1,11.4,0.2,17.1c-0.1,4.2-0.2,8.5-0.2,12.7
			c0,1.1,0,2.1-0.1,3.2c0,0.8,0,1.7,0,2.5c-1.6,3.9-0.8,8-1.1,12c-0.7,8.3,1.8,16.8-2.3,24.8c-3.3,1.8-6.5,3.8-9.9,5.4
			c-3.2,1.5-6.2,2.9-6.6,7.2c-0.8,9.3-5.3,7.8-10.5,3.2c-6.7-6-12.8-5.4-19.1,0.8c-4.2,4.1-7.1,8.8-10,13.7c-4,6.9-8.8,9.7-15.4,3
			c-5.8-8.1-11.9-6.5-18-0.6c-5.9,5.7-9.9,12.3-8.9,20.9c0.6,5.4-1.2,6.8-6.8,6.5c-18.1-1.1-21.8,4.4-15.6,22
			c3.5,8.1-2.1,10.5-7.9,12.8c-2,0.8-5,1.5-4.1,4.2c0.8,2.7-0.4,7.6,5.2,7.1c0,1.5,0,3.1,0,4.6c-21.7-0.1-43.4-0.4-65.1-0.1
			c-6.7,0.1-12-1.1-16.8-6.3c-5.5-5.8-12.5-9.3-20.9-9.2l0,0c-2.1-5.1-5.9-7.7-11.4-7.6c0,0,0,0,0,0c0-6.4-6-7.5-9.7-10.2
			c-19.6-14.7-37.9-31.4-59.3-43.6c-9-8.1-19.4-8.8-29.9-4.1c-17.4,7.8-29.3,21.3-37.1,38.4c-1.8,4.1-3.2,9-0.8,13.7
			c0.8,10.5,7.7,17.5,14,24.9c-1.8,8.3-8.4,2.1-12.3,4.2c-1.2,0-2.5-0.1-3.7-0.1c-1.3,0-2.6-0.1-3.8-0.1c-1.3,0-2.5,0-3.8-0.1
			c-1.3,0-2.5,0.1-3.8,0.1c-0.6,0-1.3,0-1.9,0C20.5,307.2,9.7,307.1-1.1,307z"/>
		<path class="st0" d="M972.9,137.7c0,57.1,0,114.1,0,171.2c-47.4-0.1-94.7-0.3-142.1-0.3c-25.6,0-51.1,0.2-76.7,0.4
			c-1.8-1.2-2.2-2.8-2.1-4.8c0.5-11.8-4.9-20.1-15-25.8c-4.9-4.5-5.7-9.6-4.2-16.2c1-4.2,2.8-11.2-5.9-11.6l0.3-0.1
			c-1.9-3.4-5-4-8.5-4c-1.5,0-3-0.1-4.5-0.1c-2.1-3.8-5.6-5.2-9.7-5.7l0,0c0-3.4,0-6.8,0.1-10.2c0.2-6.6-2.3-10.8-9.5-10.9
			c-5.6-2.5-11.5-3.1-17.6-2.9c-9.8,0.3-19.6,0.3-29.4,0.5c-0.9-3.6-1.8-7.2-2.7-10.8c0-1.1-0.3-2-1.6-2.1l0.3-0.1
			c-0.1-4.7-7.6-5.6-6-11.2L638,193c0.4-1.9,0.8-3.7,1.2-5.6c4-1,9.4,0.3,10.1-6.1c2.9-4.9,2.9-6.8-3.9-11
			c-7.7-4.8-10.1-10.9-9.5-19.6c0.7-10,0.2-20.1,0.2-30.1c66.1,0,132.1,0.1,198.2,0.1c-3.9,10.1-7.8,20.3-11.7,30.4
			c-7.7,2.2-15.3,4.5-20.7,10.8c-4.1,4.8-4.8,9.2,2.4,11.6c3.7,1.2,4.7,2.7,4.1,6.8c-1.4,9.9,1.3,11.6,12.1,8.8
			c1.4-0.4,2.8-0.8,4.2-1.2c2.4-0.8,4.8-1.6,7.3-2.5c0.7-0.2,1.4-0.3,2.1-0.5c2.9-0.4,5.6-1.2,7.7-3.3l-0.1,0.1
			c1.3-0.7,2.6-1.3,3.9-2c0,0,0,0.1,0,0.1c2.5-0.5,4.2-2,5.7-3.9l0,0c13.2-1.3,26.3,0.2,39.2,2.7c3.1,0.6,6.5,0.8,8.4-2.6
			c1.9-3.4-0.1-6.8-2.3-8.4c-6.8-5-7.6-11.2-5.4-18.6l-0.1,0.2c0.6-1.2,1.3-2.5,1.9-3.7c2-1.8,2-4.3,2.4-6.6
			C921.2,139.3,947.1,140.7,972.9,137.7z"/>
		<path class="st2" d="M423.1-1.2c86.9,0,173.7,0,260.6,0c0.3,3.6,4.7,3.5,5.7,6.5c-22.5,0.6-44.9,2.3-67.2,4.6
			c-5.3-2.1-10.2,0.5-15.4,0.8c0.2,3.2,2.3,4.2,4,5.5c4,3.1,7.9,6.2,11.9,9.4c0.1,0.9-0.1,2.2,0.5,2.7c13.6,12.4,27.3,24.8,41,37.2
			c0.7,0.7,1.4,1.4,2.2,2.1c0.7,0.6,1.3,1.3,2,1.9c0.7,0.6,1.4,1.2,2.1,1.7c0.4,4.1-1.2,3.5-4.4,2.7c-25.1-6.1-50.2-11.8-75.3-17.7
			c-2.4-0.6-4.8-1-7.1-1.8c-7.3-2.5-8.8,1-7.6,7.3c-0.3,11.9-0.7,23.7-0.9,35.6c-0.1,6.6-4,13.2-0.1,19.9c0.2,1.3,0.2,3-1.4,2.6
			c-1.2-0.3-2.1-1.9-3.2-3c-1.4-4.2-4.6-7.2-7.3-10.5c-2.8-3.6-5.6-7.1-8.4-10.7c-2.5-3.2-4.9-6.5-7.4-9.7c-1-1.5-2.1-3-3.1-4.4
			c-0.9-1.1-1.7-2.1-2.6-3.2c-1.8-3-3.2-6.6-7.5-8c0,16.4,0,32.1,0,47.7c-0.4,7.1-0.8,14.2-1.2,22.4c-0.9-2.6-0.9-4.3-2.7-4.8
			c-0.3-3.8,1-7.9-2.1-11.1c0,0-0.2-0.3-0.2-0.3c-0.1-2.4-0.2-4.8-0.3-7.2c-0.7-3.1-1.3-6.2-2-9.3c-1.8-9.7-2.5-19.6-5.7-29
			c-0.2-2.3,1.6-5.6-1.5-6.5c-2.5-0.8-3.1,2.4-4.2,4.2c-7,11.5-14.1,23-21.2,34.5c0,0,0-0.2,0-0.2c-1.7,2.1-3.5,4.2-5.2,6.3
			c-1.7,0.6-1.6,2.2-1.8,3.6l0,0c-0.5,0.1-1.1,0.1-1.6-0.1c-0.6-1.1-1.3-2.3-1.9-3.4c-0.7-9.7-1.1-19.4-2.1-29.1
			c-0.4-3.8,1.1-8.5-3.6-10.9c0-1.1-0.1-2.3-0.1-3.4c3.9-6,2.3-12.9-0.4-17.8c-2.3-4-8.5,0.9-13,0.5c-0.6,0-1.2,0.4-1.8,0.5
			c-18.6,3.8-37.2,7.5-55.7,11.5c-4.8,1-5.1-0.1-2.6-3.7c12.8-14.4,25.7-28.7,38.5-43.1c3.9-4.4,10.5-9,7.9-14.8
			c-2.5-5.6-10.3-4.4-16.2-4.3C430.1,0.1,425.7,2.1,423.1-1.2z"/>
		<path class="st3" d="M895.4,138.8c-0.4,2.4-0.4,4.9-2.4,6.6c-0.6,1.2-1.3,2.5-1.9,3.7c0,0,0.1-0.2,0.1-0.2c-2.9,2.4-3.2,9-8.5,7.2
			c-11.3-3.8-16,0.6-16.4,11.6c-0.2,4.2-3.5,4.7-6.5,5.5c-4,1.1-4.6-2-5.6-4.7c-1.7-4.3-2.3-9.2-6.6-12.1l0,0.1
			c-0.7-0.7-1.3-1.3-2-2l0,0c-0.7-0.7-1.3-1.3-2-2l0,0c-5.2-3.9-11.1-1.7-16.7-2.1c1.4-12.4,9.7-22.2,13.2-33.9
			c0.3-0.4,0.4-0.8,0.3-1.3c2.1-2.4,4.5-4.7,5.4-8c0.8-1.2,1.5-2.3,2.3-3.5c1.6-1,2.7-2.4,3-4.3c0.3-1.7,0.3-3.3-1.7-4l0.2-0.2
			c0.6-5.2-1.6-9.8-3.1-14.6c-4-12.4-6.2-25.2-4.7-37.9c0.7-6.1,3.7-11.4-1.3-16.7c-0.1-4-1.2-7.6-4.1-10.4c-0.7-2.4-2.3-4-4.7-3.8
			c-6.4,0.6-7.2-3.3-6.8-8.2c0-1.7-0.1-3.4-0.1-5.1c25.4,0,50.7,0,76.1,0c-6.7,32.8-6.7,65.3,4,97.3c1.9,5.8,4.7,11.1,8.8,15.6
			c11.1,12.4,26.1,11.4,34.8-2.9c4.1-6.7,7.6-13.8,9.7-21.6c7.9-29.4,6.5-58.9,1.7-88.5c13.3,0,13.3,0,13.3,13.3
			c0,40.6,0,81.2,0,121.8c-22.6,0.1-45.1,0.2-67.7,0.5C901.4,134.4,896.6,132.9,895.4,138.8z M852.9,35.1c5.5,4.5,11.2,7.2,17.7,1.9
			c4.2-8-6-10.8-6.2-17.3l0.3-0.4c0,0-0.3,0.4-0.3,0.4c-2.5-0.7-5-1.5-7.5-2.2C850.1,18.9,848.1,27.6,852.9,35.1L852.9,35.1z"/>
		<path class="st4" d="M433,2.2c5.9-0.1,13.7-1.3,16.2,4.3c2.6,5.8-4,10.5-7.9,14.8c-12.8,14.4-25.6,28.7-38.5,43.1
			c-1.1-1.7-2.4-2.7-4.4-1.5c-34.1,0-68.3,0-102.4,0c-0.1-1.1-0.3-2.2-0.4-3.3c0.6-1.4,1-3,1.8-4.3c11.6-19.2,10.8-29.5-3.5-46.5
			c-1-1.1-1.4-2.8-2.1-4.2c7.5,0,14.9-0.1,22.4,0c4,0,6.8-1.1,6.3-5.8c2.5,0,5.1,0,7.6,0c0.1,7,5.4,5.8,9.6,5.8
			c27.9,0.1,55.7,0.1,83.6,0C425.3,4.6,429.6,5.3,433,2.2z"/>
		<path class="st5" d="M959.6-1.2c4.8,29.6,6.2,59.1-1.7,88.5c-2.1,7.8-5.5,14.9-9.7,21.6c-8.7,14.2-23.7,15.2-34.8,2.9
			c-4.1-4.6-6.8-9.8-8.8-15.6c-10.7-32-10.8-64.5-4-97.3C920.3-1.2,939.9-1.2,959.6-1.2z"/>
		<path class="st6" d="M67.2,143.7c0,0-0.7-0.2-0.7-0.2c-1,0.6-1.9,1.3-2.9,1.9c0,0,0,0,0,0c-1.6,0.1-3,0.6-3.8,2.1
			c0,0,0.1-0.2,0.1-0.2c-0.7,0.6-1.4,1.3-2.1,1.9c0,0,0.1-0.1,0.1-0.1c-1.6,0.1-3,0.6-3.9,2c0,0,0.1,0,0.1,0c-2.8,0-4.8,1.2-5.7,4
			c0,0,0.2,0,0.2,0c-3.1,0-6,1.1-5.4,4.5c0.7,3.7,4.3,2.5,6.9,2.6c0,0,0.1,0.1,0.1,0.1c1.6,5.4,0.4,8.6-6,7.7
			c-3.4-0.5-6.8-1.4-10.2-1.5c-5.1-0.2-10.9-2.3-14.4,3.7c-1,0.6-2,1.3-3,1.9c-1.8-0.1-3.4,0.3-4.4,2c0,0,0.2,0,0.2,0
			c-2.5-0.1-3.8,1.2-4,3.6c0,0,0,0,0,0c-1.6,0-2.9,0.6-3.8,2.1c0,0,0.2,0.1,0.2,0.1c-2,0.5-4,1-6,1.6c0-32.3,0-64.7,0-97
			c5.1-0.7,7.3-5.7,11.3-7.9c1.3,0.8,3.1,1.2,3.9,2.4c13,19.9,31.6,32.5,53.2,41.4c6.4,3.5,13.3,5.9,21.1,6.6c-2.1,3-5.6,3.6-5.8,7
			l-0.5,0.3c0,0-0.6-0.1-0.6-0.1c-0.9,0.5-1.8,1.1-2.6,1.6c0,0-0.3,0.2-0.3,0.2c-3.1,0.1-6.6-0.6-7.4,3.9c0,0,0,0,0,0
			C69.6,141.6,68.2,142.2,67.2,143.7z"/>
		<path class="st6" d="M291.8,4.6c0.7,1.4,1.1,3,2.1,4.2c14.4,17,15.2,27.4,3.5,46.5c-0.8,1.3-1.2,2.8-1.8,4.3
			c-4.4,0.1-8.9-0.4-13.2,0.4c-7,1.4-15.5,0.4-19.2,9c-0.6,0.1-1.2,0.2-1.8,0.3c-3.7,0.2-7.4,0.3-11.2,0.5c-2.7-2.2-5.4-4.4-8-6.6
			c0-2.5,0.5-5.2-0.1-7.5c-2.7-11.9-3.5-23.1,8-31.6c3.5-2.5,1.5-5.5-1.4-7.7c-7.4-5.5-15.4-8.5-24.7-7.8c-3.9-2.4-7.5-4.9-8.3-9.9
			c24.1,0,48.2,0,72.3,0C287.9,1.6,288.4,4,291.8,4.6z"/>
		<path class="st7" d="M754.1,309c25.6-0.1,51.1-0.4,76.7-0.4c47.4,0,94.7,0.2,142.1,0.3c0,3.8,0,7.6,0,11.4c-2.5,0.2-5,0.5-7.5,0.5
			c-47.7,0-95.5-0.1-143.2-0.1c-5,0-10.1,0.6-15.1,0.9c-17.4-2.9-34.9,0.3-52.4-1c-4-2-6.5-5-6.1-9.7
			C750.5,310.8,752.6,310.6,754.1,309z"/>
		<path class="st8" d="M35-1.2c24.7,0,49.5,0,74.2,0c-0.2,11.2-2.8,21.8-8.7,31.4c-0.6,0.6-1.1,1.2-1.7,1.8
			c-0.6,0.6-1.3,1.2-1.9,1.8c-14.6,9.3-29.4,5.4-44.3,1.1c-2.8-0.8-6-4.6-8.8,0.1c-4.9,1.9-7.4,10.4-14.8,5.4
			c-0.1-0.3-0.2-0.7-0.3-1c16.5-9.4,16.4-9.4,10.5-27.1C37.6,7.8,36.4,3.3,35-1.2z"/>
		<path class="st9" d="M215.8-1.2c0.8,4.9,4.4,7.5,8.3,9.9c-2.7,3.1-7.4,4.5-6.7,10.3c1.8,15.2-2.4,29.8-5.5,44.5l-0.1,0.1
			c-0.6,1.2-1.1,2.4-1.7,3.7c-0.2,1.5-0.4,3-0.7,4.6c-0.3,0.3-0.6,0.5-1,0.8c-0.3,0.2-0.6,0.4-0.8,0.6c-1.1,1.2-2.2,2.4-3.3,3.7
			c0,0,0-0.1,0-0.1c-4.3-5.7,1.7-14.4-5.7-19.2c-1.9-1.8-1.7-5.3-4.8-6.1l-0.1-0.1c-5.1-8.2-12.1-14-21.2-17.3
			c-0.2-1.3-0.4-2.6-0.5-3.9l0,0.2c1.8-1.6,2.1-3.7,1.9-5.9c3.2-8.5,6.4-17,9.5-25.6C194.2-1.2,205-1.2,215.8-1.2z"/>
		<path class="st8" d="M171.9,30.2c0,0,0-0.2,0-0.2c-3.7,2.5-8,3.6-12.3,4.7c-32.8,8.4-46.7-2.3-46.7-36c23.5,0,46.9,0,70.4,0
			c-3.2,8.5-6.4,17-9.5,25.6C172.4,26,171.8,28,171.9,30.2z"/>
		<path class="st7" d="M181.5,763.5c-21.6,0-43.2,0-64.7,0c-1.2-1.6-2.5-1.6-3.7,0c-38.1,0-76.1,0-114.2,0c0-3.8,0-7.6,0-11.4
			c45.7,0.1,91.4,0.1,137.1,0.2c7.6,6,17.3,1.4,25.2,4.8c7,3.1,4.5-2.2,5.1-4.8c2.6,0,5.1,0,7.7,0
			C174.4,757.4,177.8,760.5,181.5,763.5z"/>
		<path class="st10" d="M972.9,765.4c-66.6-0.2-133.2-0.4-199.8-0.6c-0.1-3.1,0.4-6.2,2-8.9c65.9,0,131.9,0,197.8,0
			C972.9,759.1,972.9,762.3,972.9,765.4z"/>
		<path class="st9" d="M35-1.2c1.3,4.5,2.5,9,4,13.4c6,17.7,6,17.7-10.5,27.1c-4.4,0.7-6.9,3.5-8.4,7.5c-8.3,5.2-6.5,15-10.1,22.4
			c-1.1-1.9-2.3-3.7-3.4-5.6c-0.5-9.9-7.8-18.3-6-28.6c0-2.7,0.9-5.6-1.8-7.6c0-1.3,0-2.5,0-3.8c5.8-5.7,6.4-11.4,0-17.1
			c-1.4-6.5,1-8.3,7.6-7.8C16-0.7,25.5-1.2,35-1.2z"/>
		<path class="st7" d="M472.3,837.2c2,45.2,4,90.4,6,135.6c-3.2,0-6.3,0-9.5,0c1.8-21.4-1.2-42.8-1.7-64.2
			c-0.6-22.4-2-44.7-3.1-67.1c-0.1-2.5-0.9-4.9-1.4-7.3C466.3,833.6,469.5,834.7,472.3,837.2z"/>
		<path class="st7" d="M48.3,307.5c3.9-2.1,10.6,4.2,12.3-4.2c1,0,1.9-0.1,2.9-0.1C69,309.9,77,314.8,79,324.1
			c-4.1-3.3-8.5-4.5-13.9-4.4c-22.1,0.4-44.1,0.4-66.2,0.6c0-4.4,0-8.9,0-13.3c10.8,0.1,21.6,0.2,32.3,0.3c0.6,0,1.3,0,1.9,0
			c1.3,0,2.5-0.1,3.8-0.1c1.2,1.4,2.5,1.4,3.8,0.1c1.3,0,2.6,0.1,3.8,0.1C45.8,308.6,47,308.7,48.3,307.5z"/>
		<path class="st11" d="M824.5-1.2c0,1.7,0.1,3.4,0.1,5.1c-42,1.7-84,1.3-126,0.5c-3.1-1.9-6.1-3.8-9.2-5.7
			C734.5-1.2,779.5-1.2,824.5-1.2z"/>
		<path class="st12" d="M972.9,755.9c-65.9,0-131.9,0-197.8,0c0.6-1.2,1.1-2.3,1.7-3.5c60.7,0.1,121.4,0.1,182.1,0.3
			c4.7,0,9.5-0.9,14,1.3C972.9,754.7,972.9,755.3,972.9,755.9z"/>
		<path class="st0" d="M807.1,321.6c5-0.3,10.1-0.9,15.1-0.9c47.7,0,95.5,0.1,143.2,0.1c2.5,0,5-0.3,7.5-0.5c0,1.3,0,2.5,0,3.8
			c-51.4,0-102.8,0-154.3,0C814.7,324,810.3,325.2,807.1,321.6z"/>
		<path class="st13" d="M433,2.2c-3.5,3.1-7.8,2.4-11.8,2.4c-27.9,0.1-55.7,0.1-83.6,0c-4.2,0-9.5,1.2-9.6-5.8c31.7,0,63.4,0,95.1,0
			C425.7,2.1,430.1,0.1,433,2.2z"/>
		<path class="st7" d="M895.4,138.8c1.2-5.9,6-4.4,9.8-4.5c22.6-0.2,45.1-0.3,67.7-0.5c0,1.3,0,2.5,0,3.8
			C947.1,140.7,921.2,139.3,895.4,138.8z"/>
		<path class="st14" d="M113-1.2c0,33.7,13.9,44.4,46.7,36c4.3-1.1,8.5-2.3,12.3-4.7c0.2,1.3,0.4,2.6,0.5,3.9
			c-2.1,0.9-4.2,1.9-6.2,2.8c-1.3,0.4-2.6,0.8-3.9,1.2c-8.1,1.7-16.3,2.9-24.6,2.9c-7.8-1-14.3-4.6-19.9-9.9
			c-0.9-1.3-1.9-2.6-2.8-3.9l0.1,0.2c-0.7-1-1.3-2-2-3l0.4-0.3l-0.2-0.5c-0.5-2.3-0.3-5.8-2.9-6c-2.1-0.2-1.7,3.2-2,5.1l0,0.5
			l0.5,0.1c-1.4,0.1-1.7,1-1.8,2.2l0-0.1c-1.5,0.9-1.9,2.3-2.1,3.9c0,0,0-0.2,0-0.2c-1.1,0.8-2.1,1.7-3.2,2.5
			c-0.5-0.4-1-0.8-1.4-1.3c6-9.6,8.5-20.2,8.8-31.4C110.5-1.2,111.8-1.2,113-1.2z"/>
		<path class="st13" d="M6.8,63.5c1.1,1.9,2.3,3.7,3.4,5.6c0,3.1,0,6.2,0,9.3C6.2,80.6,4,85.6-1.1,86.3c0-7.6,0-15.2,0-22.8
			C1.5,63.5,4.1,63.5,6.8,63.5z"/>
		<path class="st13" d="M291.8,4.6c-3.3-0.6-3.8-3-3.7-5.8c10.8,0,21.6,0,32.3,0c0.5,4.8-2.3,5.8-6.3,5.8
			C306.7,4.6,299.2,4.6,291.8,4.6z"/>
		<path class="st4" d="M6.8,63.5c-2.6,0-5.2,0-7.9-0.1c0-9.5,0-19,0-28.5c0.6,0,1.2,0,1.8,0C-1,45.2,6.2,53.7,6.8,63.5z"/>
		<path class="st15" d="M-1.1,6.4c6.4,5.7,5.8,11.4,0,17.1C-1.1,17.8-1.1,12.1-1.1,6.4z"/>
		<path class="st16" d="M689.5-1.2c3.1,1.9,6.1,3.8,9.2,5.7c-3.2-1.4-6.1,0.6-9.2,0.8c-1-3-5.4-2.9-5.7-6.5
			C685.6-1.2,687.6-1.2,689.5-1.2z"/>
		<path class="st9" d="M-1.1,183.3c2-0.5,4-1,6-1.6c-1.1,2.8-3,4-6,3.5C-1.1,184.6-1.1,184-1.1,183.3z"/>
		<path class="st15" d="M0.7,34.9c-0.6,0-1.2,0-1.8,0c0-2.5,0-5.1,0-7.6C1.6,29.3,0.8,32.2,0.7,34.9z"/>
		<path class="st16" d="M79,324.1c-2-9.3-10-14.1-15.4-20.9c-5.3-7.9-10.8-15.6-13.5-24.8c0.3-4.2-0.8-8.8,2.7-12.4
			c9.7,10.7,11.9,11,23.8,2.7c7.8-5.5,14.4-12.5,19.6-20.4c3.7-5.7,5.4-11.7-2.1-16.3c-0.1-1-0.3-1.9-0.4-2.9c6-1.8,11.6,0.3,17.2,2
			c7.2,5.2,14.3,10.3,21.5,15.5c17.2,12.3,33,26.5,51,37.8c0,0,0,0,0,0c2.7,4.2,6.3,7.1,11.4,7.6c0,0,0,0,0,0
			c0.5,1.1,0.8,2.5,1.7,3.1c19.2,13.1,16.7,26.2,5.2,41.9c-11.2,15.2-24.8,28.6-40.1,40.1c-13.3,10-27,9.2-38.3-2.8
			c-8.4-8.9-15.7-18.8-23.5-28.3c-0.1-0.4-0.4-0.7-0.8-0.8c-1-0.7-2-1.4-3-2c0,0,0.1,0.1,0.1,0.1c-2.1-4.8-2.8-10.7-9.6-11.5
			c0,0,0.1,0.1,0.1,0.1c-1.5-3.7-2.7-7.6-7.7-7.7L79,324.1z"/>
		<path class="st12" d="M314.5,784.6c-1.1-1.1-2.8-1.9-3.4-3.2c-7.6-16.8-21.7-18.6-37.6-16.8c-4,0.4-8.2,0.7-12.1-1
			c2.4-4.3,5.6-6,10.9-5.1c4.2,0.7,8.6-0.3,13-0.6c4.5-0.3,4.1-2.8,2.7-5.8c1.1-1.3,1.8-2.6,0.7-4.2c-4.9-7.3-8.2-15.4-11-23.7
			c4.3-4.4,3.8-7.3-2.7-8.1c-4.5-9.1-5.1-18.9-4-28.6c3.5-29.4,4.1-59.3,13.8-87.8c9.7-28.8,20.9-56.9,36.8-83
			c2.6-4.3,3-6.3-2.5-7.9c-21.4-6.4-38.1-19.6-52.1-36.4c-3.3-4-5.9-4.7-10.1-1.3c-3.6,3-7.8,5.6-12.2,7.3
			c-12.1,4.7-24.3,5.5-34.6-4.1c-9.5-8.8-18.5-18.1-27.7-27.2c0.9-0.9,1.7-1.7,2.6-2.6c7.1,6.7,14.3,13.4,21.4,20.2
			c14.9,14.3,30.8,15.5,47.6,3.1c15.1-11.2,27.6-25.1,39.1-39.8c6.7-8.6,10.7-18.7,8.8-30.1c0.5-0.9,1-1.8,1.5-2.6
			c1.1-1,2.2-1.9,3.3-2.9l0.4-0.5l-0.4-0.5c-3.8-17.9-3.9-35.7,1.9-53.4c1.6-4.9,4.5-10.1,1.6-15.6c1.9-3.4,3-0.1,4.5,0.6
			c0.6,1.7,1.2,3.3,1.8,5c-1.4,6.9-2.8,13.8-4.2,20.7l0.2-0.1c-2.2,2.5-2.7,5.8-2.8,8.8c-1.3,30,3.2,58.9,16.7,86l0,0.3
			c0,1.8,0.2,3.5,1.9,4.5l-0.1-0.1c0.7,3.9,2.7,7.1,5.7,9.7c0,0-0.1-0.2-0.1-0.2c0.1,1.3,0.2,2.6,0.3,3.9c-7.4-2.7-9.5-9.7-12-15.9
			c-4.9-12.2-9.1-24.8-13.9-37.9c-3.9,11.5-8.9,21.9-17.6,30.1c-3.2,3-2.5,5.7,0.6,8.8c7.3,7.2,15.7,12.8,24.9,16.9
			c9.3,4.2,18.5,9.9,29.6,8.3c1.2,0.4,2.4,0.8,3.5,1.2c0.6,0.6,1.1,1.2,1.7,1.9c-0.3,4.2-1.7,5.7-4.9,1.7l-0.5-0.3
			c-2.8-2.4-6.1-1.7-9.3-1.7c-14.8-2.7-28.4-8.3-40.9-16.8c-4.6-3.2-8.6-10.2-13.3-9.1c-4.4,1-7.2,8-11.3,11.9
			c-3.6,3.5-2.8,7.5-0.3,9.9c14,13.8,28.4,27.1,47.6,33.4c5.3,1.8,9.8,1.8,13.6-2.8c0.8,0.7,1.6,1.5,2.4,2.2
			c-3.3,6.2-6.6,12.4-9.9,18.7l0.1,0c-7.6,10.5-12.7,22.3-17.2,34.3l0.1,0c-5.6,8.2-7.9,17.8-10.9,27c-0.4,0.4-0.5,0.8-0.3,1.3
			c-5.2,13.7-10.4,27.5-11.9,42.3l0.2,0.7c-7.7,37-7,73.1,12,107.2c0.5,0.8,1,1.6,1.6,2.4c0.7,1.1,1.5,2.2,2.2,3.3
			c-0.1,3,0.1,5.8,4.1,5.9l0,0c0.6,7.5,5.5,14,4.7,21.9c-0.3,3.2,2.9,4.6,5.9,5c0.2,0.6,0.3,1.2,0.4,1.8c0,3.2,0.1,6.4,0.1,9.6
			C314.9,784.3,314.5,784.6,314.5,784.6z"/>
		<path class="st7" d="M99.7,345.9c7.8,9.5,15.1,19.4,23.5,28.3c11.3,11.9,25,12.7,38.3,2.8c15.2-11.4,28.9-24.8,40.1-40.1
			c11.5-15.7,14-28.8-5.2-41.9c-0.9-0.6-1.1-2.1-1.7-3.1c8.4-0.1,15.5,3.3,20.9,9.2c4.8,5.1,10.1,6.3,16.8,6.3
			c21.7-0.2,43.4,0.1,65.1,0.1c2.3,2,4.6,4,6.9,5.9c3.8,3.2,2.8,5.6-1.2,7.4c-21.7,0-43.3,0-67.6,0c13,12.8,23.9,23.6,34.9,34.4
			c-0.5,0.3-0.9,0.3-1.3-0.1c-2.2-0.2-4.3-0.3-6.5-0.5c-14.4-16.4-30.8-30.9-46.5-46.1c-0.5-0.4-1.2-1.2-1.4-1.1
			c-1.1,0.6-0.6,1.5-0.1,2.4c2.1,11.1-2.1,20.5-8.6,29c-11.3,14.9-24.7,27.9-38.9,39.9c-11.5,9.8-24.2,13.3-38.4,5.7
			c-0.6-0.6-1.3-1.2-1.9-1.9c-0.6-0.7-1.3-1.5-2.1-0.6c-0.3,0.4,0.3,1.5,0.6,2.3c0.5,0.5,1,1,1.4,1.5c17.7,18,35.4,36.1,53.2,54.1
			c-0.7,0.6-1.3,1.2-2,1.8l-0.5,0.5c-19.5-17.5-38.2-35.9-56.1-55.1c-3.5-3.8-6.2-8.6-6.5-14.4c-0.4-7.7-7.6-11.3-10.9-17.3
			C102.2,352.4,97.9,350.5,99.7,345.9z"/>
		<path class="st7" d="M287.9,751.9c1.4,3,1.8,5.5-2.7,5.8c-4.3,0.3-8.8,1.3-13,0.6c-5.2-0.8-8.4,0.9-10.9,5.1c-8.3,0-16.5,0-24.8,0
			c-8.9-2.9-17.8-3-26.6,0.1c-7.6,0-15.2-0.1-22.8-0.1c-0.5-5.7,2.2-7.7,7.8-7.6c14.1,0.2,28.2,0.1,42.3,0c3.2,0,7.2,1.2,8.9-3.3
			c2-0.1,3.9-0.2,5.9-0.3c0.6-0.1,1.2-0.2,1.8-0.3c3.1-0.1,6.2-0.1,9.4-0.2c3.9,3,7.8,3,11.7,0C279.2,751.9,283.6,751.9,287.9,751.9
			z"/>
		<path class="st12" d="M246.1,752.6c-1.7,4.4-5.6,3.2-8.9,3.3c-14.1,0.1-28.2,0.2-42.3,0c-5.6-0.1-8.3,1.9-7.8,7.6
			c-1.9,1-3.8,1-5.7,0c-3.7-2.9-7.1-6-7.6-11.2C198,751,222.1,752.2,246.1,752.6z"/>
		<path class="st12" d="M166.3,752.3c-0.7,2.6,1.9,7.9-5.1,4.8c-7.9-3.4-17.6,1.2-25.2-4.8C146.1,752.3,156.2,752.3,166.3,752.3z"/>
		<path class="st7" d="M86.4,331.6c6.8,0.8,7.5,6.8,9.6,11.5C90.6,341.2,87.6,337.1,86.4,331.6z"/>
		<path class="st12" d="M274.9,751.9c-3.9,3-7.8,3-11.7,0C267.1,750.5,271,750.5,274.9,751.9z"/>
		<path class="st7" d="M274.9,716c6.5,0.8,7,3.7,2.7,8.1C276.7,721.4,275.8,718.7,274.9,716z"/>
		<path class="st7" d="M78.8,324c5,0.1,6.2,4.1,7.7,7.7C81.6,331.5,80.3,327.6,78.8,324z"/>
		<path class="st7" d="M95.9,343c1,0.7,2,1.4,3,2C97,345.6,96,345,95.9,343z"/>
		<path class="st7" d="M179.4,444.5c-0.7-0.7-1.4-1.4-2-2.2c0,0,0.5-0.5,0.5-0.5c0.9-0.4,1.8-0.8,2.7-1.2l0.3,0.1
			C180.4,442,179.9,443.3,179.4,444.5z"/>
		<path class="st12" d="M253.8,752.1c-0.6,0.1-1.2,0.2-1.8,0.3C252.6,752.1,253.2,752,253.8,752.1z"/>
		<path class="st12" d="M179.4,444.5c0.5-1.3,1-2.5,1.4-3.8c0.7,0.6,1.4,1.2,2.1,1.8c-0.8,0.9-1.6,1.9-2.5,2.8
			C180,445.3,179.6,445,179.4,444.5z"/>
		<path class="st12" d="M182.1,446.9c-0.5-0.5-1.1-1.1-1.7-1.6c0.8-0.9,1.6-1.9,2.5-2.8c0.6,0.6,1.2,1.3,1.7,1.9
			C183.8,445.2,183,446.1,182.1,446.9z"/>
		<path class="st17" d="M314.4,773c-3-0.5-6.2-1.8-5.9-5c0.8-7.9-4.1-14.4-4.7-21.9c1,0.3,1.9,0.6,2.9,0.9l-0.1-0.3
			c0.6,0.8,1.2,1.6,1.8,2.5l-0.2-0.1c0.7,0.7,1.3,1.4,2,2.1c0,0-0.1-0.1-0.1-0.1c0.9,1.1,1.8,2.1,2.8,3.2c0,0-0.1-0.1-0.1-0.1
			c0.6,0.8,1.2,1.5,1.9,2.3l-0.2-0.3c0.7,0.8,1.5,1.6,2.2,2.5c25.7,27.3,58.1,43.2,92.9,55.2c36.6,12.6,74.4,18,113,17.6
			c27.5-0.3,55.1-1.7,81.5-10.9c2.2,0.3,4.1-0.6,5.8-1.8c1.2-0.1,2.5-0.3,3.7-0.4c13.3-3.3,25.4-9.5,39.9-15.4
			c-6.3-2.9-10.7-5-15.1-7.1c-3.4-2.2-6.7-4.4-10.7-7c4.5-1.2,7,1.1,9.8,2.5c15.8,7.9,32.5,13.6,49.3,18.9c12.4,4,24.6,5.1,36.5-1.5
			c0.9,0.8,1.8,1.5,2.7,2.3c-8.8,6.8-18.4,9.5-29.4,6.3c-3-0.9-6.6-0.7-9.2-2.2c-18.7-10.7-35.5-4.4-53.4,3.4
			c-35.5,15.6-73.5,20.5-112.1,20.3c-16.4-0.1-32.8-1.1-49.2-1.7c-2.8-2.5-6.1-3.6-9.8-3c-16.2-0.8-31.3-6.7-47-9.9
			c-4.3-0.8-10-5.4-12.3,0.7c-3.2,8.2-8.5,16.2-7.3,25.7c0,0,0.3,0.1,0.3,0.1c-3.2,2.7-2.1,6.1-1.3,9.3c1.1,4.1,2.2,8.2,1.6,12.6
			c-8.1-11.2-9.6-22.9-2.9-35.4c1.5-2.8,3-5.7,3.7-8.7c0.8-3.4,6.4-7.7,0.2-10.3c-5.4-2.3-10.8-8.1-17.8-1.1
			c-7.5,7.6-16.2,14-24.4,20.9c-1.2-0.2-2.5-0.5-3.7-0.7c7.3-8,17-13.5,23.5-22.5c-2.3-2.6-5.1-1-7.3-2c-2.5-1-5-2-7.5-3
			c4.5,0,9,0,13.5,0c-18.5-12-37.8-22-54-36.6C318.3,771.9,316.3,772.6,314.4,773z"/>
		<path class="st18" d="M355.4,838.1c8.2-6.9,16.9-13.3,24.4-20.9c6.9-7,12.4-1.2,17.8,1.1c6.3,2.6,0.6,6.9-0.2,10.3
			c-0.7,3-2.2,5.9-3.7,8.7c-6.8,12.4-5.2,24.1,2.9,35.4c0.7,1,1.4,1.9,2.1,2.9c0,4.8-2.3,8.6-5.2,12.1c-7.4,4.1-13.7,1.4-19.8-3
			c-0.6-2.3-1.9-4.4-4.3-4.3c-2.6,0.2-1.8,2.7-1.8,4.5c-0.1,6.4-4.1,8.9-9.8,8.9c-5.6-0.1-11.1-0.8-16.6-1.2
			c-2.5-3.3-7.1-5.7-4.4-11.3c1-2.1-1-3.3-2.4-4.6c-12.4-12.2-10-24.4,5.9-31.5C345.2,842.9,351.3,842.7,355.4,838.1z"/>
		<path class="st14" d="M355.4,838.1c-4.1,4.6-10.1,4.8-15.3,7.1c-15.9,7.1-18.3,19.2-5.9,31.5c1.3,1.3,3.4,2.5,2.4,4.6
			c-2.7,5.5,1.9,8,4.4,11.3c0,0-0.1,0-0.1,0c-1.2-0.4-3.2-0.6-3.4-1.3c-2-9.6-11.3-15.2-13.8-24.5c-2.4-8.8,1.8-17.7,11.2-22.8
			c5.2-2.8,11.1-4.4,16.7-6.6C352.9,837.6,354.1,837.9,355.4,838.1z"/>
		<path class="st5" d="M341,892.6C341,892.6,341.1,892.6,341,892.6c5.6,0.4,11.2,1.1,16.7,1.2c5.7,0.1,9.7-2.4,9.8-8.9
			c0-1.8-0.8-4.3,1.8-4.5c2.4-0.2,3.7,2,4.3,4.3c-1.9,1.3-3.5,2.8-3.4,5.3C362.9,899.3,352.5,900.2,341,892.6z"/>
		<path class="st0" d="M395.9,850.8c-1.2-9.6,4.1-17.5,7.3-25.7c2.4-6.1,8.1-1.6,12.3-0.7c-9.2,3-11.4,11.4-14.8,18.9
			C399.5,846,399.2,849.3,395.9,850.8z"/>
		<path class="st12" d="M329.9,802.4c-5.8-5.3-12-10.3-15.3-17.8c0,0,0.3-0.3,0.3-0.3c3.2,1.7,6.3,3.9,10.3,3.6
			c0.4,0.6,0.8,1.1,1.2,1.7c0.6,0.8,1.3,1.6,1.9,2.4c0,0-0.2-0.2-0.2-0.2c0.6,0.7,1.2,1.4,1.8,2.1l0.1,0.1
			C330,796.8,329.9,799.6,329.9,802.4z"/>
		<path class="st12" d="M210,763.6c8.9-3.1,17.7-3,26.6-0.1C227.8,765,218.9,765.2,210,763.6z"/>
		<path class="st14" d="M370.2,890c-0.1-2.5,1.5-4,3.4-5.3c6.1,4.4,12.5,7.1,19.8,3c-3.2,7.6-9,4.8-14.1,3.1
			C376.3,889.8,373.6,886.4,370.2,890z"/>
		<path class="st0" d="M398.7,875.6c-0.7-1-1.4-1.9-2.1-2.9c0.6-4.3-0.5-8.4-1.6-12.6c-0.9-3.2-1.9-6.6,1.3-9.3
			C395.5,859.3,403.6,866.8,398.7,875.6z"/>
		<path class="st12" d="M360.4,809.9c2.5,1,5,2,7.5,3c-7.6-0.1-15.3,0.7-22.7-2.1c1.4-0.9,2.8-1.8,4.3-2.8c0,0,0.1,0.1,0.1,0.1
			c0.9,3.5,2.7,3.1,4.9,1.2C356.5,809.5,358.4,809.7,360.4,809.9z"/>
		<path class="st17" d="M349.5,808c-1.4,0.9-2.8,1.8-4.3,2.8c-1.3-0.5-2.7-0.9-4-1.4c-1-0.6-2-1.3-2.9-1.9l-0.3,0.5
			c0,0-0.6-0.1-0.6-0.1c0-2.1,0.1-4.3,0.1-6.4C341.6,803.6,345.6,805.8,349.5,808z"/>
		<path class="st12" d="M337.6,801.4c0,2.1-0.1,4.3-0.1,6.4c-3.1-0.4-5.2-2.2-6.7-4.8c1.2-1.7,2.6-3,4.7-3.3
			C336.2,800.2,336.9,800.8,337.6,801.4z"/>
		<path class="st17" d="M335.5,799.6c-2.1,0.4-3.5,1.7-4.7,3.3c-0.4,0-0.7-0.2-0.9-0.6c0-2.8,0.1-5.6,0.1-8.4
			C331.8,795.9,333.7,797.8,335.5,799.6z"/>
		<path class="st12" d="M113.1,763.5c1.2-1.5,2.5-1.5,3.7,0C115.6,764.4,114.3,764.4,113.1,763.5z"/>
		<path class="st12" d="M338.4,807.4c1,0.6,2,1.3,2.9,1.9C340.3,808.7,339.3,808,338.4,807.4z"/>
		<path class="st19" d="M603.8,820.5c-26.4,9.1-54,10.6-81.5,10.9c-38.6,0.4-76.4-5-113-17.6c-34.7-12-67.2-27.9-92.9-55.2
			c-0.7-0.8-1.5-1.6-2.2-2.5c0,0,0.2,0.3,0.2,0.3c-0.6-0.8-1.2-1.5-1.9-2.3c0,0,0.1,0.1,0.1,0.1c-0.1-1.8-0.7-3.1-2.8-3.2
			c0,0,0.1,0.1,0.1,0.1c-0.1-1.3-0.7-1.9-2-2c0,0,0.2,0.1,0.2,0.1c-0.6-0.8-1.2-1.6-1.8-2.5c0,0,0.1,0.3,0.1,0.3
			c0.4-4.1-1.7-7.5-4-10.4c-16.1-20.9-19.6-45.2-20.5-70.5c-0.5-13,3.6-25.7,1.6-38.7c0,0-0.2-0.7-0.2-0.7
			c7.6-13.1,9.6-27.7,11.9-42.3c-0.1-0.5,0-1,0.3-1.3c7-7.6,10.5-16.7,10.9-27c0,0-0.1,0-0.1,0c9.1-9.8,14-21.6,17.2-34.3
			c0,0-0.1,0-0.1,0c8.5-3.8,11.1-11.1,11.7-19.6c3.1-5,6.3-9.9,9.1-15c2.2-4,7.8-6.5,6-12.5c-0.6-0.6-1.1-1.2-1.7-1.9
			c-1.3-0.7-2.6-1.3-4-2c-0.2-0.5-0.5-1-0.7-1.5c-1.8-5.6-6.3-8.8-10.9-11.9c0,0,0.1,0.2,0.1,0.2c0.2-4.5-0.4-8.4-5.7-9.7
			c0,0,0.1,0.1,0.1,0.1c0.2-1.9-0.5-3.3-1.9-4.5c0,0,0-0.3,0-0.3c0.6-5.9-1.4-11.2-3.7-16.5c-3.8-8.7-6-17.8-7.8-27.2
			c-3.3-17-0.5-34.2-2.3-51.2c0,0-0.2,0.1-0.2,0.1c4.8-6.2,9.1-12.5,4.2-20.7c-0.6-1.7-1.2-3.3-1.8-5c0.3-2.6,0.3-5.2-2-6.8
			c-9.2-6.5-13.6-13.6-3.2-22.8c0.5-0.4,0.9-0.9,1.4-1.3c2.4-2.4,6.2-4.6,0.5-7.5c-1.2-2-2.4-3.9-3.6-5.9c-0.9-3.1-1.2-6.3-0.2-9.5
			c0.6-0.6,1.1-1.2,1.7-1.9l0.1-0.1c5,0.2,9.6-2.8,14.7-1.6c3.7,0.9,8.6,3.7,10.7-1.4c2-4.7,2.8-10.3-2-14.6l-0.1-0.6l0.5-0.3
			c2.4-1.4,3.2-3.5,2.8-6.2l0,0c3.7-0.3,5.7-2.1,5.5-6l0,0.2c0.7-0.6,1.5-1.2,2.2-1.8l-0.1,0.1c3.9-0.1,7.8-0.1,11.7-0.2l0,0
			c0.7,0.6,1.3,1.2,2,1.8c0.6,0.5,1.3,1.1,1.9,1.6c0.8,0.6,1.5,1.2,2.3,1.8l-0.5,0.1l0.5-0.1c0.3,1.7,1.4,2.5,3,2.4
			c7.6-3.7,10.2-11.7,15-17.7c7.6-9.6,13.5-10.9,22.8-4.1c3.1,2.3,5.8,3.7,9.1,0.8c0.8-0.7,1.6-1.4,2.4-2.1c0,0-0.3,0.2-0.3,0.2
			c0.7-0.7,1.5-1.3,2.2-2c0,0-0.2,0-0.2,0c3.7,0.3,4.2-2.2,4.4-5.1l0.1-0.1c1.6-0.3,2.8-1,3.1-2.8c0,0-0.2,0.1-0.2,0.1
			c3.5,0.4,6.2-0.9,8-3.8l-0.1,0.2c9.2,0,18.4,0.1,27.6,0.1c0.8,0,1.5-0.1,2.3-0.1c3.1,0.4,6,0.5,6.5-3.6l0,0.2c0.7-0.7,1.4-1.3,2-2
			c0,0-0.1,0.1-0.1,0.1c0.7-0.6,1.4-1.2,2.1-1.9l-0.1,0.1c4.9,0.2,8-3.1,11.4-5.9c10.3-8.6,21.3-15.6,35.7-13.3
			c4,0.7,8,1.2,12.1,1.9l-0.1-0.1c0.4,3.5,2.2,5.5,5.8,5.7l0,0c1.6,3.8,0.3,9,5.2,11.4c3,1.4,5.3,0.8,7.6-1.7
			c12.8-14.3,23.6-13.6,35.4,1.8c2.4,3.2,4.7,6.8,8.9,8.2c14.8-0.2,29.5-0.5,44.3-0.7c6.6,1.3,4.9,7.8,7.4,11.7
			c0.2,1.4,0.4,2.7,0.7,4.1c0.3,1.4,1.2,1.9,2.6,1.7c3.2,0,6.4,0,9.6-0.1c0.6,0,1.1,0,1.7,0c7.9,0.1,15.8-0.1,23.6,0.5
			c10.5,0.8,14.8,5.9,14.7,16.3c0,3.7,1.5,6.2,4.2,8.8c4,3.8,9.2,3.8,13.8,5.4c11,3.7,13.4,7.5,8.6,18.1c-3.1,6.8-0.9,10.2,5.3,12
			c6.7,1.9,12,5.4,15.7,11.3c0.6,1.3,1.1,2.6,1.7,3.9l0,0c0.1,0.6,0.2,1.2,0.4,1.8c0,3.2,0,6.4-0.1,9.6c-1.6,1.9-2.9,4.2-4.9,5.7
			c-5.4,4.3-4.1,6.1,2,7.4c7.8,1.6,8.1,8.1,7.2,14.1c-0.9,5.8-3.1,11.4-4.7,17.1c-0.5,0.3-0.7,0.7-0.7,1.3c-2,3.7-6.1,2.5-9,4.1
			c-1.9,1.9-1,3.9-0.4,6c0.3,2.8,0.6,5.6,0.8,8.4c3.8,46.1,9.2,92.1,15.7,137.9c-0.7,1.8-1.2,3.1-3.9,1.9c-2.9-1.3-2.1,0.4-0.8,1.7
			c1,5.6,4.3,9.4,9.5,11.6c0,0,0.2-0.2,0.2-0.2c0.8,2.8,3.3,3.6,5.5,4.7c11.3,7.9,21.8,17.4,36.2,19.7c11.2,6.5,23.2,7.5,35.7,4.8
			c2.7-0.6,5.5-0.6,8.3-0.8c3.2,4,0.3,5.3-2.9,6.4c-3.6,1.2-7.9,1-10.2,5c-1.2,2.5,0.9,1.6,1.9,1.8c0.6,0,1.1,0.2,1.5,0.6
			c0.8,0.4,1.5,0.8,2.3,1.2l0-0.2c0.2,6.2,9.2,2.3,9.6,8.4l0-0.1c-0.7,0.8-1.4,1.5-2,2.3c-0.7,0.6-1.3,1.3-2,1.9
			c-0.6-1.7-0.9-4-3.5-3.3c-2.3,0.6-2.3,2.8-1.8,4.6c1,3.3,3.9,4.6,6.6,6.3c1.9,1.2,5.6,1.5,4.4,4.9c-1,2.8-4.2,2-6.6,2.2
			c-9,0.6-16.8-3.8-25.3-5.6c-1.3-1.3-2.5-3.1-4-3.7c-13.6-5-25.7-13.1-38.5-19.5c-1-0.6-1.9-1.2-2.9-1.9l0.6-0.2l-0.6,0.2
			c-1-0.5-1.9-1.1-2.9-1.6c-14.6-7.6-26.5-20.1-43-24.6c-4.9,0.3-3.5,3.5-2.3,5.8c2.3,4.2,5.8,4.9,9.9,2.3c1.2,0.7,2.3,1.4,3.5,2
			c0.7,1.9,2.1,2.5,4,2.5l-0.2-0.1c0.8,1.6,2.1,2.2,3.8,2.3c1.9,1.1,3.8,2.2,5.7,3.3c0.7,1.7,2.1,2.3,3.9,2.3l-0.1-0.1
			c0.7,0.7,1.4,1.4,2.1,2.1c0.5,0,1,0.2,1.5,0.4c0.3,13.8,1.6,27.7,1.6,41.4c0,25-0.9,50.3-6.9,74.9c0,0.6-0.1,1.1-0.4,1.7
			c-4.7-0.5-3.6-6.9-7.9-7.8l0.1,0.1c0.2-1.7-0.3-3.1-1.8-4.1l0.1,0.1c0.2-3.4-0.3-6.3-4.2-7.3c-1.1-1.5-2.2-3-3.3-4.5
			c0,0-0.3-0.1-0.3-0.1l0.4,0.2c4.2,11.5,8.3,23,12.5,34.4c0.3,1.2,0.5,2.5,0.8,3.7c0.2,0.6,0.3,1.3,0.5,1.9c0.5,1.9,1,3.7,1.5,5.6
			c2.2,9.5,4.3,19,6.5,28.4c3.8,25,7.3,50.1,12.5,74.9c2.8,13.8,8.7,24.2,22,29.7c4.6,4.2,8.8,8.7,6.2,15.6
			c-4.1,10.9-14.2,6-22.1,7.4c1.9,3.9,3.6,7.1,5.2,10.3c-5.2,9.1-13.4,16.9-23.3,13.7c-9.2-3-18.8-7.3-27.1-13.1
			c-5-3.5-5.9-8.9-3.5-14.4c2.4-5.4,4.4-11,8.1-15.9c5.9-7.6,7.9-16.9,9-26.3c-0.1,0-0.1-0.1-0.2-0.1c0.8-1.6,1.5-3.3,2.3-5
			c1.2-4.7,2.3-9.5,3.8-15.6c-10,4.4-17.4,9.5-24.9,14.6c-11.9,6.5-24.1,5.5-36.5,1.5c-16.8-5.4-33.4-11.1-49.3-18.9
			c-2.8-1.4-5.3-3.6-9.8-2.5c3.9,2.6,7.3,4.8,10.7,7c5.7,7.5,5.2,8.8-4.4,11.6c-3.9,1.1-7.8,2.6-11.8,3.4c-4.4,0.9-7.6,2.9-8.6,7.5
			c-1.2,0.1-2.5,0.3-3.7,0.4C606.7,816.2,604.8,816.9,603.8,820.5z M405.9,384.8c0,0-0.1,0-0.1,0c0.8-0.5,1.6-1,2.3-1.5
			c0.5-1.4,1.1-2.8,1.6-4.2l0,0.1c0.6-0.7,1.2-1.4,1.9-2.1c0,0-0.1,0.1-0.1,0.1c0.7-0.7,1.4-1.5,2-2.2c0.8-7.7,2.8-15.4,1.8-23.3
			c-1.3-10.2-3.2-20-14.8-23.9c-10.7-3.8-17-1.8-23.9,6.8c-8.5,10.6-12.8,37.1,1.2,51c0.8,0.8,1.5,1.6,2.3,2.3l0.1-0.3
			c0.5,2.4,2.2,2.7,4.2,2.4l0.6,0.1c6,2.9,11.9,5.3,16.7-2l0.1,0.1c0.7-0.6,1.4-1.1,2.2-1.7c0,0,0,0.1,0,0.1
			C404.6,386.1,405.2,385.4,405.9,384.8z M341.8,439.8l-0.2-0.3c0.7,1.8,2.1,2.3,3.8,2.4c0.6,0,1.1,0.1,1.6,0.3
			c4.3,1.7,8.6,3.5,13.4,1.6c1.2,0,2.4,0,3.7,0c5.7,3.4,11.4,4.5,17.2,0.2c1.3,0.1,2.5,0.2,3.8,0.3c0.9,2.5,2.9,3.6,5.2,3.2
			c15.1-2.3,29.6,4.1,44.9,2.4c14.4-1.6,28.9,1.7,43.3,2.9c6.4,0.5,13.2,2.5,19.3-1.8c3.7,0.3,7.4,0.5,11.1,0.8
			c2.1,5.5,7.9,4.8,11.3,4.5c13.5-1.2,26.7,1.7,39.8,3.3c12,1.4,24.4-1.8,36.1,3c1,0.4,2.7-1.1,4.1-1.7c1.8,0,3.7,0,5.5,0
			c3.1,2.9,6.4,2.8,9.7,0.3c3.4,0.3,6.9,0.7,10.3,1c14.1,1.1,28.3,2.3,42.4-0.5c9.3-1.9,12.4-7.2,8.4-15.7
			c-2.6-5.7-6.3-10.9-9.8-16.1c-2-2.9-4.7-5-9.1-2.9c2,3.2,3.8,6,5.5,8.9c0,1.9,0.5,3.4,2.5,3.9l-0.1-0.1c0.5,0.8,1,1.7,1.5,2.5
			l-0.1-0.1c-1.7,10.6-7.3,13.7-19.7,12.6c-10.6-0.9-21.4-1.4-32,1.1c-4.8,0.6-8.7-2.8-13.7-2.4c-13.8,1.2-27.5-1.5-41.3-2.1
			c-1.4-4-4.9-2.9-7.9-3.4c-10.5-1.8-20.7-4.2-30.5-8.4c-3.6-1.6-5.7-3.6-5.6-7.6c0.5-0.4,1-0.8,1.5-1.2c0.8-0.7,1.6-1.4,2.3-2.1
			l-0.2,0c8.8-5.1,9.3-7.7,3.2-14.6c-9-10.1-19.4-5.1-29.6-2.9c-1.9-0.1-3.8-0.2-5.7-0.3c-3.9-4.8-6.7-3.2-9.1,1.5l0.2-0.2
			c-1,0-1.5,0.3-1.1,1.4c-0.3,1.9-0.6,3.9-0.9,5.8c-3.1,6.9-3.4,12.6,6,14.2l-0.1,0c0.5,2.1,2,2.6,3.9,2.6c0.5-0.1,0.9,0.1,1.2,0.5
			c0.4,2.1,3.8,2.4,3.2,4.9c-17.2,3.5-34-1.3-50.5-2.9c-24.5-2.4-49.1,0.1-73.3-3.9c-3-0.5-6.4-0.5-8.8,2.1
			c-6.4,1.4-11.4-2.7-17-4.5c-0.6-0.5-1.3-1.1-1.9-1.6l0,0.1c0.4-10.8-1.1-21.7,1.1-32.5c0.6-2.8,0.7-9.5-6.2-4.8
			c-0.9,7.8-2,15.6-2.5,23.5c-0.5,8.1,0.5,15.8,7.5,21.3C340.2,438.7,341,439.3,341.8,439.8z M638,400.1c0.6-0.6,1.3-1.3,1.9-1.9
			c11.2-14.9,12.1-35.4,2.1-47.7c-0.5-0.8-1-1.5-1.5-2.3c-8.7-7.9-18.3-8.1-26.8-1.5c-12.2,9.4-17.4,42-2.3,53.5
			C621.5,409.5,627,409.5,638,400.1z"/>
		<path class="st18" d="M765.8,404.5c4.4,5.4,11.8,5.4,17.1,9c7.9,18.7,3.7,27.5-16,34.2c-1.1,0-1.5,0.6-1.4,1.6
			c0,0-0.1,0.2-0.1,0.2c-4.7-1.1-9.8,1.1-14.4-1.6c-0.4-0.5-0.6-1.1-0.6-1.7c0.4-17.6-2.2-35.1-3.4-52.6c-0.4-5.6-4.4-11.5,0.2-17.2
			c4.3,5.6,5.1,13.3,10.8,18.1l-0.1-0.1c0.3,3.1,1.7,5.5,4.5,7c0.8,0.7,1.6,1.4,2.3,2.1C765.2,403.7,765.5,404.1,765.8,404.5z"/>
		<path class="st17" d="M750.2,682c0.3-0.5,0.4-1.1,0.4-1.7c5.1-3.2,4.2-8.8,5.2-13.4c7.1-34.2,4.8-68.6,1.9-103
			c3.2,0.7,6.3,1.3,9.5,2c1,0.5,1.9,1.1,2.9,1.6c0,0,0,0,0,0c1,0.6,1.9,1.2,2.9,1.9c-0.1,1.1-0.2,2.2-0.2,3.3
			c-6.3-2.9-8.7-0.8-8.3,5.9c1.8,26.9,2.2,53.8-1.2,80.6c-0.8,6.2,2,5.9,6.6,4.9c11.1-2.4,11.5-2,10.4,9.2c-0.5,5.6,0.2,11.6-4.5,16
			c0,0-0.1,0.1-0.1,0.1c-0.5-0.2-1-0.3-1.6-0.1c0.2-1.2,0.3-2.5,0.5-3.7c0.4-2.1,1-4.2,1.2-6.3c1.4-13.7,1.4-13.7-12-10.1
			c-3.4,1.2-3,4.4-3.8,6.9c-2.8,8.9-5.5,17.8-8.3,26.7c-1.1,0.6-2.2,1.2-3.2,1.8c-0.5-1.9-1-3.7-1.5-5.6c0.1-0.2,0.4-0.5,0.3-0.7
			c-0.2-0.4-0.5-0.8-0.8-1.2c-0.3-1.2-0.5-2.5-0.8-3.7c1.7-0.1,3.5-0.2,4.4-1.9C750.6,688.2,751.6,685.1,750.2,682z"/>
		<path class="st17" d="M750.3,446.3c0.1,0.6,0.3,1.2,0.6,1.7c-1.3,7.6,0.6,15,1.6,22.4c0.2,1.3,0.4,2.7,0.5,4
			c0.3,2.5,0.6,5.1,0.9,7.6c0.2,1.3,0.4,2.5,0.5,3.8c-0.5,11.6,4.1,22.7,3.2,34.4c-0.1,0.2-0.4,0.5-0.4,0.6c0.2,0.4,0.4,0.8,0.7,1.2
			c0.7,2.1,2.9,4.2-0.3,6c-5.2-2.2-8.5-6-9.5-11.6c2.4-0.1,5.1,0.1,4.7-3.6c-6.4-45.8-11.8-91.8-15.7-137.9
			c-0.3-2.8-0.6-5.6-0.8-8.4c-0.6-2-1.5-4.1,0.4-6c5.4,0.3,5.8,3.3,4.2,7.6c0.1,1,0.2,2.1,0.2,3.1c-0.4,2.2-0.5,4.3,0.8,6.3
			c0.3,2.8,0.6,5.6,1,8.4C745.9,405.8,745.5,426.4,750.3,446.3z"/>
		<path class="st17" d="M789.5,837.5c-13.3-5.5-19.2-16-22-29.7c-5.1-24.8-8.7-49.9-12.5-74.9c0.9-1.2,1.8-2.4,2.8-3.6
			c1.9,8.8,3.8,17.6,5.7,26.4c0.4,1.8,0.5,4.1,2.6,4.5c2.6,0.4,3.5-2,4.4-4c3.7-8.1,2.7-16.5,1.9-24.9c0.8-0.1,1.7-0.1,2.5-0.2
			c3.3,4.8,1.9,10.1,1.8,15.3c-1.3,1.2-1.5,2.5-0.3,3.9c0.2,0.7,0.3,1.5,0.5,2.2c-0.6,1.2-1.1,2.3-1.7,3.5c-1.7,2.7-2.1,5.8-2,8.9
			c-2.4,0.3-4.9,0.6-7.3,0.8c-0.4-0.1-0.9-0.2-1.3-0.3c0.3,0.7,0.6,1.3,1,2c1.9,10.6,4.1,21.1,5.7,31.8c2.3,15.7,8,29.1,21.7,38.2
			C791.7,837.5,790.6,837.5,789.5,837.5z"/>
		<path class="st20" d="M841.8,583.4c0.7-0.6,1.3-1.3,2-1.9c0.7-0.8,1.4-1.5,2-2.3c0,0,0,0.1,0,0.1c5.2,0.1,9.3-3.2,14-4.5
			c-0.4-1.1-0.7-2.3-1.1-3.4c2.2-1.9,5.5-2.8,6.4-0.1c2.1,6.9,2.8,14.5-0.5,21.2c-2.7,5.6-4.9,13.2-14.1,10.8c2.8-1.5,4.4-3.9,5-7
			c0.1-4.7-4.4-4.3-6.8-6.2C846.1,588.2,842,587.8,841.8,583.4z"/>
		<path class="st4" d="M855.5,596.4c-0.5,3.1-2.1,5.5-5,7c-0.5-0.1-0.9,0-1.3,0.3c-0.7-0.1-1.3,0-1.8,0.3
			c-7.6-0.2-15.2-0.4-22.7-0.6c-6.3-1.9-11.6-5.3-15.5-10.7c-12.5-6.1-25.2-11.8-36.4-20.1c0.1-1.1,0.2-2.2,0.2-3.3
			c12.9,6.5,24.9,14.5,38.5,19.5c1.6,0.6,2.7,2.4,4,3.7C825.6,602.1,843.5,603.9,855.5,596.4z"/>
		<path class="st17" d="M746.4,355c1.6-5.7,3.9-11.3,4.7-17.1c0.9-6,0.6-12.4-7.2-14.1c-6.1-1.3-7.5-3-2-7.4
			c1.9-1.5,3.3-3.8,4.9-5.7c0,0,0.9,0,0.9,0l0.9,0c-0.4,4.8,2.1,7.7,6.1,9.7C757.5,333.4,757.2,345.5,746.4,355z"/>
		<path class="st20" d="M757.7,527.9c3.3-1.8,1.1-4,0.3-6c0.1-0.6,0-1.2-0.3-1.8c1-11.6-3.7-22.8-3.2-34.4
			c5.7,4.9,4.8,11.9,5.3,18.2c0.8,10.1,5.1,18.9,9,27.9c-1.7-0.8-3.4-1.7-5.1-2.5c-1.8-1.1-2.9-5-5.9-1.6L757.7,527.9z"/>
		<path class="st4" d="M766.9,447.8c19.7-6.7,23.9-15.6,16-34.2c7.2,0.6,5.5,6.7,6,10.8c1.9,16.3-0.3,19.5-15.7,24.8
			c-0.7,0.1-1.4,0.2-2.1,0.3c-1.6,0.1-3.2,0.2-4.8,0.3C766.6,449.1,766.7,448.4,766.9,447.8z"/>
		<path class="st5" d="M774.9,731.1c-0.8,0.1-1.7,0.1-2.5,0.2c-4.3-3.9-4.4-6.9-0.3-11.8c7.3-8.6,6.8-17.7,0.5-22.6
			c0.4-1.1,0.8-2.3,1.1-3.4c10.8,6.6,11.6,12.6,2.4,26.7C773.5,724.1,772.4,727.1,774.9,731.1z"/>
		<path class="st15" d="M858.7,571.4c0.4,1.1,0.7,2.3,1,3.4c-7.4-4-16-0.9-23.6-3.8c0,0,0,0.2,0,0.2c-0.8-0.4-1.5-0.8-2.3-1.2
			c-0.4-0.4-1-0.6-1.5-0.6c-0.6-0.6-1.3-1.2-1.9-1.8c2.3-4,6.6-3.7,10.2-5c3.2-1.1,6.1-2.4,2.9-6.4c-0.1-0.3-0.5-0.7-0.4-0.8
			c0.2-0.4,0.8-0.9,0.9-0.9c4.1,2.8,4.9,5.7-0.1,8.3c-2.2,1.2-4.5,2-7.7,3.3C843.6,571.1,850.7,573,858.7,571.4z"/>
		<path class="st5" d="M763.8,529.3c1.7,0.8,3.4,1.7,5.1,2.5c0,0,0.2-0.1,0.2-0.1c3.2,3.5,7.2,5.9,11.6,7.5c0.8,0.5,1.6,1.1,2.3,1.6
			c1.1,0.7,2.3,1.4,3.4,2c0,0,0,0,0,0c1.3,0.7,2.5,1.3,3.8,2c0,0-0.1,0-0.1,0c1.3,0.7,2.6,1.4,3.8,2.1c0,0-0.2-0.1-0.2-0.1
			c1.3,0.8,2.6,1.5,3.9,2.3c0.6,1,1.3,2.1,1.9,3.1c-14.4-2.3-24.9-11.8-36.2-19.7C763.5,531.4,763.7,530.4,763.8,529.3z"/>
		<path class="st15" d="M740.9,367.9c1.6-4.2,1.2-7.3-4.2-7.6c2.9-1.6,7-0.4,9-4.1c-2.5,4.7-1.3,9,1.1,13.4
			c4.2,8.1,9,15.9,11.2,24.8c-5.7-4.8-6.5-12.5-10.8-18.1C745.8,373.1,745.8,368.8,740.9,367.9z"/>
		<path class="st20" d="M752.6,470.4c-1.1-7.4-3-14.8-1.6-22.4c4.6,2.7,9.7,0.5,14.4,1.6C750.2,449.8,756,462.9,752.6,470.4z"/>
		<path class="st20" d="M809.2,592.7c3.9,5.4,9.2,8.8,15.5,10.7C812.3,607.3,809,605,809.2,592.7z"/>
		<path class="st21" d="M773.7,693.5c-0.4,1.1-0.8,2.3-1.1,3.4c-2.1-0.2-4.8-0.2-4.5-3.1c0.3-3.3,3.6-3.6,6.1-4.6
			c0.5-0.2,1.1-0.1,1.6,0.1c0,0-0.1,0-0.1,0C775,690.7,774.3,692.1,773.7,693.5z"/>
		<path class="st20" d="M780.7,539.3c-4.4-1.6-8.4-4-11.6-7.5C774.6,531.7,779.5,532.6,780.7,539.3z"/>
		<path class="st15" d="M762.3,401.4c-2.8-1.5-4.1-3.9-4.5-7C760.8,395.9,762.6,398,762.3,401.4z"/>
		<path class="st20" d="M754.1,482c-0.3-2.5-0.6-5.1-0.9-7.6C757,476.5,756.5,479.1,754.1,482z"/>
		<path class="st15" d="M765.8,404.5c-0.3-0.4-0.7-0.8-1.1-1C765.6,403.3,766.1,403.5,765.8,404.5z"/>
		<path class="st14" d="M776.3,750.2c-1.1-1.4-0.9-2.7,0.3-3.9C776.5,747.7,776.4,748.9,776.3,750.2z"/>
		<path class="st20" d="M786.5,542.9c-1.1-0.7-2.3-1.4-3.4-2C784.2,541.5,785.3,542.2,786.5,542.9z"/>
		<path class="st20" d="M790.3,544.9c-1.3-0.7-2.5-1.3-3.8-2C787.7,543.5,789,544.2,790.3,544.9z"/>
		<path class="st20" d="M794,546.9c-1.3-0.7-2.6-1.4-3.8-2.1C791.5,545.5,792.8,546.2,794,546.9z"/>
		<path class="st20" d="M797.8,549.1c-1.3-0.8-2.6-1.5-3.9-2.3C795.6,546.9,797,547.4,797.8,549.1z"/>
		<path class="st20" d="M847.4,604c0.6-0.3,1.2-0.4,1.8-0.3C848.6,603.8,848,603.9,847.4,604z"/>
		<polygon class="st5" points="775.6,689.3 775.7,689.3 775.8,689.2 		"/>
		<path class="st20" d="M766.9,447.8c-0.2,0.7-0.4,1.3-0.5,2c0,0-0.9-0.4-0.9-0.4C765.4,448.4,765.9,447.8,766.9,447.8z"/>
		<path class="st20" d="M771.2,449.5c0.7-0.1,1.4-0.2,2.1-0.3C772.7,450.1,772,450.4,771.2,449.5z"/>
		<path class="st5" d="M789.5,837.5c1.1,0,2.2-0.1,3.3-0.1c10.5,11.5,8.3,20-5.8,23.3c-8.1,1.9-8.1,1.9-8.2,10.2
			c-1.6-3.2-3.2-6.5-5.2-10.3c7.9-1.4,18,3.5,22.1-7.4C798.3,846.2,794.1,841.7,789.5,837.5z"/>
		<path class="st5" d="M723,808.8c7.4-5.1,14.9-10.2,24.9-14.6c-1.5,6.1-2.7,10.8-3.8,15.6c-3-0.9-3.4-3-2.5-5.6c0-0.7,0-1.4,0-2.1
			c-0.5,0.2-1,0.4-1.5,0.6c-4.8,2.8-9.6,5.6-14.4,8.4C724.7,810.3,723.8,809.5,723,808.8z"/>
		<path class="st5" d="M741.7,814.7c0.1,0.1,0.1,0.1,0.2,0.1c0,0,0.1-0.2,0.1-0.2L741.7,814.7z"/>
		<path class="st10" d="M765.4,767.4c-0.3-0.7-0.6-1.3-1-2c0.4,0.1,0.9,0.2,1.3,0.3C765.8,766.3,765.6,766.9,765.4,767.4z"/>
		<path class="st9" d="M82.6,135.7c0.2-3.4,3.7-3.9,5.8-7c-7.8-0.7-14.6-3.1-21.1-6.6c1.5-2.2,3.6-4,6.3-3.2
			c17.2,5.1,34.2-5.4,51.4-0.6c2.6,0.1,5.1,0.2,7.7,0.3c14.8,4.9,27.6-0.3,40.2-7.7c12.5-7.4,20.9-19,31.1-28.8
			c9,9.9,16.4,20.9,23.1,32.4c0.5,1.2,1.1,2.3,1.6,3.5c4.5,12.2,8.2,24.7,9.3,37.6c0.5,5.3,3.7,6.9,7.8,8.1c5.5,1.7,10.8,3.8,14.9,8
			c2.3,2.3,4.6,4.8,3.2,8.3c-1.6,3.8-5.3,3.4-8.2,2.7c-8.7-1.8-17.2-4.1-25.8-6.2c-1.8-0.4-3.6-1.4-5.8,0.2c0.3,1,0.5,2.2,1,3.2
			c1.4,3.1,3.9,6.4,0.3,9.4c-3.1,2.6-6.6,1.1-9.9-0.2c-6.8-2.8-12.8-6.8-18.6-11.3c-7.8-6-16.1-8.3-25.8-5.2c-3,1-6.2,1.4-9.3,1.7
			c-4.2,0.4-9.1-0.1-10.7-4.2c-1.6-4.1,3.1-5.7,5.9-7.3c4.9-2.8,2.8-5.3-0.1-7.9c-1-2.7-3-4-5.8-4.2c0,0,0.1,0.1,0.1,0.1
			c-3.3-4.6-8.2-6.5-13.5-7.7c0,0,0.2,0.1,0.1,0.1c-1.4-1.8-3.5-2-5.5-2.1c0,0-0.3-0.1-0.3-0.1c-2.3-3.4-5.7-4.9-9.6-5.4
			c0,0,0.2,0.1,0.2,0.1c-1.5-1.9-3.5-2.3-5.7-2.1c0,0,0.1,0,0.1,0c0.7-6.7,8.7-2,10.9-7.4c-7.7,0.8-15.2-1.8-22.4,1.6
			C96.8,127.7,90.2,133.1,82.6,135.7z M137.4,125.2c-0.6-0.2-1.2-0.5-1.7-0.5c-0.4,0-0.9,0.4-1.3,0.7c0.5,0.2,1,0.5,1.6,0.5
			C136.4,125.9,136.9,125.5,137.4,125.2z"/>
		<path class="st7" d="M94.1,232c7.5,4.5,5.8,10.6,2.1,16.3c-5.2,8-11.8,14.9-19.6,20.4c-11.8,8.4-14,8-23.8-2.7
			c-3.6,3.6-2.4,8.1-2.7,12.4c-1.2,0-2.3,0-3.5,0.1c-2.4-4.7-1.1-9.6,0.8-13.7c7.8-17.1,19.7-30.6,37.1-38.4
			c10.5-4.7,20.8-4,29.9,4.1c-1.2,0.2-2.3,0.4-3.5,0.6c-5.6-1.6-11.2-3.8-17.2-2c-4.2-0.2-8.4-0.5-11.1,3.7c-0.7,0.6-1.3,1.2-2,1.8
			c-1.7-0.2-3.1,0.2-4.1,1.6c-0.7,0.6-1.4,1.1-2.2,1.7c-0.4,0.5-1.1,1.2-1,1.4c0.8,1.3,1.5,0.4,2.1-0.3c0.7-0.6,1.3-1.2,2-1.9
			c1.1-0.8,2.3-1.5,3.4-2.3c0.6-0.6,1.2-1.3,1.9-1.9C86.5,232.5,90.3,232.2,94.1,232z M65.7,248.3c0.6-0.6,1.3-1.2,1.9-1.9
			c1.5-0.6,2.8-1.3,2.8-3.1c0-0.2-0.4-0.7-0.6-0.6c-1.9,0-2.5,1.4-3,2.9c-0.6,0.6-1.3,1.3-1.9,1.9c-0.7,0.6-1.3,1.2-2,1.8
			c-1.4,0.6-2.5,1.5-2.5,3.2c0,0.2,0.4,0.6,0.6,0.6c1.7-0.2,2.4-1.4,2.9-2.8C64.6,249.6,65.1,248.9,65.7,248.3z M59.1,256.5
			l-0.4-0.3l-0.1,0.5L59.1,256.5z"/>
		<path class="st7" d="M410.9,221c-3.3,2.9-6,1.4-9.1-0.8c-9.3-6.7-15.2-5.5-22.8,4.1c-4.8,6.1-7.3,14-14.9,17.7c-1-0.8-2-1.6-3-2.5
			l-0.5,0.1c0,0,0.5-0.1,0.5-0.1c-0.8-0.6-1.5-1.2-2.3-1.8c-0.6-0.5-1.3-1.1-1.9-1.6c-0.7-0.6-1.3-1.2-2-1.8c0,0,0,0,0,0
			c-0.8-1-1.6-2.1-2.4-3.1c0.4-0.4,0.8-0.9,1.2-1.4c6.6,6.8,11.4,3.9,15.4-3c2.9-4.9,5.8-9.7,10-13.7c6.3-6.2,12.4-6.8,19.1-0.8
			c5.1,4.6,9.6,6,10.5-3.2c0.4-4.3,3.3-5.6,6.6-7.2c3.4-1.6,6.6-3.6,9.9-5.4c0.6,0.6,1.3,1.3,1.9,1.9c-0.6,2.6-1.3,5.2-1.9,7.8
			c-0.8,1-1.7,2-2.5,3c0,0,0.2-0.1,0.2-0.1c-1.5,0.4-2.6,1.3-3.1,2.8c0,0-0.1,0.1-0.1,0.1c-2.1,1.2-3.7,2.7-4.4,5.1c0,0,0.2,0,0.2,0
			c-0.7,0.7-1.5,1.3-2.2,2c0,0,0.3-0.2,0.3-0.2C412.5,219.6,411.7,220.3,410.9,221z"/>
		<path class="st7" d="M307.2,268.8c-1.1,3.2-0.8,6.3,0.2,9.5c-1,0.1-2.1,0.3-3.1,0.4c-6.1-17.6-2.4-23.1,15.6-22
			c5.6,0.4,7.4-1,6.8-6.5c-1-8.6,3-15.2,8.9-20.9c6.2-5.9,12.3-7.5,18,0.6c-0.4,0.5-0.8,0.9-1.2,1.4c-3.4,0.2-7.2-0.8-9.3,3.3
			c0,0,0.1-0.1,0.1-0.1c-0.7,0.6-1.5,1.2-2.2,1.8c0,0,0-0.2,0-0.2c-2.8,1.1-4.9,2.8-5.5,6c0,0,0,0,0,0c-2.1,1.5-2.6,3.8-2.8,6.2
			l-0.5,0.3c0,0,0.1,0.6,0.1,0.6c-0.3,1.5-1,3.1-0.8,4.5c1.5,8.4-1.5,11.1-10,9.2c-4.4-1-9.4-0.7-12.6,3.9c0,0-0.1,0.1-0.1,0.1
			C307.7,267.1,307.1,267.6,307.2,268.8z"/>
		<path class="st15" d="M228.5,118.2c-0.5-1.2-1.1-2.3-1.6-3.5c67.3,0,134.6,0.1,201.8,0.1l0.5,0.6c-0.2,0.7-0.5,1.4-0.7,2
			c-36.9,0-73.8-0.1-110.8,0c-1.5,0-3,0.7-4.5,1.1c-23.7-0.1-47.4-0.1-71.2-0.2C237.6,118.2,233.1,118.2,228.5,118.2z"/>
		<path class="st0" d="M242.2,118.2c23.7,0.1,47.4,0.1,71.2,0.2c38.4,0,76.7,0,115.1,0c0,2,0.1,3.9,0.1,5.9c-3-4.5-7.6-3.8-12-3.8
			c-54.2,0-108.4,0-162.6,0C249.9,120.5,245.6,121.7,242.2,118.2z"/>
		<path class="st14" d="M110.9,231c1.2-0.2,2.3-0.4,3.5-0.6c21.5,12.2,39.7,28.9,59.3,43.6c3.7,2.7,9.6,3.8,9.7,10.2
			c-18-11.3-33.7-25.5-51-37.8C125.2,241.3,118,236.2,110.9,231z"/>
		<path class="st22" d="M309.1,293.1c-10.3,9.2-5.9,16.3,3.2,22.8c2.3,1.6,2.3,4.3,2,6.8c-1.4-0.7-2.5-4-4.5-0.6
			c-4.3,0.5-3.5,8.5-9.6,6.5c1.9-2.3,3.2-4.8,2.9-8c4-1.9,5.1-4.2,1.2-7.4c-2.3-1.9-4.6-3.9-6.9-5.9c0-1.5,0-3.1,0-4.6
			C297.5,295,305.2,296.4,309.1,293.1z"/>
		<path class="st12" d="M309.1,293.1c-3.8,3.3-11.6,1.9-11.6,9.7c-5.6,0.6-4.4-4.3-5.2-7.1c-0.8-2.7,2.1-3.4,4.1-4.2
			c5.8-2.4,11.4-4.8,7.9-12.8c1-0.1,2.1-0.3,3.1-0.4c1.2,2,2.4,3.9,3.6,5.9c-0.2,2.5-0.4,5-0.5,7.5
			C310,292.2,309.5,292.6,309.1,293.1z"/>
		<path class="st12" d="M428.5,154.2c0.1-4.2,0.2-8.5,0.2-12.7c1.2,0.6,2.4,1.2,3.5,1.8c-0.3,16.6,0.9,33.1-1.3,49.7
			c-2.9-2.8-1.9-6.4-2-9.7c-0.2-7.8-0.3-15.6-0.5-23.4c0-0.8,0-1.7,0-2.5C428.4,156.3,428.4,155.2,428.5,154.2z"/>
		<path class="st14" d="M432.2,143.3c-1.2-0.6-2.4-1.2-3.5-1.8c-0.1-5.7-0.1-11.4-0.2-17.1c0-2-0.1-3.9-0.1-5.9
			c0.1-0.3,0.2-0.7,0.2-1c0.2-0.7,0.5-1.4,0.7-2c4.3-2.1,3.2-6.1,3.5-9.8c0.4-5.2-1.4-10.6,1.6-15.4
			C433.7,107.9,433,125.6,432.2,143.3z"/>
		<path class="st9" d="M19.7,172.1c3.6-6,9.3-3.9,14.4-3.7c3.4,0.1,6.8,1,10.2,1.5c6.5,1,7.6-2.3,6-7.7c3.9,0.9,7.9,2.6,6.8,7.1
			c-0.9,3.7-5.4,3.9-8.8,4.1C38.8,174.1,29.5,168.6,19.7,172.1z"/>
		<path class="st14" d="M46.6,278.4c1.2,0,2.3,0,3.5-0.1c2.7,9.3,8.2,17,13.5,24.8c-1,0-1.9,0.1-2.9,0.1
			C54.3,295.9,47.4,288.9,46.6,278.4z"/>
		<path class="st15" d="M105.4,128.1c7.2-3.4,14.7-0.8,22.4-1.6c-2.2,5.4-10.3,0.7-10.9,7.4C113.1,131.9,109.2,130,105.4,128.1z"/>
		<path class="st14" d="M428.4,159.8c0.2,7.8,0.3,15.6,0.5,23.4c0.1,3.3-0.9,7,2,9.7c-0.1,1.5-0.2,3-0.3,4.5
			c-1.2,0.4-2.5,0.7-3.7,1.1c-0.6-0.6-1.3-1.3-1.9-1.9c4.1-8,1.6-16.5,2.3-24.8C427.6,167.8,426.8,163.7,428.4,159.8z"/>
		<path class="st9" d="M50.3,162.3c-2.6-0.1-6.2,1.1-6.9-2.6c-0.6-3.5,2.3-4.5,5.4-4.5C47.5,157.9,48.5,160.2,50.3,162.3z"/>
		<path class="st14" d="M194.8,291.8c-5.1-0.6-8.7-3.5-11.4-7.6C188.9,284.2,192.6,286.8,194.8,291.8z"/>
		<path class="st15" d="M137.6,143.5c5.3,1.2,10.1,3.1,13.5,7.7C146.1,149.5,141.4,147.3,137.6,143.5z"/>
		<path class="st15" d="M122.4,135.9c3.9,0.5,7.3,2,9.6,5.4C128.4,140.2,124.6,139.4,122.4,135.9z"/>
		<path class="st9" d="M71.3,141.6c0.7-4.5,4.3-3.8,7.4-3.9C76.7,140,74.2,141.1,71.3,141.6z"/>
		<path class="st15" d="M151,151c2.8,0.2,4.8,1.5,5.8,4.2C154.5,154.3,152.3,153.3,151,151z"/>
		<path class="st9" d="M8.5,179.7c0.2-2.5,1.5-3.7,4-3.6C12,178.2,10.6,179.3,8.5,179.7z"/>
		<path class="st9" d="M48.6,155.1c0.9-2.8,2.8-4,5.7-4C53,153.4,51.2,154.8,48.6,155.1z"/>
		<path class="st15" d="M132.2,141.5c2.1,0,4.1,0.2,5.5,2.1C135.6,143.8,133.7,143.1,132.2,141.5z"/>
		<path class="st15" d="M116.8,133.8c2.2-0.2,4.2,0.3,5.7,2.1C120.3,136.2,118.3,135.6,116.8,133.8z"/>
		<path class="st9" d="M67.2,143.7c1-1.4,2.4-2.1,4.1-2.1C70.3,143,68.9,143.6,67.2,143.7z"/>
		<path class="st9" d="M59.9,147.5c0.8-1.5,2.2-2.1,3.8-2.1C62.8,146.9,61.5,147.5,59.9,147.5z"/>
		<path class="st9" d="M54.1,151.2c0.9-1.4,2.3-2,3.9-2C56.7,149.8,55.4,150.5,54.1,151.2z"/>
		<path class="st9" d="M12.3,176c1-1.6,2.6-2,4.4-2C15.5,175.3,14.2,176.2,12.3,176z"/>
		<path class="st14" d="M40.7,307.2c-1.3,1.4-2.5,1.3-3.8-0.1C38.2,307.2,39.5,307.2,40.7,307.2z"/>
		<path class="st14" d="M48.3,307.5c-1.3,1.2-2.5,1.2-3.7-0.1C45.8,307.4,47.1,307.4,48.3,307.5z"/>
		<path class="st9" d="M4.7,181.7c0.9-1.5,2.2-2,3.8-2.1C7.7,181.1,6.5,181.9,4.7,181.7z"/>
		<path class="st14" d="M33.1,307.3c-0.6,0-1.3,0-1.9,0C31.9,307.3,32.5,307.3,33.1,307.3z"/>
		<path class="st14" d="M428.5,154.2c0,1.1,0,2.1-0.1,3.2C428.4,156.3,428.4,155.2,428.5,154.2z"/>
		<path class="st9" d="M57.9,149.2c0.7-0.6,1.4-1.3,2.1-1.9C59.3,147.9,58.6,148.6,57.9,149.2z"/>
		<path class="st9" d="M63.6,145.4c1-0.6,1.9-1.3,2.9-1.9C65.6,144.1,64.6,144.7,63.6,145.4z"/>
		<path class="st9" d="M78.9,137.6c0.9-0.5,1.8-1.1,2.6-1.6C80.7,136.5,79.8,137,78.9,137.6z"/>
		<path class="st23" d="M649.3,181.3c-0.7,6.4-6,5.2-10.1,6.1c-2.5,1.4,0.7,4-1.2,5.6c0,0,0.2-0.2,0.2-0.2
			c-4.7,4.6-8.6,3.4-11.8-1.8c0-5.7,0-11.5,0-17.2c0.1-3.9,1-7.8-1.7-13.2c-2.5,5.4-1.7,9.4-1.5,13.2c-0.1,6.5-1.8,13,1.2,19.3
			c-2.1,5.5-6.8,3.7-10.5,3.2c-4.2-0.6-3.5-4.7-3.8-7.7c-2.9-24-5.5-48.1-10.1-71.9c-1.1-18.8-7.2-36.7-10.8-55.1
			c8.9-4,17.1,0.8,25.1,3.1c6.1,1.7,3.4,9.3,5.2,14.1c0.4,3,0.8,6.1,1.3,9.1c0,0.8,0,1.6,0.1,2.3c0.8,22.1,1.7,44.2,2.5,66.3
			c1,0,2-0.1,2.9-0.1c0.4-25.9-0.9-51.8-3.7-77.7c0-1.9-0.1-3.8,0-5.7c0-2.4-1-5.5,2.9-5.7c3.6-0.2,4.8,2.4,5.1,5.5
			c0.1,1.9,0.2,3.8,0.3,5.7c2.1,25.5,2.1,51.1,1.9,76.6c-0.1,7.8,2,13.7,9.3,16.9C646.1,174,648.1,177.2,649.3,181.3z"/>
		<path class="st15" d="M649.3,181.3c-1.3-4-3.2-7.2-7.4-9.1c-7.2-3.2-9.3-9.1-9.3-16.9c0.2-25.6,0.1-51.1-1.9-76.6
			c-0.2-1.9-0.2-3.8-0.3-5.7c-0.2-3.2-1.5-5.7-5.1-5.5c-3.9,0.2-2.8,3.3-2.9,5.7c0,1.9,0,3.8,0,5.7c-1,0-2,0.1-3,0.1
			c-1.8-4.8,0.9-12.4-5.2-14.1c-8-2.3-16.2-7.1-25.1-3.1c0,0-0.7,0-0.7,0c0.7-1.8,1.4-3.6,2.1-5.5c25.1,5.9,50.3,11.6,75.3,17.7
			c3.3,0.8,4.9,1.4,4.4-2.7c0,0,0.2-0.2,0.2-0.2c3,1,7.3,2.3,6,5.8c-1.4,3.8-5.5,1-8.3,0.4c-7.7-1.7-15.4-3.4-23.1-5.3
			c-7.3-1.8-11.8-0.5-11,8.4c0.6,6.6,0.1,13.2,0.8,19.8c1.6,15,1.8,15,17.3,15c47.5,0,95,0.1,142.4,0c14.9,0,29.7-0.4,44.6-0.6
			c0.4,0.4,0.8,0.8,1.2,1.2c0.1,0.5,0,0.9-0.3,1.3c-1.5,0.2-3.1,0.3-4.6,0.5c-63.6,0-127.2,0-190.8,0.1c-3,0-7.3-2.2-8.5,3.2
			c0,10,0.4,20.1-0.2,30.1c-0.6,8.7,1.7,14.8,9.5,19.6C652.2,174.5,652.2,176.4,649.3,181.3z"/>
		<path class="st5" d="M824.8,187.8c-1.4,0.4-2.8,0.8-4.2,1.2c-4.8-2.1-8.8-4.6-7.6-11c0.5-2.5-0.6-4.6-3.1-6.3c-7.3-5-6.7-8,1-12.9
			c10.2-6.4,21.6-5.3,32.7-6.2c0,0,0,0,0,0c0.7,0.7,1.3,1.3,2,2c0,0,0,0,0,0c0.7,0.7,1.3,1.3,1.9,2c0,0,0-0.1,0-0.1
			c-0.1,6.7,5.2,12.3,3.8,19.3c0,0,0,0,0,0c-2.9-0.1-5.4,0.3-5.7,3.9c0,0,0-0.1,0-0.1c-1.6,0-3,0.6-3.9,2c0,0,0.1-0.1,0.1-0.1
			c-3,0-6.5-1-7.7,3.3c-0.7,0.2-1.4,0.3-2.1,0.5C828.4,182.5,826.6,185.1,824.8,187.8z"/>
		<path class="st12" d="M748.5,310.8l-0.9,0c0,0-0.9,0-0.9,0c0-3.2,0-6.4,0.1-9.6c0.1-0.2,0.4-0.5,0.4-0.6c-0.2-0.4-0.5-0.8-0.7-1.2
			c0,0,0,0,0,0c-0.6-1.3-1.1-2.6-1.7-3.9c-3.7-5.8-9-9.4-15.7-11.3c-6.2-1.8-8.4-5.1-5.3-12c4.8-10.6,2.4-14.3-8.6-18.1
			c-4.6-1.6-9.8-1.6-13.8-5.4c-2.8-2.6-4.3-5.1-4.2-8.8c0.1-10.4-4.2-15.5-14.7-16.3c-7.8-0.6-15.7-0.4-23.6-0.5
			c-0.6-0.1-1.1-0.1-1.7,0c-3.2,0-6.4,0-9.6,0.1c-0.9-0.6-1.7-1.1-2.6-1.7c-0.2-1.4-0.4-2.7-0.7-4.1c1.3-0.2,2.6-0.4,3.9-0.6
			c9.8-0.1,19.6-0.1,29.4-0.5c6.1-0.2,12,0.5,17.6,2.9c3.9,4.2,7.3,8.6,5.8,15c-0.6,2.8,1.1,4.8,3.6,6c0,0,0,0,0,0
			c1.5,4.9,5.4,5.6,9.7,5.7c1.5,0,3,0.1,4.5,0.1c2.3,2.6,5.2,3.6,8.5,4c0,0-0.3,0.1-0.3,0.1c4.1,4.7,5.1,9.9,2.1,15.4
			c-5,9.1,0,11.6,7.9,12.5c10.1,5.7,15.5,14,15,25.8c-0.1,2,0.3,3.7,2.1,4.8C752.6,310.6,750.5,310.8,748.5,310.8z"/>
		<path class="st12" d="M600,116.7c4.6,23.8,7.2,47.9,10.1,71.9c0.4,2.9-0.4,7.1,3.8,7.7c3.7,0.5,8.4,2.3,10.5-3.2
			c0.7-0.7,1.3-1.4,2-2c3.2,5.2,7.1,6.4,11.8,1.8c-1.6,5.7,5.9,6.5,6,11.2c-3.4,2.8-6.5-5.5-9.9-0.3c-14.2-3.2-28,0.3-41.8,2.9
			c-4.2-1.4-6.5-5-8.9-8.2c-11.7-15.4-22.6-16-35.4-1.8c-2.2,2.5-4.6,3.1-7.5,1.7c1.1-1.9-3.3-4.4,0.7-6c4.2-0.3,6.5-3.2,9.1-6
			c9.6-10.4,23.7-9.6,32.6,1.7c2.1,2.7,4,5.7,6.4,8.2c4.1,4.3,8.8,1.9,13.3,0.9c3.4-0.8,3.4-3.3,3.2-5.9c-2.1-24.8-4-49.7-10.2-74
			c0,0,0.7-0.5,0.7-0.5C597.6,116.7,598.8,116.7,600,116.7z"/>
		<path class="st20" d="M636.2,120.5c1.2-5.4,5.6-3.2,8.5-3.2c63.6-0.1,127.2-0.1,190.8-0.1c-0.4,1.1-0.8,2.3-1.2,3.4
			C768.3,120.6,702.3,120.6,636.2,120.5z"/>
		<path class="st4" d="M851.3,175.9c1.4-7-3.9-12.6-3.8-19.3c4.3,2.9,5,7.8,6.6,12.1c1,2.7,1.7,5.7,5.6,4.7c3-0.8,6.4-1.3,6.5-5.5
			c0.4-11,5.1-15.4,16.4-11.6c5.3,1.8,5.6-4.8,8.5-7.2c-2.2,7.4-1.4,13.6,5.4,18.6c2.2,1.6,4.2,5.1,2.3,8.4
			c-1.9,3.3-5.4,3.2-8.4,2.6C877.5,176.1,864.5,174.5,851.3,175.9z"/>
		<path class="st4" d="M843.6,152.8c-11.1,0.9-22.5-0.3-32.7,6.2c-7.8,4.9-8.4,7.9-1,12.9c2.5,1.7,3.6,3.7,3.1,6.3
			c-1.2,6.4,2.8,8.9,7.6,11c-10.8,2.8-13.5,1-12.1-8.8c0.6-4.1-0.5-5.6-4.1-6.8c-7.2-2.3-6.5-6.7-2.4-11.6
			c5.4-6.4,13.1-8.7,20.7-10.8c1.4-0.1,2.8-0.3,4.2-0.4C832.5,151,838.5,148.9,843.6,152.8z"/>
		<path class="st14" d="M826.9,150.6c-1.4,0.1-2.8,0.3-4.2,0.4c3.9-10.1,7.8-20.3,11.7-30.4c0.4-1.1,0.8-2.3,1.2-3.4
			c1.5-0.2,3.1-0.3,4.6-0.5C836.7,128.4,828.4,138.2,826.9,150.6z"/>
		<path class="st20" d="M737,278.3c-7.9-0.9-12.9-3.3-7.9-12.5c3-5.5,1.9-10.7-2.1-15.4c8.7,0.4,6.9,7.4,5.9,11.7
			C731.3,268.8,732.1,273.8,737,278.3z"/>
		<path class="st5" d="M634.3,203.7c3.5-5.2,6.5,3.1,9.9,0.3c0,0-0.3,0.1-0.3,0.1c0.5,0.7,1.1,1.4,1.6,2.1c0.9,3.6,1.8,7.2,2.7,10.8
			c-1.3,0.2-2.6,0.4-3.9,0.6c-2.5-3.9-0.9-10.4-7.4-11.7C636,205.2,635.1,204.5,634.3,203.7z"/>
		<path class="st20" d="M704.5,240.5c-2.5-1.3-4.2-3.2-3.6-6c1.5-6.4-1.9-10.8-5.8-15c7.2,0.1,9.7,4.3,9.5,10.9
			C704.6,233.7,704.6,237.1,704.5,240.5z"/>
		<path class="st20" d="M714.2,246.2c-4.3-0.1-8.3-0.8-9.7-5.7C708.6,241,712.1,242.4,714.2,246.2z"/>
		<path class="st4" d="M824.8,187.8c1.8-2.7,3.6-5.3,7.3-2.5C829.6,186.2,827.2,187,824.8,187.8z"/>
		<path class="st4" d="M834.1,184.9c1.2-4.3,4.7-3.3,7.7-3.3C839.7,183.7,837,184.5,834.1,184.9z"/>
		<path class="st20" d="M727.3,250.4c-3.3-0.4-6.2-1.5-8.5-4C722.2,246.4,725.4,247.1,727.3,250.4z"/>
		<path class="st4" d="M845.6,179.7c0.3-3.6,2.8-4,5.7-3.9C849.8,177.7,848,179.2,845.6,179.7z"/>
		<path class="st12" d="M638,193c1.9-1.5-1.3-4.2,1.2-5.6C638.8,189.2,638.4,191.1,638,193z"/>
		<path class="st4" d="M891.1,149.2c0.6-1.2,1.3-2.5,1.9-3.7C892.4,146.7,891.7,147.9,891.1,149.2z"/>
		<path class="st4" d="M841.7,181.7c0.9-1.4,2.3-2,3.9-2C844.3,180.3,843,181,841.7,181.7z"/>
		<path class="st12" d="M645.5,206.2c-0.5-0.7-1.1-1.4-1.6-2.1C645.1,204.2,645.5,205.1,645.5,206.2z"/>
		<path class="st10" d="M689.5,5.3c3.1-0.3,6-2.2,9.2-0.8c42,0.8,84,1.1,126-0.5c-0.4,5,0.4,8.8,6.8,8.2c2.5-0.2,4,1.4,4.7,3.8
			c-8-0.5-15.8-0.1-22.3,5.5c-2.9,2.4-5.6,5.1-2.5,8.6c3.6,4,3.8,8.5,3.6,13.2c-0.2,7.2,4,8,9.3,5.8c10-4.1,17.1-10.6,16.1-22.7
			c5.1,5.3,2,10.6,1.3,16.7c-1.5,12.7,0.8,25.6,4.7,37.9c1.5,4.7,3.8,9.4,3.1,14.6c-0.7,0.1-1.4,0.3-2.1,0.4
			c-2.4-8.2-5.7-16.2-6.9-24.6c-1.1-7.2-4.4-8.3-10.7-8.3c-51,0.2-101.9,0.1-152.9,0.2c-3.7,0-7.7-0.9-10.9,2
			c-0.7,0.1-1.3,0.2-2,0.3c-13.7-12.4-27.4-24.7-41-37.2c-0.5-0.5-0.3-1.8-0.5-2.7c0.6-4.7,0.7-9.3-1.3-13.7c0.3-0.7,0.6-1.3,0.9-2
			C644.6,7.6,667,5.9,689.5,5.3z"/>
		<path class="st20" d="M595.8,117.2c6.2,24.3,8.1,49.1,10.2,74c0.2,2.6,0.3,5.1-3.2,5.9c-4.6,1-9.3,3.4-13.3-0.9
			c-2.4-2.5-4.3-5.5-6.4-8.2c-8.9-11.2-23-12.1-32.6-1.7c-2.6,2.8-4.9,5.7-9.1,6c-0.8-1.7-1.5-3.5-2.3-5.2c0.3-5.1-2.9-8.2-6.4-11
			c-12.3-10-35.6-9-48.3,1.8c-2.3,2-3.9,5.2-7.6,5.1c-11.1-10.4-15.9-22.8-12-38c4.9-5.7,3.1-13,4.8-19.5c0.8-3.1-0.7-8.3,5.4-7.8
			c1.5,0.9,3.1,0.9,4.6,0c0.9-0.2,1.8-0.5,2.6-0.7c0.6,1.1,1.3,2.3,1.9,3.4c-2.9,0.6-4.3,2.1-3.4,5.1c0.2,0.6,1.6,1.4,1.9,1.2
			c2.3-1.4,2.8-3.7,3-6.2c0,0,0,0,0,0c1.8,0,3.1-0.8,4-2.3c1.4-0.2,2.8-0.4,4.2-0.7c9.2,1.7,18.4,1.5,27.6,0.1
			c1.4,0.1,2.8,0.3,4.2,0.4c0.4,2.1-0.2,4.6,2,6.1c0,0,0.2,0.3,0.2,0.3c0.3,3.8-1.4,8,2.1,11.1c1.8,0.6,1.9,2.3,2.7,4.8
			c0.4-8.2,0.8-15.3,1.2-22.4c12.1-0.4,24.2-0.8,36.3-1.2c1,1,1.9,2.7,3.2,3c1.6,0.3,1.6-1.4,1.4-2.6
			C581.8,117.1,588.8,117.2,595.8,117.2z"/>
		<path class="st23" d="M464.8,145c-3.9,15.2,1,27.6,12,38c-1.9,2.8-4.1,5.4-7.3,6.8c-4.6-2.2-9.1-5.2-11.8,2.5
			c-1.1,3.2-4.7,2.7-7.4,3.2c-2-11.8,2-23.2,1.6-34.9c0.5-0.5,0.5-1.1,0.2-1.7c0.3-2,0.7-4.1,1-6.1c4.5-29.9,9.7-59.7,16-89.4
			c0.4-2.1,0.4-5.1,3.1-5.2c3.3-0.1,2,3.2,2.4,5.1c0.7,3.3-0.5,7,1.9,10c0,1.1,0.1,2.3,0.1,3.4c-1.1,1.4-2.8,2.7-3.1,4.3
			C469.8,102.3,464.7,123.3,464.8,145z"/>
		<path class="st15" d="M476.4,73.4c-2.4-3-1.2-6.7-1.9-10c-0.4-1.9,0.8-5.2-2.4-5.1c-2.7,0-2.6,3-3.1,5.2
			c-6.2,29.6-11.5,59.4-16,89.4c-1.1,0-2.2,0-3.4,0c1-7.8,1.7-15.7,2.9-23.5c3.1-20.7,6.5-41.3,11.7-61.6c1.8-6.9,0.4-9.1-7.3-7.4
			c-18.4,4.3-18.5,4-21.2,22.3c-0.4,2.5-0.9,5-1.3,7.5c-3,4.9-1.2,10.3-1.6,15.4c-0.3,3.6,0.8,7.6-3.5,9.8c0,0-0.5-0.6-0.5-0.6
			c3.6-13.5,1-27.6,3.8-41.2c1-4.9-1.9-6.7-6.9-5.6c-6.5,1.4-13,2.3-19.5,3.5c-11.1,2.1-11,2.1-7.8-8.5c2.1-1.3,3.3-0.2,4.4,1.5
			c-2.4,3.6-2.1,4.7,2.6,3.7c18.5-4,37.1-7.7,55.7-11.5c0.6-0.1,1.2-0.5,1.8-0.5c4.5,0.4,10.7-4.6,13-0.5
			C478.8,60.5,480.3,67.4,476.4,73.4z"/>
		<path class="st13" d="M519.8,78.5c3.2,9.4,3.9,19.3,5.7,29c-3.9,9-25.3,10.9-32.7,3c0,0,0,0.2,0.1,0.2
			c8.6-6.2,12.9-15.7,18.5-24.1C513.6,83.2,515.1,79.2,519.8,78.5z"/>
		<path class="st15" d="M464.8,145c-0.1-21.7,5-42.7,8.6-63.9c0.3-1.6,2-2.9,3.1-4.3c4.7,2.5,3.2,7.2,3.6,10.9
			c1,9.7,1.5,19.4,2.1,29.1c-0.9,0.3-1.8,0.5-2.6,0.7c-1.5,0-3,0-4.6,0c-6.1-0.4-4.6,4.7-5.4,7.8C467.9,132,469.8,139.3,464.8,145z"
			/>
		<path class="st15" d="M570.3,116.8c-12.1,0.4-24.2,0.8-36.3,1.2c0-15.6,0-31.3,0-47.7c4.3,1.4,5.7,4.9,7.5,8
			c-0.3,0.3-0.6,0.6-0.9,0.9c-3.3-1.5-5.5-1.2-5.5,3.2c0.1,3.8-0.1,7.6,0,11.4c0.5,24.8-4,20.6,21.9,21.3c7.3,0.2,8.1-2.1,4.8-7.8
			c0.4-0.3,0.8-0.7,1.1-1C565.7,109.6,568.9,112.6,570.3,116.8z"/>
		<path class="st15" d="M595.8,117.2c-7,0-14,0-21-0.1c-3.9-6.6,0-13.2,0.1-19.9c0.2-11.9,0.6-23.7,0.9-35.6
			c1.1,0.5,2.2,1.1,3.3,1.7c-1.3,11.3-2.1,22.6-1.7,33.9c0.6,18.6-3.9,18,18.6,17.4c0.1,0.7,0.3,1.3,0.4,2L595.8,117.2z"/>
		<path class="st15" d="M519.8,78.5c-4.7,0.7-6.2,4.6-8.5,8c-5.6,8.5-9.9,18-18.5,24.1c7.1-11.5,14.2-23,21.2-34.5
			c1.1-1.8,1.8-4.9,4.2-4.2C521.4,73,519.6,76.2,519.8,78.5z"/>
		<path class="st4" d="M579.1,63.4c-1.1-0.6-2.2-1.1-3.3-1.7c-1.2-6.4,0.3-9.8,7.6-7.3c2.3,0.8,4.8,1.2,7.1,1.8
			c-0.7,1.8-1.4,3.6-2.1,5.5c-0.7,0.8-1.4,1.6-2.1,2.4C584,63.8,581.5,63.6,579.1,63.4z"/>
		<path class="st15" d="M492.8,110.5c7.5,7.9,28.9,6,32.7-3c0.7,3.1,1.3,6.2,2,9.3c-0.6,0.4-1.2,0.7-1.8,1.1
			c-1.4-0.1-2.8-0.3-4.1-0.4c-9.2,0-18.4-0.1-27.6-0.1c-1.4,0.2-2.8,0.4-4.2,0.7c-0.7-0.4-1.4-0.9-2.2-1.3
			C489.3,114.7,491.1,112.6,492.8,110.5z"/>
		<path class="st23" d="M621.4,11.8c2,4.4,2,9.1,1.3,13.7c-4-3.1-7.9-6.2-11.9-9.4C612.4,10.2,617.4,12.1,621.4,11.8z"/>
		<path class="st3" d="M621.4,11.8c-4,0.3-8.9-1.6-10.5,4.4c-1.7-1.3-3.8-2.3-4-5.5c5.2-0.4,10.1-2.9,15.4-0.8
			C622,10.5,621.7,11.2,621.4,11.8z"/>
		<path class="st15" d="M554.6,95.6c2.8,3.6,5.6,7.1,8.4,10.7c-0.4,0.3-0.8,0.7-1.1,1c-3.8-2.8-7.2-6-8-11
			C554.1,96.1,554.4,95.8,554.6,95.6z"/>
		<path class="st15" d="M547.2,85.9c2.5,3.2,4.9,6.5,7.4,9.7c-0.2,0.2-0.5,0.5-0.7,0.7c-4.5-1.7-6.1-5.6-7.4-9.7
			C546.7,86.4,547,86.1,547.2,85.9z"/>
		<path class="st3" d="M485.8,120.4c-0.2,2.5-0.7,4.9-3,6.2c-0.3,0.2-1.8-0.6-1.9-1.2c-1-3,0.5-4.6,3.4-5.1
			C484.7,120.5,485.3,120.5,485.8,120.4z"/>
		<path class="st3" d="M530,135.5c-3.5-3.2-1.8-7.3-2.1-11.1C531,127.6,529.8,131.7,530,135.5z"/>
		<path class="st3" d="M487.6,116.8c0.7,0.4,1.4,0.8,2.2,1.3c-0.9,1.6-2.2,2.4-4,2.3C486,119,485.8,117.4,487.6,116.8z"/>
		<path class="st3" d="M525.7,118c0.6-0.4,1.2-0.7,1.8-1.1c0.1,2.4,0.2,4.8,0.3,7.2C525.6,122.6,526.1,120.1,525.7,118z"/>
		<path class="st15" d="M544.1,81.5c1,1.5,2.1,3,3.1,4.4c-0.2,0.2-0.5,0.5-0.7,0.7c-2-0.6-3.2-2-3.5-4.1
			C543.4,82.2,543.7,81.8,544.1,81.5z"/>
		<path class="st15" d="M541.5,78.3c0.9,1.1,1.7,2.1,2.6,3.2c-0.4,0.4-0.8,0.7-1.2,1c-0.8-1.1-1.6-2.2-2.3-3.4
			C540.9,78.8,541.2,78.6,541.5,78.3z"/>
		<path class="st15" d="M668.3,69.4c-0.7-0.6-1.3-1.3-2-1.9c0,0,0.6-0.5,0.6-0.5c0.6,0.6,1.2,1.3,1.8,1.9
			C668.7,69,668.3,69.4,668.3,69.4z"/>
		<path class="st15" d="M664.1,65.5c0.7-0.1,1.3-0.2,2-0.3c0.3,0.6,0.5,1.3,0.8,1.9c0,0-0.6,0.5-0.6,0.5
			C665.6,66.9,664.9,66.2,664.1,65.5z"/>
		<path class="st15" d="M670.3,71.2c-0.7-0.6-1.4-1.2-2.1-1.7c0,0,0.4-0.4,0.4-0.4c0.6,0.7,1.2,1.3,1.8,2
			C670.5,71,670.3,71.2,670.3,71.2z"/>
		<path class="st5" d="M840.4,26.3c1.1,12.1-6,18.6-16.1,22.7c-5.3,2.2-9.5,1.4-9.3-5.8c0.2-4.8-0.1-9.2-3.6-13.2
			c-3.1-3.5-0.4-6.2,2.5-8.6c6.6-5.5,14.3-6,22.3-5.5C839.2,18.8,840.2,22.4,840.4,26.3z"/>
		<path class="st5" d="M857,17.6c2.5,0.7,5,1.5,7.5,2.2c0,0-0.1-0.1-0.1-0.1c0.2,6.4,10.4,9.3,6.2,17.3c-5.9-0.6-11.8-1.2-17.7-1.9
			c0,0-0.1,0.1-0.1,0.1C853.7,29.2,851,22.4,857,17.6z"/>
		<path class="st10" d="M857,17.6c-6,4.8-3.3,11.6-4.2,17.6C848.1,27.6,850.1,18.9,857,17.6z"/>
		<path class="st10" d="M852.9,35.1c5.9,0.6,11.8,1.2,17.7,1.9C864.1,42.3,858.4,39.6,852.9,35.1z"/>
		<path class="st15" d="M845.8,107.5c-0.8,3.3-3.2,5.5-5.4,8c-0.4-0.4-0.8-0.8-1.2-1.2c1.2-3,2.5-6,5.6-7.7
			C845.1,106.9,845.5,107.2,845.8,107.5z"/>
		<path class="st15" d="M847.5,95.9c0.7-0.1,1.4-0.3,2.1-0.4c0,0-0.2,0.2-0.2,0.2c0.6,1.3,1.1,2.7,1.7,4c-0.3,1.9-1.3,3.3-3,4.3
			c-0.3-0.2-0.6-0.5-0.9-0.7C847.3,100.8,847.4,98.4,847.5,95.9z"/>
		<path class="st15" d="M848.1,104c-0.8,1.2-1.5,2.3-2.3,3.5c-0.3-0.3-0.7-0.6-1-0.9c0.8-1.1,1.6-2.2,2.3-3.3
			C847.5,103.5,847.8,103.8,848.1,104z"/>
		<path class="st10" d="M851,99.7c-0.6-1.3-1.1-2.7-1.7-4C851.3,96.5,851.3,98.1,851,99.7z"/>
		<polygon class="st5" points="864.5,19.8 864.8,19.4 864.4,19.7 		"/>
		<path class="st4" d="M847.5,156.6c-0.6-0.7-1.3-1.3-1.9-2C846.2,155.3,846.8,156,847.5,156.6z"/>
		<path class="st4" d="M845.6,154.7c-0.7-0.7-1.3-1.3-2-2C844.3,153.4,844.9,154,845.6,154.7z"/>
		<path class="st13" d="M398.4,62.9c-3.2,10.7-3.2,10.6,7.8,8.5c6.5-1.2,13-2.1,19.5-3.5c5-1.1,7.9,0.7,6.9,5.6
			c-2.8,13.6-0.3,27.7-3.8,41.2c-67.3,0-134.6-0.1-201.8-0.1c-6.7-11.5-14.1-22.5-23.1-32.4c0.1-1.9,0.3-3.7,0.4-5.6
			c0,0,0,0.1,0,0.1c1.8-0.6,3-1.7,3.3-3.7c0.3-0.2,0.5-0.4,0.8-0.6c0.3-0.3,0.6-0.6,1-0.8c0.2-1.5,0.4-3,0.7-4.6
			c0.6-1.2,1.1-2.4,1.7-3.7c0,0,0.1-0.1,0.1-0.1c10.1-0.1,20.2-0.1,30.3-0.2c2.7,2.2,5.4,4.4,8,6.6c3.9,4.3,7.7,4.7,11.2-0.5
			c0.6-0.1,1.2-0.2,1.8-0.3c10.3-5.2,21.7-4.8,32.8-6.1C330.1,62.9,364.3,62.9,398.4,62.9z"/>
		<path class="st15" d="M296,62.9c-11,1.4-22.4,0.9-32.8,6.1c3.7-8.7,12.2-7.6,19.2-9c4.2-0.8,8.8-0.3,13.2-0.4
			C295.7,60.7,295.8,61.8,296,62.9z"/>
		<path class="st15" d="M124.9,118.4c-17.2-4.8-34.2,5.7-51.4,0.6c-2.7-0.8-4.8,1-6.3,3.2c-21.5-8.9-40.2-21.5-53.2-41.4
			c-0.7-1.1-2.6-1.6-3.9-2.4c0-3.1,0-6.2,0-9.3C13.8,61.8,12,52,20.3,46.8l0.3,0.3c-0.9,2.2-1.9,4.4-2.8,6.6c0,0,0,0.2,0,0.2
			c-5.1,7.7-5.5,15.4-0.1,23.1l-0.2,0.2c0.5,3,1.6,5.6,4.1,7.4l0,0c0.7,1.8,1.8,3.3,3.7,4c0,0,0-0.3,0-0.3c0.7,0.9,1.3,1.7,2,2.6
			c0,0.7,0.4,1.1,1,1.3c1,0.7,1.9,1.3,2.9,2L31,94c0.7,0.7,1.4,1.5,2,2.2c0.6,0.5,1.3,1,1.9,1.5c1.2,0.7,2.5,1.5,3.7,2.2l-0.2-0.2
			c0.7,0.6,1.4,1.3,2.1,1.9l-0.1-0.1c0.7,0.5,1.3,1.1,2,1.6c0.2,0.4,0.6,0.6,1,0.5c1.8,2,3.8,3.5,6.5,3.8l0-0.1
			c2.4,1.4,4.7,3.2,7.3,4.2c15.9,5.9,31.9,9.7,48.3,1.8l0.1,0.3c1.1-0.2,2.3-0.4,3.4-0.6c1.1,0.1,2.3,0.3,3.4,0.4
			C116.8,115.2,120.9,116.8,124.9,118.4z"/>
		<path class="st4" d="M242.2,63.2c-10.1,0.1-20.2,0.1-30.3,0.2c3-14.7,7.3-29.3,5.5-44.5c-0.7-5.8,4-7.1,6.7-10.3
			c9.3-0.7,17.4,2.3,24.7,7.8c3,2.2,4.9,5.1,1.4,7.7c-11.6,8.4-10.8,19.6-8,31.6C242.7,58.1,242.2,60.7,242.2,63.2z"/>
		<path class="st15" d="M261.4,69.3c-3.5,5.2-7.3,4.8-11.2,0.5C253.9,69.7,257.7,69.5,261.4,69.3z"/>
		<path class="st24" d="M112.7,113.5c-1.1-0.1-2.3-0.3-3.4-0.4c-1.5-1.6-2.7-1.8-3.4,0.6c0,0-0.1-0.3-0.1-0.3
			c-10.9-0.7-22.3,3.6-32.7-0.9c-7.5-3.3-14.3-7.8-22.9-5.2c0,0,0,0.1,0,0.1c-1.2-2.9-3.5-4-6.5-3.8c-0.5,0.1-0.8-0.1-1-0.5
			c-0.7-0.5-1.3-1.1-2-1.6c0,0,0.1,0.1,0.1,0.1c-0.7-0.6-1.4-1.3-2.1-1.9c0,0,0.2,0.2,0.2,0.2c-0.8-1.5-2.1-2.1-3.7-2.2
			c-0.6-0.5-1.3-1-1.9-1.5c-0.7-0.7-1.4-1.5-2-2.2c0,0,0.2,0.1,0.2,0.1c-1-0.7-1.9-1.3-2.9-2c-0.7-0.2-1-0.6-1-1.3
			c-0.7-0.9-1.3-1.7-2-2.6c0,0,0,0.3,0,0.3c0-2.5-1.2-3.8-3.7-4c0,0,0,0,0,0c-0.1-3.2,1-7-4.1-7.4c0,0,0.2-0.2,0.2-0.2
			c0-7.7,0.1-15.4,0.1-23.1c0,0,0-0.2,0-0.2c6.1,0.5,6.1-3.3,5.3-7.7l0.3,0.1c0.6-0.7,1.2-1.4,1.8-2.1l0,0.1
			c0.7-0.6,1.4-1.2,2.1-1.8l0,0.1c0.7-0.6,1.3-1.3,2-1.9L29,40.3c7.4,5.1,9.9-3.5,14.8-5.4c0.5,0.5,0.7,1,0.7,1.7c1,1.4,2.5,2,4.2,2
			c0,0-0.1-0.2-0.1-0.2c1.1,2.2,2.6,4.4,3.3,6.7c3.8,12.6,3.7,12.6,13.2,4.6c4-3.4,8-5.5,12-0.2c2.1,2.8,4.9,2.9,7.6,2
			c6.6-2.2,16.1-0.9,15.6-12.2c7.1-0.9,6.5-5.4,4.8-10.4c0,0,0,0.2,0,0.2c1.5-0.9,2-2.2,2.1-3.9c0,0,0,0.1,0,0.1
			c0.6-0.7,1.2-1.5,1.8-2.2l-0.5-0.1c0,0,0-0.5,0-0.5c1.6,0.3,3.3,0.6,4.9,0.9l0.2,0.5c0,0-0.4,0.3-0.4,0.3c0.7,1,1.3,2,2,3
			c0,0-0.1-0.2-0.1-0.2c0.1,1.9,0.9,3.3,2.8,3.9c5.7,5.3,12.1,8.9,19.9,9.9c8.6,8.1,12.9,7.5,24.6-2.9c1.3-0.4,2.6-0.8,3.9-1.2
			c5.4,3.4,14.8,1.5,16.2,9.3c1.6,8.8,5.9,6.8,11.2,5.1c0,0,0.1,0.1,0.1,0.1c-2.7,6.1-5.4,12.3,4.8,14c-0.1,1.3-0.1,2.6-0.2,3.8
			c-0.2,0.2-0.5,0.5-0.4,0.6c0.1,0.4,0.4,0.8,0.6,1.3c0.1,1.3,0.2,2.5,0.2,3.8c-4.5,2.7-6,6.8-5.5,11.8l0.1,0
			c-5.2-0.2-6.2,3.2-6.1,7.4c-1.8,2.9-3.8,5.4-7.6,5.8c-1.8-2.8-3.8-6.9-7.5-4.9c-3.4,1.9,1.3,4.5,1.4,7c0,1.2,0.3,2.4,0.4,3.6
			c-1.1,0.8-2.3,1.7-3.4,2.5c-5.4-5.4-6.2-0.1-7.8,3.4l0-0.2c-7.3,1.3-10.5-4-14.4-8.6c-3.3-3.9-8.2-4.7-11.9-1.6
			c-4.4,3.6,0.9,5.8,2.6,8.3c1,1.5,3.2,2.4,1.9,5.3c-4.5,0-9.2-0.2-13.9,0.1C122.1,115.1,117.9,109.5,112.7,113.5z M152.9,60.3
			c-0.4-3.8-1.9-7.7-5.9-7.2c-5.3,0.6-9.3,5.2-10.2,9.8c-0.8,4.2,4.4,5.8,8.2,6C150.4,69,152.7,65.4,152.9,60.3z M171.1,55.9
			c-1.9,0.4-5.5,0-5.6,3.9c-0.1,3.7,1.9,6.9,6.1,7.1c4,0.2,5.4-2.9,5.8-6.2C177.8,56.8,175.1,56,171.1,55.9z M132.2,83.4
			c0.2-0.2,0.5-0.3,0.7-0.5c-0.3-0.4-0.6-0.8-1-1.2c0,0-0.5,0.3-0.7,0.4C131.6,82.6,131.9,83,132.2,83.4z"/>
		<path class="st14" d="M44.4,36.6c0-0.6-0.2-1.2-0.7-1.7c2.8-4.7,6-0.9,8.8-0.1c14.9,4.4,29.7,8.2,44.3-1.1c0.4,0.5,0.8,1,1.2,1.5
			c-5.3,5.8-12.3,7.2-19.7,7.7c-10.3,0.7-19.9-3.2-29.9-4.5c0,0,0.1,0.2,0.1,0.2C47.7,36.8,45.9,37.1,44.4,36.6z"/>
		<path class="st15" d="M20.3,46.8c1.4-4,4-6.8,8.4-7.5c0.1,0.3,0.2,0.7,0.3,1c0,0,0.3,0.3,0.3,0.3c-1.3,0-1.9,0.6-2,1.9
			c0,0,0-0.1,0-0.1c-1.3-0.1-2,0.5-2.1,1.8c0,0,0-0.1,0-0.1c-1.3,0.1-1.9,0.8-1.8,2.1c0,0-0.3-0.1-0.3-0.1c-0.8,0.4-1.7,0.7-2.5,1.1
			L20.3,46.8z"/>
		<path class="st14" d="M96.8,33.7c0.6-0.6,1.3-1.2,1.9-1.8c0.4,0.5,0.9,1,1.3,1.5c-0.7,0.6-1.4,1.2-2,1.8
			C97.6,34.7,97.2,34.2,96.8,33.7z"/>
		<path class="st14" d="M98.8,31.9c0.6-0.6,1.1-1.2,1.7-1.8c0.5,0.4,1,0.8,1.4,1.3c-0.6,0.7-1.2,1.3-1.8,2
			C99.7,32.9,99.2,32.4,98.8,31.9z"/>
		<path class="st14" d="M179.7,99.9c3.7-0.3,5.8-2.9,7.6-5.8c2.9-1.8,4.9-4.3,6.1-7.4c0,0-0.1,0-0.1,0c3.5-3.2,5.1-7.2,5.5-11.8
			c-0.1-1.3-0.2-2.5-0.2-3.8c0.1-0.6,0-1.3-0.2-1.9c0.1-1.3,0.1-2.6,0.2-3.8c0-2.6,0-5.2,0-7.9c7.4,4.8,1.4,13.5,5.7,19.2
			c-0.1,1.9-0.3,3.7-0.4,5.6c-10.2,9.8-18.6,21.3-31.1,28.8c-12.6,7.5-25.3,12.6-40.2,7.7c10.5-0.8,21.1-1,30.1-7.4c0,0,0,0.2,0,0.2
			c2.6-1.1,5.2-2.3,7.8-3.4c1.1-0.8,2.3-1.7,3.4-2.5C176.9,104.6,178,102,179.7,99.9z"/>
		<path class="st8" d="M193.7,51.2c-5.2,1.6-9.6,3.7-11.2-5.1c-1.4-7.8-10.9-6-16.2-9.3c2.1-0.9,4.2-1.9,6.2-2.8
			C181.6,37.2,188.6,43.1,193.7,51.2z"/>
		<path class="st8" d="M198.6,57.5c0,2.6,0,5.2,0,7.9c-10.2-1.7-7.4-7.9-4.8-14C196.9,52.2,196.7,55.7,198.6,57.5z"/>
		<path class="st14" d="M207.6,73.1c-0.3,1.9-1.5,3.1-3.3,3.7C205.4,75.5,206.5,74.3,207.6,73.1z"/>
		<path class="st14" d="M171.9,30.2c-0.1-2.2,0.4-4.2,1.9-5.9C174,26.6,173.7,28.7,171.9,30.2z"/>
		<path class="st14" d="M211.8,63.5c-0.6,1.2-1.1,2.4-1.7,3.7C210.6,65.9,211.2,64.7,211.8,63.5z"/>
		<path class="st14" d="M209.4,71.7c-0.4,0.2-0.7,0.4-1,0.8C208.8,72.3,209.1,72,209.4,71.7z"/>
		<path class="st8" d="M100.1,33.4c0.6-0.7,1.2-1.3,1.8-2c1.1-0.8,2.1-1.7,3.2-2.5c1.6,5,2.3,9.5-4.8,10.4c0.5,11.3-9,10-15.6,12.2
			c-2.7,0.9-5.5,0.8-7.6-2c-4-5.3-8-3.2-12,0.2c-9.5,8-9.5,8-13.2-4.6c-0.7-2.4-2.2-4.5-3.3-6.7c10,1.4,19.6,5.2,29.9,4.5
			c7.4-0.5,14.4-1.9,19.7-7.7C98.7,34.6,99.4,34,100.1,33.4z"/>
		<path class="st8" d="M162.4,38c-11.6,10.4-15.9,11-24.6,2.9C146.1,40.9,154.3,39.7,162.4,38z"/>
		<path class="st8" d="M113.3,23.5c-1.6-0.3-3.3-0.6-4.9-0.9c0.3-1.9,0-5.3,2-5.1C113,17.7,112.8,21.2,113.3,23.5z"/>
		<path class="st8" d="M107.2,25.3c0,1.6-0.6,3-2.1,3.9C105.2,27.5,105.7,26.1,107.2,25.3z"/>
		<path class="st8" d="M117.9,31c-1.8-0.6-2.7-2-2.8-3.9C116,28.4,116.9,29.7,117.9,31z"/>
		<path class="st8" d="M115.2,27.3c-0.7-1-1.3-2-2-3C113.8,25.3,114.5,26.3,115.2,27.3z"/>
		<path class="st8" d="M108.9,23.2c-0.6,0.7-1.2,1.4-1.8,2.2C107.2,24.2,107.5,23.2,108.9,23.2z"/>
		<path class="st3" d="M82.6,232.8c2.7-4.2,6.9-3.9,11.1-3.7c0.1,1,0.3,2,0.4,2.9C90.3,232.2,86.5,232.5,82.6,232.8
			C82.6,232.8,82.6,232.8,82.6,232.8z"/>
		<path class="st25" d="M184.7,444.4c-0.6-0.6-1.2-1.3-1.7-1.9c-0.7-0.6-1.4-1.2-2.1-1.8c0,0-0.3-0.1-0.3,0
			c-0.1-0.4-0.3-0.6-0.7-0.6c-17.7-18-35.4-36.1-53.2-54.1c0.7-0.5,1.3-1,2-1.5c14.2,7.6,26.9,4.1,38.4-5.7
			c14.2-12.1,27.6-25,38.9-39.9c6.5-8.6,10.7-17.9,8.6-29c0.5-0.4,1-0.9,1.5-1.3c15.6,15.2,32,29.7,46.5,46.1
			c-3.3,3.6-4.9,7.9-5.9,12.6c-3.5,15.6,4.1,25.9,16.3,25.4c0,0-0.1-0.1-0.1-0.1c0.4,2.3,2.2,2.1,3.9,2c7.9,4.3,16.7,1.2,24.9,3.3
			c1.9,11.4-2.1,21.5-8.8,30.1c-11.5,14.7-24,28.6-39.1,39.8c-16.7,12.5-32.7,11.2-47.6-3.1C199,457.8,191.8,451.1,184.7,444.4z"/>
		<path class="st18" d="M331.3,500.8c-3.8,4.6-8.2,4.5-13.6,2.8c-19.3-6.4-33.7-19.6-47.6-33.4c-2.5-2.4-3.3-6.4,0.3-9.9
			c4-3.9,6.9-10.9,11.3-11.9c4.7-1.1,8.8,6,13.3,9.1c12.4,8.5,26,14.2,40.9,16.8c3.1,0.6,6.2,1.1,9.3,1.7c0,0,0.5,0.3,0.5,0.3
			C343.1,485.8,334.5,491.7,331.3,500.8z"/>
		<path class="st18" d="M300.3,328.7c6,2.1,5.3-6,9.6-6.5c2.9,5.5,0,10.7-1.6,15.6c-5.8,17.7-5.7,35.4-1.9,53.4
			c-0.4,0.3-0.4,0.7,0,1c-1.1,1-2.2,1.9-3.3,2.9c-8.7-0.8-17.4-1.5-26.2-2.3c-1.3-0.1-2.7-0.2-4-0.3c0,0,0.1,0.1,0.1,0.1
			c-0.2-2-2-2.2-3.4-2.8c-7.1-2.7-10.3-8.5-9.9-15.4c0.5-7.4-0.2-16.1,9.4-19.3c0.4,0.4,0.9,0.4,1.3,0.1c1.1-0.1,2.1-0.2,3.2-0.3
			l-0.1,0c2.3-0.8,4.6-1.5,7-2.3c3,2.5,3.3,0.2,3.6-2.1c0.6-0.6,1.2-1.2,1.8-1.8c5.7-0.5,8-3.9,7.9-9.3l0,0c4.6-1.7,7.3-4.7,6.5-10
			L300.3,328.7z"/>
		<path class="st20" d="M345.4,471.5c-11,1.6-20.2-4.1-29.6-8.3c-9.2-4.1-17.6-9.8-24.9-16.9c-3.1-3.1-3.8-5.8-0.6-8.8
			c8.7-8.2,13.7-18.5,17.6-30.1c4.7,13.1,8.9,25.6,13.9,37.9c2.5,6.2,4.6,13.2,12,15.9c3.3,3,4.9,8.1,10.5,8c0.2,0.5,0.4,1,0.7,1.5
			C344.9,470.7,345.4,471.5,345.4,471.5z"/>
		<path class="st21" d="M335.5,799.6c-1.8-1.9-3.7-3.8-5.5-5.7c0,0-0.1-0.1-0.1-0.1c-0.6-0.7-1.2-1.4-1.8-2.1c0,0,0.2,0.2,0.2,0.2
			c-0.6-0.8-1.3-1.6-1.9-2.4c-0.4-0.6-0.8-1.1-1.2-1.7c-3.1-4.6-5.6-9.8-10.4-13.1c0-0.6-0.2-1.2-0.4-1.8c1.8-0.4,3.9-1.1,5.4,0.3
			c16.2,14.6,35.5,24.6,54,36.6c-4.5,0-9,0-13.5,0c-1.9-0.2-3.9-0.4-5.8-0.7c-1.6-0.4-3.3-0.8-4.9-1.2c0,0-0.1-0.1-0.1-0.1
			c-4-2.2-7.9-4.4-11.9-6.6C336.9,800.8,336.2,800.2,335.5,799.6z"/>
		<path class="st22" d="M283.9,627.3c2,13-2.1,25.7-1.6,38.7c0.9,25.3,4.4,49.6,20.5,70.5c2.2,2.9,4.3,6.3,4,10.4
			c-1-0.3-1.9-0.6-2.9-0.9c0,0,0,0,0,0c0-2.9-2.2-4.3-4.1-5.9c-0.7-1.1-1.5-2.2-2.2-3.3c-0.5-0.8-1-1.6-1.6-2.4
			C276.9,700.4,276.2,664.3,283.9,627.3z"/>
		<path class="st22" d="M312.1,348.3c1.8,17-1,34.2,2.3,51.2c1.8,9.3,3.9,18.5,7.8,27.2c2.3,5.3,4.3,10.6,3.7,16.5
			c-13.5-27.1-17.9-56-16.7-86C309.4,354.2,309.9,350.9,312.1,348.3z"/>
		<path class="st5" d="M331.3,500.8c3.2-9.1,11.8-15,14.4-24.5c3.2,4,4.5,2.5,4.9-1.7c1.9,6-3.7,8.5-6,12.5c-2.8,5.1-6.1,10-9.1,15
			c-0.6,0.3-1.2,0.7-1.8,1C332.9,502.3,332.1,501.5,331.3,500.8z"/>
		<path class="st22" d="M295.6,584.3c-2.3,14.6-4.3,29.2-11.9,42.3C285.2,611.8,290.4,598.1,295.6,584.3z"/>
		<path class="st22" d="M323.9,521.6c-3.1,12.7-8.1,24.6-17.2,34.3C311.2,543.9,316.3,532.1,323.9,521.6z"/>
		<path class="st15" d="M276.9,392.8c8.7,0.8,17.4,1.5,26.2,2.3c-0.5,0.9-1,1.8-1.5,2.6c-8.2-2-17,1-24.9-3.3
			C276.7,393.9,276.8,393.3,276.9,392.8z"/>
		<path class="st22" d="M306.8,555.9c-0.4,10.3-3.9,19.4-10.9,27C298.9,573.7,301.2,564.2,306.8,555.9z"/>
		<path class="st22" d="M333.7,503c0.6-0.3,1.2-0.6,1.8-1c-0.5,8.5-3.1,15.8-11.7,19.6C327.1,515.5,330.4,509.3,333.7,503z"/>
		<path class="st17" d="M314.8,774.8c4.8,3.3,7.3,8.5,10.4,13.1c-4,0.4-7.1-1.8-10.3-3.6C314.8,781.1,314.8,778,314.8,774.8z"/>
		<path class="st22" d="M316.1,327.8c4.9,8.2,0.6,14.5-4.2,20.7C313.3,341.6,314.7,334.7,316.1,327.8z"/>
		<path class="st22" d="M344.3,469.2c-5.6,0.1-7.3-5-10.5-8c-0.1-1.3-0.2-2.6-0.3-3.9C337.9,460.5,342.5,463.6,344.3,469.2z"/>
		<path class="st22" d="M327.8,447.8c5.3,1.2,5.9,5.2,5.7,9.7C330.5,454.9,328.5,451.8,327.8,447.8z"/>
		<path class="st5" d="M345.2,476c-3.1-0.6-6.2-1.1-9.3-1.7C339.1,474.3,342.4,473.6,345.2,476z"/>
		<path class="st17" d="M299.7,740.2c1.9,1.6,4.1,3,4.1,5.9C299.8,745.9,299.5,743.2,299.7,740.2z"/>
		<path class="st5" d="M345.4,471.5c0,0-0.4-0.8-0.4-0.8c1.3,0.7,2.6,1.3,4,2C347.7,472.3,346.5,471.9,345.4,471.5z"/>
		<path class="st22" d="M325.9,443.5c1.4,1.2,2.2,2.6,1.9,4.5C326.2,446.9,325.9,445.2,325.9,443.5z"/>
		<path class="st15" d="M306.3,392.2c-0.4-0.4-0.4-0.7,0-1c0,0,0.4,0.5,0.4,0.5L306.3,392.2z"/>
		<path class="st17" d="M295.9,734.4c0.5,0.8,1,1.6,1.6,2.4C296.9,736.1,296.4,735.3,295.9,734.4z"/>
		<path class="st20" d="M273.6,354.9c-1.1,0.1-2.1,0.2-3.2,0.3c-10.9-10.8-21.9-21.6-34.9-34.4c24.2,0,45.9,0,67.6,0
			c0.4,3.1-1,5.6-2.9,8c0,0,0,0.7,0,0.7c-3.3,2.6-4.4,6.6-6.5,10c0,0,0,0,0,0c-3.8,2.1-6.5,5.2-7.9,9.3c-0.6,0.6-1.2,1.2-1.8,1.8
			c-1.5,0.3-3,0.4-3.6,2.1c-2.3,0.8-4.6,1.5-7,2.3C273.5,354.8,273.6,354.9,273.6,354.9z"/>
		<path class="st5" d="M269.1,355c-9.6,3.3-8.9,12-9.4,19.3c-0.4,6.9,2.8,12.7,9.9,15.4c1.4,0.5,3.1,0.8,3.4,2.8
			c-12.2,0.5-19.8-9.8-16.3-25.4c1-4.6,2.6-9,5.9-12.6C264.8,354.7,266.9,354.9,269.1,355z"/>
		<path class="st25" d="M125.3,384.4c-0.2-0.8-0.9-1.9-0.6-2.3c0.7-0.9,1.5-0.2,2.1,0.6C126.3,383.2,125.8,383.8,125.3,384.4z"/>
		<path class="st25" d="M214.7,309.8c-0.5-0.8-1-1.7,0.1-2.4c0.2-0.1,0.9,0.7,1.4,1.1C215.7,308.9,215.2,309.3,214.7,309.8z"/>
		<path class="st25" d="M126.7,385.9c-0.5-0.5-1-1-1.4-1.5c0.5-0.6,1-1.2,1.5-1.8c0.6,0.6,1.3,1.2,1.9,1.9
			C128.1,385,127.4,385.5,126.7,385.9z"/>
		<path class="st12" d="M179.9,440.1c0.4,0,0.6,0.2,0.7,0.6c-0.9,0.4-1.8,0.8-2.7,1.2C178.6,441.3,179.2,440.7,179.9,440.1z"/>
		<path class="st21" d="M613.3,818.3c1.1-4.6,4.2-6.6,8.6-7.5c4-0.8,7.8-2.3,11.8-3.4c9.5-2.8,10-4.1,4.4-11.6
			c4.4,2.1,8.8,4.1,15.1,7.1C638.7,808.8,626.6,815,613.3,818.3z"/>
		<path class="st21" d="M603.8,820.5c1-3.6,2.9-4.3,5.8-1.8C607.9,819.9,606,820.8,603.8,820.5z"/>
		<path class="st22" d="M310,751c2,0.1,2.7,1.4,2.8,3.2C311.8,753.1,310.9,752,310,751z"/>
		<path class="st22" d="M306.6,746.6c0.6,0.8,1.2,1.6,1.8,2.5C307.8,748.2,307.2,747.4,306.6,746.6z"/>
		<path class="st22" d="M308.2,749c1.2,0.1,1.9,0.8,2,2C309.5,750.4,308.8,749.7,308.2,749z"/>
		<path class="st22" d="M312.6,754c0.6,0.8,1.2,1.5,1.9,2.3C313.9,755.6,313.3,754.8,312.6,754z"/>
		<path class="st22" d="M314.3,756.1c0.7,0.8,1.5,1.6,2.2,2.5C315.7,757.7,315,756.9,314.3,756.1z"/>
		<path class="st17" d="M326.4,789.6c0.6,0.8,1.3,1.6,1.9,2.4C327.7,791.2,327,790.4,326.4,789.6z"/>
		<path class="st17" d="M328.1,791.8c0.6,0.7,1.2,1.4,1.8,2.1C329.3,793.2,328.7,792.5,328.1,791.8z"/>
		<path class="st17" d="M349.6,808.1c1.6,0.4,3.3,0.8,4.9,1.2C352.4,811.2,350.5,811.6,349.6,808.1z"/>
		<path class="st5" d="M560.1,451.2c13.8,0.6,27.5,3.3,41.3,2.1c5-0.4,8.9,2.9,13.7,2.4c14.6,3.8,29.5,2.5,44.2,1.5
			c9.5-0.7,11.6-6.5,7.4-15.2c0,0,0.1,0.1,0.1,0.1c-0.5-0.8-1-1.7-1.5-2.5c0,0,0.1,0.1,0.1,0.1c-0.8-1.3-1.7-2.6-2.5-3.9
			c-1.8-2.8-3.5-5.7-5.5-8.9c4.4-2,7.2,0,9.1,2.9c3.5,5.2,7.1,10.5,9.8,16.1c4,8.5,0.9,13.8-8.4,15.7c-14.1,2.8-28.3,1.7-42.4,0.5
			c-3.4-0.3-6.9-0.7-10.3-1c-3.2-0.1-6.5-0.2-9.7-0.3c-1.8,0-3.7,0-5.5,0.1c-2.8-3.4-6.9-2.6-10.5-2.9c-27-2.2-53.9-4.1-80.9-6.2
			c-3.7-0.3-7.4-0.5-11.1-0.8c-37.5-3.5-75.1-4.6-112.6-6.6c-1.3-0.1-2.5-0.2-3.8-0.3c-5.7-0.4-11.4-2.3-17.2-0.2
			c-1.2,0-2.4,0-3.7,0c-4.1-3.2-8.9-1.5-13.4-1.6c-0.5-0.2-1.1-0.3-1.6-0.3c-0.7-1.6-2.1-2.3-3.8-2.4c0,0,0.2,0.3,0.2,0.3
			c-0.8-0.5-1.6-1.1-2.4-1.6c-7-5.5-8-13.3-7.5-21.3c0.5-7.9,1.6-15.7,2.5-23.5c5.8-0.1,3.2,4.1,3.3,6.7c0.5,10.2-3.6,20.7,1.7,30.6
			c0,0,0-0.1,0-0.1c0.2,1.1,0.7,1.7,1.9,1.6c5.6,1.8,10.5,5.9,17,4.5c20.3,4.1,40.9,2.3,61.3,3.7
			C466.4,443.8,513.3,447.6,560.1,451.2z"/>
		<path class="st12" d="M449.7,152.9c1.1,0,2.2,0,3.4,0c-0.3,2-0.7,4.1-1,6.1c-0.3,0.5-0.4,1.1-0.2,1.7c0.5,11.7-3.5,23.2-1.6,34.9
			c9.1,7.2,13.6-1.3,19.2-5.8c3.2-1.4,5.4-4,7.3-6.8c3.8,0.2,5.3-3.1,7.6-5.1c12.7-10.9,36-11.8,48.3-1.8c3.5,2.8,6.7,5.9,6.4,11
			c-1.2,0-2.4-0.1-3.6-0.1c0,0,0,0,0,0c-0.7-3.2-2.3-5.4-5.8-5.7c0,0,0.1,0.1,0.1,0.1c-4.1-4.8-9.9-4.8-15.4-5.4
			c-19.4-1.9-31.6,10.4-43.8,22.7c0,0,0.1-0.1,0.1-0.1c-0.7,0.6-1.4,1.2-2.1,1.9c0,0,0.1-0.1,0.1-0.1c-1.2,0.2-2,0.7-2,2
			c0,0,0-0.2,0-0.2c-2.2,1.2-4.4,2.4-6.5,3.6c-0.8,0-1.5,0.1-2.3,0.1c-9.2-0.8-18.4-3.7-27.6-0.1c0,0,0.1-0.2,0.1-0.2
			c-1.8,0.3-3.7,0.5-5.5,0.8c0.6-2.6,1.3-5.2,1.9-7.8c1.2-0.4,2.5-0.7,3.7-1.1c4.3-2.9,10.3,2.3,14-3.1c0.1-0.8,0.3-1.6,0.4-2.4
			C446.6,178.9,448.2,165.9,449.7,152.9z"/>
		<path class="st21" d="M560.1,451.2c-46.9-3.6-93.7-7.4-140.6-10.7c-20.4-1.5-41,0.4-61.3-3.7c2.5-2.7,5.8-2.6,8.8-2.1
			c24.3,4,48.9,1.5,73.3,3.9c16.6,1.7,33.3,6.4,50.5,2.9c0.6-2.5-2.8-2.8-3.2-4.9c10.1,2,20.1,4,28.3-4.8c-0.1,4,2,6,5.6,7.6
			c9.8,4.3,20.1,6.6,30.5,8.4C555.2,448.2,558.8,447.2,560.1,451.2z"/>
		<path class="st17" d="M516.1,431.7c-8.2,8.8-18.3,6.8-28.3,4.8c-0.3-0.5-0.7-0.6-1.2-0.5c-1.3-0.9-2.6-1.7-3.9-2.6
			c0,0,0.1,0,0.1,0c-4.7-3.6-4.4-9.3-6-14.2c0.3-1.9,0.6-3.9,0.9-5.8c0.6-0.3,1-0.7,1.1-1.4c0,0-0.2,0.2-0.2,0.2
			c2.5,0.1,5,0.2,7.4,0.3c2.8,4.2,19.2,7.1,22,3.8c1.1-1.3-0.4-2.9-1.6-3.9c14.9-0.1,17.9,3.5,13.3,16.1c0,0,0.2,0,0.2,0
			c-0.8,0.7-1.6,1.4-2.3,2.1C517.2,430.9,516.6,431.3,516.1,431.7z"/>
		<path class="st15" d="M377.9,385.7c-13.9-13.9-9.7-40.4-1.2-51c6.9-8.6,13.2-10.6,23.9-6.8c-4.6,0.5-9.6-1.6-13.7,2
			c-0.6,0.5-1.3,0.9-1.9,1.4c-0.7,0.7-1.4,1.5-2.1,2.2c-1.8,1.9-2.1,4.3-2.3,6.8c-0.4,0.6-0.9,1.3-1.3,1.9
			c-8.2,7.5-9.5,27.2-2.3,37.1c6.8,9.4,15.2,10,29,1.9c0,0.6-0.1,1.2-0.1,1.8c-0.1,0.6-0.1,1.2-0.1,1.8c0,0,0.1,0,0.1,0
			c-1.1,0.2-1.9,0.7-1.9,1.9c0,0,0-0.1,0-0.1c-1.1,0-1.9,0.5-2.2,1.7c0,0-0.1-0.1-0.1-0.1c-5.5,1.4-10.9,2.8-16.7,2
			c0,0-0.6-0.1-0.6-0.1c-1.4-0.8-2.8-1.6-4.2-2.4c0,0-0.1,0.3-0.1,0.3C379.4,387.2,378.6,386.4,377.9,385.7z"/>
		<path class="st15" d="M611.4,400.2c-15.1-11.5-9.9-44.1,2.3-53.5c8.6-6.6,18.2-6.4,26.8,1.5c0,0-0.6,0.6-0.6,0.6
			c-7.6-3.7-15.3-5.6-22.9-0.1c-10.9,9.2-12.4,21.4-10.9,34.5c-0.8,6.4,5.9,10.5,5.4,16.8L611.4,400.2z"/>
		<path class="st21" d="M385,444.4c37.6,2,75.2,3.1,112.6,6.6c-6,4.4-12.8,2.4-19.2,1.8c-14.4-1.2-29-4.5-43.3-2.9
			c-15.3,1.7-29.8-4.7-44.9-2.4C387.9,447.9,385.9,446.8,385,444.4z"/>
		<path class="st21" d="M757.7,563.9c2.9,34.4,5.2,68.8-1.9,103c-1,4.6-0.1,10.3-5.2,13.4c6-24.6,6.9-49.8,6.9-74.9
			c0-13.7-1.3-27.6-1.6-41.4C756.5,563.9,757.1,563.8,757.7,563.9z"/>
		<path class="st21" d="M508.7,451.8c27,2,53.9,4,80.9,6.2c3.5,0.3,7.7-0.5,10.5,2.9c-1.4,0.6-3.1,2.1-4.1,1.7
			c-11.7-4.8-24.1-1.5-36.1-3c-13.1-1.6-26.3-4.5-39.8-3.3C516.7,456.6,510.9,457.3,508.7,451.8z"/>
		<path class="st22" d="M470.7,198.6c12.1-12.3,24.4-24.6,43.8-22.7c5.5,0.5,11.3,0.6,15.4,5.4c-4-0.6-8.1-1.2-12.1-1.9
			c-14.4-2.3-25.4,4.7-35.7,13.3C478.7,195.5,475.6,198.8,470.7,198.6z"/>
		<path class="st5" d="M757.7,563.9c-0.6-0.1-1.2,0-1.8,0.2c-0.5-0.2-1-0.3-1.5-0.4c-0.7-0.7-1.4-1.4-2.1-2.1c0,0,0.1,0.1,0.1,0.1
			c-1.3-0.8-2.6-1.6-3.9-2.3c-1.9-1.1-3.8-2.2-5.7-3.3c-1.3-0.8-2.5-1.5-3.8-2.3c0,0,0.2,0.1,0.2,0.1c-1.3-0.8-2.7-1.7-4-2.5
			c-1.2-0.7-2.3-1.4-3.5-2c-2.2-3.1-8.6-2.1-7.6-8.1c16.4,4.5,28.3,17,43,24.6C764,565.2,760.9,564.6,757.7,563.9z"/>
		<path class="st22" d="M855.5,596.4c-12,7.5-29.9,5.8-39.9-3.8c8.5,1.8,16.3,6.2,25.3,5.6c2.4-0.2,5.6,0.6,6.6-2.2
			c1.2-3.4-2.5-3.7-4.4-4.9c-2.7-1.6-5.6-3-6.6-6.3c-0.5-1.8-0.6-4,1.8-4.6c2.6-0.7,2.9,1.6,3.5,3.3c0.2,4.4,4.3,4.8,6.9,6.8
			C851.1,592.1,855.6,591.7,855.5,596.4z"/>
		<path class="st13" d="M386.8,329.9c4.2-3.6,9.1-1.5,13.7-2c11.5,3.9,13.5,13.7,14.8,23.9c1,7.9-1,15.5-1.8,23.3
			c-0.7,0.7-1.4,1.5-2,2.2c0,0,0.1-0.1,0.1-0.1c-0.6,0.7-1.2,1.4-1.9,2.1c0,0,0-0.1,0-0.1c-0.6,0.1-1.2,0.2-1.7,0.3
			c-0.5-5.7,3.3-10,4.6-15.2C417.7,344.4,406.7,329.7,386.8,329.9z"/>
		<path class="st21" d="M666.8,441.9c4.2,8.8,2,14.5-7.4,15.2c-14.7,1-29.6,2.3-44.2-1.5c10.6-2.5,21.4-2.1,32-1.1
			C659.5,455.6,665.1,452.5,666.8,441.9z"/>
		<path class="st21" d="M519.8,428.4c4.6-12.6,1.6-16.2-13.3-16.1c-4.2-1.4-8.9,1.2-13-1.4c10.2-2.2,20.6-7.2,29.6,2.9
			C529.1,420.8,528.6,423.4,519.8,428.4z"/>
		<path class="st15" d="M642.1,350.5c10,12.3,9.1,32.8-2.1,47.7l0,0c10-15.5,9.9-31.3,1.9-47.5L642.1,350.5z"/>
		<path class="st2" d="M493.4,411c4.1,2.6,8.8,0,13,1.4c1.2,1.1,2.7,2.6,1.6,3.9c-2.8,3.4-19.2,0.4-22-3.8c0.6-0.6,1.1-1.2,1.7-1.8
			C489.6,410.8,491.5,410.9,493.4,411z"/>
		<path class="st15" d="M750.2,691.3c-1,1.8-2.7,1.8-4.4,1.9c-4.2-11.5-8.4-23-12.5-34.4l-0.1-0.1c1.1,1.5,2.2,3,3.3,4.5
			c0.8,2.8,1.8,5.4,4.2,7.3c0,0-0.1-0.1-0.1-0.1c0,1.6,0.2,3.2,1.8,4.1c0,0-0.1-0.1-0.1-0.1C744.2,680.3,743.9,687.4,750.2,691.3z"
			/>
		<path class="st5" d="M757.8,729.3c-0.9,1.2-1.8,2.4-2.8,3.6c-2.2-9.5-4.3-19-6.5-28.4c1.1-0.6,2.2-1.2,3.2-1.8
			c0.4,2.1,0.1,4.4,2.1,5.9l-0.1-0.1c0.1,4.8,1.1,9.4,3.7,13.6l-0.2-0.1C757.4,724.4,757.6,726.8,757.8,729.3z"/>
		<path class="st21" d="M634.3,203.7c0.8,0.7,1.7,1.4,2.5,2.2c-14.8,0.2-29.5,0.5-44.3,0.7C606.3,204,620.1,200.5,634.3,203.7z"/>
		<path class="st22" d="M309,266.9c3.2-4.6,8.2-4.8,12.6-3.9c8.4,1.9,11.5-0.8,10-9.2c-0.3-1.4,0.5-3,0.8-4.5c4.8,4.3,4,9.9,2,14.6
			c-2.1,5.1-7,2.3-10.7,1.4C318.5,264.1,314,267.1,309,266.9z"/>
		<path class="st15" d="M638,400.1c-11,9.4-16.5,9.4-26.6,0.1c0,0,0.1-0.2,0.1-0.2C620.4,403.8,629.2,404.4,638,400.1L638,400.1z"/>
		<path class="st22" d="M339.5,430.7c-5.3-9.9-1.3-20.4-1.7-30.6c-0.1-2.6,2.5-6.9-3.3-6.7c6.9-4.7,6.7,2,6.2,4.8
			C338.3,409,339.8,419.8,339.5,430.7z"/>
		<path class="st21" d="M836.2,571c7.6,2.9,16.2-0.2,23.6,3.8c-4.7,1.3-8.8,4.6-14,4.5C845.4,573.3,836.4,577.3,836.2,571z"/>
		<path class="st22" d="M750.2,691.3c-6.3-4-6.1-11-7.9-17.1c4.3,0.8,3.2,7.3,7.9,7.8C751.6,685.1,750.6,688.2,750.2,691.3z"/>
		<path class="st21" d="M476.9,419.3c1.6,4.9,1.3,10.6,6,14.2C473.5,431.9,473.7,426.2,476.9,419.3z"/>
		<path class="st21" d="M724.2,541.3c-1,6.1,5.4,5.1,7.6,8.1c-4.1,2.7-7.6,1.9-9.9-2.3C720.7,544.9,719.3,541.7,724.2,541.3z"/>
		<path class="st22" d="M430.3,205.7c9.2-3.6,18.4-0.7,27.6,0.1C448.7,205.8,439.5,205.7,430.3,205.7z"/>
		<path class="st21" d="M364.1,443.8c5.7-2.1,11.4-0.2,17.2,0.2C375.5,448.3,369.8,447.2,364.1,443.8z"/>
		<path class="st22" d="M535.5,187c1.2,0,2.4,0.1,3.6,0.1c0.8,1.7,1.5,3.5,2.3,5.2c-4,1.6,0.4,4.1-0.7,6
			C535.9,196,537.2,190.8,535.5,187z"/>
		<path class="st21" d="M385,390.2c5.7,0.8,11.2-0.6,16.7-2C397,395.5,391,393.1,385,390.2z"/>
		<path class="st22" d="M343.1,234.6c2-4.1,5.9-3.1,9.3-3.3c0.8,1,1.6,2.1,2.4,3.1C350.9,234.5,347,234.6,343.1,234.6z"/>
		<path class="st21" d="M347.1,442.3c4.5,0,9.2-1.7,13.4,1.6C355.7,445.7,351.4,444,347.1,442.3z"/>
		<path class="st21" d="M487.7,410.7c-0.6,0.6-1.1,1.2-1.7,1.8c-2.5-0.1-5-0.2-7.4-0.3C481,407.6,483.8,405.9,487.7,410.7z"/>
		<path class="st22" d="M529.7,181.2c3.4,0.4,5.1,2.6,5.8,5.7C532,186.7,530.1,184.7,529.7,181.2z"/>
		<path class="st22" d="M335.5,242.2c0.6-3.2,2.7-4.9,5.5-6C341.2,240.1,339.2,241.9,335.5,242.2z"/>
		<path class="st22" d="M425,206.3c1.8-0.3,3.7-0.5,5.5-0.8c-1.8,3-4.5,4.3-8,3.8C423.3,208.3,424.2,207.3,425,206.3z"/>
		<path class="st22" d="M310.4,291.8c0.2-2.5,0.4-5,0.5-7.5C316.6,287.2,312.8,289.4,310.4,291.8z"/>
		<path class="st5" d="M752.9,512.6c0.4,3.8-2.2,3.5-4.7,3.6c-1.3-1.4-2.1-3,0.8-1.7C751.7,515.8,752.1,514.4,752.9,512.6z"/>
		<path class="st17" d="M763.8,529.3c-0.1,1-0.2,2.1-0.3,3.1c-2.2-1.1-4.8-1.9-5.5-4.7C760.9,524.4,762,528.3,763.8,529.3z"/>
		<path class="st22" d="M740.7,670.5c-2.4-1.8-3.4-4.5-4.2-7.3C740.4,664.2,740.9,667.1,740.7,670.5z"/>
		<path class="st15" d="M736.3,366.3c0.3,2.8,0.6,5.6,0.8,8.4C736.9,371.9,736.6,369.1,736.3,366.3z"/>
		<path class="st22" d="M415,217.2c0.7-2.3,2.4-3.9,4.4-5.1C419.3,214.9,418.7,217.4,415,217.2z"/>
		<path class="st22" d="M460.2,205.7c2.2-1.2,4.4-2.4,6.5-3.6C466.2,206.2,463.3,206.1,460.2,205.7z"/>
		<path class="st21" d="M605.6,460.8c3.2,0.1,6.5,0.2,9.7,0.3C612,463.6,608.8,463.6,605.6,460.8z"/>
		<path class="st22" d="M332.8,248.4c0.2-2.4,0.7-4.7,2.8-6.2C336,244.9,335.1,247,332.8,248.4z"/>
		<path class="st22" d="M742.5,674.4c-1.6-0.9-1.8-2.5-1.8-4.1C742.2,671.3,742.7,672.7,742.5,674.4z"/>
		<path class="st17" d="M744.8,295.5c0.6,1.3,1.1,2.6,1.7,3.9C745.9,298.1,745.3,296.8,744.8,295.5z"/>
		<path class="st22" d="M361,239.6c1,0.8,2,1.6,3,2.5C362.4,242.1,361.3,241.4,361,239.6z"/>
		<path class="st21" d="M748.6,559.4c1.3,0.8,2.6,1.6,3.9,2.3C750.7,561.7,749.3,561.1,748.6,559.4z"/>
		<path class="st21" d="M408,379.4c0.6-0.1,1.2-0.2,1.7-0.3c-0.5,1.4-1.1,2.8-1.6,4.2c-0.3-0.3-0.5-0.5-0.8-0.8
			c0.2-1.1,0.5-2.1,0.7-3.2C408,379.3,408,379.4,408,379.4z"/>
		<path class="st21" d="M380.2,387.7c1.4,0.8,2.8,1.6,4.2,2.4C382.5,390.3,380.7,390.1,380.2,387.7z"/>
		<path class="st21" d="M482.7,433.5c1.3,0.9,2.6,1.7,3.9,2.6C484.7,436.1,483.2,435.5,482.7,433.5z"/>
		<path class="st21" d="M663.1,435.6c0.8,1.3,1.7,2.6,2.5,3.9C663.6,439,663.1,437.5,663.1,435.6z"/>
		<path class="st21" d="M341.6,439.5c1.7,0.1,3.1,0.8,3.8,2.4C343.7,441.8,342.3,441.3,341.6,439.5z"/>
		<path class="st21" d="M735.3,551.5c1.3,0.8,2.7,1.7,4,2.5C737.4,554,736,553.3,735.3,551.5z"/>
		<path class="st21" d="M739.1,553.8c1.3,0.8,2.5,1.5,3.8,2.3C741.2,556,739.8,555.4,739.1,553.8z"/>
		<path class="st22" d="M419.6,212c0.5-1.5,1.6-2.4,3.1-2.8C422.3,210.9,421.2,211.7,419.6,212z"/>
		<polygon class="st4" points="770.1,567.5 770.1,567.5 770.7,567.3 		"/>
		<path class="st21" d="M830.5,567.5c0.6,0.6,1.3,1.2,1.9,1.8C831.4,569.1,829.3,570,830.5,567.5z"/>
		<path class="st21" d="M377.9,385.7c0.8,0.8,1.5,1.5,2.3,2.3C379.4,387.2,378.6,386.4,377.9,385.7z"/>
		<path class="st21" d="M401.8,388.3c0.2-1.2,1-1.7,2.2-1.7C403.2,387.2,402.5,387.8,401.8,388.3z"/>
		<path class="st22" d="M341,236.4c0.7-0.6,1.5-1.2,2.2-1.8C342.5,235.2,341.8,235.8,341,236.4z"/>
		<path class="st15" d="M640.6,348.3c0.5,0.8,1,1.5,1.5,2.3c0,0-0.2,0.2-0.2,0.2c-0.6-0.6-1.2-1.3-1.9-1.9L640.6,348.3z"/>
		<path class="st21" d="M752.3,561.6c0.7,0.7,1.4,1.4,2.1,2.1C753.7,563,753,562.3,752.3,561.6z"/>
		<path class="st22" d="M354.9,234.5c0.7,0.6,1.3,1.2,2,1.8C356.2,235.7,355.5,235.1,354.9,234.5z"/>
		<path class="st21" d="M834,570c0.8,0.4,1.5,0.8,2.3,1.2C835.5,570.8,834.7,570.4,834,570z"/>
		<path class="st21" d="M845.8,579.2c-0.7,0.8-1.4,1.5-2,2.3C844.4,580.7,845.1,580,845.8,579.2z"/>
		<path class="st15" d="M640,398.2c-0.6,0.6-1.3,1.3-1.9,1.9c0,0,0,0,0,0C638.7,399.5,639.3,398.9,640,398.2L640,398.2z"/>
		<path class="st15" d="M733.3,658.8l-0.4-0.2c0,0,0.3,0.1,0.3,0.1C733.2,658.7,733.3,658.8,733.3,658.8z"/>
		<path class="st22" d="M358.8,237.8c0.8,0.6,1.5,1.2,2.3,1.8C360.3,239.1,359.5,238.4,358.8,237.8z"/>
		<path class="st21" d="M478.8,412.1c-0.1,0.7-0.5,1.1-1.1,1.4C477.3,412.4,477.9,412,478.8,412.1z"/>
		<path class="st17" d="M746.5,299.4c0.3,0.4,0.6,0.8,0.7,1.2c0.1,0.1-0.2,0.4-0.4,0.6C746.7,300.6,746.6,300,746.5,299.4z"/>
		<path class="st21" d="M517.7,430.5c0.8-0.7,1.6-1.4,2.3-2.1C519.2,429.1,518.4,429.8,517.7,430.5z"/>
		<path class="st15" d="M746.6,697c0.3,0.4,0.6,0.8,0.8,1.2c0.1,0.2-0.2,0.5-0.3,0.7C746.9,698.3,746.7,697.6,746.6,697z"/>
		<path class="st22" d="M341.3,432.2c-1.2,0.1-1.7-0.6-1.9-1.6C340,431.1,340.7,431.7,341.3,432.2z"/>
		<path class="st5" d="M657.2,223.3c0.6-0.1,1.1-0.1,1.7,0C658.3,223.3,657.7,223.3,657.2,223.3z"/>
		<path class="st21" d="M409.7,379.2c0.6-0.7,1.2-1.4,1.9-2.1C410.9,377.8,410.3,378.5,409.7,379.2z"/>
		<path class="st22" d="M466.7,202.3c0.1-1.3,0.9-1.8,2-2C468.1,200.9,467.4,201.6,466.7,202.3z"/>
		<path class="st21" d="M339.4,438.2c0.8,0.5,1.6,1.1,2.4,1.6C341,439.3,340.2,438.7,339.4,438.2z"/>
		<path class="st21" d="M405.7,384.8c0-0.6,0-1.2,0.1-1.8c0.5-0.2,1-0.3,1.5-0.5c0.3,0.3,0.5,0.5,0.8,0.8
			C407.3,383.8,406.5,384.3,405.7,384.8z"/>
		<path class="st21" d="M411.5,377.2c0.7-0.7,1.4-1.5,2-2.2C412.8,375.8,412.2,376.5,411.5,377.2z"/>
		<path class="st21" d="M665.4,439.5c0.5,0.8,1,1.6,1.5,2.5C666.4,441.1,665.9,440.3,665.4,439.5z"/>
		<path class="st22" d="M307.2,268.8c-0.1-1.2,0.5-1.8,1.7-1.9C308.3,267.6,307.7,268.2,307.2,268.8z"/>
		<path class="st21" d="M403.9,386.7c0.1-1.2,0.8-1.8,1.9-1.9C405.2,385.4,404.6,386.1,403.9,386.7z"/>
		<path class="st5" d="M645,221.7c0.9,0.6,1.7,1.1,2.6,1.7C646.2,223.5,645.3,223,645,221.7z"/>
		<path class="st22" d="M410.9,221c0.8-0.7,1.6-1.4,2.4-2.1C412.5,219.6,411.7,220.3,410.9,221z"/>
		<path class="st22" d="M413,219.1c0.7-0.7,1.5-1.3,2.2-2C414.5,217.8,413.8,218.4,413,219.1z"/>
		<path class="st22" d="M468.6,200.4c0.7-0.6,1.4-1.2,2.1-1.9C470,199.2,469.3,199.8,468.6,200.4z"/>
		<path class="st22" d="M740.9,367.9c4.9,0.8,4.9,5.2,6.2,8.5c-4.6,5.6-0.6,11.6-0.2,17.2c1.2,17.5,3.8,35,3.4,52.6
			c-4.8-19.9-4.4-40.4-7.3-60.5c-0.4-2.8-0.7-5.6-1-8.4c-0.3-2.1-0.6-4.2-0.8-6.3C741.1,370,741,369,740.9,367.9z"/>
		<path class="st18" d="M774.2,689.2c-2.5,1-5.7,1.3-6.1,4.6c-0.3,2.9,2.4,2.9,4.5,3.1c6.3,4.9,6.8,13.9-0.5,22.6
			c-4.2,5-4,8,0.3,11.8c0.8,8.4,1.8,16.8-1.9,24.9c-4.8-0.2-4.4-3.9-5.5-7.1c-2.9-9-1.1-19.3-7.7-27.2c0,0,0.2,0.1,0.2,0.1
			c0.7-5-0.2-9.7-3.7-13.6c0,0,0.1,0.1,0.1,0.1c1.8-12.5,7.2-24,9.9-36.3c7.4-2.5,10.3,0.2,9.5,7.9c-0.2,1.7,0.9,3.5,1.3,5.3
			C774.5,686.7,774.3,688,774.2,689.2z"/>
		<path class="st22" d="M763.9,672.2c-2.7,12.3-8.2,23.8-9.9,36.3c-2.1-1.5-1.7-3.8-2.1-5.9c2.8-8.9,5.5-17.8,8.3-26.7
			c0.8-2.5,0.4-5.8,3.8-6.9C763.8,670.1,763.8,671.2,763.9,672.2z"/>
		<path class="st21" d="M763.9,672.2c0-1.1,0-2.1,0-3.2c13.4-3.6,13.4-3.6,12,10.1c-0.2,2.1-0.8,4.2-1.2,6.3
			c-0.5-1.8-1.5-3.6-1.3-5.3C774.2,672.5,771.3,669.8,763.9,672.2z"/>
		<path class="st15" d="M741.1,371.1c0.3,2.1,0.6,4.2,0.8,6.3C740.7,375.4,740.7,373.2,741.1,371.1z"/>
		<path class="st5" d="M757.8,520.2c0.3,0.6,0.3,1.1,0.3,1.8c-0.2-0.4-0.5-0.8-0.7-1.2C757.4,520.6,757.7,520.4,757.8,520.2z"/>
		<path class="st22" d="M757.3,721.9c6.7,7.9,4.9,18.2,7.7,27.2c1,3.3,0.7,7,5.5,7.1c-0.8,2.1-1.7,4.4-4.4,4
			c-2.1-0.3-2.3-2.7-2.6-4.5c-1.9-8.8-3.8-17.6-5.7-26.4C757.6,726.8,757.4,724.4,757.3,721.9z"/>
		<path class="st1" d="M740.1,802.7c0.5-0.2,1-0.4,1.5-0.6c0,0.7,0,1.4,0,2.1C741,803.7,740.6,803.2,740.1,802.7z"/>
		<path class="st8" d="M162.8,111.3c-9.1,6.5-19.7,6.6-30.1,7.4c-2.6-0.1-5.1-0.2-7.7-0.3c-4.1-1.6-8.1-3.3-12.2-4.9
			c5.1-4,9.4,1.6,14.3,1.3c4.7-0.3,9.4-0.1,13.9-0.1c1.3-2.9-0.9-3.8-1.9-5.3c-1.7-2.5-7-4.7-2.6-8.3c3.7-3.1,8.6-2.3,11.9,1.6
			C152.2,107.3,155.5,112.6,162.8,111.3z"/>
		<path class="st15" d="M137.4,125.2c-0.5,0.3-1,0.7-1.4,0.7c-0.5,0-1-0.3-1.6-0.5c0.4-0.2,0.9-0.7,1.3-0.7
			C136.2,124.7,136.8,125,137.4,125.2z"/>
		<path class="st3" d="M66.9,245.5c0.5-1.5,1.2-2.9,3-2.9c0.2,0,0.6,0.4,0.6,0.6c0,1.8-1.3,2.6-2.8,3.1
			C67.4,246.1,67.1,245.8,66.9,245.5z"/>
		<path class="st3" d="M64,250.3c-0.5,1.4-1.3,2.6-2.9,2.8c-0.2,0-0.6-0.4-0.6-0.6c0-1.7,1.1-2.6,2.5-3.2
			C63.3,249.6,63.6,249.9,64,250.3z"/>
		<path class="st3" d="M80.8,234.7c-1.1,0.8-2.3,1.5-3.4,2.3c-0.3-0.3-0.6-0.6-0.8-0.9c1-1.4,2.5-1.8,4.1-1.6L80.8,234.7z"/>
		<path class="st3" d="M77.3,237c-0.7,0.6-1.3,1.2-2,1.9c-0.3-0.4-0.7-0.7-1-1.1c0.7-0.6,1.4-1.1,2.2-1.7
			C76.8,236.5,77,236.7,77.3,237z"/>
		<path class="st3" d="M80.6,234.6c0.7-0.6,1.3-1.2,2-1.8c0,0,0.1,0.1,0.1,0.1c-0.6,0.6-1.2,1.3-1.9,1.9
			C80.8,234.7,80.6,234.6,80.6,234.6z"/>
		<path class="st3" d="M75.4,238.9c-0.6,0.8-1.2,1.6-2.1,0.3c-0.1-0.2,0.7-0.9,1-1.4C74.7,238.2,75,238.5,75.4,238.9z"/>
		<path class="st3" d="M67.7,246.4c-0.6,0.6-1.3,1.2-1.9,1.9c-0.3-0.3-0.5-0.5-0.8-0.8c0.6-0.6,1.3-1.3,1.9-1.9
			C67.1,245.8,67.4,246.1,67.7,246.4z"/>
		<path class="st3" d="M63,249.3c0.7-0.6,1.3-1.2,2-1.8c0.3,0.3,0.5,0.5,0.8,0.8c-0.6,0.7-1.2,1.3-1.8,2
			C63.6,249.9,63.3,249.6,63,249.3z"/>
		<polygon class="st3" points="59.1,256.5 58.6,256.7 58.6,256.1 		"/>
		<path class="st3" d="M428.6,117.4c0,0.4-0.1,0.7-0.2,1c-38.4,0-76.7,0-115.1,0c1.5-0.4,3-1.1,4.5-1.1
			C354.7,117.3,391.7,117.4,428.6,117.4z"/>
		<path class="st23" d="M444.7,194.3c-3.7,5.4-9.7,0.3-14,3.1c0.1-1.5,0.2-3,0.3-4.5c2.2-16.5,1-33.1,1.3-49.7
			c0.8-17.7,1.5-35.4,2.3-53.2c0.4-2.5,0.9-5,1.3-7.5c2.8-18.3,2.8-18,21.2-22.3c7.6-1.8,9,0.5,7.3,7.4
			c-5.2,20.3-8.5,40.9-11.7,61.6c-1.2,7.8-2,15.7-2.9,23.5c-1.5,13-3.1,26.1-4.6,39.1C444.9,192.8,444.8,193.6,444.7,194.3z"/>
		<path class="st5" d="M619.5,78.8c1,0,2-0.1,3-0.1c2.9,25.8,4.1,51.7,3.7,77.7c-1,0-2,0.1-2.9,0.1c-0.8-22.1-1.7-44.2-2.5-66.3
			c0-0.8,0-1.6-0.1-2.3C620.3,84.9,619.9,81.9,619.5,78.8z"/>
		<path class="st5" d="M586.4,64.1c0.7-0.8,1.4-1.6,2.1-2.4c0,0,0.7,0,0.7,0c3.6,18.4,9.7,36.2,10.8,55.1c-1.2,0-2.4,0-3.6,0
			c-0.1-0.7-0.3-1.3-0.4-2C592.8,97.8,589.6,80.9,586.4,64.1z"/>
		<path class="st15" d="M626.4,191c-0.7,0.7-1.3,1.4-2,2c-3.1-6.3-1.3-12.8-1.2-19.3c1.1,0,2.1,0,3.2,0
			C626.4,179.5,626.4,185.2,626.4,191z"/>
		<path class="st5" d="M626.4,173.8c-1.1,0-2.1,0-3.2,0c-0.1-3.8-0.9-7.8,1.5-13.2C627.4,166,626.5,169.9,626.4,173.8z"/>
		<path class="st15" d="M620.8,87.9c0,0.8,0,1.6,0.1,2.3C620.8,89.5,620.8,88.7,620.8,87.9z"/>
		<path class="st13" d="M847.2,103.3c-0.8,1.1-1.6,2.2-2.3,3.3c-3.1,1.7-4.3,4.7-5.6,7.7c-14.9,0.2-29.7,0.6-44.6,0.6
			c-47.5,0.1-95,0-142.4,0c-15.5,0-15.7,0-17.3-15c-0.7-6.5-0.2-13.2-0.8-19.8c-0.8-8.9,3.7-10.2,11-8.4c7.7,1.9,15.4,3.7,23.1,5.3
			c2.8,0.6,6.9,3.4,8.3-0.4c1.3-3.5-3-4.8-6-5.8c-0.6-0.7-1.2-1.3-1.8-2c-0.6-0.6-1.2-1.3-1.8-1.9c-0.3-0.6-0.5-1.3-0.8-1.9
			c3.2-2.9,7.2-2,10.9-2c51-0.1,101.9,0,152.9-0.2c6.3,0,9.6,1.1,10.7,8.3c1.2,8.4,4.5,16.4,6.9,24.6
			C847.4,98.4,847.3,100.8,847.2,103.3z"/>
		<path class="st3" d="M494,117.4c9.2,0,18.4,0.1,27.6,0.1C512.4,119,503.2,119.2,494,117.4z"/>
		<path class="st3" d="M475.1,117.7c1.5,0,3.1,0,4.6,0C478.1,118.6,476.6,118.6,475.1,117.7z"/>
		<path class="st20" d="M469.5,189.8c-5.6,4.5-10.1,12.9-19.2,5.8c2.7-0.5,6.3,0,7.4-3.2C460.4,184.6,465,187.7,469.5,189.8z"/>
		<path class="st15" d="M451.9,160.7c-0.2-0.6-0.2-1.2,0.2-1.7C452.5,159.6,452.4,160.1,451.9,160.7z"/>
		<path class="st13" d="M540.6,79.1c0.8,1.1,1.6,2.2,2.3,3.4c0.3,2.1,1.5,3.5,3.5,4.1c1.3,4.1,2.9,8,7.4,9.7c0.8,5,4.2,8.2,8,11
			c3.3,5.7,2.4,8-4.8,7.8c-25.8-0.7-21.3,3.4-21.9-21.3c-0.1-3.8,0.1-7.6,0-11.4C535.1,77.9,537.3,77.7,540.6,79.1z"/>
		<path class="st13" d="M586.4,64.1c3.2,16.9,6.4,33.7,9.6,50.6c-22.5,0.6-18,1.2-18.6-17.4c-0.4-11.4,0.4-22.6,1.7-33.9
			C581.5,63.6,584,63.8,586.4,64.1z"/>
		<path class="st8" d="M50.1,107.4c8.7-2.6,15.4,1.9,22.9,5.2c10.4,4.5,21.8,0.2,32.7,0.9c-16.4,7.9-32.4,4-48.3-1.8
			C54.8,110.6,52.6,108.8,50.1,107.4z"/>
		<path class="st8" d="M17.8,53.9c0,7.7-0.1,15.4-0.1,23.1C12.3,69.3,12.6,61.6,17.8,53.9z"/>
		<path class="st8" d="M20.6,47.1c0.8-0.4,1.7-0.7,2.5-1.1c0.8,4.4,0.8,8.2-5.3,7.7C18.7,51.5,19.6,49.3,20.6,47.1z"/>
		<path class="st8" d="M17.5,77.2c5.2,0.4,4,4.2,4.1,7.4C19,82.7,18,80.1,17.5,77.2z"/>
		<path class="st8" d="M43.7,103.7c3-0.2,5.3,0.8,6.5,3.8C47.5,107.1,45.4,105.6,43.7,103.7z"/>
		<path class="st8" d="M21.6,84.5c2.5,0.2,3.7,1.5,3.7,4C23.4,87.8,22.3,86.4,21.6,84.5z"/>
		<path class="st8" d="M35,97.8c1.6,0.1,2.9,0.7,3.7,2.2C37.5,99.3,36.2,98.5,35,97.8z"/>
		<path class="st8" d="M105.9,113.7c0.7-2.4,2-2.2,3.4-0.6C108.2,113.3,107,113.5,105.9,113.7z"/>
		<path class="st8" d="M40.6,101.6c0.7,0.5,1.3,1.1,2,1.6C41.9,102.7,41.3,102.1,40.6,101.6z"/>
		<path class="st8" d="M38.6,99.8c0.7,0.6,1.4,1.3,2.1,1.9C40,101.1,39.3,100.4,38.6,99.8z"/>
		<path class="st8" d="M31,94c0.7,0.7,1.4,1.5,2,2.2C32.3,95.5,31.7,94.8,31,94z"/>
		<path class="st8" d="M28.3,92.2c1,0.7,1.9,1.3,2.9,2C30.2,93.5,29.3,92.8,28.3,92.2z"/>
		<path class="st8" d="M25.2,88.3c0.7,0.9,1.3,1.7,2,2.6C26.6,90,25.9,89.2,25.2,88.3z"/>
		<path class="st8" d="M152.9,60.3c-0.3,5-2.6,8.7-8,8.5c-3.8-0.1-9-1.7-8.2-6c0.9-4.6,4.9-9.2,10.2-9.8
			C151.1,52.7,152.5,56.5,152.9,60.3z"/>
		<path class="st8" d="M171.1,55.9c4,0,6.7,0.9,6.2,4.8c-0.4,3.3-1.8,6.4-5.8,6.2c-4.2-0.2-6.2-3.4-6.1-7.1
			C165.6,55.9,169.2,56.3,171.1,55.9z"/>
		<path class="st8" d="M179.7,99.9c-1.7,2.1-2.9,4.8-5.7,5.7c-0.1-1.2-0.4-2.4-0.4-3.6c0-2.5-4.8-5.2-1.4-7
			C175.9,92.9,177.9,97.1,179.7,99.9z"/>
		<path class="st8" d="M198.8,74.8c-0.4,4.6-2,8.6-5.5,11.8C192.8,81.6,194.4,77.6,198.8,74.8z"/>
		<path class="st8" d="M193.4,86.7c-1.2,3.1-3.2,5.6-6.1,7.4C187.2,89.9,188.2,86.5,193.4,86.7z"/>
		<path class="st8" d="M170.6,108.1c-2.6,1.1-5.2,2.3-7.8,3.4C164.3,108,165.1,102.7,170.6,108.1z"/>
		<path class="st8" d="M132.2,83.4c-0.3-0.4-0.6-0.8-0.9-1.2c0.2-0.2,0.7-0.5,0.7-0.4c0.4,0.4,0.6,0.8,1,1.2
			C132.7,83.1,132.4,83.2,132.2,83.4z"/>
		<path class="st8" d="M44.4,36.6c1.5,0.5,3.3,0.2,4.2,2C46.9,38.6,45.4,38,44.4,36.6z"/>
		<path class="st8" d="M23.4,46.1c0-1.3,0.5-2,1.8-2.1C24.6,44.8,24,45.4,23.4,46.1z"/>
		<path class="st8" d="M25.2,44.1c0.1-1.3,0.9-1.8,2.1-1.8C26.6,42.9,25.9,43.5,25.2,44.1z"/>
		<path class="st8" d="M27.3,42.4c0-1.3,0.7-1.9,2-1.9C28.6,41.2,27.9,41.8,27.3,42.4z"/>
		<path class="st8" d="M198.4,69.2c0.2,0.6,0.2,1.2,0.2,1.9c-0.2-0.4-0.5-0.8-0.6-1.3C198,69.7,198.3,69.4,198.4,69.2z"/>
		<path class="st5" d="M276.9,392.8c-0.1,0.6-0.1,1.1-0.1,1.7c-1.7,0.1-3.5,0.4-3.9-2C274.2,392.5,275.5,392.6,276.9,392.8z"/>
		<path class="st22" d="M285.9,348.7c1.4-4.1,4.1-7.2,7.9-9.3C293.9,344.8,291.6,348.2,285.9,348.7z"/>
		<path class="st22" d="M293.8,339.3c2-3.4,3.1-7.4,6.5-10C301.1,334.6,298.4,337.6,293.8,339.3z"/>
		<path class="st22" d="M280.5,352.6c0.6-1.7,2.2-1.8,3.6-2.1C283.8,352.7,283.5,355,280.5,352.6z"/>
		<path class="st5" d="M273.6,354.9c0,0-0.1,0-0.1,0C273.5,354.9,273.6,354.9,273.6,354.9z"/>
		<path class="st14" d="M444.7,194.3c0.1-0.8,0.3-1.6,0.4-2.4C444.9,192.8,444.8,193.6,444.7,194.3z"/>
		<path class="st26" d="M386.8,329.9c19.9-0.2,30.9,14.5,25.7,34.3c-1.3,5.1-5.1,9.5-4.6,15.2c0,0,0-0.1,0-0.1
			c-0.7,0.6-1.4,1.3-2.1,1.9c-13.8,8-22.3,7.4-29-1.9c-7.2-9.9-6-29.6,2.3-37.1c-0.5,6.4-3.9,13,1.1,19.1c1.1,1.4,3.1,1,4.2-0.4
			c3.7-4.9,2.8-10.8,2.9-16.4c0-1.2-0.5-2.5-1.1-3.6c-1.5-2.7-3.6-1.8-5.6-0.6c0.2-2.5,0.5-4.9,2.3-6.8c0.7-0.7,1.4-1.5,2.1-2.2
			C385.6,330.8,386.2,330.4,386.8,329.9z"/>
		<path class="st2" d="M380.5,340.2c2-1.2,4.1-2.1,5.6,0.6c0.6,1.1,1.2,2.4,1.1,3.6c-0.2,5.6,0.7,11.5-2.9,16.4
			c-1,1.4-3,1.8-4.2,0.4c-5-6-1.6-12.6-1.1-19.1C379.6,341.5,380,340.9,380.5,340.2z"/>
		<path class="st13" d="M405.9,381.2c0.7-0.6,1.4-1.3,2.1-1.9c-0.2,1.1-0.5,2.1-0.7,3.2c-0.5,0.1-1,0.3-1.5,0.5
			C405.8,382.4,405.8,381.8,405.9,381.2z"/>
		<path class="st13" d="M384.9,331.3c-0.7,0.7-1.4,1.5-2.1,2.2C383.5,332.7,384.2,332,384.9,331.3z"/>
		<path class="st26" d="M639.9,398.3c-0.6,0.6-1.3,1.2-1.9,1.9c-8.8,4.2-17.7,3.7-26.5-0.1c0.5-6.3-6.2-10.4-5.4-16.8
			c0.9-0.8,1.9-1.6,2.8-2.4c1.6,1.7,2.5,5.2,5.7,3c2.1-1.5,5.2-3.1,4.4-6.6c-0.8-3.8-0.8-7.5,0-11.2c1.6-1.9,0.6-3-1.3-3.7l-0.5,0
			l-0.2-0.5c0-4.3,0-8.7,0-13c7.7-5.5,15.3-3.6,22.9,0.1c0.6,0.6,1.2,1.3,1.9,1.9C649.9,366.9,649.9,382.8,639.9,398.3z"/>
		<path class="st13" d="M609,380.8c-0.9,0.8-1.9,1.6-2.8,2.4c-1.5-13.1,0-25.3,10.9-34.5c0,4.3,0,8.7,0,13c-4.9-0.9-6.8,2-7.3,6.2
			C609.3,372.2,609.3,376.5,609,380.8z"/>
		<path class="st22" d="M753.8,708.4c3.5,3.9,4.3,8.6,3.7,13.6C754.9,717.8,753.9,713.2,753.8,708.4z"/>
		<path class="st2" d="M609,380.8c0.3-4.3,0.3-8.6,0.8-12.9c0.5-4.1,2.4-7,7.3-6.2c0,0,0.2,0.5,0.2,0.5s0.5,0,0.5,0
			c0.4,1.2,0.9,2.5,1.3,3.7c-0.8,3.7-0.8,7.5,0,11.2c0.7,3.5-2.3,5.1-4.4,6.6C611.5,386,610.6,382.5,609,380.8z"/>
		<path class="st13" d="M619.1,365.9c-0.4-1.2-0.9-2.5-1.3-3.7C619.7,363,620.7,364,619.1,365.9z"/>
	</g>
</g>
</svg>
