<?xml version="1.0" encoding="utf-8"?>
<!-- Generator: Adobe Illustrator 21.1.0, SVG Export Plug-In . SVG Version: 6.00 Build 0)  -->
<svg version="1.1" xmlns="http://www.w3.org/2000/svg" xmlns:xlink="http://www.w3.org/1999/xlink" x="0px" y="0px"
	 viewBox="0 0 320 256" style="enable-background:new 0 0 320 256;" xml:space="preserve">
<style type="text/css">
	.st0{fill:#FF6648;}
	.st1{fill:#FFFFFF;}
</style>
<g id="Guides">
</g>
<g id="Layer_2">
	<rect id="XMLID_1_" class="st0" width="320" height="256"/>
	<g>
		<g>
			<path class="st1" d="M99.1,107c0.3-0.8,0.4-1,0.4-1.2c0.5-4.7,2-6.2,6.1-6.4c4.8-0.2,6.7,1.2,7.6,5.8c0.2,0.8,0.2,1.7,0.2,2.5
				c0,11.1,0,22.2,0,33.4c0,6-4,8.9-9.8,7.3c-2.5-0.7-3.7-2.4-4.1-4.9c-0.1-0.6,0.2-1.3-0.4-1.9c-0.5-0.1-0.8,0.3-1,0.6
				c-7.4,7.9-19.3,8.1-26.9,0.5c-9.6-9.5-9.4-27.5,0.4-36.8c6-5.7,13.2-6.7,20.9-4.3C95.2,102.4,97.3,104.3,99.1,107z M96,124.6
				c0-0.9,0.1-1.9,0-2.8c-0.4-4.6-3.1-7.4-7.4-7.8c-4.3-0.5-7.9,1.7-9.2,5.8c-1.1,3.6-1.1,7.3,0.5,10.8c1.6,3.4,4.4,5,8.1,4.9
				c3.6-0.1,5.9-2.1,7.3-5.3C95.9,128.4,96.1,126.5,96,124.6z"/>
			<path class="st1" d="M138.8,98.9c4.1-0.1,8.8,0.9,13,3.8c1.8,1.3,3.3,2.9,4.3,4.9c1.3,2.6,0.7,4.5-1.9,5.9
				c-2.9,1.6-5.6,1.5-8.2-0.6c-3-2.3-6.2-3.7-10.1-2.6c-1.5,0.4-3,1-3.2,2.8c-0.2,2,1.2,2.9,2.8,3.4c3.2,1.2,6.5,2.2,9.8,3.3
				c3.4,1.1,6.6,2.6,9.2,5c6.1,5.7,5.7,14.2-1,19.2c-8.2,6.1-23.6,6.3-32,0.4c-1.8-1.3-3.3-2.9-4.3-4.9c-1.3-2.7-0.7-5.6,1.3-7.1
				c2.4-1.7,5.8-1.6,7.9,0.5c2.3,2.3,4.8,4.2,8.1,4.8c2.3,0.4,4.5,0.5,6.7-0.2c1.5-0.4,2.6-1.1,2.8-2.8c0.2-1.8-0.8-2.9-2.3-3.5
				c-3-1.1-6-2.1-9-3.2c-3.4-1.2-6.7-2.6-9.7-4.7c-6.2-4.2-6.9-14.7-0.4-19.6C126.7,100.6,132.1,98.7,138.8,98.9z"/>
			<path class="st1" d="M176.1,128.9c0,3.5,0,6.7,0,9.9c0,1.3-0.1,2.7-0.3,4c-0.7,4.4-3,6.2-7.2,6c-3.9-0.2-6.2-2.6-6.3-6.8
				c-0.1-12.1-0.1-24.3,0-36.4c0.1-6,6-9,11.1-5.8c2.2,1.4,2.6,3.6,2.6,5.9c0.1,2.5,0,5,0,7.4c0.2,0.1,0.4,0.1,0.6,0.2
				c2.7-3,5.3-6,8-8.9c1-1.1,2.1-2.2,3.2-3.2c3-2.3,6.2-1.9,8.8,0.9c2.3,2.5,2.3,5.3-0.2,8.1c-2.6,3-5.3,5.9-8.1,8.7
				c-1.6,1.6-1.8,2.8-0.4,4.7c3.6,4.8,6.9,9.7,10.3,14.7c2.5,3.6,2.1,7.2-0.9,9.4c-3,2.2-6.9,1.4-9.4-2.2c-3.3-4.7-6.4-9.5-9.7-14.2
				C177.8,130.4,177.5,129.5,176.1,128.9z"/>
			<path class="st1" d="M256,126.7c-0.8,5.8-1.7,12.8-2.8,19.7c-0.3,2.2-4.7,3.4-6.4,1.9c-0.7-0.6-0.5-1.3-0.4-2.1
				c0.9-6.2,1.7-12.5,2.5-18.7c0.4-3-1.5-4.5-4.3-3.4c-2.1,0.8-3.5,2.2-3.8,4.6c-0.6,5.5-1.4,11-2.1,16.5c-0.4,3.3-3.3,4.8-6.2,3.4
				c-1.3-0.6-0.9-1.8-0.8-2.9c0.8-5.7,1.6-11.5,2.3-17.2c0.2-1.9,0.8-4.3-2.3-4.7c-2.5-0.3-5.3,1.8-5.7,4.3
				c-0.9,5.8-1.7,11.6-2.5,17.5c-0.4,2.7-4,4.4-6.3,2.9c-0.9-0.6-0.7-1.6-0.6-2.6c0.8-5.7,1.5-11.5,2.3-17.2
				c0.1-0.6,0.2-1.2,0.3-1.7c0.5-4,0.2-3.2-3.2-3.4c-2-0.1-2.4,1.1-2.6,2.6c-0.9,6.2-1.7,12.5-2.6,18.7c-0.4,2.8-1.1,5.4-2.6,7.9
				c-2,3.3-5,4.9-8.9,4.7c-1.4-0.1-2.4-0.7-2.8-2.1c-0.3-1.4,0.2-2.7,1.4-3.2c4.5-1.7,5.8-5.5,6.3-9.8c0.7-5.5,1.5-11,2.3-16.5
				c0.2-1.4,0.2-2.4-1.6-2.4c-1.3,0-1.7-0.8-1.6-2c0.1-1.3,0.2-2.8,1.8-2.8c2.2,0,2.5-1.2,2.9-2.9c1.4-6,8.3-9.7,14.3-7.9
				c1.4,0.4,1.6,1.3,1.4,2.5c-0.2,1.3-0.2,2.8-2.1,2.9c-1,0-2,0-3,0c-1.5,0-2.5,0.8-3.3,2.1c-1.3,2.2-0.8,3.2,1.8,3.3
				c2.2,0,4.4,0,6.6,0c0.7,0,1.8-0.2,2.1,0.6c0.9,2.2,1.9,1.1,3.1,0.4c3.8-2.4,8-1.9,11.1,1.2c0.9,0.9,1.4,0.5,2.1-0.1
				c2.2-1.8,4.7-2.8,7.7-2.6C254.3,118.4,256.1,120.5,256,126.7z"/>
		</g>
	</g>
	<g>
	</g>
	<g>
	</g>
	<g>
	</g>
	<g>
	</g>
	<g>
	</g>
	<g>
	</g>
	<g>
	</g>
	<g>
	</g>
	<g>
	</g>
	<g>
	</g>
	<g>
	</g>
	<g>
	</g>
	<g>
	</g>
	<g>
	</g>
	<g>
	</g>
</g>
</svg>
