<?xml version="1.0" encoding="utf-8"?>
<!-- Generator: Adobe Illustrator 19.0.0, SVG Export Plug-In . SVG Version: 6.00 Build 0)  -->
<svg version="1.1" xmlns="http://www.w3.org/2000/svg" xmlns:xlink="http://www.w3.org/1999/xlink" x="0px" y="0px"
	 viewBox="0 0 320 256" style="enable-background:new 0 0 320 256;" xml:space="preserve">
<style type="text/css">
	.st0{fill:#323131;}
	.st1{fill:#FFFFFF;}
</style>
<g id="Guides">
</g>
<g id="Layer_2">
	<rect id="XMLID_1_" class="st0" width="320" height="256"/>
	<path id="Cat_2_" class="st1" d="M194.8,224h-25.6h-25.6c0,0,0-15.4,0-25.6c-35.2,7.7-44.8-19.2-44.8-19.2
		C92.4,166.4,86,160,86,160c-12.8-7.7,0-6.4,0-6.4c12.8,0,19.2,12.8,19.2,12.8c11.5,19.2,31.4,16,38.4,12.8c0-6.4,2.6-16,6.4-19.2
		c-28.2-3.2-51.2-19.2-51.2-51.2s6.4-38.4,12.8-44.8c-1.3-3.2-6.4-14.7,0-32c0,0,12.8,0,25.6,19.2c6.4-6.4,25.6-6.4,32-6.4
		c6.4,0,25.6,0,32,6.4C214,32,226.8,32,226.8,32c7,17.3,1.3,28.8,0,32c6.4,6.4,12.8,12.8,12.8,44.8s-23,48-51.2,51.2
		c3.8,3.2,6.4,14.1,6.4,19.2L194.8,224L194.8,224z"/>
</g>
</svg>
