<?xml version="1.0" encoding="utf-8"?>
<!-- Generator: Adobe Illustrator 19.0.0, SVG Export Plug-In . SVG Version: 6.00 Build 0)  -->
<svg version="1.1" xmlns="http://www.w3.org/2000/svg" xmlns:xlink="http://www.w3.org/1999/xlink" x="0px" y="0px"
	 viewBox="0 0 320 256" style="enable-background:new 0 0 320 256;" xml:space="preserve">
<style type="text/css">
	.st0{fill:#DA4B42;}
	.st1{fill:#FFFFFF;}
</style>
<g id="Guides">
</g>
<g id="Layer_2">
	<rect id="XMLID_1_" class="st0" width="320" height="256"/>
	<g id="XMLID_246_">
		<g id="XMLID_30_">
			<path id="XMLID_31_" class="st1" d="M124.9,115.9v24.2c0,0,23.4,0,33,0c-5.2,15.6-13.2,24.2-33,24.2c-20,0-35.6-16.2-35.6-36.2
				s15.6-36.2,35.6-36.2c10.6,0,17.4,3.7,23.7,8.9c5-5,4.6-5.7,17.4-17.8C155.2,73,140.8,67,125,67c-33.7,0-61,27.3-61,61
				s27.3,61,61,61c50.3,0,62.6-43.8,58.5-73C171.6,115.9,124.9,115.9,124.9,115.9z M234.9,117.1V96h-15.1v21.1h-21.7v15.1h21.7v21.7
				h15.1v-21.7H256v-15.1H234.9z"/>
		</g>
	</g>
</g>
</svg>
