<?xml version="1.0" encoding="utf-8"?>
<!-- Generator: Adobe Illustrator 19.0.0, SVG Export Plug-In . SVG Version: 6.00 Build 0)  -->
<svg version="1.1" xmlns="http://www.w3.org/2000/svg" xmlns:xlink="http://www.w3.org/1999/xlink" x="0px" y="0px"
	 viewBox="0 0 320 256" style="enable-background:new 0 0 320 256;" xml:space="preserve">
<style type="text/css">
	.st0{fill:#B90000;}
	.st1{fill:#FFFFFF;}
</style>
<g id="Guides">
</g>
<g id="Layer_2">
	<rect id="XMLID_1_" class="st0" width="320" height="256"/>
	<path id="path2988" class="st1" d="M226.4,117.6c-1.7-0.6-3.3-1.1-4.9-1.6c-12-3.8-19.2-6-19.2-15.3c0-7.5,5.8-13,13.8-13
		c6.1,0,10.7,2.5,14.8,8.3c0.4,0.5,1.1,0.7,1.7,0.4l12.1-6.2c0.3-0.2,0.6-0.5,0.7-0.8c0.1-0.4,0.1-0.7-0.1-1
		c-6.5-11.5-15.8-17.1-28.5-17.1c-19.3,0-31.8,11.7-31.8,29.8c0,18.5,12.1,26,34.4,33.3c12.9,4.3,18.6,6.6,18.6,15.8
		c0,10.3-9.3,17.8-22,17.3c-13.3-0.4-17.4-7.5-22.4-19.1c-8.6-19.6-18.4-42.5-18.5-42.7c-9.8-22.6-29.3-35.6-53.4-35.6
		C89.9,70.2,64,96.2,64,128c0,31.8,25.9,57.7,57.7,57.7c17.4,0,33.6-7.7,44.7-21.1c0.3-0.4,0.4-0.9,0.2-1.4l-7.3-16.8
		c-0.2-0.5-0.7-0.8-1.2-0.8c-0.5,0-1,0.3-1.2,0.7c-6.9,13.1-20.3,21.3-35.2,21.3c-21.9,0-39.6-17.8-39.6-39.6
		c0-21.9,17.8-39.6,39.6-39.6c15.9,0,30.5,9.4,36.3,23.5l18,41.1l2.1,4.6c8.1,19,20.1,27.5,38.8,27.5c22.3,0,39.1-14.8,39.1-34.3
		C256,131.1,245.1,123.8,226.4,117.6L226.4,117.6z"/>
</g>
</svg>
