<?xml version="1.0" encoding="utf-8"?>
<!-- Generator: Adobe Illustrator 21.1.0, SVG Export Plug-In . SVG Version: 6.00 Build 0)  -->
<svg version="1.1" xmlns="http://www.w3.org/2000/svg" xmlns:xlink="http://www.w3.org/1999/xlink" x="0px" y="0px"
	 viewBox="0 0 320 256" style="enable-background:new 0 0 320 256;" xml:space="preserve">
<style type="text/css">
	.st0{fill:#314358;}
	.st1{fill:#FFFFFF;}
</style>
<g id="Guides">
</g>
<g id="Layer_2">
	<rect id="XMLID_1_" class="st0" width="320" height="256"/>
	<path class="st1" d="M124.3,110c-6.5,0-12.9,0-19.3,0c0-0.6-0.1-1-0.1-1.4c0-7.4,0-14.8,0-22.2c0-1.3,0-1.3,1.3-1.8
		c5-2,9.8-4.5,14.1-7.8c7.5-5.7,12.9-13,16.7-21.6c2.9-6.5,4.6-13.3,5.5-20.3c0.1-0.5,0.1-1,0.2-1.5c0.2-1,0.7-1.4,1.6-1.5
		c0.3,0,0.6,0,0.9,0c8.5,0,17.1,0,25.6,0c0.4,0,0.9,0,1.5,0c0,3.4,0,6.6,0,9.8c0,3.2,0,6.5,0,9.7s0,6.5,0,9.7c0,3.2,0,6.5,0,9.7
		c0,3.2,0,6.5,0,9.9c0.6,0,1.1,0,1.6,0c11.7,0,23.4,0,35.1,0c0.5,0,1,0,1.6,0c0,9.8,0,19.4,0,29.1c-12.8,0-25.6,0-38.4,0
		c0,0.5-0.1,0.9-0.1,1.3c0,19.4,0,38.7,0,58.1c0,3.2,0.4,6.3,1.6,9.3c2.1,5.5,6.1,8.6,11.8,9.5c3.8,0.6,7.5,0.3,11.3-0.3
		c3.1-0.6,6.2-1.3,9.2-2.6c0.2,0.4,0.3,0.8,0.5,1.2c2.8,8.4,5.6,16.8,8.5,25.2c0.3,0.9,0.1,1.5-0.5,2.2c-2,1.9-4.3,3.2-6.8,4.4
		c-6.3,2.9-13,4.7-20,5.4c-9.3,1-18.5,0.4-27.4-2.5c-17.3-5.5-28.5-17.1-33.9-34.3c-1.5-4.8-2.2-9.8-2.2-14.9c0-20,0-40.1,0-60.1
		C124.3,111.3,124.3,110.7,124.3,110z"/>
	<g>
	</g>
	<g>
	</g>
	<g>
	</g>
	<g>
	</g>
	<g>
	</g>
	<g>
	</g>
	<g>
	</g>
	<g>
	</g>
	<g>
	</g>
	<g>
	</g>
	<g>
	</g>
	<g>
	</g>
	<g>
	</g>
	<g>
	</g>
	<g>
	</g>
</g>
</svg>
