<svg id="Capa_1" data-name="Capa 1" xmlns="http://www.w3.org/2000/svg" width="128" height="128" viewBox="0 0 128 128"><title>liviano</title><path d="M32.41,56.25c4.16-.22,8.29-.82,12.5-1.45A113.59,113.59,0,0,1,63.1,53.11c.78,0,1.5,0,2.24.05,4.57,5.48,9.77,6.9,16.2,6.66-3.6-1.29-7.85-3.62-9.36-6.25,6.91.67,17,2.52,21.62,7.76,2.35-.5,2.46-.48,5.2-1.19-6-9.95-24.2-11.78-35.85-11.89A117.7,117.7,0,0,0,44.2,50C31.95,51.82,21.36,53.4,9,45.71L3.9,42.57l1.43,5.78c1.34,5.43,4.84,11.06,10.12,16.28,8.08,8,19.51,14.28,31.9,17.77l0,.08.07-.05a81.77,81.77,0,0,0,11.45,2.38c22.77,3,38-5.15,41.16-14.45,9-2.41,17-6.29,24-13.23-18.64,5.91-32.38,12-70,8,7.28,4.66,23.72,8.85,39.89,6.5C89.24,77.68,76.28,82.19,59.54,80c-2.12-.28-4.23-.66-6.32-1.12,4.09-2.12,3-1.66,9.4-4-6-.14-9.76-.35-17.73,1.63a74.38,74.38,0,0,1-16.32-7.73S14.5,61.63,8.5,49.38C8.5,49.38,14.45,55.37,32.41,56.25Z" style="fill:#2196f3"/></svg>