<svg xmlns="http://www.w3.org/2000/svg" width="128" height="128" viewBox="0 0 128 128"><title>sencillo</title><g id="Layer_2" data-name="Layer 2"><path d="M91.55,40.47a18.2,18.2,0,0,0-25.73,0L64,42.28,62.2,40.46A18.18,18.18,0,1,0,36.49,66.17L62.66,92.33a1.87,1.87,0,0,0,2.65,0L91.53,66.22a18.23,18.23,0,0,0,0-25.75ZM88.88,63.56,64,88.36,39.14,63.52a14.42,14.42,0,1,1,20.4-20.4l3.15,3.15a1.88,1.88,0,0,0,2.66,0l3.12-3.12A14.43,14.43,0,0,1,88.88,63.56Z" style="fill:#2196f3;stroke:#2196f3;stroke-miterlimit:10;stroke-width:1.6697323322296143px"/></g></svg>